<svg xmlns="http://www.w3.org/2000/svg">
<defs>
<font id="UTMGuanine" horiz-adv-x="1423" >
  <font-face 
    font-family="UTM Guanine"
    font-weight="400"
    font-stretch="normal"
    units-per-em="2048"
    panose-1="2 4 6 3 5 5 6 2 2 4"
    ascent="1638"
    descent="-410"
    x-height="1272"
    cap-height="1720"
    bbox="-247.25 -492 4942 2800"
    underline-thickness="109"
    underline-position="-143"
    unicode-range="U+0020-U+2026"
  />
<missing-glyph horiz-adv-x="5040" 
d="M3351 2045h10q37 -10 37 -52q0 -12 -32 -57h-28q0 24 28 54l2 10q-5 13 -10 15h-9q-8 0 -10 -19h-30q6 49 42 49zM2019 2016l29 -31q0 -16 -40 -30h-19l-59 12l-11 -12l-28 25q11 29 43 29h11l42 -11h2q10 0 30 18zM468 1980h142v-60h-94v-75h89v-59h-89v-129l-5 -5h-49
v323zM1155 1980h43l6 -5v-78h30v-52h-30v-188l-6 -5h-49v193h-25v52h25v78zM1621 1980h42l4 -5v-94h3q23 24 54 24h2q58 0 83 -71l2 -39v-143h-52v115q0 80 -42 80h-7q-43 0 -43 -86v-109h-51v323zM2200 1980h49l5 -5v-222q10 -51 45 -51q44 7 44 59v214l5 5h49v-216
q0 -85 -66 -112q-15 -8 -35 -8q-47 0 -82 55q-14 24 -14 57v224zM2435 1980h159v-60h-56v-268h-53v268h-55v55zM2621 1980h71q7 -4 83 -251h2l80 251h73v-328h-54v242h-2l-74 -242h-44q-4 0 -58 182l-19 60h-3v-242h-55v328zM3760 1980h52v-328h-45l-5 5v11l3 2l-3 14
q-29 -40 -78 -40q-67 0 -100 91l-5 39v3q0 94 92 125l23 3q35 0 63 -32h3v107zM2057 1928h36l4 -6v-49h-45v-221h-48v23q-23 -31 -59 -31q-89 14 -89 97v156h51v-104q0 -79 26 -86l18 -5h6q26 0 39 36l3 26v133h53v25zM3476 1928v-55h-31v-221h-47v25h-2q-15 -33 -57 -33
q-68 0 -86 78l-3 29v146h52v-120q0 -50 19 -68l21 -7h9q42 0 42 69v126h27q4 0 4 28l3 3h49zM758 1905q68 0 103 -77q9 -18 12 -54q0 -88 -90 -127l-32 -3q-63 0 -101 73q-12 22 -12 52v10q0 94 101 126h19zM1011 1905h3q74 0 83 -101v-152h-51v119q0 76 -42 76h-5
q-44 0 -44 -76v-119h-52v245h46v-21q30 29 62 29zM1466 1905h7q72 0 105 -89h-60q-16 31 -42 31h-17q-53 -14 -53 -61l-3 -15q12 -69 61 -69h9q22 0 47 27h40l2 3h3l2 -3l2 3l3 -3l2 3l2 -7q-33 -81 -110 -81q-76 0 -110 94l-4 36v3q0 85 77 120q15 8 37 8zM3141 1905h2

<glyph glyph-name=".notdef" horiz-adv-x="5040" 
d="M3351 2045h10q37 -10 37 -52q0 -12 -32 -57h-28q0 24 28 54l2 10q-5 13 -10 15h-9q-8 0 -10 -19h-30q6 49 42 49zM2019 2016l29 -31q0 -16 -40 -30h-19l-59 12l-11 -12l-28 25q11 29 43 29h11l42 -11h2q10 0 30 18zM468 1980h142v-60h-94v-75h89v-59h-89v-129l-5 -5h-49
v323zM1155 1980h43l6 -5v-78h30v-52h-30v-188l-6 -5h-49v193h-25v52h25v78zM1621 1980h42l4 -5v-94h3q23 24 54 24h2q58 0 83 -71l2 -39v-143h-52v115q0 80 -42 80h-7q-43 0 -43 -86v-109h-51v323zM2200 1980h49l5 -5v-222q10 -51 45 -51q44 7 44 59v214l5 5h49v-216
q0 -85 -66 -112q-15 -8 -35 -8q-47 0 -82 55q-14 24 -14 57v224zM2435 1980h159v-60h-56v-268h-53v268h-55v55zM2621 1980h71q7 -4 83 -251h2l80 251h73v-328h-54v242h-2l-74 -242h-44q-4 0 -58 182l-19 60h-3v-242h-55v328zM3760 1980h52v-328h-45l-5 5v11l3 2l-3 14
q-29 -40 -78 -40q-67 0 -100 91l-5 39v3q0 94 92 125l23 3q35 0 63 -32h3v107zM2057 1928h36l4 -6v-49h-45v-221h-48v23q-23 -31 -59 -31q-89 14 -89 97v156h51v-104q0 -79 26 -86l18 -5h6q26 0 39 36l3 26v133h53v25zM3476 1928v-55h-31v-221h-47v25h-2q-15 -33 -57 -33
q-68 0 -86 78l-3 29v146h52v-120q0 -50 19 -68l21 -7h9q42 0 42 69v126h27q4 0 4 28l3 3h49zM758 1905q68 0 103 -77q9 -18 12 -54q0 -88 -90 -127l-32 -3q-63 0 -101 73q-12 22 -12 52v10q0 94 101 126h19zM1011 1905h3q74 0 83 -101v-152h-51v119q0 76 -42 76h-5
q-44 0 -44 -76v-119h-52v245h46v-21q30 29 62 29zM1466 1905h7q72 0 105 -89h-60q-16 31 -42 31h-17q-53 -14 -53 -61l-3 -15q12 -69 61 -69h9q22 0 47 27h40l2 3h3l2 -3l2 3l3 -3l2 3l2 -7q-33 -81 -110 -81q-76 0 -110 94l-4 36v3q0 85 77 120q15 8 37 8zM3141 1905h2
q49 0 70 -60v-14h-52q0 16 -16 16h-4q-14 0 -19 -13v-13q0 -9 68 -35q30 -19 30 -59q0 -58 -61 -80l-23 -3q-76 12 -76 83h54q0 -20 27 -25h4q19 0 24 23q0 22 -68 44q-34 27 -34 59q0 66 74 77zM4203 1905q55 0 77 -63q7 -18 7 -65v-125h-52v112q0 83 -40 83h-11
q-33 0 -40 -54v-141h-52v5h-2l2 2v238h47v-21q25 29 64 29zM4432 1905h5q40 0 69 -40v18l-3 3l3 11h47v-208q0 -97 -85 -132l-33 -4h-7q-70 0 -104 80h59q24 -22 45 -23h13q22 0 43 22q15 13 22 52h-3q-32 -40 -73 -40q-57 0 -96 70q-10 18 -14 63q0 88 87 125zM3851 1897
h53v-136q6 -59 40 -59h7q46 0 46 93v102h51v-245h-47l-3 10h3l-3 3v5l3 2v3h-4q0 -23 -57 -31h-3q-59 0 -84 75l-2 85v93zM690 1771q10 -69 63 -69h7q59 14 59 65v15q-13 65 -59 65h-5q-58 0 -65 -76zM3630 1774q13 -72 61 -72h5q58 0 66 75q0 49 -51 70h-22q-37 0 -56 -57z
M4374 1774q8 -72 65 -72h5q59 12 59 72q0 61 -59 73h-14q-56 -16 -56 -62v-11zM3928 1620h52v-57h-52v57zM1054 1402q43 -11 43 -49v-4q0 -17 -32 -60h-28q0 25 31 57v7q0 12 -7 15h-12q-10 -4 -10 -19h-28v6q0 32 33 44zM3349 1339q92 0 138 -99h-60q-37 42 -80 42
q-55 0 -87 -68q-10 -22 -10 -47q0 -78 81 -110l18 -1q36 0 75 39h61q-44 -97 -138 -97q-93 0 -141 112q-10 31 -10 62q0 97 90 152q29 15 63 15zM3664 1339q57 0 103 -47q46 -51 46 -115v-20q0 -89 -91 -146q-33 -13 -63 -13q-89 0 -138 101q-13 33 -13 60v18q0 98 98 151
q29 11 58 11zM2261 1337h2l47 -11h3q11 0 26 11l18 -36q-18 -19 -35 -19h-3l-54 10l-20 -7l-20 36q18 16 36 16zM716 1334h19q118 0 129 -26q25 -26 25 -62q-10 -57 -30 -57v-6q47 -23 47 -66v-18q0 -63 -69 -88l-54 -5h-67v328zM2550 1334h53v-217q6 -61 45 -61q29 0 44 39
l3 30v203l4 6h45l5 -6v-171q0 -118 -40 -133q-24 -26 -64 -26q-55 0 -91 76l-4 54v206zM2805 1334h59q4 0 122 -237h4v237h50l4 -6v-322h-58q-29 48 -125 238h-3v-238h-53v328zM3101 1334h54v-328h-54v328zM3859 1334h8q155 0 174 -40q23 -11 47 -75l4 -36v-11l3 -2
q0 -94 -82 -149q-35 -15 -99 -15h-55v328zM4141 1334h153v-60h-103v-75h101v-57h-101v-74l4 -5h99v-57h-157v322zM3563 1175v-10q0 -76 79 -108l19 -1q68 0 96 86l3 20v15q0 61 -60 94q-12 8 -39 11q-66 0 -96 -83zM770 1274v-67h9q54 0 54 28l3 14q-11 25 -29 25h-37z
M3912 1274v-206l2 -3v-2q104 0 122 76l2 15v29q0 34 -32 68q-25 23 -78 23h-16zM1041 1259h5q38 0 71 -40v32h49v-245h-49v32q-36 -40 -80 -40q-75 0 -101 97l-5 36q0 89 85 125zM1314 1259h3q74 0 83 -102v-151h-51v128q0 67 -42 67h-10q-34 0 -39 -62v-133h-52v245h47v-21
q28 29 61 29zM1543 1259h5q45 0 71 -40v32h47v-219q0 -95 -104 -126h-16q-74 0 -108 82h59q26 -25 44 -25h14q52 0 64 77q-33 -42 -76 -42q-60 0 -101 81l-7 44v16q0 79 85 117zM1912 1259h2q43 0 61 -37h2q32 37 69 37h4q57 0 79 -55q8 -25 8 -45v-153h-52v138q0 44 -23 55
l-12 2h-15q-32 0 -36 -65v-130h-52v136q0 59 -43 59h-8q-32 0 -36 -57v-138h-54v245h50v-21h2q6 24 54 29zM2282 1259q47 0 75 -42v34h47v-245h-47v32q-36 -40 -78 -40q-74 0 -102 92l-6 41q0 90 85 125zM985 1117q0 -48 61 -61h4q45 0 62 46l3 15v22q-12 62 -57 62h-14
q-41 0 -59 -57v-27zM1487 1128q0 -48 43 -68l18 -4h5q47 0 63 57v23q-11 65 -58 65h-12q-50 0 -59 -73zM2225 1131v-14q15 -61 57 -61h14q58 12 58 64v11q0 45 -37 65l-18 5h-10q-64 -8 -64 -70zM770 1150v-82q0 -5 7 -5q77 0 77 45q0 34 -47 42h-37zM2966 753l24 -28
l-51 -55q-18 12 -27 26zM1524 727l85 -54q0 -15 -21 -42l-87 54q18 41 23 42zM2850 693h38l55 -60h-54l-21 26l-23 -26h-54q54 60 59 60zM3422 693h40l56 -60h-54l-24 26h-1q0 -5 -19 -26h-54zM622 685h52q8 -4 47 -137l34 -110q9 8 34 100l48 147h54v-2l-112 -326h-44z
M1159 685h51v-54h-51v54zM1354 685h46l6 -5v-323h-52v328zM2317 685h45l4 -5v-78h31v-52h-31v-193h-53v193h-26v52h26v78zM2425 685h52v-98h2q23 23 54 23h3q57 0 81 -71l3 -38v-144h-52v115q0 81 -39 81h-10q-42 0 -42 -87v-109h-52v328zM2664 685h52v-54h-52v54zM3028 685
h44l6 -5v-78h29v-52h-29v-193h-54v193h-27v52h27v78zM3234 685h52v-328h-52v328zM3957 685h52v-328h-52v328zM4316 685h51v-54h-51v54zM1555 610h5q83 0 110 -102l3 -23v-11q0 -83 -85 -120l-35 -5q-76 0 -111 97l-4 32q0 97 93 130zM1811 610h4q53 0 78 -60q7 -25 7 -81
v-112h-54v146q-7 50 -37 50h-10q-38 0 -42 -57v-139h-54v245h49v-21q26 29 59 29zM2046 610h4q45 0 63 -39h3v31h49v-206q0 -102 -89 -135l-28 -3h-5q-73 0 -106 81h52l37 -20l15 -3h14q50 0 61 72q-33 -39 -73 -39q-62 0 -98 76q-11 23 -12 60q0 85 86 123zM2866 610h2
q82 0 111 -104l2 -25l-2 -27h-172q15 -45 45 -45l14 -3q29 0 49 22h57v-3q-35 -76 -108 -76q-77 0 -111 97l-1 28v8q0 49 32 89q34 39 82 39zM3429 610h5q41 0 70 -39h2v31h47v-245h-47v31h-2q-35 -39 -77 -39q-71 0 -101 89l-5 36v14q0 86 84 120zM3711 610h7
q88 0 107 -128l-2 -1v-15q0 -65 -66 -106q-21 -11 -46 -11q-34 0 -64 32v-99l-5 -5h-49v325h49v-28q31 36 69 36zM4151 610q44 0 75 -39v31h49v-245h-49v31q-35 -39 -77 -39q-92 0 -108 132q0 84 73 121q15 8 37 8zM922 602h50v-136q3 -60 42 -60h5q44 0 44 87v109h52v-245
h-47v24h-5q0 -23 -56 -32h-3q-55 0 -82 68q-4 35 -4 99v81zM1159 602h51v-245h-51v245zM2664 602h52v-245h-52v245zM4316 602h51v-245h-51v245zM1492 488v-16q13 -66 59 -66h4q59 0 66 76q-13 71 -59 71h-11q-59 -16 -59 -65zM1987 472q15 -66 59 -66h11q48 0 59 75v1
q-13 71 -59 71h-14q-39 0 -56 -57v-24zM2805 506h122v2q-16 45 -59 45h-7q-35 0 -56 -47zM3373 474q13 -68 61 -68h5q52 0 65 63v12q-10 72 -57 72h-16q-56 -14 -56 -63zM3642 478q12 -72 61 -72h3q50 0 65 60v22q0 43 -49 65h-22q-47 0 -58 -72v-3zM4095 472q10 -66 66 -66
q43 0 61 48l2 15v16q0 54 -52 68h-18q-42 0 -59 -60v-21zM3416 321h51v-52h-51v52zM4137 321h51v-52h-51v52zM2733 133h4q35 0 43 -50v-2q0 -16 -24 -41l-10 -17h-28q0 25 28 56l3 2v2q-3 19 -9 19h-10q-8 0 -9 -19h-30q6 50 42 50zM1546 116l52 -60l-26 -19l-52 52zM352 79
h4q75 -48 85 -60l-20 -37q-88 49 -88 58zM3490 79l86 -58l-18 -39q-10 0 -91 55q15 36 23 42zM4578 76l19 -42l-91 -52l-20 39l92 58v-3zM1204 53h51v-19l5 -5h14v-36h-14l-5 -5v-279h-46v31q-34 -40 -81 -40q-72 0 -102 105l-3 26q0 102 101 131h14q33 0 66 -33v59l-6 5
h-43v36h49v24zM1480 45h40l56 -61h-53l-23 27l-23 -27h-53zM2641 45h33q12 0 63 -61h-54l-23 27q-19 -21 -19 -27h-58v4zM49 37h160v-60h-56v-268h-50l-4 5v245l2 3v2l-2 2l2 3l-2 2l2 3l-2 3h-54v54zM699 37h47v-73l2 -2l-2 -3v-3l2 -2l-2 -3v-3l2 -2v-2l-2 -3l2 -3h3
q17 24 51 24h3q53 0 77 -58q7 -17 7 -42v-153h-52v127q0 68 -40 68h-8q-43 0 -43 -86v-109h-52v322zM1297 37h47l5 -6v-49h-52v55zM1987 37h52v-198l70 115h62l-78 -118l90 -125v-2h-70q-10 22 -74 115v-115h-52v328zM2271 37v-99q24 24 53 24q57 0 80 -56q10 -19 10 -77
v-120h-54v133q0 62 -41 62h-11q-31 0 -37 -55v-140h-53v314l-1 3v3l1 2l-1 3l1 3h53zM2458 37h51v-55h-51v55zM3148 37h51v-108q27 33 68 33h3q75 0 105 -94l5 -37q0 -75 -64 -120q-30 -11 -49 -11q-41 0 -72 40v-31h-47v328zM4275 37h52v-99h2q23 24 54 24h3q60 0 82 -74
l2 -41v-138h-52v111q0 82 -32 82l-10 2h-12q-37 0 -37 -80v-115h-52v328zM329 -38h3v-58h-5q-42 0 -42 -57v-138h-53v245h47v-21q18 29 50 29zM564 -38q71 0 86 -87v-166h-51v136q-6 59 -41 59h-6q-45 0 -45 -84v-111h-52v245h50v-21q25 29 59 29zM1504 -38q72 0 105 -94
l5 -39q-2 -24 -7 -24h-169q17 -47 62 -47q24 0 48 21h57q-33 -79 -108 -79q-82 0 -113 105v37q0 81 89 117zM2657 -38h5q77 0 107 -97l3 -26v-21l-3 -13h-170q18 -47 53 -47h12q21 0 42 21h59q-34 -79 -105 -79q-84 0 -115 102l-2 29q0 93 91 128zM2915 -38h4q54 0 78 -60
q7 -25 7 -82v-111h-54v138q0 48 -35 57h-11q-38 0 -43 -57v-138h-54v245h50v-21q25 29 58 29zM3508 -38h6q40 0 70 -40h2v32h47v-245h-47v31h-2q-34 -40 -78 -40q-71 0 -101 90l-4 37v12q0 82 77 117q11 6 30 6zM3781 -38h4q62 0 82 -78l3 -84v-91h-54v138q0 48 -38 57h-9
q-38 0 -42 -52v-143h-54v245h49v-21q26 29 59 29zM4133 -38h1q74 0 104 -93l4 -40q0 -88 -84 -126l-25 -3q-41 0 -68 34v-106h-52v326h47v-29q30 37 73 37zM4714 -38h5q34 0 63 -37q27 37 69 37h6q56 0 79 -66l6 -51v-136h-52v122q0 73 -39 73h-7q-35 0 -41 -50v-140l-5 -5
h-48v140q0 42 -31 55h-17q-40 0 -40 -77v-118h-51v245h47v-21q22 29 56 29zM359 -46h49l5 -6v-234l-5 -5h-49v245zM1297 -46h52v-245h-52v245zM1649 -46h52v-136q4 -60 43 -60h4q44 0 44 81v115h52v-245h-47v24h-5q-12 -33 -59 -33q-52 0 -79 63q-5 12 -5 34v157zM2458 -46
h51v-245h-51v245zM4515 -46h51v-245h-51v245zM1077 -169q0 -53 51 -73h12q54 0 66 66v10q0 53 -54 70h-17q-38 0 -58 -57v-16zM1438 -143h122q-18 47 -53 47h-7q-43 0 -62 -44v-3zM2599 -143h122q-21 47 -54 47h-7q-46 0 -61 -47zM3196 -158v-11q10 -73 61 -73h5q64 8 64 71
v5q0 45 -38 65l-18 5h-14q-60 -14 -60 -62zM3452 -173q14 -69 62 -69h11q41 0 59 60v13q-8 73 -56 73h-17q-47 0 -59 -73v-4zM4062 -158v-22q0 -47 59 -62h9q50 0 61 76q-13 70 -58 70h-15q-56 -17 -56 -62z" />
    <glyph glyph-name=".null" horiz-adv-x="0" 
 />
    <glyph glyph-name="nonmarkingreturn" horiz-adv-x="571" 
 />
    <glyph glyph-name="space" unicode=" " horiz-adv-x="409" 
 />
    <glyph glyph-name="exclam" unicode="!" horiz-adv-x="591" 
d="M83 195q0 43 16.5 80.5t45.5 66.5t66.5 45t80.5 16t81 -16t67 -45t45 -66.5t16 -80.5t-16 -81t-45 -67t-67 -45t-81 -16t-80.5 16t-66.5 45t-45.5 67t-16.5 81zM229 492q-4 241 -86 583q-80 332 -39 508q39 168 192 168q154 0 193 -165t-47 -511q-84 -364 -84 -583h-129z
" />
    <glyph glyph-name="quotedbl" unicode="&#x22;" horiz-adv-x="782" 
d="M524 1126q-4 121 -56 287q-51 160 -26 250q28 84 123 84q98 0 122.5 -83t-30.5 -251q-53 -178 -53 -287h-80zM175 1126q-4 121 -55 287q-51 160 -26 250q28 84 122 84q99 0 123.5 -83t-30.5 -251q-54 -178 -54 -287h-80z" />
    <glyph glyph-name="numbersign" unicode="#" horiz-adv-x="1357" 
d="M549 780h229l29 113h-229zM645 1147h229l84 317h170l-84 -317h271l-66 -254h-272l-29 -113h269l-64 -254h-272l-82 -315h-168l80 315h-230l-80 -315h-170l80 315h-268l66 254h272l29 113h-271l66 254h272l84 317h168z" />
    <glyph glyph-name="dollar" unicode="$" horiz-adv-x="1048" 
d="M467 295q-98 8 -182 43q-119 49 -180.5 153.5t12.5 256.5l209 -82q-86 -39 -64 -123q25 -80 135 -119q111 -37 217 -18q111 18 138 94q30 78 -64 147q-47 35 -124 64.5t-183 56.5q-211 51 -275 180q-61 133 -16 250q47 123 140.5 177.5t236.5 56.5v190h78v-192
q69 0 174 -44q104 -38 164 -153l-121 -68q-90 142 -215 156q-127 14 -172 -31q-45 -39 2 -98q47 -55 274.5 -120.5t296.5 -215.5q70 -139 29 -287q-39 -137 -162 -204q-121 -68 -266 -72h-4v-207h-78v209z" />
    <glyph glyph-name="percent" unicode="%" horiz-adv-x="1667" 
d="M366 0h-166l1079 1720h166zM427 1651q-34 0 -53.5 -9.5t-29 -29t-11.5 -48t-2 -65.5v-362q0 -66 14.5 -98.5t81.5 -32.5q68 0 84.5 36.5t16.5 114.5v363q0 65 -16.5 98t-84.5 33zM432 1731q81 0 150 -32t116 -87.5t73.5 -129t26.5 -155.5q0 -84 -26.5 -157.5t-73.5 -128
t-116 -86t-150 -31.5q-84 0 -152 31.5t-115 86t-72.5 128t-25.5 157.5q0 82 25.5 155.5t72.5 129t115 87.5t152 32zM1226 702q-35 0 -54.5 -9t-28.5 -28.5t-11 -48t-2 -65.5v-363q0 -65 14.5 -98t81.5 -33q68 0 84.5 37t16.5 115v362q0 66 -16.5 98.5t-84.5 32.5zM1230 782
q82 0 150.5 -31.5t116 -87t74 -129t26.5 -155.5q0 -84 -26.5 -158t-74 -128t-116 -86t-150.5 -32q-84 0 -151.5 32t-114.5 86t-72.5 128t-25.5 158q0 82 25.5 155.5t72.5 129t114.5 87t151.5 31.5z" />
    <glyph glyph-name="ampersand" unicode="&#x26;" horiz-adv-x="1703" 
d="M726 344q-36 125 37 227q70 105 338 164q131 29 219 54.5t133 48.5q87 43 103 120l55 -6q53 -166 -20 -284q-74 -123 -250 -142q137 -217 -27 -407q-162 -187 -495.5 -184.5t-489.5 84t-209 249.5q-53 170 15 363q69 192 313 282q-137 48 -207 187q-72 141 -29 309
q43 170 168 252t375 82q248 0 350.5 -78t114.5 -197q14 -94 -22.5 -160.5t-96 -100t-129 -36t-121.5 32.5q-69 43 -67 125q6 84 88 111q86 28 156 -39q24 67 -33 125q-64 59 -187 45q-127 -17 -178 -125q-49 -109 -12 -234t145 -172q97 -45 244 -45v-151q-156 -19 -276 -121
q-117 -102 -132 -256q-12 -154 40.5 -257.5t183.5 -121.5q139 -16 229 66q100 82 57 206q-41 123 -167.5 94.5t-165.5 -108.5z" />
    <glyph glyph-name="quotesingle" unicode="'" horiz-adv-x="380" 
d="M149 1126q-4 121 -55 287q-51 160 -26 250q28 84 122 84q99 0 123.5 -83t-30.5 -251q-54 -178 -54 -287h-80z" />
    <glyph glyph-name="parenleft" unicode="(" horiz-adv-x="1013" 
d="M960 1911v-170h-134q-282 0 -282 -393v-1022q0 -344 282 -344h136l-9 -175q-872 0 -872 463v1139q0 502 825 502h54z" />
    <glyph glyph-name="parenright" unicode=")" horiz-adv-x="1013" 
d="M53 -190v170h131q285 0 285 393v1022q0 344 -285 344h-131l2 174q875 0 875 -463v-1139q0 -501 -826 -501h-51z" />
    <glyph glyph-name="asterisk" unicode="*" horiz-adv-x="944" 
d="M591 1008l272 -39l-198 -191l49 -270l-244 129l-243 -129l49 270l-199 191l272 39l121 247z" />
    <glyph glyph-name="plus" unicode="+" horiz-adv-x="704" 
d="M28 967h227v231h185v-231h235v-174h-235v-248h-185v248h-227v174z" />
    <glyph glyph-name="comma" unicode="," horiz-adv-x="514" 
d="M440 381v-311q0 -93 -17.5 -162.5t-47 -121.5t-69.5 -89t-83 -62l-74 74q78 51 129 121t51 170h-270v381h381z" />
    <glyph glyph-name="hyphen" unicode="-" horiz-adv-x="1007" 
d="M98 967h809v-174h-809v174z" />
    <glyph glyph-name="hyphen" unicode="&#x2010;" horiz-adv-x="1007" 
d="M98 967h809v-174h-809v174z" />
    <glyph glyph-name="period" unicode="." horiz-adv-x="581" 
d="M479 379v-381h-381v381h381z" />
    <glyph glyph-name="slash" unicode="/" horiz-adv-x="892" 
d="M174 -164h-166l711 2048h166z" />
    <glyph glyph-name="zero" unicode="0" horiz-adv-x="1718" 
d="M847 1573q-71 0 -113 -20.5t-62.5 -61.5t-26 -102.5t-5.5 -143.5v-815q0 -70 5.5 -123t27 -89t63.5 -54.5t115 -18.5q74 0 116 20.5t63.5 61.5t27.5 102.5t6 145.5v815q0 70 -6 123t-27.5 89t-65.5 53.5t-118 17.5zM857 1747q181 0 327.5 -67.5t248.5 -186.5
t158.5 -281.5t56.5 -353.5q0 -190 -56.5 -353t-158.5 -281t-248.5 -185.5t-327.5 -67.5q-180 0 -325.5 67.5t-248.5 185.5t-158.5 281t-55.5 353q0 191 55.5 353.5t158.5 281.5t248.5 186.5t325.5 67.5z" />
    <glyph glyph-name="one" unicode="1" horiz-adv-x="901" 
d="M47 1720h754v-1720h-549v1540h-205v180z" />
    <glyph glyph-name="two" unicode="2" horiz-adv-x="1466" 
d="M173 1438l187 372q127 -69 237 -53q101 15 203 19q53 2 107.5 -5.5t113.5 -21.5q119 -27 207 -94q90 -66 123 -223q35 -158 -25 -342q-57 -166 -229 -263q-86 -47 -175 -81.5t-183 -57.5q-189 -45 -271 -103.5t-82 -148.5h1000v-436h-1313q-2 145 47 387q49 219 176 346
q66 64 150 123t184 117q207 114 264 266q60 154 -8 252q-65 102 -225 86q-156 -14 -301 -244z" />
    <glyph glyph-name="three" unicode="3" horiz-adv-x="1482" 
d="M473 391q-78 -121 -18.5 -221t200.5 -90q143 8 186 104q47 97 31 316q-12 205 -135 274q-119 70 -254 70v151q145 0 236 45q100 45 129 174q30 140 -23 259q-51 112 -199 110q-147 -4 -274 -250l-186 105l186 372q149 -65 242 -65q104 2 270 -6t270.5 -87t145.5 -239
q39 -172 -31 -313q-70 -139 -207 -187q244 -90 311 -286q70 -193 17 -375q-53 -168 -209 -250t-479 -82q-326 0 -475 166q-150 168 -9 420z" />
    <glyph glyph-name="four" unicode="4" horiz-adv-x="1511" 
d="M194 422h541v817zM24 477l813 1243h447v-1298h157v-172h-157v-250h-549v250h-711v227z" />
    <glyph glyph-name="five" unicode="5" horiz-adv-x="1566" 
d="M1376 1284h-960v-264q133 121 368 131q240 10 420 -94q182 -105 225 -363q43 -254 -10 -428q-51 -166 -209 -250q-155 -82 -485 -82q-332 0 -481 166q-150 168 -9 420l275 -114q-78 -121 -18.5 -221.5t206.5 -90.5q150 8 193 105q45 94 43 381q0 288 -191 350
q-188 65 -327 -111l-177 88v813h1137v-436z" />
    <glyph glyph-name="six" unicode="6" horiz-adv-x="1691" 
d="M844 1004q-166 0 -166 -168v-486q0 -203 170 -203q172 0 172 203v494q-4 160 -176 160zM649 1065q88 94 232 102q147 11 275 -24t226 -111q101 -74 159 -186.5t52 -259.5q-4 -133 -47 -249t-133 -199t-228 -128t-333 -39q-231 9 -373.5 71t-223.5 169.5t-112.5 257
t-40.5 334.5q-16 344 108 567t380 316q168 61 272 61h105h53h27q16 0 26 -2q92 0 242 65l186 -372l-186 -105q-160 240 -367 227.5t-268.5 -170t-30.5 -325.5z" />
    <glyph glyph-name="seven" unicode="7" horiz-adv-x="1271" 
d="M88 1720h1141v-397q-92 -57 -186.5 -163.5t-164 -268.5t-102.5 -383t-4 -508h-610q-19 180 16 333.5t102.5 281.5t158.5 232.5t187.5 186.5t187.5 144.5l157 105.5h-883v436z" />
    <glyph glyph-name="eight" unicode="8" horiz-adv-x="1605" 
d="M802 1597q-121 0 -129 -165v-187q0 -168 129 -168t129 168v187q-10 165 -129 165zM923 770q0 162 -121 162t-121 -162v-489q0 -131 121 -131t121 131v489zM1118 20q-148 -47 -316 -47t-315 47q-213 78 -316.5 216.5t-105.5 324.5q0 111 47 211t141 178q58 51 160 88
q-94 45 -129 103q-53 69 -67.5 155t10.5 160q24 76 85.5 141.5t160.5 110.5q131 57 329 61q199 -4 330 -61q98 -45 159.5 -110.5t84.5 -139.5q24 -74 10 -161t-66 -156q-38 -58 -129 -103q103 -37 160 -88q94 -78 141.5 -178t47.5 -211q-2 -186 -105.5 -324.5t-316.5 -216.5
z" />
    <glyph glyph-name="nine" unicode="9" horiz-adv-x="1708" 
d="M876 733q166 0 166 168v485q0 203 -170 203q-172 0 -172 -203v-493q2 -160 176 -160zM589 465q-53 -74 -59.5 -135.5t21.5 -104.5t83 -66.5t127 -19.5q98 8 160.5 52.5t98.5 115t46 163.5t4 202q-86 -92 -241 -103q-136 -10 -265 25t-228 110.5t-157.5 188.5t-52.5 258
q4 133 47 249t133 198.5t228.5 128t333.5 38.5q229 -6 372.5 -68.5t222.5 -172.5q82 -111 114 -263.5t40 -326.5q8 -205 -41 -386t-159.5 -310t-279.5 -197t-405 -55q-133 6 -250.5 45t-191.5 110q-76 76 -85 177.5t73 261.5z" />
    <glyph glyph-name="colon" unicode=":" horiz-adv-x="532" 
d="M479 1098v-381h-381v381h381zM479 381v-381h-381v381h381z" />
    <glyph glyph-name="semicolon" unicode=";" horiz-adv-x="522" 
d="M440 1098v-381h-381v381h381zM440 381v-311q0 -93 -17.5 -162.5t-47 -121.5t-69.5 -89t-83 -62l-74 74q78 51 129 121t51 170h-270v381h381z" />
    <glyph glyph-name="less" unicode="&#x3c;" horiz-adv-x="1191" 
d="M4 936l1118 457v-217l-712 -293l712 -293v-217l-1118 452v111z" />
    <glyph glyph-name="equal" unicode="=" horiz-adv-x="905" 
d="M98 823h743v-174h-743v174zM98 1110h743v-174h-743v174z" />
    <glyph glyph-name="greater" unicode="&#x3e;" horiz-adv-x="1220" 
d="M1216 829l-1118 -456v217l711 293l-711 293v217l1118 -453v-111z" />
    <glyph glyph-name="question" unicode="?" horiz-adv-x="1357" 
d="M344 195q0 43 16.5 80.5t45 66.5t66.5 45t81 16t81 -16t66.5 -45t45 -66.5t16.5 -80.5t-16.5 -81t-45 -67t-66.5 -45t-81 -16t-81 16t-66.5 45t-45 67t-16.5 81zM496 1288l-312 -114q-141 251 9 417q149 168 448 168q297 0 447.5 -82t193.5 -252q43 -168 -61 -376
q-103 -191 -347 -279q-243 -86 -262 -258l-137 -2q-74 154 109 342q180 186 221 375q39 172 -6 266q-43 98 -162 106q-117 11 -180 -90q-62 -98 39 -221z" />
    <glyph glyph-name="at" unicode="@" horiz-adv-x="2191" 
d="M1515 543q0 -94 108 -94q47 0 85 30.5t64.5 81.5t41 114.5t15.5 128t-11 126t-39 104.5q-51 88 -145 152q-93 65 -212.5 102t-250.5 37q-185 0 -333.5 -45t-251.5 -126t-158.5 -196.5t-55.5 -257.5q0 -147 59.5 -258.5t161 -188.5t236.5 -119t285.5 -48t309 22.5
t306.5 92.5l84 -95q-213 -77 -427 -109t-413 -21.5t-371 62.5t-300 144t-200.5 223.5t-72.5 296.5q0 166 82 306.5t231.5 242t360.5 158.5t471 57q178 0 354 -46t316.5 -129t227.5 -195.5t87 -243.5q0 -123 -34 -223.5t-114 -171.5q-67 -60 -165.5 -100t-205 -52t-209 6.5
t-177.5 77.5q-76 -49 -155 -67.5t-152.5 -10.5t-137 41t-111.5 86.5t-75 124t-25 154.5q4 114 52.5 195t128 124t183 44t218.5 -44v56h334v-549zM1050 950q-121 0 -129 -166v-170q0 -168 129 -168t129 168v170q-10 166 -129 166z" />
    <glyph glyph-name="A" unicode="A" horiz-adv-x="1595" 
d="M604 1180l-224 -668h431zM618 1720h369l590 -1720h-586l-121 340h-549l-117 -340h-186z" />
    <glyph glyph-name="B" unicode="B" horiz-adv-x="1579" 
d="M647 1065h61q172 0 172 266q-4 215 -233 215v-481zM647 895v-725h86q289 0 291 352q-4 373 -291 373h-86zM622 1720q774 0 774 -370q0 -263 -266 -357q449 -119 445 -489q0 -504 -838 -504h-639v1720h524z" />
    <glyph glyph-name="C" unicode="C" horiz-adv-x="1576" 
d="M1500 332q-149 -219 -286 -291q-131 -70 -314 -70q-180 0 -338.5 67.5t-276.5 185.5t-186.5 281t-68.5 353q0 146 39 274t109.5 232t168 184t213.5 129q148 70 318 70h139h57h27q16 0 23 -2q75 0 225 65l186 -372l-186 -105q-160 240 -459 240q-289 0 -289 -328v-815
q0 -283 299 -287q275 0 439 263z" />
    <glyph glyph-name="D" unicode="D" horiz-adv-x="1622" 
d="M690 1720q883 0 883 -860t-852 -860h-625v1720h594zM612 162h68q342 0 342 688t-342 688h-68v-1376z" />
    <glyph glyph-name="E" unicode="E" horiz-adv-x="1292" 
d="M98 0v1720h1098l41 -174h-590v-164h592l-58 -217l-108 43h-426v-1038h561v-170h-1110z" />
    <glyph glyph-name="F" unicode="F" horiz-adv-x="1259" 
d="M98 0v1720h1098l41 -174h-590v-164h592l-58 -217l-108 43h-426v-1208h-549z" />
    <glyph glyph-name="G" unicode="G" horiz-adv-x="1779" 
d="M1703 868v-831l-55 -37q-211 76 -410 33q-188 -43 -354 -43q-152 -2 -324 65q-116 51 -213.5 132t-168 184.5t-109.5 226.5t-39 260q0 199 68.5 356.5t185.5 276.5q119 119 276 186q148 70 295 70h129h58h26q19 0 29 -2q92 0 242 65l186 -372l-186 -105
q-160 240 -449 240t-289 -328v-799q0 -284 277 -286q254 0 276 246v462h549z" />
    <glyph glyph-name="H" unicode="H" horiz-adv-x="1798" 
d="M98 1720h549v-379q131 136 288.5 45.5t215.5 -4.5v338h549v-1720h-549v1249q-113 -143 -265 -59q-145 82 -239 18v-1208h-549v1720z" />
    <glyph glyph-name="I" unicode="I" horiz-adv-x="747" 
d="M98 1720h549v-1720h-549v1720z" />
    <glyph glyph-name="J" unicode="J" horiz-adv-x="1550" 
d="M909 1720h547v-1284q0 -463 -719 -463q-157 2 -270 44t-180.5 105.5t-90 139.5t0 147.5t91 128t183.5 80.5l211 -192q-62 -18 -96.5 -64.5t-36.5 -95.5t31.5 -86t109.5 -37q219 4 219 287v1290z" />
    <glyph glyph-name="K" unicode="K" horiz-adv-x="1630" 
d="M647 870v-870h-549v1720h549v-614l618 614h244l-432 -430l479 -1290h-624z" />
    <glyph glyph-name="L" unicode="L" horiz-adv-x="1232" 
d="M98 1720h549v-1550h569v-170h-1118v1720z" />
    <glyph glyph-name="M" unicode="M" horiz-adv-x="1810" 
d="M569 1720l336 -633l358 633h449v-1720h-549v1260l-451 -818l-442 811v-1253h-172v1720h471z" />
    <glyph glyph-name="N" unicode="N" horiz-adv-x="1548" 
d="M272 952v-952h-174v1720h244l932 -929v929h174v-1720h-226z" />
    <glyph glyph-name="O" unicode="O" horiz-adv-x="1804" 
d="M890 1573q-289 0 -289 -328v-815q0 -283 299 -287q289 0 289 332v815q0 283 -299 283zM30 858q0 191 68.5 353.5t186.5 281.5t276.5 186.5t338.5 67.5q181 0 339.5 -67.5t277.5 -186.5t187.5 -281.5t68.5 -353.5q0 -192 -68.5 -354t-187.5 -278.5t-277.5 -184.5
t-339.5 -70q-180 0 -338.5 67.5t-276.5 185.5t-186.5 281t-68.5 353z" />
    <glyph glyph-name="P" unicode="P" horiz-adv-x="1568" 
d="M647 1546v-870h86q252 0 252 434q0 436 -252 436h-86zM647 506v-506h-549v1720h559q447 0 660 -114.5t213 -491.5t-193 -493q-195 -115 -604 -115h-86z" />
    <glyph glyph-name="Q" unicode="Q" horiz-adv-x="1861" 
d="M909 1573q-289 0 -289 -328v-815q0 -283 299 -287q289 0 289 332v815q0 283 -299 283zM49 858q0 191 68.5 353.5t186.5 281.5t276.5 186.5t338.5 67.5q181 0 339.5 -67.5t277.5 -186.5t187.5 -281.5t68.5 -353.5q0 -199 -68.5 -355.5t-191.5 -285.5q-123 -127 -336 -194
q90 -60 196.5 -72t288.5 55l-166 -272q-190 -19 -309 57q-121 78 -192 191q-267 -21 -430 53q-162 71 -281 190q-117 119 -185.5 276.5t-68.5 356.5z" />
    <glyph glyph-name="R" unicode="R" horiz-adv-x="1560" 
d="M110 1720h559q447 0 660 -114.5t213 -491.5q0 -356 -172 -481q-168 -125 -326 -125q-19 -139 131 -215q145 -76 414 2l-187 -373q-329 37 -477 184q-145 150 -209 400h-57v-506h-549v1720zM745 676q252 0 252 434q0 436 -252 436h-86v-870h86z" />
    <glyph glyph-name="S" unicode="S" horiz-adv-x="1579" 
d="M1161 1325q-127 211 -338 234q-213 22 -270 -54q-60 -78 8 -141q72 -66 424 -176q356 -109 463 -348q108 -244 47 -453q-62 -211 -250 -315.5t-414 -108.5q-223 -6 -407 68q-183 75 -279 235q-94 154 21 396l321 -127q-133 -62 -96 -187t207 -184q153 -58 336 -29
q168 29 213 145.5t-101 225.5q-71 53 -188 100t-283 86q-327 80 -426 287q-96 209 -24.5 397.5t209.5 268.5q137 81 309 88q86 4 154.5 5t121.5 -1q93 0 242 65l186 -372z" />
    <glyph glyph-name="T" unicode="T" horiz-adv-x="1327" 
d="M18 1720h1290v-180h-364v-1540h-547v1540h-379v180z" />
    <glyph glyph-name="U" unicode="U" horiz-adv-x="1622" 
d="M813 -27q-721 0 -721 463v1284h549v-1228q0 -345 356 -347q359 -2 359 347v1228h174v-1245q0 -502 -717 -502z" />
    <glyph glyph-name="V" unicode="V" horiz-adv-x="1595" 
d="M1390 1720h187l-601 -1720h-368l-590 1720h586l387 -1179z" />
    <glyph glyph-name="W" unicode="W" horiz-adv-x="1994" 
d="M1790 1720h186l-457 -1720h-368l-154 649l-164 -649h-369l-446 1720h586l243 -991l256 991h187l244 -991z" />
    <glyph glyph-name="X" unicode="X" horiz-adv-x="1662" 
d="M681 627l-403 -627h-197l506 795l-506 925h592l291 -561l366 561h205l-473 -743l522 -977h-563z" />
    <glyph glyph-name="Y" unicode="Y" horiz-adv-x="1478" 
d="M1255 1720h205l-461 -942v-778h-547l-2 770l-432 950h637l262 -688z" />
    <glyph glyph-name="Z" unicode="Z" horiz-adv-x="1370" 
d="M108 1720h1182v-293l-545 -1257h549v-170h-1231l647 1540h-602v180z" />
    <glyph glyph-name="bracketleft" unicode="[" horiz-adv-x="765" 
d="M98 1864h618v-181h-274v-1656h274v-170h-618v2007z" />
    <glyph glyph-name="backslash" unicode="\" horiz-adv-x="892" 
d="M8 1884h166l711 -2048h-166z" />
    <glyph glyph-name="bracketright" unicode="]" horiz-adv-x="765" 
d="M665 -143h-618v180h276v1657h-276v170h618v-2007z" />
    <glyph glyph-name="asciicircum" unicode="^" horiz-adv-x="1513" 
d="M893 1241l577 -717h-368l-348 428l-346 -428h-365l567 717h283z" />
    <glyph glyph-name="underscore" unicode="_" horiz-adv-x="1867" 
d="M98 -23h1671v-178h-1671v178z" />
    <glyph glyph-name="grave" unicode="`" horiz-adv-x="624" 
d="M20 1987l117 155l469 -235l-74 -90z" />
    <glyph glyph-name="a" unicode="a" 
d="M1320 1272v-1272h-426v66q-100 -95 -219 -95q-135 0 -252 50.5t-205 136.5q-86 88 -137 205.5t-51 285.5q0 135 51 252t137 203q68 63 151 110.5t171 68t182 -2.5t172 -86v78h426zM683 1165q-221 0 -221 -211v-610q0 -244 213 -244q199 19 219 187v680q-18 198 -211 198z
" />
    <glyph glyph-name="b" unicode="b" 
d="M739 1165q-193 0 -211 -198v-697q20 -168 219 -170q213 0 213 244v610q0 211 -221 211zM528 1720v-506q119 80 236 80q122 0 233 -51q86 -41 158.5 -98.5t125 -134t82 -171t29.5 -206.5q0 -148 -51 -268.5t-138 -206.5t-205 -135.5t-251 -51.5q-119 0 -219 95v-66h-426
v1720h426z" />
    <glyph glyph-name="c" unicode="c" horiz-adv-x="1130" 
d="M1111 236q-112 -162 -209 -213q-94 -52 -231 -52q-135 0 -251 50.5t-204 136.5q-86 86 -136 201.5t-50 256.5q0 140 28.5 230t80.5 168q108 155 282 231q105 51 234 51h102h41q31 0 37 -2q63 0 166 49l137 -274l-137 -76q-117 174 -338 174q-213 0 -213 -239v-619
q0 -209 221 -211q203 0 322 193z" />
    <glyph glyph-name="d" unicode="d" 
d="M1320 1720v-1720h-426v66q-100 -95 -219 -95q-133 2 -251 51.5t-205 135.5t-138 206.5t-51 268.5q0 153 51 269t137 202q68 63 151 110.5t171 68t178 6t176 -74.5v506h426zM683 1165q-221 0 -221 -211v-610q0 -244 213 -244q199 2 219 170v697q-18 198 -211 198z" />
    <glyph glyph-name="e" unicode="e" horiz-adv-x="1335" 
d="M667 1165q-213 0 -213 -243v-156h434v188q0 211 -221 211zM454 610v-299q0 -211 233.5 -219t421.5 285l168 -64q-117 -180 -280 -264q-162 -82 -310 -80q-221 4 -375.5 111.5t-232.5 281.5q-49 119 -49 269q0 151 49 268q37 86 96.5 158.5t136 125t169 82t194.5 29.5
q135 0 252 -51t203 -139q174 -172 174 -494h-850z" />
    <glyph glyph-name="f" unicode="f" horiz-adv-x="827" 
d="M57 1272h104q2 135 162 294.5t477 229.5l138 -274l-138 -76l-65 115q-43 84 -109 67q-65 -12 -65 -178v-178h205v-127h-205l2 -1145h-426v1145h-80v127z" />
    <glyph glyph-name="g" unicode="g" 
d="M683 109q193 0 211 198v697q-20 167 -227 167q-205 3 -205 -241v-611q0 -210 221 -210zM485 -125q-78 -65 -33 -139q45 -76 168 -88.5t198.5 37t75.5 186.5v188q-121 -79 -235 -79q-115 0 -219 43q-154 65 -246 169.5t-135 239.5q-13 33 -20 78t-9 93t1 97.5t13 92.5
q21 92 64 175t110 146q64 64 149 111t177 65q92 21 183.5 6.5t166.5 -88.5v66h426v-1266q0 -147 -67 -270q-66 -123 -213 -176q-154 -54 -312 -54q-84 0 -149.5 6.5t-122.5 18.5t-106.5 33.5t-98.5 52.5q-98 62 -88 178q12 117 109 176z" />
    <glyph glyph-name="h" unicode="h" horiz-adv-x="1327" 
d="M835 995q0 170 -145 170q-144 0 -162 -157v-1008h-426v1720h426v-506q121 80 297 86q180 9 311 -85.5t131 -360.5v-854h-432v995z" />
    <glyph glyph-name="i" unicode="i" horiz-adv-x="630" 
d="M528 1780v-350h-426v350h426zM102 0v1272h426v-1272h-426z" />
    <glyph glyph-name="j" unicode="j" horiz-adv-x="815" 
d="M715 1780v-350h-426v350h426zM127 -342q162 2 162 213v1401h426v-1397q0 -342 -553 -342q-117 2 -200 33t-133 78t-67.5 103t0 108.5t68.5 94.5t135 60l156 -143q-45 -12 -71.5 -46t-28 -71t23.5 -64.5t82 -27.5z" />
    <glyph glyph-name="k" unicode="k" horiz-adv-x="1187" 
d="M528 643v-643h-426v1780h426v-963l457 453h178l-318 -318l353 -952h-461z" />
    <glyph glyph-name="l" unicode="l" horiz-adv-x="630" 
d="M102 1780h426v-1780h-426v1780z" />
    <glyph glyph-name="m" unicode="m" horiz-adv-x="1988" 
d="M1454 995q0 170 -125 170q-123 0 -123 -155v-1010h-432v995q0 170 -115 170q-113 0 -131 -157v-1008h-426v1272h426v-74q96 98 256 104.5t241 -41t109 -124.5q47 90 127 125.5t227 33.5q152 -4 273 -102q125 -100 125 -340v-854h-432v995z" />
    <glyph glyph-name="n" unicode="n" horiz-adv-x="1370" 
d="M835 995q0 170 -145 170q-144 0 -162 -157v-1008h-426v1272h426v-58q121 80 297 86q180 9 311 -85.5t131 -360.5v-854h-432v995z" />
    <glyph glyph-name="o" unicode="o" horiz-adv-x="1351" 
d="M667 1165q-213 0 -213 -243v-611q0 -209 221 -211q213 0 213 244v610q0 211 -221 211zM30 633q0 143 50 265t137 210t205 137t253 49q133 -4 251 -52t205 -135t138 -208t51 -266q0 -148 -51 -268.5t-138 -206.5t-205 -135.5t-251 -51.5q-135 2 -253 51.5t-205 135.5
t-137 206.5t-50 268.5z" />
    <glyph glyph-name="p" unicode="p" 
d="M102 -467v1739h426v-49q102 77 219 77q133 -4 251 -52t205 -134t138 -207t51 -268q0 -154 -51 -269.5t-139 -203.5q-68 -62 -150 -109t-170 -66.5t-178 -6t-176 72.5v-524h-426zM739 106q221 0 221 211v611q0 243 -213 243q-199 -2 -219 -170v-696q18 -199 211 -199z" />
    <glyph glyph-name="q" unicode="q" 
d="M894 -465v524q-121 -79 -235 -79q-121 0 -236 51q-86 39 -158.5 97t-125 135t-81 171t-28.5 207q0 147 51 268t138 207t205 134t251 53q117 0 219 -78v49h426v-1739h-426zM683 109q193 0 211 198v697q-20 167 -219 170q-213 0 -213 -244v-611q0 -210 221 -210z" />
    <glyph glyph-name="r" unicode="r" horiz-adv-x="911" 
d="M780 1012q-45 131 -152 98q-104 -45 -100 -197v-913h-426v1272h426v-123q68 135 188 147q123 13 195 -67z" />
    <glyph glyph-name="s" unicode="s" horiz-adv-x="1140" 
d="M847 985q-96 156 -252 170q-155 19 -200 -39q-43 -55 8 -104q53 -54 311 -135q262 -86 344 -273q82 -170 37 -325q-43 -156 -184 -236q-141 -78 -309 -80q-177 -4 -306 51q-137 58 -206 176q-68 119 34 261l183 -48q-60 -67 -33 -155q27 -92 154 -135q133 -43 249 -23
q121 21 156 103q35 79 -53 161q-86 82 -350.5 147.5t-333.5 229.5q-72 150 -19 289q51 141 156 201q104 61 197 63q94 6 147 6h109q51 0 161 47l140 -276z" />
    <glyph glyph-name="t" unicode="t" horiz-adv-x="894" 
d="M567 236q0 -101 45 -121.5t80 -8.5q35 15 43 49.5t-25 61.5l193 74q12 -195 -97 -254q-106 -57 -286 -51q-178 6 -278.5 94t-100.5 317v748h-121v127h121v180q127 0 229 96q103 99 99 232h98v-508h207v-127h-207v-909z" />
    <glyph glyph-name="u" unicode="u" horiz-adv-x="1370" 
d="M534 276q0 -170 143 -170q146 0 164 158v1008h426v-1272h-426v57q-121 -80 -299 -86q-178 -8 -309 86.5t-131 360.5v854h432v-996z" />
    <glyph glyph-name="v" unicode="v" horiz-adv-x="1150" 
d="M1014 1272h137l-442 -1272h-275l-434 1272h430l289 -875z" />
    <glyph glyph-name="w" unicode="w" horiz-adv-x="1445" 
d="M1309 1272h137l-338 -1272h-270l-115 479l-121 -479h-272l-330 1272h430l180 -731l191 731h141l178 -731z" />
    <glyph glyph-name="x" unicode="x" horiz-adv-x="1112" 
d="M442 463l-295 -463h-147l375 586l-375 686h436l215 -416l275 416h151l-352 -549l387 -723h-416z" />
    <glyph glyph-name="y" unicode="y" horiz-adv-x="1150" 
d="M1014 1272h137l-442 -1272l-97 -281q-34 -100 -104 -145t-156 -45q-47 0 -112 16q-62 19 -98 67t-44 109.5t15.5 128t81.5 119.5l182 -139q-47 -10 -60.5 -49t-3.5 -74q2 -18 22.5 -32.5t47.5 -14.5t53.5 18.5t42.5 61.5l86 260h-131l-434 1272h430l289 -875z" />
    <glyph glyph-name="z" unicode="z" horiz-adv-x="1011" 
d="M84 1272h874v-217l-403 -930h405v-125h-909l477 1139h-444v133z" />
    <glyph glyph-name="braceleft" unicode="{" horiz-adv-x="1073" 
d="M1007 1911v-170q-241 0 -241 -393v-248l-254 -256l254 -254v-264q0 -344 244 -344l-3 -175q-704 0 -704 463v322l-254 258l254 250v309q0 502 704 502z" />
    <glyph glyph-name="bar" unicode="|" horiz-adv-x="378" 
d="M86 1800h199v-2269h-199v2269z" />
    <glyph glyph-name="braceright" unicode="}" horiz-adv-x="1073" 
d="M49 -195v170q242 0 242 394v247l254 256l-254 254v265q0 344 -244 344l2 174q705 0 705 -463v-322l254 -258l-254 -250v-309q0 -502 -705 -502z" />
    <glyph glyph-name="asciitilde" unicode="~" horiz-adv-x="49" 
 />
    <glyph glyph-name="dieresis" unicode="&#xa8;" horiz-adv-x="1024" 
 />
    <glyph glyph-name="copyright" unicode="&#xa9;" horiz-adv-x="1869" 
d="M45 856q0 186 70.5 350t192.5 285t285 191.5t349 70.5t350 -70.5t285 -191.5t191.5 -285t70.5 -350t-70.5 -349t-191.5 -285t-285 -192.5t-350 -70.5t-349 70.5t-285 192.5t-192.5 285t-70.5 349zM137 856q0 -166 63.5 -313.5t172 -256t256 -172t313.5 -63.5
q168 0 314.5 63.5t256 172t173 256t63.5 313.5t-63.5 313.5t-173 256t-256 172t-314.5 63.5q-166 0 -313.5 -63.5t-256 -172t-172 -256t-63.5 -313.5zM1337 524q-94 -135 -176 -178q-78 -43 -192 -43q-115 0 -211.5 42t-169.5 116q-72 71 -114 167.5t-42 215.5
q0 117 23.5 192.5t66.5 141.5q90 129 236 192q88 43 196 43h86h35h31q53 0 137 41l117 -231l-117 -64q-96 148 -283 148q-178 0 -178 -201v-518q0 -176 187 -178q170 0 268 161z" />
    <glyph glyph-name="registered" unicode="&#xae;" horiz-adv-x="1179" 
d="M47 1186q0 112 43 211.5t116.5 173.5t173 117t212.5 43q112 0 211.5 -43t173.5 -117t117 -173.5t43 -211.5q0 -113 -43 -212.5t-117 -173t-173.5 -116.5t-211.5 -43q-113 0 -212.5 43t-173 116.5t-116.5 173t-43 212.5zM133 1186q0 -94 36 -177t98.5 -145.5t145.5 -98.5
t179 -36q94 0 178 36t146.5 98.5t98.5 145.5t36 177t-36 178t-98.5 146.5t-146.5 98.5t-178 36q-96 0 -179 -36t-145.5 -98.5t-98.5 -146.5t-36 -178zM358 1507h191q153 0 226 -38.5t73 -168.5q0 -120 -60 -163q-57 -43 -110 -43q-6 -47 45 -72q49 -27 139 0l-63 -127
q-111 12 -162 63q-49 52 -72 136h-18v-172h-189v585zM575 1151q86 0 86 149q0 148 -86 148h-28v-297h28z" />
    <glyph glyph-name="acute" unicode="&#xb4;" horiz-adv-x="1024" 
 />
    <glyph glyph-name="paragraph" unicode="&#xb6;" horiz-adv-x="991" 
d="M276 1276q-225 -4 -225 219q0 225 225 225h707l-80 -166v-1554h-213v1272h-201v-1272h-213v1276z" />
    <glyph glyph-name="onequarter" unicode="&#xbc;" horiz-adv-x="1912" 
d="M317 0h-233l1360 1720h264zM53 1720h395v-901h-286v807h-109v94zM1183 221h283v430zM1093 250l428 653h234v-682h82v-90h-82v-131h-289v131h-373v119z" />
    <glyph glyph-name="onehalf" unicode="&#xbd;" horiz-adv-x="2136" 
d="M442 0h-285l1391 1720h284zM194 1720h397v-907h-289v813h-108v94zM1287 743l97 193q65 -35 123 -27q51 6 104 9q29 2 56.5 -2.5t58.5 -10.5q61 -14 106 -49q47 -35 64 -117q18 -80 -13 -176q-28 -86 -118 -135q-45 -25 -91.5 -43t-93.5 -29q-98 -24 -140 -54t-42 -77h516
v-225h-678q-2 76 25 201q24 112 90 178q35 33 78 63.5t94 61.5q109 59 137 137q31 80 -4 129q-35 53 -117 45q-79 -6 -155 -125z" />
    <glyph glyph-name="threequarters" unicode="&#xbe;" horiz-adv-x="2140" 
d="M561 0h-285l1389 1720h284zM280 1042q-41 -65 -9 -119.5t108 -48.5q75 5 100 56q24 53 16 170q-8 110 -73 147q-64 37 -136 37v82q78 0 125 25q56 24 70 92q16 76 -12 139q-27 61 -107 59q-78 -2 -147 -133l-101 56l101 200q80 -37 131 -37q55 2 144 -2t145.5 -47
t76.5 -129q23 -92 -16 -168q-37 -73 -111 -100q131 -47 168 -154q37 -102 9 -200q-29 -90 -112 -134.5t-257 -44.5q-176 0 -256 91q-80 90 -4 225zM1386 219h281v426zM1296 248l424 649h233v-678h82v-88h-82v-131h-286v131h-371v117z" />
    <glyph glyph-name="Agrave" unicode="&#xc0;" horiz-adv-x="1595" 
d="M604 1180l-224 -668h431zM618 1720h369l590 -1720h-586l-121 340h-549l-117 -340h-186zM268 1987l117 155l469 -235l-74 -90z" />
    <glyph glyph-name="Aacute" unicode="&#xc1;" horiz-adv-x="1595" 
d="M604 1180l-224 -668h431zM618 1720h369l590 -1720h-586l-121 340h-549l-117 -340h-186zM604 1821l-74 90l461 233l123 -153z" />
    <glyph glyph-name="uni1EA2" unicode="&#x1ea2;" horiz-adv-x="1595" 
d="M604 1180l-224 -668h431zM618 1720h369l590 -1720h-586l-121 340h-549l-117 -340h-186zM1168 1559q-194 184 -90 397q104 211 -31 295h125q207 -160 111 -360q-99 -203 16 -332h-131z" />
    <glyph glyph-name="Atilde" unicode="&#xc3;" horiz-adv-x="1595" 
d="M604 1180l-224 -668h431zM618 1720h369l590 -1720h-586l-121 340h-549l-117 -340h-186zM491 1978q185 195 398 90q211 -104 295 31v-125q-160 -207 -361 -110q-203 98 -332 -17v131z" />
    <glyph glyph-name="uni1EA0" unicode="&#x1ea0;" horiz-adv-x="1595" 
d="M604 1180l-224 -668h431zM618 1720h369l590 -1720h-586l-121 340h-549l-117 -340h-186zM736 -98v-266h-266v266h266z" />
    <glyph glyph-name="Acircumflex" unicode="&#xc2;" horiz-adv-x="1595" 
d="M604 1180l-224 -668h431zM618 1720h369l590 -1720h-586l-121 340h-549l-117 -340h-186zM797 1931l-247 -112l-82 92l329 250l328 -250l-82 -92z" />
    <glyph glyph-name="uni1EA6" unicode="&#x1ea6;" horiz-adv-x="1595" 
d="M604 1180l-224 -668h431zM618 1720h369l590 -1720h-586l-121 340h-549l-117 -340h-186zM551 2270l117 155l469 -235l-74 -90zM797 1931l-247 -112l-82 92l329 250l328 -250l-82 -92z" />
    <glyph glyph-name="uni1EA4" unicode="&#x1ea4;" horiz-adv-x="1595" 
d="M604 1180l-224 -668h431zM618 1720h369l590 -1720h-586l-121 340h-549l-117 -340h-186zM576 2113l-74 90l461 233l123 -153zM797 1931l-247 -112l-82 92l329 250l328 -250l-82 -92z" />
    <glyph glyph-name="uni1EA8" unicode="&#x1ea8;" horiz-adv-x="1595" 
d="M604 1180l-224 -668h431zM618 1720h369l590 -1720h-586l-121 340h-549l-117 -340h-186zM1170 1907q-194 184 -90 397q104 211 -31 295h125q207 -160 111 -360q-99 -203 16 -332h-131zM797 1931l-247 -112l-82 92l329 250l328 -250l-82 -92z" />
    <glyph glyph-name="uni1EAA" unicode="&#x1eaa;" horiz-adv-x="1595" 
d="M604 1180l-224 -668h431zM618 1720h369l590 -1720h-586l-121 340h-549l-117 -340h-186zM605 2299q185 195 398 90q211 -104 295 31v-125q-160 -207 -361 -110q-203 98 -332 -17v131zM797 1931l-247 -112l-82 92l329 250l328 -250l-82 -92z" />
    <glyph glyph-name="uni1EAC" unicode="&#x1eac;" horiz-adv-x="1595" 
d="M604 1180l-224 -668h431zM618 1720h369l590 -1720h-586l-121 340h-549l-117 -340h-186zM736 -98v-266h-266v266h266zM797 1931l-247 -112l-82 92l329 250l328 -250l-82 -92z" />
    <glyph glyph-name="Abreve" unicode="&#x102;" horiz-adv-x="1595" 
d="M604 1180l-224 -668h431zM618 1720h369l590 -1720h-586l-121 340h-549l-117 -340h-186zM794 1805q-72 0 -133.5 22.5t-106.5 59t-70.5 85t-25.5 99.5h239q15 -55 44.5 -84t54.5 -29q22 0 53 29t47 84h232q0 -51 -27 -99.5t-73 -85t-106.5 -59t-127.5 -22.5z" />
    <glyph glyph-name="uni1EB0" unicode="&#x1eb0;" horiz-adv-x="1595" 
d="M604 1180l-224 -668h431zM618 1720h369l590 -1720h-586l-121 340h-549l-117 -340h-186zM466 2270l117 155l469 -235l-74 -90zM794 1805q-72 0 -133.5 22.5t-106.5 59t-70.5 85t-25.5 99.5h239q15 -55 44.5 -84t54.5 -29q22 0 53 29t47 84h232q0 -51 -27 -99.5t-73 -85
t-106.5 -59t-127.5 -22.5z" />
    <glyph glyph-name="uni1EAE" unicode="&#x1eae;" horiz-adv-x="1595" 
d="M604 1180l-224 -668h431zM618 1720h369l590 -1720h-586l-121 340h-549l-117 -340h-186zM623 2113l-74 90l461 233l123 -153zM794 1805q-72 0 -133.5 22.5t-106.5 59t-70.5 85t-25.5 99.5h239q15 -55 44.5 -84t54.5 -29q22 0 53 29t47 84h232q0 -51 -27 -99.5t-73 -85
t-106.5 -59t-127.5 -22.5z" />
    <glyph glyph-name="uni1EB2" unicode="&#x1eb2;" horiz-adv-x="1595" 
d="M604 1180l-224 -668h431zM618 1720h369l590 -1720h-586l-121 340h-549l-117 -340h-186zM811 2108q-194 184 -90 397q104 211 -31 295h125q207 -160 111 -360q-99 -203 16 -332h-131zM794 1805q-72 0 -133.5 22.5t-106.5 59t-70.5 85t-25.5 99.5h239q15 -55 44.5 -84
t54.5 -29q22 0 53 29t47 84h232q0 -51 -27 -99.5t-73 -85t-106.5 -59t-127.5 -22.5z" />
    <glyph glyph-name="uni1EB4" unicode="&#x1eb4;" horiz-adv-x="1595" 
d="M604 1180l-224 -668h431zM618 1720h369l590 -1720h-586l-121 340h-549l-117 -340h-186zM546 2269q185 195 398 90q211 -104 295 31v-125q-160 -207 -361 -110q-203 98 -332 -17v131zM794 1805q-72 0 -133.5 22.5t-106.5 59t-70.5 85t-25.5 99.5h239q15 -55 44.5 -84
t54.5 -29q22 0 53 29t47 84h232q0 -51 -27 -99.5t-73 -85t-106.5 -59t-127.5 -22.5z" />
    <glyph glyph-name="uni1EB6" unicode="&#x1eb6;" horiz-adv-x="1595" 
d="M604 1180l-224 -668h431zM618 1720h369l590 -1720h-586l-121 340h-549l-117 -340h-186zM736 -98v-266h-266v266h266zM794 1805q-72 0 -133.5 22.5t-106.5 59t-70.5 85t-25.5 99.5h239q15 -55 44.5 -84t54.5 -29q22 0 53 29t47 84h232q0 -51 -27 -99.5t-73 -85t-106.5 -59
t-127.5 -22.5z" />
    <glyph glyph-name="Egrave" unicode="&#xc8;" horiz-adv-x="1292" 
d="M98 0v1720h1098l41 -174h-590v-164h592l-58 -217l-108 43h-426v-1038h561v-170h-1110zM303 1987l117 155l469 -235l-74 -90z" />
    <glyph glyph-name="Eacute" unicode="&#xc9;" horiz-adv-x="1292" 
d="M98 0v1720h1098l41 -174h-590v-164h592l-58 -217l-108 43h-426v-1038h561v-170h-1110zM495 1821l-73 90l460 233l123 -153z" />
    <glyph glyph-name="uni1EBA" unicode="&#x1eba;" horiz-adv-x="1292" 
d="M98 0v1720h1098l41 -174h-590v-164h592l-58 -217l-108 43h-426v-1038h561v-170h-1110zM677 1786q-195 184 -90 397q104 211 -31 295h125q207 -160 110 -360q-98 -203 17 -332h-131z" />
    <glyph glyph-name="uni1EBC" unicode="&#x1ebc;" horiz-adv-x="1292" 
d="M98 0v1720h1098l41 -174h-590v-164h592l-58 -217l-108 43h-426v-1038h561v-170h-1110zM368 1978q184 195 397 90q211 -104 295 31v-125q-160 -207 -360 -110q-203 98 -332 -17v131z" />
    <glyph glyph-name="uni1EB8" unicode="&#x1eb8;" horiz-adv-x="1292" 
d="M98 0v1720h1098l41 -174h-590v-164h592l-58 -217l-108 43h-426v-1038h561v-170h-1110zM736 -98v-266h-267v266h267z" />
    <glyph glyph-name="Ecircumflex" unicode="&#xca;" horiz-adv-x="1292" 
d="M98 0v1720h1098l41 -174h-590v-164h592l-58 -217l-108 43h-426v-1038h561v-170h-1110zM690 1931l-248 -112l-82 92l330 250l328 -250l-82 -92z" />
    <glyph glyph-name="uni1EC0" unicode="&#x1ec0;" horiz-adv-x="1292" 
d="M98 0v1720h1098l41 -174h-590v-164h592l-58 -217l-108 43h-426v-1038h561v-170h-1110zM434 2279l117 155l469 -235l-74 -90zM690 1931l-248 -112l-82 92l330 250l328 -250l-82 -92z" />
    <glyph glyph-name="uni1EBE" unicode="&#x1ebe;" horiz-adv-x="1292" 
d="M98 0v1720h1098l41 -174h-590v-164h592l-58 -217l-108 43h-426v-1038h561v-170h-1110zM476 2104l-73 90l460 233l123 -153zM690 1931l-248 -112l-82 92l330 250l328 -250l-82 -92z" />
    <glyph glyph-name="uni1EC2" unicode="&#x1ec2;" horiz-adv-x="1292" 
d="M98 0v1720h1098l41 -174h-590v-164h592l-58 -217l-108 43h-426v-1038h561v-170h-1110zM1111 1862q-195 184 -90 397q104 211 -31 295h125q207 -160 110 -360q-98 -203 17 -332h-131zM690 1931l-248 -112l-82 92l330 250l328 -250l-82 -92z" />
    <glyph glyph-name="uni1EC4" unicode="&#x1ec4;" horiz-adv-x="1292" 
d="M98 0v1720h1098l41 -174h-590v-164h592l-58 -217l-108 43h-426v-1038h561v-170h-1110zM481 2271q184 195 397 90q211 -104 295 31v-125q-160 -207 -360 -110q-203 98 -332 -17v131zM690 1931l-248 -112l-82 92l330 250l328 -250l-82 -92z" />
    <glyph glyph-name="uni1EC6" unicode="&#x1ec6;" horiz-adv-x="1292" 
d="M98 0v1720h1098l41 -174h-590v-164h592l-58 -217l-108 43h-426v-1038h561v-170h-1110zM736 -98v-266h-267v266h267zM690 1931l-248 -112l-82 92l330 250l328 -250l-82 -92z" />
    <glyph glyph-name="Igrave" unicode="&#xcc;" horiz-adv-x="747" 
d="M98 1720h549v-1720h-549v1720zM20 1987l117 155l469 -235l-74 -90z" />
    <glyph glyph-name="Iacute" unicode="&#xcd;" horiz-adv-x="747" 
d="M98 1720h549v-1720h-549v1720zM174 1821l-74 90l461 233l123 -153z" />
    <glyph glyph-name="uni1EC8" unicode="&#x1ec8;" horiz-adv-x="747" 
d="M98 1720h549v-1720h-549v1720zM392 1786q-194 184 -90 397q105 211 -30 295h125q206 -160 110 -360q-98 -203 17 -332h-132z" />
    <glyph glyph-name="Itilde" unicode="&#x128;" horiz-adv-x="747" 
d="M98 1720h549v-1720h-549v1720zM56 1978q184 195 397 90q211 -104 295 31v-125q-160 -207 -360 -110q-203 98 -332 -17v131z" />
    <glyph glyph-name="uni1ECA" unicode="&#x1eca;" horiz-adv-x="747" 
d="M98 1720h549v-1720h-549v1720zM506 -98v-266h-267v266h267z" />
    <glyph glyph-name="Ograve" unicode="&#xd2;" horiz-adv-x="1804" 
d="M890 1573q-289 0 -289 -328v-815q0 -283 299 -287q289 0 289 332v815q0 283 -299 283zM30 858q0 191 68.5 353.5t186.5 281.5t276.5 186.5t338.5 67.5q181 0 339.5 -67.5t277.5 -186.5t187.5 -281.5t68.5 -353.5q0 -192 -68.5 -354t-187.5 -278.5t-277.5 -184.5
t-339.5 -70q-180 0 -338.5 67.5t-276.5 185.5t-186.5 281t-68.5 353zM509 1987l117 155l469 -235l-74 -90z" />
    <glyph glyph-name="Oacute" unicode="&#xd3;" horiz-adv-x="1804" 
d="M890 1573q-289 0 -289 -328v-815q0 -283 299 -287q289 0 289 332v815q0 283 -299 283zM30 858q0 191 68.5 353.5t186.5 281.5t276.5 186.5t338.5 67.5q181 0 339.5 -67.5t277.5 -186.5t187.5 -281.5t68.5 -353.5q0 -192 -68.5 -354t-187.5 -278.5t-277.5 -184.5
t-339.5 -70q-180 0 -338.5 67.5t-276.5 185.5t-186.5 281t-68.5 353zM640 1821l-73 90l460 233l123 -153z" />
    <glyph glyph-name="uni1ECE" unicode="&#x1ece;" horiz-adv-x="1804" 
d="M890 1573q-289 0 -289 -328v-815q0 -283 299 -287q289 0 289 332v815q0 283 -299 283zM30 858q0 191 68.5 353.5t186.5 281.5t276.5 186.5t338.5 67.5q181 0 339.5 -67.5t277.5 -186.5t187.5 -281.5t68.5 -353.5q0 -192 -68.5 -354t-187.5 -278.5t-277.5 -184.5
t-339.5 -70q-180 0 -338.5 67.5t-276.5 185.5t-186.5 281t-68.5 353zM1156 1786q-194 184 -90 397q104 211 -31 295h125q207 -160 111 -360q-99 -203 16 -332h-131z" />
    <glyph glyph-name="Otilde" unicode="&#xd5;" horiz-adv-x="1804" 
d="M890 1573q-289 0 -289 -328v-815q0 -283 299 -287q289 0 289 332v815q0 283 -299 283zM30 858q0 191 68.5 353.5t186.5 281.5t276.5 186.5t338.5 67.5q181 0 339.5 -67.5t277.5 -186.5t187.5 -281.5t68.5 -353.5q0 -192 -68.5 -354t-187.5 -278.5t-277.5 -184.5
t-339.5 -70q-180 0 -338.5 67.5t-276.5 185.5t-186.5 281t-68.5 353zM560 1978q185 195 398 90q211 -104 295 31v-125q-160 -207 -361 -110q-203 98 -332 -17v131z" />
    <glyph glyph-name="uni1ECC" unicode="&#x1ecc;" horiz-adv-x="1804" 
d="M890 1573q-289 0 -289 -328v-815q0 -283 299 -287q289 0 289 332v815q0 283 -299 283zM30 858q0 191 68.5 353.5t186.5 281.5t276.5 186.5t338.5 67.5q181 0 339.5 -67.5t277.5 -186.5t187.5 -281.5t68.5 -353.5q0 -192 -68.5 -354t-187.5 -278.5t-277.5 -184.5
t-339.5 -70q-180 0 -338.5 67.5t-276.5 185.5t-186.5 281t-68.5 353zM1035 -98v-266h-267v266h267z" />
    <glyph glyph-name="Ocircumflex" unicode="&#xd4;" horiz-adv-x="1804" 
d="M890 1573q-289 0 -289 -328v-815q0 -283 299 -287q289 0 289 332v815q0 283 -299 283zM30 858q0 191 68.5 353.5t186.5 281.5t276.5 186.5t338.5 67.5q181 0 339.5 -67.5t277.5 -186.5t187.5 -281.5t68.5 -353.5q0 -192 -68.5 -354t-187.5 -278.5t-277.5 -184.5
t-339.5 -70q-180 0 -338.5 67.5t-276.5 185.5t-186.5 281t-68.5 353zM911 1931l-248 -112l-82 92l330 250l327 -250l-82 -92z" />
    <glyph glyph-name="uni1ED2" unicode="&#x1ed2;" horiz-adv-x="1804" 
d="M890 1573q-289 0 -289 -328v-815q0 -283 299 -287q289 0 289 332v815q0 283 -299 283zM30 858q0 191 68.5 353.5t186.5 281.5t276.5 186.5t338.5 67.5q181 0 339.5 -67.5t277.5 -186.5t187.5 -281.5t68.5 -353.5q0 -192 -68.5 -354t-187.5 -278.5t-277.5 -184.5
t-339.5 -70q-180 0 -338.5 67.5t-276.5 185.5t-186.5 281t-68.5 353zM641 2270l117 155l469 -235l-74 -90zM911 1931l-248 -112l-82 92l330 250l327 -250l-82 -92z" />
    <glyph glyph-name="uni1ED0" unicode="&#x1ed0;" horiz-adv-x="1804" 
d="M890 1573q-289 0 -289 -328v-815q0 -283 299 -287q289 0 289 332v815q0 283 -299 283zM30 858q0 191 68.5 353.5t186.5 281.5t276.5 186.5t338.5 67.5q181 0 339.5 -67.5t277.5 -186.5t187.5 -281.5t68.5 -353.5q0 -192 -68.5 -354t-187.5 -278.5t-277.5 -184.5
t-339.5 -70q-180 0 -338.5 67.5t-276.5 185.5t-186.5 281t-68.5 353zM725 2123l-73 90l460 233l123 -153zM911 1931l-248 -112l-82 92l330 250l327 -250l-82 -92z" />
    <glyph glyph-name="uni1ED4" unicode="&#x1ed4;" horiz-adv-x="1804" 
d="M890 1573q-289 0 -289 -328v-815q0 -283 299 -287q289 0 289 332v815q0 283 -299 283zM30 858q0 191 68.5 353.5t186.5 281.5t276.5 186.5t338.5 67.5q181 0 339.5 -67.5t277.5 -186.5t187.5 -281.5t68.5 -353.5q0 -192 -68.5 -354t-187.5 -278.5t-277.5 -184.5
t-339.5 -70q-180 0 -338.5 67.5t-276.5 185.5t-186.5 281t-68.5 353zM1335 1786q-194 184 -90 397q104 211 -31 295h125q207 -160 111 -360q-99 -203 16 -332h-131zM911 1931l-248 -112l-82 92l330 250l327 -250l-82 -92z" />
    <glyph glyph-name="uni1ED6" unicode="&#x1ed6;" horiz-adv-x="1804" 
d="M890 1573q-289 0 -289 -328v-815q0 -283 299 -287q289 0 289 332v815q0 283 -299 283zM30 858q0 191 68.5 353.5t186.5 281.5t276.5 186.5t338.5 67.5q181 0 339.5 -67.5t277.5 -186.5t187.5 -281.5t68.5 -353.5q0 -192 -68.5 -354t-187.5 -278.5t-277.5 -184.5
t-339.5 -70q-180 0 -338.5 67.5t-276.5 185.5t-186.5 281t-68.5 353zM683 2270q185 195 398 90q211 -104 295 31v-125q-160 -207 -361 -110q-203 98 -332 -17v131zM911 1931l-248 -112l-82 92l330 250l327 -250l-82 -92z" />
    <glyph glyph-name="uni1ED8" unicode="&#x1ed8;" horiz-adv-x="1804" 
d="M890 1573q-289 0 -289 -328v-815q0 -283 299 -287q289 0 289 332v815q0 283 -299 283zM30 858q0 191 68.5 353.5t186.5 281.5t276.5 186.5t338.5 67.5q181 0 339.5 -67.5t277.5 -186.5t187.5 -281.5t68.5 -353.5q0 -192 -68.5 -354t-187.5 -278.5t-277.5 -184.5
t-339.5 -70q-180 0 -338.5 67.5t-276.5 185.5t-186.5 281t-68.5 353zM1035 -98v-266h-267v266h267zM911 1931l-248 -112l-82 92l330 250l327 -250l-82 -92z" />
    <glyph glyph-name="Ugrave" unicode="&#xd9;" horiz-adv-x="1622" 
d="M813 -27q-721 0 -721 463v1284h549v-1228q0 -345 356 -347q359 -2 359 347v1228h174v-1245q0 -502 -717 -502zM541 1987l116 155l469 -235l-73 -90z" />
    <glyph glyph-name="Uacute" unicode="&#xda;" horiz-adv-x="1622" 
d="M813 -27q-721 0 -721 463v1284h549v-1228q0 -345 356 -347q359 -2 359 347v1228h174v-1245q0 -502 -717 -502zM633 1821l-74 90l461 233l123 -153z" />
    <glyph glyph-name="uni1EE6" unicode="&#x1ee6;" horiz-adv-x="1622" 
d="M813 -27q-721 0 -721 463v1284h549v-1228q0 -345 356 -347q359 -2 359 347v1228h174v-1245q0 -502 -717 -502zM950 1786q-195 184 -90 397q104 211 -31 295h125q207 -160 110 -360q-98 -203 17 -332h-131z" />
    <glyph glyph-name="Utilde" unicode="&#x168;" horiz-adv-x="1622" 
d="M813 -27q-721 0 -721 463v1284h549v-1228q0 -345 356 -347q359 -2 359 347v1228h174v-1245q0 -502 -717 -502zM651 1978q184 195 397 90q211 -104 295 31v-125q-160 -207 -360 -110q-203 98 -332 -17v131z" />
    <glyph glyph-name="uni1EE4" unicode="&#x1ee4;" horiz-adv-x="1622" 
d="M813 -27q-721 0 -721 463v1284h549v-1228q0 -345 356 -347q359 -2 359 347v1228h174v-1245q0 -502 -717 -502zM1035 -98v-266h-266v266h266z" />
    <glyph glyph-name="Uhorn" unicode="&#x1af;" horiz-adv-x="1622" 
d="M1530 1443v-968q0 -502 -717 -502q-721 0 -721 463v1284h549v-1228q0 -345 356 -347q359 -2 359 347v1228h174v-100q53 75 53 182h-125v275h248v-197q0 -103 -19.5 -180t-52.5 -135t-77 -99z" />
    <glyph glyph-name="uni1EEA" unicode="&#x1eea;" horiz-adv-x="1622" 
d="M541 1987l116 155l469 -235l-73 -90zM1530 1443v-968q0 -502 -717 -502q-721 0 -721 463v1284h549v-1228q0 -345 356 -347q359 -2 359 347v1228h174v-100q53 75 53 182h-125v275h248v-197q0 -103 -19.5 -180t-52.5 -135t-77 -99z" />
    <glyph glyph-name="uni1EE8" unicode="&#x1ee8;" horiz-adv-x="1622" 
d="M633 1821l-74 90l461 233l123 -153zM1530 1443v-968q0 -502 -717 -502q-721 0 -721 463v1284h549v-1228q0 -345 356 -347q359 -2 359 347v1228h174v-100q53 75 53 182h-125v275h248v-197q0 -103 -19.5 -180t-52.5 -135t-77 -99z" />
    <glyph glyph-name="uni1EEC" unicode="&#x1eec;" horiz-adv-x="1622" 
d="M950 1786q-195 184 -90 397q104 211 -31 295h125q207 -160 110 -360q-98 -203 17 -332h-131zM1530 1443v-968q0 -502 -717 -502q-721 0 -721 463v1284h549v-1228q0 -345 356 -347q359 -2 359 347v1228h174v-100q53 75 53 182h-125v275h248v-197q0 -103 -19.5 -180
t-52.5 -135t-77 -99z" />
    <glyph glyph-name="uni1EEE" unicode="&#x1eee;" horiz-adv-x="1622" 
d="M651 1978q184 195 397 90q211 -104 295 31v-125q-160 -207 -360 -110q-203 98 -332 -17v131zM1530 1443v-968q0 -502 -717 -502q-721 0 -721 463v1284h549v-1228q0 -345 356 -347q359 -2 359 347v1228h174v-100q53 75 53 182h-125v275h248v-197q0 -103 -19.5 -180
t-52.5 -135t-77 -99z" />
    <glyph glyph-name="uni1EF0" unicode="&#x1ef0;" horiz-adv-x="1622" 
d="M1035 -98v-266h-266v266h266zM1530 1443v-968q0 -502 -717 -502q-721 0 -721 463v1284h549v-1228q0 -345 356 -347q359 -2 359 347v1228h174v-100q53 75 53 182h-125v275h248v-197q0 -103 -19.5 -180t-52.5 -135t-77 -99z" />
    <glyph glyph-name="Ohorn" unicode="&#x1a0;" horiz-adv-x="1804" 
d="M890 1573q-289 0 -289 -328v-815q0 -283 299 -287q289 0 289 332v815q0 283 -299 283zM1501 1508q8 -7 16 -15q118 -119 187 -281.5t69 -353.5q0 -192 -69 -354t-187.5 -278.5t-277.5 -184.5t-339 -70q-180 0 -339 67.5t-276.5 185.5t-186 281t-68.5 353
q0 191 68.5 353.5t186 281.5t276.5 186.5t339 67.5t339 -67q91 -39 169 -95q12 14 23 29q57 77 57 188h-125v275h248v-197q0 -103 -19.5 -180t-52.5 -135q-17 -31 -38 -57z" />
    <glyph glyph-name="uni1EDC" unicode="&#x1edc;" horiz-adv-x="1804" 
d="M890 1573q-289 0 -289 -328v-815q0 -283 299 -287q289 0 289 332v815q0 283 -299 283zM509 1987l117 155l469 -235l-74 -90zM1501 1508q8 -7 16 -15q118 -119 187 -281.5t69 -353.5q0 -192 -69 -354t-187.5 -278.5t-277.5 -184.5t-339 -70q-180 0 -339 67.5t-276.5 185.5
t-186 281t-68.5 353q0 191 68.5 353.5t186 281.5t276.5 186.5t339 67.5t339 -67q91 -39 169 -95q12 14 23 29q57 77 57 188h-125v275h248v-197q0 -103 -19.5 -180t-52.5 -135q-17 -31 -38 -57z" />
    <glyph glyph-name="uni1EDA" unicode="&#x1eda;" horiz-adv-x="1804" 
d="M890 1573q-289 0 -289 -328v-815q0 -283 299 -287q289 0 289 332v815q0 283 -299 283zM640 1821l-74 90l461 233l123 -153zM1501 1508q8 -7 16 -15q118 -119 187 -281.5t69 -353.5q0 -192 -69 -354t-187.5 -278.5t-277.5 -184.5t-339 -70q-180 0 -339 67.5t-276.5 185.5
t-186 281t-68.5 353q0 191 68.5 353.5t186 281.5t276.5 186.5t339 67.5t339 -67q91 -39 169 -95q12 14 23 29q57 77 57 188h-125v275h248v-197q0 -103 -19.5 -180t-52.5 -135q-17 -31 -38 -57z" />
    <glyph glyph-name="uni1EDE" unicode="&#x1ede;" horiz-adv-x="1804" 
d="M890 1573q-289 0 -289 -328v-815q0 -283 299 -287q289 0 289 332v815q0 283 -299 283zM1156 1786q-195 184 -90 397q104 211 -31 295h125q207 -160 110 -360q-98 -203 17 -332h-131zM1501 1508q8 -7 16 -15q118 -119 187 -281.5t69 -353.5q0 -192 -69 -354t-187.5 -278.5
t-277.5 -184.5t-339 -70q-180 0 -339 67.5t-276.5 185.5t-186 281t-68.5 353q0 191 68.5 353.5t186 281.5t276.5 186.5t339 67.5t339 -67q91 -39 169 -95q12 14 23 29q57 77 57 188h-125v275h248v-197q0 -103 -19.5 -180t-52.5 -135q-17 -31 -38 -57z" />
    <glyph glyph-name="uni1EE0" unicode="&#x1ee0;" horiz-adv-x="1804" 
d="M890 1573q-289 0 -289 -328v-815q0 -283 299 -287q289 0 289 332v815q0 283 -299 283zM560 1978q184 195 397 90q211 -104 295 31v-125q-159 -207 -360 -110q-203 98 -332 -17v131zM1501 1508q8 -7 16 -15q118 -119 187 -281.5t69 -353.5q0 -192 -69 -354t-187.5 -278.5
t-277.5 -184.5t-339 -70q-180 0 -339 67.5t-276.5 185.5t-186 281t-68.5 353q0 191 68.5 353.5t186 281.5t276.5 186.5t339 67.5t339 -67q91 -39 169 -95q12 14 23 29q57 77 57 188h-125v275h248v-197q0 -103 -19.5 -180t-52.5 -135q-17 -31 -38 -57z" />
    <glyph glyph-name="uni1EE2" unicode="&#x1ee2;" horiz-adv-x="1804" 
d="M890 1573q-289 0 -289 -328v-815q0 -283 299 -287q289 0 289 332v815q0 283 -299 283zM1034 -98v-266h-266v266h266zM1501 1508q8 -7 16 -15q118 -119 187 -281.5t69 -353.5q0 -192 -69 -354t-187.5 -278.5t-277.5 -184.5t-339 -70q-180 0 -339 67.5t-276.5 185.5
t-186 281t-68.5 353q0 191 68.5 353.5t186 281.5t276.5 186.5t339 67.5t339 -67q91 -39 169 -95q12 14 23 29q57 77 57 188h-125v275h248v-197q0 -103 -19.5 -180t-52.5 -135q-17 -31 -38 -57z" />
    <glyph glyph-name="Ygrave" unicode="&#x1ef2;" horiz-adv-x="1478" 
d="M1255 1720h205l-461 -942v-778h-547l-2 770l-432 950h637l262 -688zM540 1987l117 155l469 -235l-74 -90z" />
    <glyph glyph-name="Yacute" unicode="&#xdd;" horiz-adv-x="1478" 
d="M1255 1720h205l-461 -942v-778h-547l-2 770l-432 950h637l262 -688zM746 1821l-73 90l460 233l123 -153z" />
    <glyph glyph-name="uni1EF6" unicode="&#x1ef6;" horiz-adv-x="1478" 
d="M1255 1720h205l-461 -942v-778h-547l-2 770l-432 950h637l262 -688zM921 1786q-194 184 -90 397q105 211 -30 295h124q207 -160 111 -360q-98 -203 16 -332h-131z" />
    <glyph glyph-name="uni1EF8" unicode="&#x1ef8;" horiz-adv-x="1478" 
d="M1255 1720h205l-461 -942v-778h-547l-2 770l-432 950h637l262 -688zM557 1978q184 195 397 90q211 -104 295 31v-125q-160 -207 -361 -110q-202 98 -331 -17v131z" />
    <glyph glyph-name="uni1EF4" unicode="&#x1ef4;" horiz-adv-x="1478" 
d="M1255 1720h205l-461 -942v-778h-547l-2 770l-432 950h637l262 -688zM884 -98v-266h-266v266h266z" />
    <glyph glyph-name="agrave" unicode="&#xe0;" 
d="M1320 1272v-1272h-426v66q-100 -95 -219 -95q-135 0 -252 50.5t-205 136.5q-86 88 -137 205.5t-51 285.5q0 135 51 252t137 203q68 63 151 110.5t171 68t182 -2.5t172 -86v78h426zM683 1165q-221 0 -221 -211v-610q0 -244 213 -244q199 19 219 187v680q-18 198 -211 198z
M462 1499l117 156l469 -236l-74 -90z" />
    <glyph glyph-name="aacute" unicode="&#xe1;" 
d="M1320 1272v-1272h-426v66q-100 -95 -219 -95q-135 0 -252 50.5t-205 136.5q-86 88 -137 205.5t-51 285.5q0 135 51 252t137 203q68 63 151 110.5t171 68t182 -2.5t172 -86v78h426zM683 1165q-221 0 -221 -211v-610q0 -244 213 -244q199 19 219 187v680q-18 198 -211 198z
M628 1333l-74 90l461 234l123 -154z" />
    <glyph glyph-name="uni1EA3" unicode="&#x1ea3;" 
d="M1320 1272v-1272h-426v66q-100 -95 -219 -95q-135 0 -252 50.5t-205 136.5q-86 88 -137 205.5t-51 285.5q0 135 51 252t137 203q68 63 151 110.5t171 68t182 -2.5t172 -86v78h426zM683 1165q-221 0 -221 -211v-610q0 -244 213 -244q199 19 219 187v680q-18 198 -211 198z
M731 1371q-194 184 -90 397q104 211 -31 295h125q207 -160 111 -360q-99 -203 16 -332h-131z" />
    <glyph glyph-name="atilde" unicode="&#xe3;" 
d="M1320 1272v-1272h-426v66q-100 -95 -219 -95q-135 0 -252 50.5t-205 136.5q-86 88 -137 205.5t-51 285.5q0 135 51 252t137 203q68 63 151 110.5t171 68t182 -2.5t172 -86v78h426zM683 1165q-221 0 -221 -211v-610q0 -244 213 -244q199 19 219 187v680q-18 198 -211 198z
M376 1491q184 195 397 90q211 -104 295 31v-125q-159 -207 -360 -111q-203 99 -332 -16v131z" />
    <glyph glyph-name="uni1EA1" unicode="&#x1ea1;" 
d="M1320 1272v-1272h-426v66q-100 -95 -219 -95q-135 0 -252 50.5t-205 136.5q-86 88 -137 205.5t-51 285.5q0 135 51 252t137 203q68 63 151 110.5t171 68t182 -2.5t172 -86v78h426zM683 1165q-221 0 -221 -211v-610q0 -244 213 -244q199 19 219 187v680q-18 198 -211 198z
M856 -98v-266h-267v266h267z" />
    <glyph glyph-name="acircumflex" unicode="&#xe2;" 
d="M1320 1272v-1272h-426v66q-100 -95 -219 -95q-135 0 -252 50.5t-205 136.5q-86 88 -137 205.5t-51 285.5q0 135 51 252t137 203q68 63 151 110.5t171 68t182 -2.5t172 -86v78h426zM683 1165q-221 0 -221 -211v-610q0 -244 213 -244q199 19 219 187v680q-18 198 -211 198z
M759 1444l-248 -113l-82 92l330 250l328 -250l-82 -92z" />
    <glyph glyph-name="uni1EA7" unicode="&#x1ea7;" 
d="M1320 1272v-1272h-426v66q-100 -95 -219 -95q-135 0 -252 50.5t-205 136.5q-86 88 -137 205.5t-51 285.5q0 135 51 252t137 203q68 63 151 110.5t171 68t182 -2.5t172 -86v78h426zM683 1165q-221 0 -221 -211v-610q0 -244 213 -244q199 19 219 187v680q-18 198 -211 198z
M519 1773l117 156l469 -236l-74 -90zM759 1444l-248 -113l-82 92l330 250l328 -250l-82 -92z" />
    <glyph glyph-name="uni1EA5" unicode="&#x1ea5;" 
d="M1320 1272v-1272h-426v66q-100 -95 -219 -95q-135 0 -252 50.5t-205 136.5q-86 88 -137 205.5t-51 285.5q0 135 51 252t137 203q68 63 151 110.5t171 68t182 -2.5t172 -86v78h426zM683 1165q-221 0 -221 -211v-610q0 -244 213 -244q199 19 219 187v680q-18 198 -211 198z
M553 1625l-74 90l461 234l123 -154zM759 1444l-248 -113l-82 92l330 250l328 -250l-82 -92z" />
    <glyph glyph-name="uni1EA9" unicode="&#x1ea9;" 
d="M1320 1272v-1272h-426v66q-100 -95 -219 -95q-135 0 -252 50.5t-205 136.5q-86 88 -137 205.5t-51 285.5q0 135 51 252t137 203q68 63 151 110.5t171 68t182 -2.5t172 -86v78h426zM683 1165q-221 0 -221 -211v-610q0 -244 213 -244q199 19 219 187v680q-18 198 -211 198z
M1042 1541q-194 184 -90 397q104 211 -31 295h125q207 -160 111 -360q-99 -203 16 -332h-131zM759 1444l-248 -113l-82 92l330 250l328 -250l-82 -92z" />
    <glyph glyph-name="uni1EAB" unicode="&#x1eab;" 
d="M1320 1272v-1272h-426v66q-100 -95 -219 -95q-135 0 -252 50.5t-205 136.5q-86 88 -137 205.5t-51 285.5q0 135 51 252t137 203q68 63 151 110.5t171 68t182 -2.5t172 -86v78h426zM683 1165q-221 0 -221 -211v-610q0 -244 213 -244q199 19 219 187v680q-18 198 -211 198z
M527 1802q184 195 397 90q211 -104 295 31v-125q-159 -207 -360 -111q-203 99 -332 -16v131zM759 1444l-248 -113l-82 92l330 250l328 -250l-82 -92z" />
    <glyph glyph-name="uni1EAD" unicode="&#x1ead;" 
d="M1320 1272v-1272h-426v66q-100 -95 -219 -95q-135 0 -252 50.5t-205 136.5q-86 88 -137 205.5t-51 285.5q0 135 51 252t137 203q68 63 151 110.5t171 68t182 -2.5t172 -86v78h426zM683 1165q-221 0 -221 -211v-610q0 -244 213 -244q199 19 219 187v680q-18 198 -211 198z
M856 -98v-266h-267v266h267zM759 1444l-248 -113l-82 92l330 250l328 -250l-82 -92z" />
    <glyph glyph-name="abreve" unicode="&#x103;" 
d="M1320 1272v-1272h-426v66q-100 -95 -219 -95q-135 0 -252 50.5t-205 136.5q-86 88 -137 205.5t-51 285.5q0 135 51 252t137 203q68 63 151 110.5t171 68t182 -2.5t172 -86v78h426zM683 1165q-221 0 -221 -211v-610q0 -244 213 -244q199 19 219 187v680q-18 198 -211 198z
M755 1352q-72 0 -133.5 22.5t-106.5 59t-70.5 85t-25.5 99.5h240q14 -55 43.5 -84t54.5 -29q23 0 53.5 29t46.5 84h232q0 -51 -26.5 -99.5t-73 -85t-106.5 -59t-128 -22.5z" />
    <glyph glyph-name="uni1EB1" unicode="&#x1eb1;" 
d="M1320 1272v-1272h-426v66q-100 -95 -219 -95q-135 0 -252 50.5t-205 136.5q-86 88 -137 205.5t-51 285.5q0 135 51 252t137 203q68 63 151 110.5t171 68t182 -2.5t172 -86v78h426zM683 1165q-221 0 -221 -211v-610q0 -244 213 -244q199 19 219 187v680q-18 198 -211 198z
M340 1792l117 156l469 -236l-74 -90zM754 1352q-71 0 -132.5 22.5t-106.5 59t-71 85t-26 99.5h240q14 -55 44 -84t54 -29q23 0 53.5 29t47.5 84h231q0 -51 -26.5 -99.5t-72.5 -85t-106.5 -59t-128.5 -22.5z" />
    <glyph glyph-name="uni1EAF" unicode="&#x1eaf;" 
d="M1320 1272v-1272h-426v66q-100 -95 -219 -95q-135 0 -252 50.5t-205 136.5q-86 88 -137 205.5t-51 285.5q0 135 51 252t137 203q68 63 151 110.5t171 68t182 -2.5t172 -86v78h426zM683 1165q-221 0 -221 -211v-610q0 -244 213 -244q199 19 219 187v680q-18 198 -211 198z
M591 1625l-74 90l461 234l123 -154zM754 1352q-71 0 -132.5 22.5t-106.5 59t-71 85t-26 99.5h240q14 -55 44 -84t54 -29q23 0 53.5 29t47.5 84h231q0 -51 -26.5 -99.5t-72.5 -85t-106.5 -59t-128.5 -22.5z" />
    <glyph glyph-name="uni1EB3" unicode="&#x1eb3;" 
d="M1320 1272v-1272h-426v66q-100 -95 -219 -95q-135 0 -252 50.5t-205 136.5q-86 88 -137 205.5t-51 285.5q0 135 51 252t137 203q68 63 151 110.5t171 68t182 -2.5t172 -86v78h426zM683 1165q-221 0 -221 -211v-610q0 -244 213 -244q199 19 219 187v680q-18 198 -211 198z
M844 1663q-194 184 -90 397q104 211 -31 295h125q207 -160 111 -360q-99 -203 16 -332h-131zM754 1352q-71 0 -132.5 22.5t-106.5 59t-71 85t-26 99.5h240q14 -55 44 -84t54 -29q23 0 53.5 29t47.5 84h231q0 -51 -26.5 -99.5t-72.5 -85t-106.5 -59t-128.5 -22.5z" />
    <glyph glyph-name="uni1EB5" unicode="&#x1eb5;" 
d="M1320 1272v-1272h-426v66q-100 -95 -219 -95q-135 0 -252 50.5t-205 136.5q-86 88 -137 205.5t-51 285.5q0 135 51 252t137 203q68 63 151 110.5t171 68t182 -2.5t172 -86v78h426zM683 1165q-221 0 -221 -211v-610q0 -244 213 -244q199 19 219 187v680q-18 198 -211 198z
M527 1802q184 195 397 90q211 -104 295 31v-125q-159 -207 -360 -111q-203 99 -332 -16v131zM754 1352q-71 0 -132.5 22.5t-106.5 59t-71 85t-26 99.5h240q14 -55 44 -84t54 -29q23 0 53.5 29t47.5 84h231q0 -51 -26.5 -99.5t-72.5 -85t-106.5 -59t-128.5 -22.5z" />
    <glyph glyph-name="uni1EB7" unicode="&#x1eb7;" 
d="M1320 1272v-1272h-426v66q-100 -95 -219 -95q-135 0 -252 50.5t-205 136.5q-86 88 -137 205.5t-51 285.5q0 135 51 252t137 203q68 63 151 110.5t171 68t182 -2.5t172 -86v78h426zM683 1165q-221 0 -221 -211v-610q0 -244 213 -244q199 19 219 187v680q-18 198 -211 198z
M856 -98v-266h-267v266h267zM754 1352q-71 0 -132.5 22.5t-106.5 59t-71 85t-26 99.5h240q14 -55 44 -84t54 -29q23 0 53.5 29t47.5 84h231q0 -51 -26.5 -99.5t-72.5 -85t-106.5 -59t-128.5 -22.5z" />
    <glyph glyph-name="egrave" unicode="&#xe8;" horiz-adv-x="1335" 
d="M667 1165q-213 0 -213 -243v-156h434v188q0 211 -221 211zM454 610v-299q0 -211 233.5 -219t421.5 285l168 -64q-117 -180 -280 -264q-162 -82 -310 -80q-221 4 -375.5 111.5t-232.5 281.5q-49 119 -49 269q0 151 49 268q37 86 96.5 158.5t136 125t169 82t194.5 29.5
q135 0 252 -51t203 -139q174 -172 174 -494h-850zM306 1499l117 156l469 -236l-74 -90z" />
    <glyph glyph-name="eacute" unicode="&#xe9;" horiz-adv-x="1335" 
d="M667 1165q-213 0 -213 -243v-156h434v188q0 211 -221 211zM454 610v-299q0 -211 233.5 -219t421.5 285l168 -64q-117 -180 -280 -264q-162 -82 -310 -80q-221 4 -375.5 111.5t-232.5 281.5q-49 119 -49 269q0 151 49 268q37 86 96.5 158.5t136 125t169 82t194.5 29.5
q135 0 252 -51t203 -139q174 -172 174 -494h-850zM448 1333l-74 90l461 234l123 -154z" />
    <glyph glyph-name="uni1EBB" unicode="&#x1ebb;" horiz-adv-x="1335" 
d="M667 1165q-213 0 -213 -243v-156h434v188q0 211 -221 211zM454 610v-299q0 -211 233.5 -219t421.5 285l168 -64q-117 -180 -280 -264q-162 -82 -310 -80q-221 4 -375.5 111.5t-232.5 281.5q-49 119 -49 269q0 151 49 268q37 86 96.5 158.5t136 125t169 82t194.5 29.5
q135 0 252 -51t203 -139q174 -172 174 -494h-850zM731 1371q-194 184 -90 397q104 211 -31 295h125q207 -160 111 -360q-99 -203 16 -332h-131z" />
    <glyph glyph-name="uni1EBD" unicode="&#x1ebd;" horiz-adv-x="1335" 
d="M667 1165q-213 0 -213 -243v-156h434v188q0 211 -221 211zM454 610v-299q0 -211 233.5 -219t421.5 285l168 -64q-117 -180 -280 -264q-162 -82 -310 -80q-221 4 -375.5 111.5t-232.5 281.5q-49 119 -49 269q0 151 49 268q37 86 96.5 158.5t136 125t169 82t194.5 29.5
q135 0 252 -51t203 -139q174 -172 174 -494h-850zM376 1491q184 195 397 90q211 -104 295 31v-125q-159 -207 -360 -111q-203 99 -332 -16v131z" />
    <glyph glyph-name="uni1EB9" unicode="&#x1eb9;" horiz-adv-x="1335" 
d="M667 1165q-213 0 -213 -243v-156h434v188q0 211 -221 211zM454 610v-299q0 -211 233.5 -219t421.5 285l168 -64q-117 -180 -280 -264q-162 -82 -310 -80q-221 4 -375.5 111.5t-232.5 281.5q-49 119 -49 269q0 151 49 268q37 86 96.5 158.5t136 125t169 82t194.5 29.5
q135 0 252 -51t203 -139q174 -172 174 -494h-850zM809 -98v-266h-267v266h267z" />
    <glyph glyph-name="ecircumflex" unicode="&#xea;" horiz-adv-x="1335" 
d="M667 1165q-213 0 -213 -243v-156h434v188q0 211 -221 211zM454 610v-299q0 -211 233.5 -219t421.5 285l168 -64q-117 -180 -280 -264q-162 -82 -310 -80q-221 4 -375.5 111.5t-232.5 281.5q-49 119 -49 269q0 151 49 268q37 86 96.5 158.5t136 125t169 82t194.5 29.5
q135 0 252 -51t203 -139q174 -172 174 -494h-850zM669 1444l-248 -113l-82 92l330 250l328 -250l-82 -92z" />
    <glyph glyph-name="uni1EC1" unicode="&#x1ec1;" horiz-adv-x="1335" 
d="M667 1165q-213 0 -213 -243v-156h434v188q0 211 -221 211zM454 610v-299q0 -211 233.5 -219t421.5 285l168 -64q-117 -180 -280 -264q-162 -82 -310 -80q-221 4 -375.5 111.5t-232.5 281.5q-49 119 -49 269q0 151 49 268q37 86 96.5 158.5t136 125t169 82t194.5 29.5
q135 0 252 -51t203 -139q174 -172 174 -494h-850zM401 1773l117 156l469 -236l-74 -90zM669 1444l-248 -113l-82 92l330 250l328 -250l-82 -92z" />
    <glyph glyph-name="uni1EBF" unicode="&#x1ebf;" horiz-adv-x="1335" 
d="M667 1165q-213 0 -213 -243v-156h434v188q0 211 -221 211zM454 610v-299q0 -211 233.5 -219t421.5 285l168 -64q-117 -180 -280 -264q-162 -82 -310 -80q-221 4 -375.5 111.5t-232.5 281.5q-49 119 -49 269q0 151 49 268q37 86 96.5 158.5t136 125t169 82t194.5 29.5
q135 0 252 -51t203 -139q174 -172 174 -494h-850zM467 1626l-74 90l461 234l123 -154zM669 1444l-248 -113l-82 92l330 250l328 -250l-82 -92z" />
    <glyph glyph-name="uni1EC3" unicode="&#x1ec3;" horiz-adv-x="1335" 
d="M667 1165q-213 0 -213 -243v-156h434v188q0 211 -221 211zM454 610v-299q0 -211 233.5 -219t421.5 285l168 -64q-117 -180 -280 -264q-162 -82 -310 -80q-221 4 -375.5 111.5t-232.5 281.5q-49 119 -49 269q0 151 49 268q37 86 96.5 158.5t136 125t169 82t194.5 29.5
q135 0 252 -51t203 -139q174 -172 174 -494h-850zM910 1541q-194 184 -90 397q104 211 -31 295h125q207 -160 111 -360q-99 -203 16 -332h-131zM669 1444l-248 -113l-82 92l330 250l328 -250l-82 -92z" />
    <glyph glyph-name="uni1EC5" unicode="&#x1ec5;" horiz-adv-x="1335" 
d="M667 1165q-213 0 -213 -243v-156h434v188q0 211 -221 211zM454 610v-299q0 -211 233.5 -219t421.5 285l168 -64q-117 -180 -280 -264q-162 -82 -310 -80q-221 4 -375.5 111.5t-232.5 281.5q-49 119 -49 269q0 151 49 268q37 86 96.5 158.5t136 125t169 82t194.5 29.5
q135 0 252 -51t203 -139q174 -172 174 -494h-850zM461 1803q184 195 397 90q211 -104 295 31v-125q-159 -207 -360 -111q-203 99 -332 -16v131zM669 1444l-248 -113l-82 92l330 250l328 -250l-82 -92z" />
    <glyph glyph-name="uni1EC7" unicode="&#x1ec7;" horiz-adv-x="1335" 
d="M667 1165q-213 0 -213 -243v-156h434v188q0 211 -221 211zM454 610v-299q0 -211 233.5 -219t421.5 285l168 -64q-117 -180 -280 -264q-162 -82 -310 -80q-221 4 -375.5 111.5t-232.5 281.5q-49 119 -49 269q0 151 49 268q37 86 96.5 158.5t136 125t169 82t194.5 29.5
q135 0 252 -51t203 -139q174 -172 174 -494h-850zM809 -98v-266h-267v266h267zM669 1444l-248 -113l-82 92l330 250l328 -250l-82 -92z" />
    <glyph glyph-name="igrave" unicode="&#xec;" horiz-adv-x="630" 
d="M103 0v1272h426v-1272h-426zM-12 1499l117 156l469 -236l-74 -90z" />
    <glyph glyph-name="iacute" unicode="&#xed;" horiz-adv-x="630" 
d="M102 0v1272h426v-1272h-426zM143 1333l-74 90l461 234l123 -154z" />
    <glyph glyph-name="uni1EC9" unicode="&#x1ec9;" horiz-adv-x="630" 
d="M102 0v1272h426v-1272h-426zM325 1371q-194 184 -90 397q105 211 -30 295h124q207 -160 111 -360q-98 -203 16 -332h-131z" />
    <glyph glyph-name="itilde" unicode="&#x129;" horiz-adv-x="630" 
d="M103 0v1272h426v-1272h-426zM9 1491q184 195 397 90q211 -104 295 31v-125q-160 -207 -360 -111q-203 99 -332 -16v131z" />
    <glyph glyph-name="uni1ECB" unicode="&#x1ecb;" horiz-adv-x="630" 
d="M528 1780v-350h-426v350h426zM102 0v1272h426v-1272h-426zM450 -98v-266h-266v266h266z" />
    <glyph glyph-name="ograve" unicode="&#xf2;" horiz-adv-x="1351" 
d="M667 1165q-213 0 -213 -243v-611q0 -209 221 -211q213 0 213 244v610q0 211 -221 211zM30 633q0 143 50 265t137 210t205 137t253 49q133 -4 251 -52t205 -135t138 -208t51 -266q0 -148 -51 -268.5t-138 -206.5t-205 -135.5t-251 -51.5q-135 2 -253 51.5t-205 135.5
t-137 206.5t-50 268.5zM300 1499l117 156l469 -236l-74 -90z" />
    <glyph glyph-name="oacute" unicode="&#xf3;" horiz-adv-x="1351" 
d="M667 1165q-213 0 -213 -243v-611q0 -209 221 -211q213 0 213 244v610q0 211 -221 211zM30 633q0 143 50 265t137 210t205 137t253 49q133 -4 251 -52t205 -135t138 -208t51 -266q0 -148 -51 -268.5t-138 -206.5t-205 -135.5t-251 -51.5q-135 2 -253 51.5t-205 135.5
t-137 206.5t-50 268.5zM483 1333l-74 90l461 234l123 -154z" />
    <glyph glyph-name="uni1ECF" unicode="&#x1ecf;" horiz-adv-x="1351" 
d="M667 1165q-213 0 -213 -243v-611q0 -209 221 -211q213 0 213 244v610q0 211 -221 211zM30 633q0 143 50 265t137 210t205 137t253 49q133 -4 251 -52t205 -135t138 -208t51 -266q0 -148 -51 -268.5t-138 -206.5t-205 -135.5t-251 -51.5q-135 2 -253 51.5t-205 135.5
t-137 206.5t-50 268.5zM797 1371q-194 184 -90 397q104 211 -31 295h125q207 -160 111 -360q-99 -203 16 -332h-131z" />
    <glyph glyph-name="otilde" unicode="&#xf5;" horiz-adv-x="1351" 
d="M667 1165q-213 0 -213 -243v-611q0 -209 221 -211q213 0 213 244v610q0 211 -221 211zM30 633q0 143 50 265t137 210t205 137t253 49q133 -4 251 -52t205 -135t138 -208t51 -266q0 -148 -51 -268.5t-138 -206.5t-205 -135.5t-251 -51.5q-135 2 -253 51.5t-205 135.5
t-137 206.5t-50 268.5zM325 1491q184 195 397 90q211 -104 295 31v-125q-160 -207 -360 -111q-203 99 -332 -16v131z" />
    <glyph glyph-name="uni1ECD" unicode="&#x1ecd;" horiz-adv-x="1351" 
d="M667 1165q-213 0 -213 -243v-611q0 -209 221 -211q213 0 213 244v610q0 211 -221 211zM30 633q0 143 50 265t137 210t205 137t253 49q133 -4 251 -52t205 -135t138 -208t51 -266q0 -148 -51 -268.5t-138 -206.5t-205 -135.5t-251 -51.5q-135 2 -253 51.5t-205 135.5
t-137 206.5t-50 268.5zM808 -98v-266h-266v266h266z" />
    <glyph glyph-name="ocircumflex" unicode="&#xf4;" horiz-adv-x="1351" 
d="M667 1165q-213 0 -213 -243v-611q0 -209 221 -211q213 0 213 244v610q0 211 -221 211zM30 633q0 143 50 265t137 210t205 137t253 49q133 -4 251 -52t205 -135t138 -208t51 -266q0 -148 -51 -268.5t-138 -206.5t-205 -135.5t-251 -51.5q-135 2 -253 51.5t-205 135.5
t-137 206.5t-50 268.5zM669 1444l-248 -113l-82 92l330 250l328 -250l-82 -92z" />
    <glyph glyph-name="uni1ED3" unicode="&#x1ed3;" horiz-adv-x="1351" 
d="M667 1165q-213 0 -213 -243v-611q0 -209 221 -211q213 0 213 244v610q0 211 -221 211zM30 633q0 143 50 265t137 210t205 137t253 49q133 -4 251 -52t205 -135t138 -208t51 -266q0 -148 -51 -268.5t-138 -206.5t-205 -135.5t-251 -51.5q-135 2 -253 51.5t-205 135.5
t-137 206.5t-50 268.5zM404 1772l117 156l469 -236l-74 -90zM669 1444l-248 -113l-82 92l330 250l328 -250l-82 -92z" />
    <glyph glyph-name="uni1ED1" unicode="&#x1ed1;" horiz-adv-x="1351" 
d="M667 1165q-213 0 -213 -243v-611q0 -209 221 -211q213 0 213 244v610q0 211 -221 211zM30 633q0 143 50 265t137 210t205 137t253 49q133 -4 251 -52t205 -135t138 -208t51 -266q0 -148 -51 -268.5t-138 -206.5t-205 -135.5t-251 -51.5q-135 2 -253 51.5t-205 135.5
t-137 206.5t-50 268.5zM473 1626l-74 90l461 234l123 -154zM669 1444l-248 -113l-82 92l330 250l328 -250l-82 -92z" />
    <glyph glyph-name="uni1ED5" unicode="&#x1ed5;" horiz-adv-x="1351" 
d="M667 1165q-213 0 -213 -243v-611q0 -209 221 -211q213 0 213 244v610q0 211 -221 211zM30 633q0 143 50 265t137 210t205 137t253 49q133 -4 251 -52t205 -135t138 -208t51 -266q0 -148 -51 -268.5t-138 -206.5t-205 -135.5t-251 -51.5q-135 2 -253 51.5t-205 135.5
t-137 206.5t-50 268.5zM891 1550q-194 184 -90 397q104 211 -31 295h125q207 -160 111 -360q-99 -203 16 -332h-131zM669 1444l-248 -113l-82 92l330 250l328 -250l-82 -92z" />
    <glyph glyph-name="uni1ED7" unicode="&#x1ed7;" horiz-adv-x="1351" 
d="M667 1165q-213 0 -213 -243v-611q0 -209 221 -211q213 0 213 244v610q0 211 -221 211zM30 633q0 143 50 265t137 210t205 137t253 49q133 -4 251 -52t205 -135t138 -208t51 -266q0 -148 -51 -268.5t-138 -206.5t-205 -135.5t-251 -51.5q-135 2 -253 51.5t-205 135.5
t-137 206.5t-50 268.5zM448 1803q184 195 397 90q211 -104 295 31v-125q-160 -207 -360 -111q-203 99 -332 -16v131zM669 1444l-248 -113l-82 92l330 250l328 -250l-82 -92z" />
    <glyph glyph-name="uni1ED9" unicode="&#x1ed9;" horiz-adv-x="1351" 
d="M667 1165q-213 0 -213 -243v-611q0 -209 221 -211q213 0 213 244v610q0 211 -221 211zM30 633q0 143 50 265t137 210t205 137t253 49q133 -4 251 -52t205 -135t138 -208t51 -266q0 -148 -51 -268.5t-138 -206.5t-205 -135.5t-251 -51.5q-135 2 -253 51.5t-205 135.5
t-137 206.5t-50 268.5zM808 -98v-266h-266v266h266zM669 1444l-248 -113l-82 92l330 250l328 -250l-82 -92z" />
    <glyph glyph-name="glyph216" unicode="&#xf9;" horiz-adv-x="1370" 
d="M534 276q0 -170 143 -170q146 0 164 158v1008h426v-1272h-426v57q-121 -80 -299 -86q-178 -8 -309 86.5t-131 360.5v854h432v-996zM313 1499l117 156l469 -236l-74 -90z" />
    <glyph glyph-name="glyph217" unicode="&#xfa;" horiz-adv-x="1370" 
d="M534 276q0 -170 143 -170q146 0 164 158v1008h426v-1272h-426v57q-121 -80 -299 -86q-178 -8 -309 86.5t-131 360.5v854h432v-996zM483 1333l-74 90l461 234l123 -154z" />
    <glyph glyph-name="uni1EE7" unicode="&#x1ee7;" horiz-adv-x="1370" 
d="M534 276q0 -170 143 -170q146 0 164 158v1008h426v-1272h-426v57q-121 -80 -299 -86q-178 -8 -309 86.5t-131 360.5v854h432v-996zM721 1371q-194 184 -90 397q105 211 -30 295h124q207 -160 111 -360q-98 -203 16 -332h-131z" />
    <glyph glyph-name="utilde" unicode="&#x169;" horiz-adv-x="1370" 
d="M534 276q0 -170 143 -170q146 0 164 158v1008h426v-1272h-426v57q-121 -80 -299 -86q-178 -8 -309 86.5t-131 360.5v854h432v-996zM400 1491q185 195 398 90q210 -104 294 31v-125q-159 -207 -360 -111q-203 99 -332 -16v131z" />
    <glyph glyph-name="uni1EE5" unicode="&#x1ee5;" horiz-adv-x="1370" 
d="M534 276q0 -170 143 -170q146 0 164 158v1008h426v-1272h-426v57q-121 -80 -299 -86q-178 -8 -309 86.5t-131 360.5v854h432v-996zM846 -98v-266h-267v266h267z" />
    <glyph glyph-name="uhorn" unicode="&#x1b0;" horiz-adv-x="1370" 
d="M534 276q0 -170 143 -170q146 0 164 158v1008h426v-1272h-426v57q-121 -80 -299 -86q-178 -8 -309 86.5t-131 360.5v854h432v-996zM1438 1529v-141q0 -103 -19.5 -180t-52.5 -135t-77.5 -99t-91.5 -68l-82 82q86 57 143 134t57 188h-125v219h248z" />
    <glyph glyph-name="uni1EEB" unicode="&#x1eeb;" horiz-adv-x="1370" 
d="M313 1499l117 156l469 -236l-74 -90zM1268 956v-956h-426v57q-121 -80 -299 -86q-178 -8 -309.5 86.5t-131.5 360.5v854h433v-996q0 -170 143 -170q145 0 164 158v1008h426v-136q47 73 47 174h-125v219h248v-141q0 -103 -19.5 -180t-52.5 -135t-77 -99z" />
    <glyph glyph-name="uni1EE9" unicode="&#x1ee9;" horiz-adv-x="1370" 
d="M483 1333l-73 90l460 234l123 -154zM1268 956v-956h-426v57q-121 -80 -299 -86q-178 -8 -309.5 86.5t-131.5 360.5v854h433v-996q0 -170 143 -170q145 0 164 158v1008h426v-136q47 73 47 174h-125v219h248v-141q0 -103 -19.5 -180t-52.5 -135t-77 -99z" />
    <glyph glyph-name="uni1EED" unicode="&#x1eed;" horiz-adv-x="1370" 
d="M722 1371q-195 184 -90 397q104 211 -31 295h125q207 -160 110 -360q-98 -203 17 -332h-131zM1268 956v-956h-426v57q-121 -80 -299 -86q-178 -8 -309.5 86.5t-131.5 360.5v854h433v-996q0 -170 143 -170q145 0 164 158v1008h426v-136q47 73 47 174h-125v219h248v-141
q0 -103 -19.5 -180t-52.5 -135t-77 -99z" />
    <glyph glyph-name="uni1EEF" unicode="&#x1eef;" horiz-adv-x="1370" 
d="M401 1491q184 195 397 90q211 -104 295 31v-125q-160 -207 -361 -111q-202 99 -331 -16v131zM1268 956v-956h-426v57q-121 -80 -299 -86q-178 -8 -309.5 86.5t-131.5 360.5v854h433v-996q0 -170 143 -170q145 0 164 158v1008h426v-136q47 73 47 174h-125v219h248v-141
q0 -103 -19.5 -180t-52.5 -135t-77 -99z" />
    <glyph glyph-name="uni1EF1" unicode="&#x1ef1;" horiz-adv-x="1370" 
d="M846 -98v-266h-266v266h266zM1268 956v-956h-426v57q-121 -80 -299 -86q-178 -8 -309.5 86.5t-131.5 360.5v854h433v-996q0 -170 143 -170q145 0 164 158v1008h426v-136q47 73 47 174h-125v219h248v-141q0 -103 -19.5 -180t-52.5 -135t-77 -99z" />
    <glyph glyph-name="ohorn" unicode="&#x1a1;" horiz-adv-x="1351" 
d="M667 1165q-213 0 -213 -243v-611q0 -209 221 -211q213 0 213 244v610q0 211 -221 211zM1218 997q29 -46 51 -98q51 -121 51 -266q0 -148 -51 -268.5t-138.5 -206.5t-205 -135.5t-250.5 -51.5q-135 2 -253 51.5t-205 135.5t-137 206.5t-50 268.5q0 143 50 265t137 210
t205 137t253 49q133 -4 250.5 -52t205.5 -135q5 -5 10 -11q32 65 32 148h-125v275h248v-197q0 -103 -19.5 -180t-52.5 -135z" />
    <glyph glyph-name="uni1EDD" unicode="&#x1edd;" horiz-adv-x="1351" 
d="M667 1165q-213 0 -213 -243v-611q0 -209 221 -211q213 0 213 244v610q0 211 -221 211zM300 1499l117 156l469 -236l-74 -90zM1218 997q29 -46 51 -98q51 -121 51 -266q0 -148 -51 -268.5t-138.5 -206.5t-205 -135.5t-250.5 -51.5q-135 2 -253 51.5t-205 135.5t-137 206.5
t-50 268.5q0 143 50 265t137 210t205 137t253 49q133 -4 250.5 -52t205.5 -135q5 -5 10 -11q32 65 32 148h-125v275h248v-197q0 -103 -19.5 -180t-52.5 -135z" />
    <glyph glyph-name="uni1EDB" unicode="&#x1edb;" horiz-adv-x="1351" 
d="M667 1165q-213 0 -213 -243v-611q0 -209 221 -211q213 0 213 244v610q0 211 -221 211zM482 1333l-73 90l460 234l123 -154zM1218 997q29 -46 51 -98q51 -121 51 -266q0 -148 -51 -268.5t-138.5 -206.5t-205 -135.5t-250.5 -51.5q-135 2 -253 51.5t-205 135.5t-137 206.5
t-50 268.5q0 143 50 265t137 210t205 137t253 49q133 -4 250.5 -52t205.5 -135q5 -5 10 -11q32 65 32 148h-125v275h248v-197q0 -103 -19.5 -180t-52.5 -135z" />
    <glyph glyph-name="uni1EDF" unicode="&#x1edf;" horiz-adv-x="1351" 
d="M667 1165q-213 0 -213 -243v-611q0 -209 221 -211q213 0 213 244v610q0 211 -221 211zM797 1371q-195 184 -90 397q104 211 -31 295h125q207 -160 110 -360q-98 -203 17 -332h-131zM1218 997q29 -46 51 -98q51 -121 51 -266q0 -148 -51 -268.5t-138.5 -206.5t-205 -135.5
t-250.5 -51.5q-135 2 -253 51.5t-205 135.5t-137 206.5t-50 268.5q0 143 50 265t137 210t205 137t253 49q133 -4 250.5 -52t205.5 -135q5 -5 10 -11q32 65 32 148h-125v275h248v-197q0 -103 -19.5 -180t-52.5 -135z" />
    <glyph glyph-name="uni1EE1" unicode="&#x1ee1;" horiz-adv-x="1351" 
d="M667 1165q-213 0 -213 -243v-611q0 -209 221 -211q213 0 213 244v610q0 211 -221 211zM325 1491q184 195 397 90q211 -104 295 31v-125q-160 -207 -361 -111q-202 99 -331 -16v131zM1218 997q29 -46 51 -98q51 -121 51 -266q0 -148 -51 -268.5t-138.5 -206.5t-205 -135.5
t-250.5 -51.5q-135 2 -253 51.5t-205 135.5t-137 206.5t-50 268.5q0 143 50 265t137 210t205 137t253 49q133 -4 250.5 -52t205.5 -135q5 -5 10 -11q32 65 32 148h-125v275h248v-197q0 -103 -19.5 -180t-52.5 -135z" />
    <glyph glyph-name="uni1EE3" unicode="&#x1ee3;" horiz-adv-x="1351" 
d="M667 1165q-213 0 -213 -243v-611q0 -209 221 -211q213 0 213 244v610q0 211 -221 211zM808 -98v-266h-266v266h266zM1218 997q29 -46 51 -98q51 -121 51 -266q0 -148 -51 -268.5t-138.5 -206.5t-205 -135.5t-250.5 -51.5q-135 2 -253 51.5t-205 135.5t-137 206.5
t-50 268.5q0 143 50 265t137 210t205 137t253 49q133 -4 250.5 -52t205.5 -135q5 -5 10 -11q32 65 32 148h-125v275h248v-197q0 -103 -19.5 -180t-52.5 -135z" />
    <glyph glyph-name="ygrave" unicode="&#x1ef3;" horiz-adv-x="1150" 
d="M1014 1272h137l-442 -1272l-97 -281q-34 -100 -104 -145t-156 -45q-47 0 -112 16q-62 19 -98 67t-44 109.5t15.5 128t81.5 119.5l182 -139q-47 -10 -60.5 -49t-3.5 -74q2 -18 22.5 -32.5t47.5 -14.5t53.5 18.5t42.5 61.5l86 260h-131l-434 1272h430l289 -875zM313 1499
l117 156l469 -236l-74 -90z" />
    <glyph glyph-name="glyph234" unicode="&#xfd;" horiz-adv-x="1150" 
d="M1014 1272h137l-442 -1272l-97 -281q-34 -100 -104 -145t-156 -45q-47 0 -112 16q-62 19 -98 67t-44 109.5t15.5 128t81.5 119.5l182 -139q-47 -10 -60.5 -49t-3.5 -74q2 -18 22.5 -32.5t47.5 -14.5t53.5 18.5t42.5 61.5l86 260h-131l-434 1272h430l289 -875zM444 1333
l-73 90l460 234l123 -154z" />
    <glyph glyph-name="uni1EF7" unicode="&#x1ef7;" horiz-adv-x="1150" 
d="M1014 1272h137l-442 -1272l-97 -281q-34 -100 -104 -145t-156 -45q-47 0 -112 16q-62 19 -98 67t-44 109.5t15.5 128t81.5 119.5l182 -139q-47 -10 -60.5 -49t-3.5 -74q2 -18 22.5 -32.5t47.5 -14.5t53.5 18.5t42.5 61.5l86 260h-131l-434 1272h430l289 -875zM722 1371
q-195 184 -90 397q104 211 -31 295h125q207 -160 110 -360q-98 -203 17 -332h-131z" />
    <glyph glyph-name="uni1EF9" unicode="&#x1ef9;" horiz-adv-x="1150" 
d="M1014 1272h137l-442 -1272l-97 -281q-34 -100 -104 -145t-156 -45q-47 0 -112 16q-62 19 -98 67t-44 109.5t15.5 128t81.5 119.5l182 -139q-47 -10 -60.5 -49t-3.5 -74q2 -18 22.5 -32.5t47.5 -14.5t53.5 18.5t42.5 61.5l86 260h-131l-434 1272h430l289 -875zM354 1491
q184 195 397 90q211 -104 295 31v-125q-160 -207 -361 -111q-202 99 -331 -16v131z" />
    <glyph glyph-name="uni1EF5" unicode="&#x1ef5;" horiz-adv-x="1150" 
d="M1014 1272h137l-442 -1272l-97 -281q-34 -100 -104 -145t-156 -45q-47 0 -112 16q-62 19 -98 67t-44 109.5t15.5 128t81.5 119.5l182 -139q-47 -10 -60.5 -49t-3.5 -74q2 -18 22.5 -32.5t47.5 -14.5t53.5 18.5t42.5 61.5l86 260h-131l-434 1272h430l289 -875zM979 -98
v-266h-266v266h266z" />
    <glyph glyph-name="divide" unicode="&#xf7;" horiz-adv-x="1706" 
 />
    <glyph glyph-name="ugrave" horiz-adv-x="582" 
 />
    <glyph glyph-name="uacute" horiz-adv-x="580" 
 />
    <glyph glyph-name="yacute" horiz-adv-x="629" 
 />
    <glyph glyph-name="Ccaron" unicode="&#x10c;" horiz-adv-x="1274" 
 />
    <glyph glyph-name="ccaron" unicode="&#x10d;" horiz-adv-x="922" 
 />
    <glyph glyph-name="Dslash" unicode="&#x110;" horiz-adv-x="1622" 
d="M691 1720q883 0 883 -860t-852 -860h-625v1720h594zM613 162h68q342 0 342 688t-342 688h-68v-1376zM-81 967h809v-174h-809v174z" />
    <glyph glyph-name="dcroat" unicode="&#x111;" 
d="M1320 1720v-1720h-426v66q-100 -95 -219 -95q-133 2 -251 51.5t-205 135.5t-138 206.5t-51 268.5q0 153 51 269t137 202q68 63 151 110.5t171 68t178 6t176 -74.5v506h426zM683 1165q-221 0 -221 -211v-610q0 -244 213 -244q199 2 219 170v697q-18 198 -211 198z
M583 1538h809v-174h-809v174z" />
    <glyph glyph-name="quoteleft" unicode="&#x2018;" horiz-adv-x="538" 
d="M86 1141v311q0 92 17.5 161.5t47 122t69.5 89.5t83 61l74 -74q-78 -51 -129 -120.5t-51 -169.5h270v-381h-381z" />
    <glyph glyph-name="quoteright" unicode="&#x2019;" horiz-adv-x="636" 
d="M522 1825v-312q0 -92 -17.5 -161.5t-47 -121.5t-69.5 -89t-83 -62l-74 74q78 51 129 120.5t51 170.5h-270v381h381z" />
    <glyph glyph-name="quotedblleft" unicode="&#x201c;" horiz-adv-x="999" 
d="M537 1141v311q0 92 17 161.5t47 122t70 89.5t83 61l73 -74q-77 -51 -128.5 -120.5t-51.5 -169.5h270v-381h-380zM86 1141v311q0 92 17.5 161.5t47 122t69.5 89.5t83 61l74 -74q-78 -51 -129 -120.5t-51 -169.5h270v-381h-381z" />
    <glyph glyph-name="quotedblright" unicode="&#x201d;" horiz-adv-x="1032" 
d="M942 1825v-312q0 -92 -17.5 -161.5t-47 -121.5t-69.5 -89t-83 -62l-74 74q78 51 129 120.5t51 170.5h-270v381h381zM471 1825v-312q0 -92 -17.5 -161.5t-47 -121.5t-69.5 -89t-83 -62l-74 74q78 51 129 120.5t51 170.5h-270v381h381z" />
    <glyph glyph-name="ellipsis" unicode="&#x2026;" horiz-adv-x="538" 
d="M86 1141v311q0 92 17.5 161.5t47 122t69.5 89.5t83 61l74 -74q-78 -51 -129 -120.5t-51 -169.5h270v-381h-381z" />
  </font>
</defs>
</svg>
