<svg xmlns="http://www.w3.org/2000/svg">
<defs>
<font id="UTMPierre" horiz-adv-x="2105" >
  <font-face 
    font-family="UTM Pierre"
    font-weight="400"
    font-stretch="normal"
    units-per-em="2048"
    panose-1="2 4 6 3 5 5 6 2 2 4"
    ascent="1638"
    descent="-410"
    x-height="913"
    cap-height="1706"
    bbox="-1202 -1348 4942 2488"
    underline-thickness="109"
    underline-position="-143"
    unicode-range="U+0020-U+2026"
  />
<missing-glyph horiz-adv-x="5040" 
d="M3351 2045h10q37 -10 37 -52q0 -12 -32 -57h-28q0 24 28 54l2 10q-5 13 -10 15h-9q-8 0 -10 -19h-30q6 49 42 49zM2019 2016l29 -31q0 -16 -40 -30h-19l-59 12l-11 -12l-28 25q11 29 43 29h11l42 -11h2q10 0 30 18zM468 1980h142v-60h-94v-75h89v-59h-89v-129l-5 -5h-49
v323zM1155 1980h43l6 -5v-78h30v-52h-30v-188l-6 -5h-49v193h-25v52h25v78zM1621 1980h42l4 -5v-94h3q23 24 54 24h2q58 0 83 -71l2 -39v-143h-52v115q0 80 -42 80h-7q-43 0 -43 -86v-109h-51v323zM2200 1980h49l5 -5v-222q10 -51 45 -51q44 7 44 59v214l5 5h49v-216
q0 -85 -66 -112q-15 -8 -35 -8q-47 0 -82 55q-14 24 -14 57v224zM2435 1980h159v-60h-56v-268h-53v268h-55v55zM2621 1980h71q7 -4 83 -251h2l80 251h73v-328h-54v242h-2l-74 -242h-44q-4 0 -58 182l-19 60h-3v-242h-55v328zM3760 1980h52v-328h-45l-5 5v11l3 2l-3 14
q-29 -40 -78 -40q-67 0 -100 91l-5 39v3q0 94 92 125l23 3q35 0 63 -32h3v107zM2057 1928h36l4 -6v-49h-45v-221h-48v23q-23 -31 -59 -31q-89 14 -89 97v156h51v-104q0 -79 26 -86l18 -5h6q26 0 39 36l3 26v133h53v25zM3476 1928v-55h-31v-221h-47v25h-2q-15 -33 -57 -33
q-68 0 -86 78l-3 29v146h52v-120q0 -50 19 -68l21 -7h9q42 0 42 69v126h27q4 0 4 28l3 3h49zM758 1905q68 0 103 -77q9 -18 12 -54q0 -88 -90 -127l-32 -3q-63 0 -101 73q-12 22 -12 52v10q0 94 101 126h19zM1011 1905h3q74 0 83 -101v-152h-51v119q0 76 -42 76h-5
q-44 0 -44 -76v-119h-52v245h46v-21q30 29 62 29zM1466 1905h7q72 0 105 -89h-60q-16 31 -42 31h-17q-53 -14 -53 -61l-3 -15q12 -69 61 -69h9q22 0 47 27h40l2 3h3l2 -3l2 3l3 -3l2 3l2 -7q-33 -81 -110 -81q-76 0 -110 94l-4 36v3q0 85 77 120q15 8 37 8zM3141 1905h2

<glyph glyph-name=".notdef" horiz-adv-x="5040" 
d="M3351 2045h10q37 -10 37 -52q0 -12 -32 -57h-28q0 24 28 54l2 10q-5 13 -10 15h-9q-8 0 -10 -19h-30q6 49 42 49zM2019 2016l29 -31q0 -16 -40 -30h-19l-59 12l-11 -12l-28 25q11 29 43 29h11l42 -11h2q10 0 30 18zM468 1980h142v-60h-94v-75h89v-59h-89v-129l-5 -5h-49
v323zM1155 1980h43l6 -5v-78h30v-52h-30v-188l-6 -5h-49v193h-25v52h25v78zM1621 1980h42l4 -5v-94h3q23 24 54 24h2q58 0 83 -71l2 -39v-143h-52v115q0 80 -42 80h-7q-43 0 -43 -86v-109h-51v323zM2200 1980h49l5 -5v-222q10 -51 45 -51q44 7 44 59v214l5 5h49v-216
q0 -85 -66 -112q-15 -8 -35 -8q-47 0 -82 55q-14 24 -14 57v224zM2435 1980h159v-60h-56v-268h-53v268h-55v55zM2621 1980h71q7 -4 83 -251h2l80 251h73v-328h-54v242h-2l-74 -242h-44q-4 0 -58 182l-19 60h-3v-242h-55v328zM3760 1980h52v-328h-45l-5 5v11l3 2l-3 14
q-29 -40 -78 -40q-67 0 -100 91l-5 39v3q0 94 92 125l23 3q35 0 63 -32h3v107zM2057 1928h36l4 -6v-49h-45v-221h-48v23q-23 -31 -59 -31q-89 14 -89 97v156h51v-104q0 -79 26 -86l18 -5h6q26 0 39 36l3 26v133h53v25zM3476 1928v-55h-31v-221h-47v25h-2q-15 -33 -57 -33
q-68 0 -86 78l-3 29v146h52v-120q0 -50 19 -68l21 -7h9q42 0 42 69v126h27q4 0 4 28l3 3h49zM758 1905q68 0 103 -77q9 -18 12 -54q0 -88 -90 -127l-32 -3q-63 0 -101 73q-12 22 -12 52v10q0 94 101 126h19zM1011 1905h3q74 0 83 -101v-152h-51v119q0 76 -42 76h-5
q-44 0 -44 -76v-119h-52v245h46v-21q30 29 62 29zM1466 1905h7q72 0 105 -89h-60q-16 31 -42 31h-17q-53 -14 -53 -61l-3 -15q12 -69 61 -69h9q22 0 47 27h40l2 3h3l2 -3l2 3l3 -3l2 3l2 -7q-33 -81 -110 -81q-76 0 -110 94l-4 36v3q0 85 77 120q15 8 37 8zM3141 1905h2
q49 0 70 -60v-14h-52q0 16 -16 16h-4q-14 0 -19 -13v-13q0 -9 68 -35q30 -19 30 -59q0 -58 -61 -80l-23 -3q-76 12 -76 83h54q0 -20 27 -25h4q19 0 24 23q0 22 -68 44q-34 27 -34 59q0 66 74 77zM4203 1905q55 0 77 -63q7 -18 7 -65v-125h-52v112q0 83 -40 83h-11
q-33 0 -40 -54v-141h-52v5h-2l2 2v238h47v-21q25 29 64 29zM4432 1905h5q40 0 69 -40v18l-3 3l3 11h47v-208q0 -97 -85 -132l-33 -4h-7q-70 0 -104 80h59q24 -22 45 -23h13q22 0 43 22q15 13 22 52h-3q-32 -40 -73 -40q-57 0 -96 70q-10 18 -14 63q0 88 87 125zM3851 1897
h53v-136q6 -59 40 -59h7q46 0 46 93v102h51v-245h-47l-3 10h3l-3 3v5l3 2v3h-4q0 -23 -57 -31h-3q-59 0 -84 75l-2 85v93zM690 1771q10 -69 63 -69h7q59 14 59 65v15q-13 65 -59 65h-5q-58 0 -65 -76zM3630 1774q13 -72 61 -72h5q58 0 66 75q0 49 -51 70h-22q-37 0 -56 -57z
M4374 1774q8 -72 65 -72h5q59 12 59 72q0 61 -59 73h-14q-56 -16 -56 -62v-11zM3928 1620h52v-57h-52v57zM1054 1402q43 -11 43 -49v-4q0 -17 -32 -60h-28q0 25 31 57v7q0 12 -7 15h-12q-10 -4 -10 -19h-28v6q0 32 33 44zM3349 1339q92 0 138 -99h-60q-37 42 -80 42
q-55 0 -87 -68q-10 -22 -10 -47q0 -78 81 -110l18 -1q36 0 75 39h61q-44 -97 -138 -97q-93 0 -141 112q-10 31 -10 62q0 97 90 152q29 15 63 15zM3664 1339q57 0 103 -47q46 -51 46 -115v-20q0 -89 -91 -146q-33 -13 -63 -13q-89 0 -138 101q-13 33 -13 60v18q0 98 98 151
q29 11 58 11zM2261 1337h2l47 -11h3q11 0 26 11l18 -36q-18 -19 -35 -19h-3l-54 10l-20 -7l-20 36q18 16 36 16zM716 1334h19q118 0 129 -26q25 -26 25 -62q-10 -57 -30 -57v-6q47 -23 47 -66v-18q0 -63 -69 -88l-54 -5h-67v328zM2550 1334h53v-217q6 -61 45 -61q29 0 44 39
l3 30v203l4 6h45l5 -6v-171q0 -118 -40 -133q-24 -26 -64 -26q-55 0 -91 76l-4 54v206zM2805 1334h59q4 0 122 -237h4v237h50l4 -6v-322h-58q-29 48 -125 238h-3v-238h-53v328zM3101 1334h54v-328h-54v328zM3859 1334h8q155 0 174 -40q23 -11 47 -75l4 -36v-11l3 -2
q0 -94 -82 -149q-35 -15 -99 -15h-55v328zM4141 1334h153v-60h-103v-75h101v-57h-101v-74l4 -5h99v-57h-157v322zM3563 1175v-10q0 -76 79 -108l19 -1q68 0 96 86l3 20v15q0 61 -60 94q-12 8 -39 11q-66 0 -96 -83zM770 1274v-67h9q54 0 54 28l3 14q-11 25 -29 25h-37z
M3912 1274v-206l2 -3v-2q104 0 122 76l2 15v29q0 34 -32 68q-25 23 -78 23h-16zM1041 1259h5q38 0 71 -40v32h49v-245h-49v32q-36 -40 -80 -40q-75 0 -101 97l-5 36q0 89 85 125zM1314 1259h3q74 0 83 -102v-151h-51v128q0 67 -42 67h-10q-34 0 -39 -62v-133h-52v245h47v-21
q28 29 61 29zM1543 1259h5q45 0 71 -40v32h47v-219q0 -95 -104 -126h-16q-74 0 -108 82h59q26 -25 44 -25h14q52 0 64 77q-33 -42 -76 -42q-60 0 -101 81l-7 44v16q0 79 85 117zM1912 1259h2q43 0 61 -37h2q32 37 69 37h4q57 0 79 -55q8 -25 8 -45v-153h-52v138q0 44 -23 55
l-12 2h-15q-32 0 -36 -65v-130h-52v136q0 59 -43 59h-8q-32 0 -36 -57v-138h-54v245h50v-21h2q6 24 54 29zM2282 1259q47 0 75 -42v34h47v-245h-47v32q-36 -40 -78 -40q-74 0 -102 92l-6 41q0 90 85 125zM985 1117q0 -48 61 -61h4q45 0 62 46l3 15v22q-12 62 -57 62h-14
q-41 0 -59 -57v-27zM1487 1128q0 -48 43 -68l18 -4h5q47 0 63 57v23q-11 65 -58 65h-12q-50 0 -59 -73zM2225 1131v-14q15 -61 57 -61h14q58 12 58 64v11q0 45 -37 65l-18 5h-10q-64 -8 -64 -70zM770 1150v-82q0 -5 7 -5q77 0 77 45q0 34 -47 42h-37zM2966 753l24 -28
l-51 -55q-18 12 -27 26zM1524 727l85 -54q0 -15 -21 -42l-87 54q18 41 23 42zM2850 693h38l55 -60h-54l-21 26l-23 -26h-54q54 60 59 60zM3422 693h40l56 -60h-54l-24 26h-1q0 -5 -19 -26h-54zM622 685h52q8 -4 47 -137l34 -110q9 8 34 100l48 147h54v-2l-112 -326h-44z
M1159 685h51v-54h-51v54zM1354 685h46l6 -5v-323h-52v328zM2317 685h45l4 -5v-78h31v-52h-31v-193h-53v193h-26v52h26v78zM2425 685h52v-98h2q23 23 54 23h3q57 0 81 -71l3 -38v-144h-52v115q0 81 -39 81h-10q-42 0 -42 -87v-109h-52v328zM2664 685h52v-54h-52v54zM3028 685
h44l6 -5v-78h29v-52h-29v-193h-54v193h-27v52h27v78zM3234 685h52v-328h-52v328zM3957 685h52v-328h-52v328zM4316 685h51v-54h-51v54zM1555 610h5q83 0 110 -102l3 -23v-11q0 -83 -85 -120l-35 -5q-76 0 -111 97l-4 32q0 97 93 130zM1811 610h4q53 0 78 -60q7 -25 7 -81
v-112h-54v146q-7 50 -37 50h-10q-38 0 -42 -57v-139h-54v245h49v-21q26 29 59 29zM2046 610h4q45 0 63 -39h3v31h49v-206q0 -102 -89 -135l-28 -3h-5q-73 0 -106 81h52l37 -20l15 -3h14q50 0 61 72q-33 -39 -73 -39q-62 0 -98 76q-11 23 -12 60q0 85 86 123zM2866 610h2
q82 0 111 -104l2 -25l-2 -27h-172q15 -45 45 -45l14 -3q29 0 49 22h57v-3q-35 -76 -108 -76q-77 0 -111 97l-1 28v8q0 49 32 89q34 39 82 39zM3429 610h5q41 0 70 -39h2v31h47v-245h-47v31h-2q-35 -39 -77 -39q-71 0 -101 89l-5 36v14q0 86 84 120zM3711 610h7
q88 0 107 -128l-2 -1v-15q0 -65 -66 -106q-21 -11 -46 -11q-34 0 -64 32v-99l-5 -5h-49v325h49v-28q31 36 69 36zM4151 610q44 0 75 -39v31h49v-245h-49v31q-35 -39 -77 -39q-92 0 -108 132q0 84 73 121q15 8 37 8zM922 602h50v-136q3 -60 42 -60h5q44 0 44 87v109h52v-245
h-47v24h-5q0 -23 -56 -32h-3q-55 0 -82 68q-4 35 -4 99v81zM1159 602h51v-245h-51v245zM2664 602h52v-245h-52v245zM4316 602h51v-245h-51v245zM1492 488v-16q13 -66 59 -66h4q59 0 66 76q-13 71 -59 71h-11q-59 -16 -59 -65zM1987 472q15 -66 59 -66h11q48 0 59 75v1
q-13 71 -59 71h-14q-39 0 -56 -57v-24zM2805 506h122v2q-16 45 -59 45h-7q-35 0 -56 -47zM3373 474q13 -68 61 -68h5q52 0 65 63v12q-10 72 -57 72h-16q-56 -14 -56 -63zM3642 478q12 -72 61 -72h3q50 0 65 60v22q0 43 -49 65h-22q-47 0 -58 -72v-3zM4095 472q10 -66 66 -66
q43 0 61 48l2 15v16q0 54 -52 68h-18q-42 0 -59 -60v-21zM3416 321h51v-52h-51v52zM4137 321h51v-52h-51v52zM2733 133h4q35 0 43 -50v-2q0 -16 -24 -41l-10 -17h-28q0 25 28 56l3 2v2q-3 19 -9 19h-10q-8 0 -9 -19h-30q6 50 42 50zM1546 116l52 -60l-26 -19l-52 52zM352 79
h4q75 -48 85 -60l-20 -37q-88 49 -88 58zM3490 79l86 -58l-18 -39q-10 0 -91 55q15 36 23 42zM4578 76l19 -42l-91 -52l-20 39l92 58v-3zM1204 53h51v-19l5 -5h14v-36h-14l-5 -5v-279h-46v31q-34 -40 -81 -40q-72 0 -102 105l-3 26q0 102 101 131h14q33 0 66 -33v59l-6 5
h-43v36h49v24zM1480 45h40l56 -61h-53l-23 27l-23 -27h-53zM2641 45h33q12 0 63 -61h-54l-23 27q-19 -21 -19 -27h-58v4zM49 37h160v-60h-56v-268h-50l-4 5v245l2 3v2l-2 2l2 3l-2 2l2 3l-2 3h-54v54zM699 37h47v-73l2 -2l-2 -3v-3l2 -2l-2 -3v-3l2 -2v-2l-2 -3l2 -3h3
q17 24 51 24h3q53 0 77 -58q7 -17 7 -42v-153h-52v127q0 68 -40 68h-8q-43 0 -43 -86v-109h-52v322zM1297 37h47l5 -6v-49h-52v55zM1987 37h52v-198l70 115h62l-78 -118l90 -125v-2h-70q-10 22 -74 115v-115h-52v328zM2271 37v-99q24 24 53 24q57 0 80 -56q10 -19 10 -77
v-120h-54v133q0 62 -41 62h-11q-31 0 -37 -55v-140h-53v314l-1 3v3l1 2l-1 3l1 3h53zM2458 37h51v-55h-51v55zM3148 37h51v-108q27 33 68 33h3q75 0 105 -94l5 -37q0 -75 -64 -120q-30 -11 -49 -11q-41 0 -72 40v-31h-47v328zM4275 37h52v-99h2q23 24 54 24h3q60 0 82 -74
l2 -41v-138h-52v111q0 82 -32 82l-10 2h-12q-37 0 -37 -80v-115h-52v328zM329 -38h3v-58h-5q-42 0 -42 -57v-138h-53v245h47v-21q18 29 50 29zM564 -38q71 0 86 -87v-166h-51v136q-6 59 -41 59h-6q-45 0 -45 -84v-111h-52v245h50v-21q25 29 59 29zM1504 -38q72 0 105 -94
l5 -39q-2 -24 -7 -24h-169q17 -47 62 -47q24 0 48 21h57q-33 -79 -108 -79q-82 0 -113 105v37q0 81 89 117zM2657 -38h5q77 0 107 -97l3 -26v-21l-3 -13h-170q18 -47 53 -47h12q21 0 42 21h59q-34 -79 -105 -79q-84 0 -115 102l-2 29q0 93 91 128zM2915 -38h4q54 0 78 -60
q7 -25 7 -82v-111h-54v138q0 48 -35 57h-11q-38 0 -43 -57v-138h-54v245h50v-21q25 29 58 29zM3508 -38h6q40 0 70 -40h2v32h47v-245h-47v31h-2q-34 -40 -78 -40q-71 0 -101 90l-4 37v12q0 82 77 117q11 6 30 6zM3781 -38h4q62 0 82 -78l3 -84v-91h-54v138q0 48 -38 57h-9
q-38 0 -42 -52v-143h-54v245h49v-21q26 29 59 29zM4133 -38h1q74 0 104 -93l4 -40q0 -88 -84 -126l-25 -3q-41 0 -68 34v-106h-52v326h47v-29q30 37 73 37zM4714 -38h5q34 0 63 -37q27 37 69 37h6q56 0 79 -66l6 -51v-136h-52v122q0 73 -39 73h-7q-35 0 -41 -50v-140l-5 -5
h-48v140q0 42 -31 55h-17q-40 0 -40 -77v-118h-51v245h47v-21q22 29 56 29zM359 -46h49l5 -6v-234l-5 -5h-49v245zM1297 -46h52v-245h-52v245zM1649 -46h52v-136q4 -60 43 -60h4q44 0 44 81v115h52v-245h-47v24h-5q-12 -33 -59 -33q-52 0 -79 63q-5 12 -5 34v157zM2458 -46
h51v-245h-51v245zM4515 -46h51v-245h-51v245zM1077 -169q0 -53 51 -73h12q54 0 66 66v10q0 53 -54 70h-17q-38 0 -58 -57v-16zM1438 -143h122q-18 47 -53 47h-7q-43 0 -62 -44v-3zM2599 -143h122q-21 47 -54 47h-7q-46 0 -61 -47zM3196 -158v-11q10 -73 61 -73h5q64 8 64 71
v5q0 45 -38 65l-18 5h-14q-60 -14 -60 -62zM3452 -173q14 -69 62 -69h11q41 0 59 60v13q-8 73 -56 73h-17q-47 0 -59 -73v-4zM4062 -158v-22q0 -47 59 -62h9q50 0 61 76q-13 70 -58 70h-15q-56 -17 -56 -62z" />
    <glyph glyph-name=".null" horiz-adv-x="0" 
 />
    <glyph glyph-name="nonmarkingreturn" horiz-adv-x="571" 
 />
    <glyph glyph-name="space" unicode=" " horiz-adv-x="540" 
 />
    <glyph glyph-name="exclam" unicode="!" horiz-adv-x="700" 
d="M96 248l56 164l57 172l67 203l131 409q63 205 74 268l219 58l-357 -893l-136 -355zM0 -35l5 10l12 23q8 16 12 29l8 24q3 16 6 30l8 40l150 33q0 -7 -13 -53q-7 -27 -15 -51q-10 -30 -21 -54z" />
    <glyph glyph-name="quotedbl" unicode="&#x22;" horiz-adv-x="589" 
d="M124 1270q99 123 113 309l135 41q0 -4 -24 -58q-29 -69 -60 -120q-79 -129 -168 -185zM341 1270q99 123 113 309l135 41q0 -4 -24 -58q-29 -69 -60 -120q-79 -129 -168 -185z" />
    <glyph glyph-name="numbersign" unicode="#" horiz-adv-x="927" 
d="M215 563l-215 -18l72 104l186 -6l88 180h-258l57 97l242 -13l84 205l129 37l-125 -240h158l90 203l119 41l-119 -246l205 17l-49 -97h-191l-86 -184l248 16l-70 -110l-223 14l-76 -213l-133 -26l113 239h-139l-89 -196l-143 -43zM508 655l88 187h-141l-86 -187h139z" />
    <glyph glyph-name="dollar" unicode="$" horiz-adv-x="1193" 
d="M901 1184q73 0 113 -37q37 -34 49 -100l-55 -29q-61 -34 -95 -68q2 75 -58 114q-51 34 -134 34q-106 0 -207 -53q-100 -53 -107 -113q-3 -58 78 -88q28 -10 68 -21l153 -38q43 -12 75 -25q79 -31 120 -77q49 -55 49 -138q0 -65 -61 -137q-53 -62 -144 -121
q-184 -118 -315 -127l-170 -393l-219 -80l280 487q-129 19 -231 121q-58 58 -77 131q-3 12 -5 25q-1 10 -2 19v17l69 40l52 31q26 17 33 24q-9 -154 95 -241q89 -75 228 -79q116 -3 201 48q91 53 98 141q8 89 -78 138q-35 21 -93 38q-36 12 -113 30l-91 20q-63 13 -103 29
q-117 45 -110 134q6 59 89 129q67 57 184 121q198 108 327 108l144 330l207 104z" />
    <glyph glyph-name="percent" unicode="%" horiz-adv-x="1304" 
d="M229 -98l26 46l444 798l141 261l245 463q-85 -42 -211 -67q-58 -12 -136 -16l-67 -3l5 -4q6 -7 11 -16q16 -32 19 -84q4 -85 -62 -206q-63 -113 -139 -173q-135 -108 -206 -117q-93 -12 -89 138q5 132 64 252q53 109 151 208q86 86 209 168l24 -14q30 -17 62 -31
q45 -19 88 -29q53 -12 101 -10q109 6 168 37q78 41 112 139l78 35l-454 -903l-113 -235q-56 -119 -96 -212q-92 -214 -105 -309zM773 145q0 141 80 319q82 183 187 261q114 88 190 54q79 -35 76 -191q-2 -91 -84 -251q-84 -167 -184 -265q-88 -84 -156 -84q-109 0 -109 157z
M546 1043q58 123 49 229q-11 123 -67 123q-67 0 -135 -131q-66 -126 -66 -238q0 -115 80 -115q78 0 139 132zM921 515q-35 -98 -35 -206q0 -188 107 -188q72 0 137 142q55 122 57 210q0 102 -32 161q-44 81 -134 25q-61 -38 -100 -144z" />
    <glyph glyph-name="ampersand" unicode="&#x26;" horiz-adv-x="2111" 
d="M907 1153q0 2 -44 4q-25 2 -51 0q-31 -1 -63 -6q-80 -12 -151 -45q-89 -42 -158 -115q-230 -244 -227 -532q2 -186 107 -303q119 -132 346 -144q211 -10 397 63q166 66 293 189q217 214 217 457q0 143 -90 228q-98 93 -283 91q-184 -1 -322 -141q-126 -129 -126 -272
q0 -181 215 -193q44 0 96 20q43 16 43 19l-37 -49q0 -3 -49 -13q-58 -12 -105 -10q-139 3 -222 72q-82 67 -79 168q2 48 33 117q38 83 101 145q73 73 187 130q99 50 239 91q60 18 131 36l252 57q3 0 4 1q11 2 17 3l136 30q481 111 529 262q27 86 -19 106q-45 19 -121 -38
q0 5 13 27q16 30 36 43q97 55 164 40q63 -14 66 -81q3 -61 -62 -134q-78 -86 -239 -171q-95 -50 -237 -96q-113 -37 -250 -70l-110 -24l-169 -32v-2q0 4 69 4q83 1 152 -18q98 -27 155 -88q71 -77 74 -205q9 -278 -325 -537q-171 -133 -387 -202q-241 -78 -508 -64
q-237 17 -382 133q-163 129 -163 349q0 261 195 446q101 96 218 164q94 54 194 88q72 24 139 36q53 9 53 7h-21q-70 0 -123 49q-107 96 35 225q186 168 400 172q77 2 131 -7q74 -14 106 -50l47 25l-2 -31q-46 -17 -82 -84l-26 -63l-50 -23q40 85 -13 140q-46 48 -126 48
q-153 0 -246 -98q-77 -83 -81 -166q-4 -80 101 -118q32 -11 72 -17q33 -5 33 -4z" />
    <glyph glyph-name="quotesingle" unicode="'" horiz-adv-x="321" 
d="M237 1247q99 123 113 309l135 41q0 -4 -24 -58q-29 -69 -60 -120q-79 -129 -168 -184z" />
    <glyph glyph-name="parenleft" unicode="(" horiz-adv-x="540" 
d="M276 61l-19 -10l-45 -26q-73 -44 -112 -78q-53 135 -75 265q-20 113 -22 249q-1 137 31 279q29 132 85 260q104 241 261 401q0 3 48 37q59 43 114 67l-16 -30q-55 -29 -107 -79q-60 -58 -117 -147q-160 -252 -174 -606q-4 -99 18 -213q18 -90 52 -186q24 -68 53 -132
l10 -22z" />
    <glyph glyph-name="parenright" unicode=")" horiz-adv-x="718" 
d="M431 1401l19 10l46 27q72 45 107 84q57 -136 84 -264q24 -117 29 -250q4 -137 -23 -281q-26 -132 -78 -262q-98 -246 -249 -406q0 -4 -47 -39q-57 -44 -115 -67l18 27q58 35 107 84q59 61 111 149q152 256 157 610q0 100 -26 213q-20 91 -57 185q-26 68 -57 130z" />
    <glyph glyph-name="asterisk" unicode="*" horiz-adv-x="794" 
d="M555 1364l-119 -102h-49l152 129h-150l16 43h150l-102 122h43l79 -96l27 139l59 19l-30 -150l112 88h50l-152 -122h154l-19 -43h-145l104 -129h-43l-82 102l-26 -139l-60 -19z" />
    <glyph glyph-name="plus" unicode="+" horiz-adv-x="770" 
d="M672 621h-230l-90 -287l-182 -94l131 370l-301 -16l117 119l217 2q0 -5 19 41q26 63 61 168l95 58q6 4 11 6q49 29 86 67l-38 -99l-87 -233q46 0 102 1q44 1 93 3l94 4z" />
    <glyph glyph-name="comma" unicode="," horiz-adv-x="317" 
d="M-122 -211q99 123 113 309l135 41q0 -4 -24 -58q-29 -69 -60 -120q-79 -129 -168 -184z" />
    <glyph glyph-name="hyphen" unicode="-" horiz-adv-x="638" 
d="M336 430l-35 3q-44 3 -88 4q-62 2 -115 -1q-67 -3 -116 -12l88 115q50 -5 112 -6q50 0 104 2l108 8z" />
    <glyph glyph-name="hyphen" unicode="&#x2010;" horiz-adv-x="638" 
d="M336 430l-35 3q-44 3 -88 4q-62 2 -115 -1q-67 -3 -116 -12l88 115q50 -5 112 -6q50 0 104 2l108 8z" />
    <glyph glyph-name="period" unicode="." horiz-adv-x="428" 
d="M176 -10q-20 -2 -100 -14l-76 -13l55 160l183 27z" />
    <glyph glyph-name="slash" unicode="/" horiz-adv-x="1148" 
d="M0 -127q54 77 125 193l143 240l151 265l148 268l133 248l109 205l100 191l240 159l-265 -438l-312 -537l-140 -255q-139 -262 -153 -336z" />
    <glyph glyph-name="zero" unicode="0" horiz-adv-x="1028" 
d="M72 -21q-60 28 -96 93q-30 52 -44 129q-9 54 -11 125q-4 116 61 285q37 95 89 182q58 98 132 178q56 58 123 110l97 73q60 44 109 74q132 79 233 85q269 14 266 -314q-2 -228 -137 -474q-68 -125 -161 -226q-99 -109 -216 -180l-134 -86q-99 -62 -141 -68
q-101 -18 -170 14zM435 1097q-88 -74 -166 -197q-77 -122 -122 -256q-47 -143 -44 -261q7 -277 258 -260q98 8 191 87q85 72 155 193q141 246 139 492q0 133 -52 204q-60 82 -183 79q-82 -3 -176 -81z" />
    <glyph glyph-name="one" unicode="1" horiz-adv-x="995" 
d="M269 -67q-51 -18 -118 -49t-105 -54q-43 -26 -26 -29l-20 31q61 41 183 262q52 94 114 219l116 240l281 633l-342 -144l80 134q78 21 177 60q78 31 166 71l125 59l48 25l47 -5q-59 -92 -156 -282l-194 -402q-103 -224 -184 -419q-87 -211 -127 -338q-7 8 -65 -12z" />
    <glyph glyph-name="two" unicode="2" horiz-adv-x="1263" 
d="M391 1169q0 2 39 27l48 28q30 16 63 31q84 38 172 60q110 28 221 31q148 3 232 -51q98 -63 98 -195q0 -101 -61 -196q-53 -81 -154 -162q-79 -63 -205 -140l-213 -125q-90 -53 -175 -125q-68 -58 -131 -125l-82 -95q-28 -36 -28 -38q0 1 18 12q10 7 21 13l29 14
q38 17 80 26q52 12 106 11q48 -1 98 -4l250 -21q70 -3 132 15q49 14 92 42q30 20 53 44q18 18 18 20l4 -24q0 1 -19 -20q-24 -26 -44 -54q-29 -39 -47 -77q-22 -47 -27 -89l-28 -6q-36 -8 -76 -12q-55 -7 -109 -6q-68 0 -131 12q-105 18 -226 18q-96 -1 -199 -13
q-73 -8 -142 -22q-54 -11 -54 -12l-14 21q0 1 8 16l29 47q25 36 56 75q40 48 89 99q54 55 123 110q58 46 134 98l69 45l201 131q71 48 121 88q60 49 101 96q96 109 113 233q18 130 -40 197q-52 59 -152 59q-146 0 -290 -106q-152 -112 -171 -255l-125 -81z" />
    <glyph glyph-name="three" unicode="3" horiz-adv-x="1267" 
d="M918 852q319 27 286 -211q-28 -231 -348 -455q-163 -115 -355 -178q-216 -71 -439 -67q-65 1 -117 14q-41 11 -72 29l-37 28q-10 11 -10 13l174 104q0 -70 75 -94q50 -16 161 -15q155 3 293 60q123 49 222 137q185 163 203 340q14 135 -67 198q-61 48 -164 48
q-27 0 -60 -4q-25 -3 -53 -8q-53 -11 -53 -13l107 80q152 -5 276 66q142 81 172 227q20 87 -21 134q-35 40 -98 38q-121 -3 -233 -86q-96 -72 -113 -137l-114 -53q66 96 94 160q8 20 12 34l2 10q157 84 290 126q119 39 208 40q224 3 198 -174q-16 -106 -122 -211
q-118 -117 -297 -178v-2z" />
    <glyph glyph-name="four" unicode="4" horiz-adv-x="1669" 
d="M383 586q0 7 72 29q42 12 87 19q56 8 115 7q47 -1 110 -8q51 -5 109 -13l115 -18l201 610zM1157 580q255 -33 512 94l-17 -37l-67 -63q-74 -68 -113 -95q-76 -52 -243 -49l-111 6l-32 -96q-17 -58 -35 -129q-22 -89 -44 -193l-35 -10l-81 -26q-55 -18 -94 -34
q-50 -21 -72 -36l2 29q30 42 72 131q33 72 72 171l79 210l-158 20l-138 14q-77 7 -126 7q-79 0 -164 -8q-69 -7 -138 -18q-50 -8 -95 -18l-35 -8l12 31l1139 891l176 25z" />
    <glyph glyph-name="five" unicode="5" horiz-adv-x="1404" 
d="M-40 319q0 2 -4 -12q-5 -15 -7 -32q-8 -54 6 -100q20 -64 82 -103q76 -48 213 -54q191 -8 380 119q99 67 167 160q75 103 103 227q37 167 -54 264q-84 91 -239 84q-75 -2 -149 -32q-59 -23 -115 -63q-40 -28 -74 -61q-27 -26 -27 -28v92q44 52 102 151q46 79 99 184
q39 75 76 155q30 64 30 65q64 34 186 34q48 0 112 -6l114 -11q158 -23 247 -6q112 21 195 110l3 -24q-52 -34 -106 -138q-44 -85 -44 -98q-26 -14 -127 -15q-77 -1 -211 7l-208 12q-101 5 -122 2l-206 -334q50 33 87 52q48 25 93 39q106 33 239 18q147 -18 232 -121
q79 -96 84 -238q10 -255 -204 -443q-113 -99 -271 -153q-174 -58 -387 -57q-322 0 -408 162l109 256z" />
    <glyph glyph-name="six" unicode="6" horiz-adv-x="1236" 
d="M1265 1301q51 -30 51 -37l-136 -140q-4 38 -53 62q-45 22 -98 20q-119 -4 -229 -52q-99 -44 -187 -122q-72 -64 -136 -149q-55 -75 -101 -163q-40 -77 -68 -156q-25 -69 -37 -126q-42 -202 34 -313q67 -96 198 -94q149 1 278 114q139 121 160 299q11 107 -55 156
q-59 42 -165 34q-226 -17 -352 -157l68 113q83 53 199 94q130 45 237 51q126 7 191 -44q76 -59 61 -191q-10 -100 -88 -203q-72 -95 -189 -176q-245 -172 -481 -178q-182 -5 -256 117q-85 142 2 427q106 345 329 519q118 91 297 168q165 71 427 149q40 13 99 -22z" />
    <glyph glyph-name="seven" unicode="7" horiz-adv-x="1206" 
d="M257 1022l30 34l70 82q47 56 79 99q41 54 58 84q45 -4 162 3q49 3 116 9l387 35q140 13 208 16l-41 -59q-95 -81 -263 -290q-152 -189 -322 -429q-165 -233 -278 -418q-120 -196 -133 -258q0 2 -58 -8q-69 -13 -122 -31q-45 -14 -81 -31q-28 -14 -50 -28l-33 -27l-10 33
q68 70 143 157l145 175l144 187l424 571l134 172q69 87 128 153l-92 9q-31 1 -63 1q-79 1 -152 -9q-90 -11 -164 -37q-249 -88 -383 -285z" />
    <glyph glyph-name="eight" unicode="8" horiz-adv-x="1032" 
d="M713 793l49 -26l55 -35q66 -47 104 -97q46 -62 46 -125q-2 -120 -72 -230q-64 -100 -177 -179q-226 -158 -482 -158q-170 0 -262 83q-103 94 -78 271q11 80 91 170q64 72 169 148q41 30 87 59q37 24 75 46l73 40q0 -1 -23 16q-28 22 -51 46q-75 77 -75 151
q-2 135 188 246q177 103 369 108q255 7 250 -192q-2 -55 -62 -117q-48 -50 -131 -102q-60 -38 -131 -73q-59 -30 -59 -28t47 -22zM643 873q50 23 93 48q59 34 95 65q45 39 52 71q20 99 -41 151q-52 45 -148 43q-100 -1 -180 -53q-87 -56 -84 -133q3 -70 88 -148
q26 -24 58 -46q26 -18 26 -17zM426 702q-14 -6 -27 -13q-80 -38 -146 -82q-92 -61 -143 -124q-64 -79 -61 -155q6 -137 101 -206q84 -61 223 -61q171 0 300 79q135 82 138 202q2 87 -75 175q-85 100 -271 202z" />
    <glyph glyph-name="nine" unicode="9" horiz-adv-x="1323" 
d="M88 -88q-24 11 -45 29l-16 15q-6 6 -12 13q-9 11 -9 13l150 135q0 -5 3 -16q2 -8 6 -16q5 -10 11 -19q17 -23 43 -37q32 -18 78 -21q261 -16 500 193q69 58 135 147q59 80 111 177q97 182 122 319q32 176 -50 278q-75 92 -206 88q-139 -3 -262 -105q-134 -112 -172 -286
q-25 -118 39 -179q57 -53 172 -54q68 -2 138 18q56 15 112 43q39 19 75 44q27 18 27 20l-80 -113l-33 -16q-44 -19 -91 -34q-66 -23 -131 -36q-80 -16 -154 -16q-144 -2 -215 60q-82 73 -49 224q21 99 102 196q76 90 190 163q239 153 465 153q212 0 289 -139q42 -78 35 -192
q-8 -126 -76 -291q-158 -390 -426 -543q-236 -135 -715 -227q-31 0 -61 12z" />
    <glyph glyph-name="colon" unicode=":" horiz-adv-x="534" 
d="M176 -10q-20 -2 -100 -14l-76 -13l55 160l183 27zM289 379q-21 -1 -101 -14l-75 -13l55 160l182 27z" />
    <glyph glyph-name="semicolon" unicode=";" horiz-adv-x="552" 
d="M4 -229q44 59 65 146q16 68 21 167q31 1 100 24l64 23l-21 -56q-31 -71 -79 -151q-71 -112 -154 -166zM299 391q-20 -1 -100 -14l-76 -12l55 159l182 27z" />
    <glyph glyph-name="less" unicode="&#x3c;" horiz-adv-x="862" 
 />
    <glyph glyph-name="equal" unicode="=" horiz-adv-x="700" 
d="M498 716q-82 0 -196 -7q-82 -5 -173 -12l-74 -7l84 123l239 14q110 4 187 4q97 0 135 -8l-57 -116q-44 9 -145 9zM604 424l-56 3q-71 3 -145 4q-102 2 -195 -1q-115 -4 -208 -14l102 121q50 11 150 17q80 4 189 5l229 -2z" />
    <glyph glyph-name="greater" unicode="&#x3e;" horiz-adv-x="862" 
 />
    <glyph glyph-name="question" unicode="?" horiz-adv-x="849" 
d="M468 1462q-66 -5 -121 -50q-44 -37 -77 -96q-25 -43 -41 -93q-12 -35 -12 -41h-66l55 270l36 15q45 18 93 32q66 20 128 30q77 12 143 7q191 6 304 -89q104 -88 105 -226q2 -127 -98 -239q-20 -23 -49 -51l-178 -171q-83 -87 -143 -179q-47 -74 -77 -148
q-21 -53 -32 -101q-3 -15 -5 -27l-1 -10q-18 -9 -52 -15l-64 -9q-82 -11 -108 -42q3 116 115 248q41 48 125 133q11 12 37 38l123 124q78 86 127 201q45 105 45 182q3 148 -62 227q-78 94 -252 80h2zM151 25l129 110l90 -117l-133 -122z" />
    <glyph glyph-name="at" unicode="@" horiz-adv-x="1060" 
d="M714 723l-14 -25l-33 -62q-51 -97 -74 -151q-123 -284 -6 -276q84 7 184 155q50 76 80 163q33 99 35 200q1 108 -58 148q-47 32 -162 32q-186 0 -366 -180q-236 -239 -236 -524q0 -293 305 -293q56 0 127 32q57 25 121 69l50 37l40 33q35 30 35 32l-24 -56
q-43 -42 -90 -79q-56 -44 -113 -76q-140 -79 -275 -80q-147 -2 -233 90q-84 90 -84 240q0 173 96 341q86 149 235 274q299 251 568 249q214 0 197 -201q-12 -127 -70 -256q-52 -114 -133 -213q-165 -200 -291 -199q-100 0 -74 164q-79 -100 -153 -143q-68 -39 -86 -10
q-49 76 14 229q34 81 96 151q71 80 172 136q71 41 152 49l28 2zM403 321q77 104 134 234l37 84q-60 13 -119 -34q-51 -41 -94 -118q-40 -70 -60 -144q-20 -72 -7 -93q24 -44 109 71z" />
    <glyph glyph-name="A" unicode="A" 
d="M2206 852q-75 -87 -130 -136q-70 -61 -143 -95q-47 -23 -114 -38l-58 -10l-10 -93q-4 -52 -7 -105q-3 -67 -3 -133v-23l2 -22l4 -26q13 -69 51 -62q23 3 67 35q35 25 82 68l99 95l-6 -49l-51 -45l-119 -99q-78 -63 -133 -99q-69 -45 -96 -46q-35 -1 -56 88
q-18 75 -16 148q1 59 6 130l11 119l16 119l-101 2q-83 0 -162 -21q-89 -24 -161 -73l6 15q0 4 67 61q35 29 68 53q43 29 80 47q79 39 154 47q59 6 59 1l78 561q0 -2 -84 -124l-95 -136l-121 -169l-141 -189l-155 -197l-163 -193q-86 -98 -163 -176q-560 -569 -1016 -569
q-268 0 -268 266q0 226 194 498q89 126 194 213q111 93 216 122l-24 -49q-166 -54 -294 -214q-134 -167 -134 -343q0 -321 327 -321q159 0 379 140q195 125 430 353q167 162 331 363q156 189 290 387q276 410 338 655l33 18q41 23 80 49q54 35 96 70q52 43 81 82l-4 -22
q-63 -108 -109 -247q-39 -121 -68 -273q-12 -66 -23 -141l-49 -414q107 -3 237 47q118 45 207 114z" />
    <glyph glyph-name="B" unicode="B" horiz-adv-x="1724" 
d="M-19 -150q38 53 104 104q47 36 126 84l124 75q64 42 96 77q36 40 57 71q13 21 13 24q71 145 153 343l71 176l63 166q28 72 54 146l79 221l325 115l-14 -27l-14 -4q-8 -2 -15 -6l-19 -9q-52 -28 -71 -77l-370 -921q-26 -63 -90 -129q-52 -52 -127 -104q-53 -37 -112 -70
q-48 -27 -48 -25l108 23q119 22 172 20l157 -10q75 -5 118 -4q104 2 202 43q179 75 281 214q89 124 92 257q2 113 -59 185q-65 76 -176 75q-136 -4 -303 -119l79 129l35 13q42 18 84 39q59 30 108 63q61 41 103 86q121 127 121 258q0 211 -223 211q-205 -2 -482 -154
q-254 -140 -469 -348q-214 -211 -217 -350q-2 -73 58 -115l42 -21q19 -7 19 -6l-67 -18q-78 -29 -136 -80l-13 7q-15 10 -28 23q-41 41 -38 97q1 80 77 199q66 103 193 243q150 154 341 283q206 141 419 223q53 20 102 36q59 20 113 34q133 35 231 35q252 0 252 -230
q0 -90 -70 -188q-55 -78 -153 -158q-39 -31 -82 -62q-35 -24 -72 -47q-14 -9 -28 -17l-41 -23v-2l23 9l59 21q98 30 174 29q118 -2 169 -53q68 -68 35 -230q-51 -257 -353 -482q-140 -103 -291 -159q-160 -59 -300 -51h-278q-172 0 -258 -26q-69 -21 -129 -78l-86 -97v43z
" />
    <glyph glyph-name="C" unicode="C" horiz-adv-x="1300" 
d="M313 915l104 232q60 83 157 171q40 36 88 73q38 31 85 65q95 61 177 90q94 34 192 37q142 5 241 -74q102 -81 117 -221q-32 -41 -72 -119q-33 -62 -70 -144l-52 -122l-21 -51l-41 -12q0 -1 13 26q17 34 31 70q21 50 35 96q17 59 23 109q16 143 -60 243q-86 115 -255 115
q-102 0 -214 -66q-97 -56 -200 -161q-180 -187 -282 -377zM315 189q163 -190 424 -142q126 24 236 123q45 41 89 96q35 44 74 103l23 6l-49 -154q-237 -263 -560 -260q-224 3 -378 152q-167 162 -175 432q-7 280 204 556q203 265 503 396l-18 -37q-44 -28 -91 -66
q-37 -31 -75 -67q-70 -67 -70 -72q-121 -131 -197 -289q-84 -179 -86 -345q-1 -262 146 -432z" />
    <glyph glyph-name="D" unicode="D" horiz-adv-x="1904" 
d="M288 1251q197 195 477 273q299 83 627 12q242 -53 361 -225q107 -156 102 -391q-4 -189 -93 -374q-83 -175 -226 -316q-305 -302 -637 -283q-21 1 -80 3l-270 13q-88 5 -167 10q-199 15 -292 -131q1 4 -1 22l-1 17q36 53 85 96q39 33 94 68l96 57q56 35 93 66
q72 63 131 219q51 137 107 387q18 83 29 177q8 75 11 155l2 110q0 16 -1 31v10l289 152l-5 -16q0 2 -10 -12l-12 -17q-8 -12 -15 -27q-20 -40 -39 -96q-23 -69 -42 -162l-26 -166q-17 -110 -32 -185q-19 -102 -40 -179q-25 -91 -54 -152q-37 -82 -86 -140q-42 -49 -96 -87
q-37 -26 -100 -58l-99 -53v-2q54 19 171 29q106 8 235 6q40 0 100 -6l104 -9l100 -8q50 -2 85 3q114 14 212 95q90 74 159 198q132 239 141 536q9 281 -166 449t-465 157q-202 -6 -335 -48q-156 -49 -269 -159q-154 -150 -232 -432q-10 -41 23 -32l-2 -7l-85 -43
q-91 -49 -124 -77q37 311 268 542z" />
    <glyph glyph-name="E" unicode="E" horiz-adv-x="1536" 
d="M964 1266q-37 -67 -64 -156q-11 -37 -22 -82l-38 -166q-10 -47 -19 -82q104 86 166 118q55 29 105 29q21 0 50 -5q10 -1 27 -5l103 -15q46 -5 95 -5q33 0 93 36l67 44l-6 -14q-85 -113 -165 -160q-66 -38 -142 -40q-29 0 -68 4l-68 10q-86 10 -147 -1q-68 -13 -104 -34
l-18 -14l-5 -5q-43 -204 -119 -339q-59 -106 -133 -161q-42 -32 -137 -80q-29 -16 -61 -31l-25 -12q134 31 255 40q97 7 200 1q39 -2 88 -7l83 -8q100 -10 167 -9q99 0 234 100q49 36 110 92q21 18 50 46l46 42l-14 -53q-56 -55 -119 -110q-81 -69 -154 -122
q-89 -64 -160 -98q-83 -39 -139 -34q-101 7 -204 13q-88 4 -186 7l-339 6q-108 0 -213 -129l-4 35q62 74 132 132q82 68 165 103q152 67 240 328q25 75 51 166q24 80 47 169l40 156l30 128q25 120 41 148q26 43 116 89l45 24l109 60q-30 5 -75 15l-75 18q-92 20 -153 20
q-94 0 -181 -55q-75 -47 -142 -131q-55 -70 -99 -159q-37 -73 -55 -138l-13 -6q-7 -3 -14 -7l-19 -10q-24 -15 -46 -32q-28 -22 -52 -47l-2 10q18 81 106 204q83 117 201 231q121 118 235 190q124 79 206 79q58 0 127 -11l247 -49q69 -11 127 -11q187 3 357 133l-6 -19
q-266 -318 -650 -233q-62 -61 -106 -141z" />
    <glyph glyph-name="F" unicode="F" horiz-adv-x="1433" 
d="M1520 1556q91 4 168 20q163 35 331 144l-10 -22q-168 -166 -314 -229q-122 -52 -288 -52q-75 0 -154 5q-63 4 -126 11q-44 4 -84 10l-32 5q-53 -41 -97 -124q-36 -69 -66 -172q-13 -42 -25 -93l-57 -248l61 47q40 31 67 49q81 52 144 49q24 -1 69 -10l83 -16
q112 -21 178 -10q27 5 79 25l60 24v-17q-73 -106 -150 -151q-64 -37 -141 -36q-31 0 -69 7l-135 30q-38 8 -68 9q-119 4 -181 -37l-11 -52l-32 -123q-25 -82 -52 -142q-35 -74 -70 -109q-36 -33 -92 -77l-101 -76l-117 -80q0 2 43 13q52 13 92 11q16 0 57 -4q42 -4 64 -4
q38 0 72 10q27 7 51 21q16 9 29 21l10 10l-6 -15l-66 -80q-62 -65 -128 -91q-51 -21 -115 -21q-41 0 -90 7q-8 1 -19 3l-18 3q-11 2 -18 3q-9 2 -16 3q-71 9 -108 -28l-26 5l98 84l86 79q47 46 76 80q104 124 173 301q29 75 53 162q21 73 38 157q13 63 27 146l20 127
q22 127 43 160q27 42 111 92l72 40q42 25 67 42l-119 21l-71 15q-113 23 -154 23q-165 0 -276 -108q-117 -113 -156 -316q-28 -19 -76 -71q-43 -47 -43 -49l-4 2q37 221 227 411q254 257 545 254q50 0 119 -12q28 -5 63 -12l129 -29l64 -12q71 -13 123 -13q111 -4 189 0z
" />
    <glyph glyph-name="G" unicode="G" horiz-adv-x="1599" 
d="M309 944l111 244l28 31l18 21q53 58 83 87q128 129 274 210q168 93 307 91q168 -3 277 -102q48 -45 74 -127l8 -29l8 -45q-35 -40 -77 -117q-34 -62 -71 -145l-73 -174l-39 -17l15 36q19 44 35 86q22 59 35 105q17 57 19 91q11 148 -72 246q-89 106 -251 104
q-103 -1 -218 -66q-105 -59 -210 -165q-56 -56 -113 -127q-45 -57 -88 -121q-80 -118 -80 -127v10zM698 1501q0 2 -46 -31q-58 -40 -113 -90q-79 -69 -142 -146q-80 -96 -133 -198q-105 -199 -105 -401q0 -232 156 -397q160 -170 395 -170q104 0 203 61q88 54 165 152
q145 187 175 395l-101 17l-96 12q-56 6 -100 6q-49 0 -127 -25l-28 -9l-42 -15h-12l48 26q60 31 117 57q79 37 141 58q78 26 124 26q43 0 96 -9l144 -33l48 -9q54 -10 97 -10q45 0 93 14q38 12 38 15q-6 -5 -20 -21l-29 -29q-19 -19 -40 -32q-26 -18 -56 -29
q-31 -10 -90 -16l-21 -2l-32 -2l-152 -514l-128 -105q-62 -53 -110 -100q-59 -59 -94 -105l4 35l68 77q32 41 57 83q54 96 101 266q-234 -330 -584 -330q-245 0 -412 172q-164 169 -166 414q-1 207 84 391q74 160 211 297q66 66 147 127q65 48 138 92l102 57l39 19z" />
    <glyph glyph-name="H" unicode="H" horiz-adv-x="1298" 
d="M884 818q-28 0 -76 4l-79 6q-45 3 -82 -1q-26 -2 -72 -30q-40 -24 -40 -27l-91 -279q-44 -131 -81 -228q-46 -121 -78 -181q-44 -84 -87 -142q-35 -48 -75 -85l-102 -86q-19 -16 -35 -31l-60 -52q-50 -41 -100 -72q-66 -41 -126 -64q-73 -27 -136 -25l36 53q37 58 42 84
q0 -3 40 1q24 2 51 7q35 6 73 17q142 34 268 229q49 76 118 258q30 78 63 174l60 181l54 173l44 147l44 155q87 294 29 440q77 49 154 104l134 100q109 84 191 158l-15 -34q-98 -96 -173 -240q-81 -156 -132 -365q-7 -32 -24 -95l-78 -263l22 25q26 30 52 54q35 35 62 54
q35 24 54 23l271 -2l58 194l36 116q44 140 77 229q40 111 60 136q74 104 197 188q99 66 186 95l-14 -23l-61 -28q-33 -17 -57 -37q-60 -48 -97 -133q-15 -34 -55 -157l-179 -578q70 2 138 22q92 28 151 84l-10 -31q0 -7 -76 -73q-40 -35 -79 -61q-48 -32 -91 -48l-21 -7
l-49 -13l-60 -191l-35 -113l-65 -225q-30 -110 -30 -135q0 -38 18 -70q15 -26 35 -38q8 -3 28 8q15 9 38 25q9 6 19 14l30 24l-8 -22q0 -2 -52 -41l-75 -53l-119 -80q-59 65 -59 172q0 76 18 172q16 80 46 183l72 227l40 128q-34 -6 -75 -5z" />
    <glyph glyph-name="I" unicode="I" horiz-adv-x="786" 
d="M627 1454q-315 -87 -449 -508l-97 -94q-24 -25 -38 -43l-2 29q17 61 57 132q31 56 88 140q84 122 225 250q149 136 269 190q36 17 116 36l85 19l102 21q90 21 170 52q62 25 62 28l-19 -25l-60 -27q-69 -35 -114 -71q-33 -26 -71 -89q-30 -51 -56 -112q-30 -67 -87 -252
l-109 -360l-59 -186l-61 -172q-66 -177 -118 -248q-91 -125 -248 -184q-129 -50 -285 -50q-39 0 -76 15q-28 11 -28 14q36 31 89 100q46 61 46 64l6 -8l-1 -7l-1 -39q2 -14 6 -26q22 -70 115 -59q134 15 254 245q49 95 102 245q21 61 46 141l69 224l24 76l47 150
q55 168 105 283q31 71 90 130l38 33l16 11z" />
    <glyph glyph-name="J" unicode="J" horiz-adv-x="858" 
d="M917 1603l167 19q95 12 153 32l23 9q8 3 20 8q8 4 10 4l30 13l-10 -21q-9 -5 -23 -12l-68 -33q-25 -13 -51 -29q-91 -57 -139 -131q-73 -112 -151 -293l-69 -173q-31 -82 -65 -181l-62 -182l-57 -174l-53 -161l-49 -138q-91 -245 -253 -394q-71 -66 -170 -128
q-75 -47 -202 -113q-187 -99 -262 -94q-12 -1 -23 2q-9 2 -17 6q-15 8 -15 10q41 35 96 122q47 75 47 81l17 -17l-2 -14q-2 -16 4 -30q18 -44 96 -42q93 4 254 148q63 57 135 162q42 62 75 126q39 74 62 146l148 461l120 356q64 179 95 242q59 121 130 220q61 84 103 118
l-95 -19q-106 -23 -163 -43q-196 -67 -317 -188q-117 -117 -168 -295q-16 -9 -40 -30l-42 -40l-47 -51l-6 12q74 213 223 359q54 53 105 97q59 51 114 93q130 97 244 142q60 24 148 38z" />
    <glyph glyph-name="K" unicode="K" horiz-adv-x="1421" 
d="M1583 -182q-1 -1 -6 -3q-4 -2 -7 -4q-9 -5 -17 -9q-11 -5 -22 -9q-12 -6 -25 -10q-66 -24 -126 -22q-80 3 -144 53q-78 60 -130 186q-19 45 -56 169l-12 41q-1 2 -2 7l-56 182q-44 138 -84 225q-49 110 -97 154q-18 17 -75 21l-21 2h-33l-81 -256q-20 -59 -30 -84
q-19 -47 -71 -102q-43 -46 -111 -99q-50 -39 -121 -87l-55 -37l-47 -32q0 2 44 15q20 6 36 9q20 4 30 3q243 -22 305 51l-2 -12q-34 -54 -96 -109q-67 -58 -117 -71q-78 -19 -139 -13l-145 21q-62 0 -84 -31l-31 4l36 29q13 9 25 19q71 58 123 108q98 95 163 212
q25 44 49 97l36 88q19 46 38 106l108 366q44 145 88 242q55 123 121 200q19 22 43 42l41 29q15 10 30 17l13 6l-83 -26q-39 -10 -70 -16q-37 -6 -58 -3q-49 6 -118 27l-125 43q-77 27 -120 38q-63 16 -106 15q-38 0 -106 -37q-53 -28 -132 -84l4 31l105 71l96 62
q77 44 131 57q21 5 44 7q8 0 20 1h20q35 0 100 -20q45 -13 127 -45l127 -47q66 -23 100 -27q79 -8 167 19q64 19 161 69l-4 -27l-63 -32q-38 -21 -69 -47q-84 -68 -151 -193q-26 -49 -60 -137q-27 -71 -58 -164l-44 -137l-18 -58q296 142 516 359q204 203 246 399
q49 10 139 50l57 27l23 11q13 -14 -10 -65q-21 -46 -67 -115q-92 -138 -193 -246q-109 -115 -245 -211q-147 -104 -333 -190l14 2q18 2 36 -1q26 -4 51 -16q32 -15 59 -42q40 -41 76 -112q30 -60 61 -149l28 -84q10 -35 26 -86l51 -172q30 -94 57 -157q32 -77 67 -124
q82 -111 195 -79q34 10 108 66q58 44 101 86l-14 -52z" />
    <glyph glyph-name="L" unicode="L" horiz-adv-x="716" 
d="M1026 1364q68 193 8 284q-47 72 -165 68q-197 -6 -279 -182l-32 -82l-101 -291l-59 -183l-45 -154l-63 -233q-55 -193 -142 -278q-38 -36 -107 -81q-56 -36 -128 -75l-59 -31l-93 -46l166 12q110 0 247 -57q54 -22 123 -58l186 -101q34 -19 62 -33q70 -36 127 -58
q143 -57 262 -57q171 0 324 84l-25 -37l-84 -39l-58 -22q-74 -26 -141 -41q-85 -19 -155 -19q-152 0 -297 53q-59 21 -125 54q-44 22 -116 62l-113 62q-63 33 -115 54q-132 53 -262 53q-59 0 -118 -11q-47 -8 -93 -23q-84 -27 -84 -34l12 29q21 16 70 46l98 58q64 40 115 77
q66 49 121 102q78 75 136 162q66 101 105 218l39 126l49 177q6 21 10 37q11 41 21 74q23 83 43 147q51 162 99 261q59 121 122 166q250 172 514 190q121 8 181 -60q58 -66 16 -149q-34 -20 -71 -61q-29 -32 -59 -76q-54 -81 -54 -92z" />
    <glyph glyph-name="M" unicode="M" horiz-adv-x="1421" 
d="M1447 -76q-167 -156 -240 -151q-86 1 -135 81q-60 96 -57 296q1 159 49 420q50 277 121 493l-267 -446l-190 -339q-89 -169 -100 -223l-138 -180l-6 21q19 70 54 275l33 197l32 209l78 527q-139 -315 -295 -583q-163 -281 -352 -523q-137 -172 -346 -270
q-199 -93 -324 -60l129 150q120 -72 300 37q177 106 327 331q114 169 233 385q110 199 172 342l23 60q28 73 49 137q29 89 41 146q8 35 9 57q1 25 -5 35l367 239l-7 -16q0 1 -17 -14l-39 -42q-60 -74 -73 -163q-27 -126 -56 -299q-23 -138 -45 -300q-42 -297 -42 -323
l639 1057l201 104l-4 -14q-18 -14 -68 -121q-54 -114 -111 -262q-66 -173 -112 -332q-54 -189 -72 -332l-12 -102l-8 -104q-3 -64 -1 -120q4 -142 36 -222q40 -100 122 -97q35 3 77 44q36 34 36 40z" />
    <glyph glyph-name="N" unicode="N" horiz-adv-x="1218" 
d="M1795 1843q-83 10 -177 -25q-101 -39 -173 -118q-40 -44 -77 -106q-30 -49 -57 -108q-20 -42 -36 -84l-12 -34q-24 -58 -81 -240l-167 -546l-88 -299q0 -11 20 -72q25 -73 45 -82q42 -18 120 31l27 19l42 34l-9 -29l-169 -124l-37 -25q-25 -16 -43 -26q-23 -11 -33 -11
q-23 0 -43 17q-27 23 -39 67q-38 138 -90 357l-91 394l-39 175l-59 274l-215 -639l-66 -185q-30 -82 -52 -125q-47 -94 -162 -186l-140 -102q43 23 92 30q17 2 39 3l35 2q11 1 24 -1q8 -1 25 -5q38 -7 64 -8q80 -3 162 73l-2 -12q-71 -105 -152 -144q-57 -28 -135 -28
q-42 1 -91 10l-72 13q-69 11 -103 -31l-33 4l154 122q42 35 71 64q64 63 110 130q53 78 85 169l98 276l55 167q30 94 52 174q26 91 43 163q38 168 22 220q-19 65 -51 67q-18 2 -48 -15q-24 -13 -55 -38q-12 -9 -25 -20l-40 -35l2 47l166 125q76 55 124 86q29 18 48 27
q21 10 29 10q9 -1 16 -9q6 -6 11 -16q3 -7 6 -15l172 -825l74 -342q14 -58 18 -67l175 569l54 170q61 185 100 289q61 163 203 289q58 51 133 100q59 38 137 80q49 23 121 45q90 27 125 20z" />
    <glyph glyph-name="O" unicode="O" horiz-adv-x="1228" 
d="M342 940q0 29 4 91l4 56q0 4 24 47q32 57 71 114q56 79 121 145q80 83 169 141q154 98 289 98q100 0 158 -128q45 -100 51 -232q19 -384 -262 -843q-137 -224 -297 -351q-180 -142 -358 -137q-174 5 -260 181q-34 70 -51 163q-15 79 -15 164q0 305 164 606
q169 309 430 458l-6 -47q-451 -332 -451 -907q0 -184 87 -327q102 -169 274 -166q129 2 242 135q97 114 174 313q66 168 106 364q35 174 35 289q0 52 -7 103q-8 65 -25 114q-44 130 -138 127q-58 -1 -138 -46q-30 -17 -64 -41l-52 -40q-91 -73 -172 -200q-83 -130 -103 -236
z" />
    <glyph glyph-name="P" unicode="P" horiz-adv-x="1452" 
d="M386 100q0 3 33 13q41 12 84 12l113 -6q45 0 82 10q30 7 54 20q17 9 29 20q9 8 9 9l4 -20q0 -9 -63 -69q-78 -73 -148 -95q-58 -19 -113 -19q-16 -2 -44 2l-105 17q-28 5 -45 4q-19 -1 -34 -6q-12 -4 -21 -10q-15 -10 -15 -15l-29 4q138 112 216 198q92 103 159 232
q52 101 112 278q26 75 52 163q24 77 48 163l72 270q27 110 27 114l306 114l14 -6q-65 -29 -122 -133q-48 -87 -97 -240q-19 -61 -42 -143l-21 -74q-4 -16 -10 -37l-51 -185q-22 -80 -42 -140q-42 -127 -154 -242q-53 -55 -125 -109q-57 -42 -137 -92zM925 739
q401 -24 483 424q36 192 -25 301q-66 120 -241 121q-162 2 -389 -106q-227 -109 -391 -267q-178 -171 -199 -335q-21 -177 131 -197q11 0 28 5l32 12q36 16 36 18l-8 -21l-93 -49l-70 -41q-34 -21 -44 -31q-161 14 -139 209q15 127 144 287q122 151 312 291q191 141 390 226
q213 92 379 93q157 2 250 -67q119 -88 112 -281q-4 -128 -73 -249q-63 -111 -173 -204q-220 -186 -481 -210z" />
    <glyph glyph-name="Q" unicode="Q" horiz-adv-x="1138" 
d="M1189 -150q166 83 217 201l110 80q-132 -203 -349 -346q-235 -154 -454 -154q-81 0 -181 23q-41 9 -90 23l-89 27l-86 27l-83 26q-91 25 -153 30q-9 1 -27 -10q-17 -10 -37 -27q-45 -39 -61 -69l-18 -3q0 3 31 42l34 42q22 26 44 48q56 57 105 87q62 38 112 31l2 4
q-115 61 -172 208q-50 129 -50 306q0 574 381 943q31 30 72 62q33 26 71 51l75 48l-11 -51q0 1 -25 -16q-31 -23 -64 -52q-45 -41 -85 -90q-50 -61 -90 -131q-172 -297 -172 -647q0 -86 18 -175q20 -99 57 -176q43 -88 105 -135q69 -53 158 -50q128 4 234 108q94 91 165 252
q44 98 78 218q31 106 52 224q38 209 38 373q0 52 -5 98q-7 61 -22 108q-42 123 -139 136q-143 20 -323 -176q-46 -49 -91 -138q-35 -71 -69 -165q-24 -66 -44 -137q-15 -54 -15 -58l-6 13l9 59l11 168q55 154 193 307q99 107 253 187q147 76 242 77q99 2 162 -139
q53 -119 49 -244q-12 -358 -187 -743q-84 -184 -188 -328q-109 -150 -225 -233q-169 -120 -330 -96l-2 -2l60 -21q75 -25 149 -44q103 -28 188 -43q106 -18 179 -13q138 0 289 75z" />
    <glyph glyph-name="R" unicode="R" horiz-adv-x="1462" 
d="M291 1217q188 185 431 298q264 123 515 123q171 0 260 -62q100 -70 78 -206q-33 -212 -192 -361q-152 -142 -375 -190q124 8 207 -219q23 -66 47 -168l35 -162q2 -12 5 -23q24 -112 43 -179q26 -92 56 -152q87 -174 240 -133q112 30 194 178l-6 -80l-125 -135
q-196 -108 -356 -31q-51 25 -91 91q-34 57 -63 150q-13 39 -25 88l-43 183l-22 88q-35 132 -57 199q-29 91 -57 140q-63 111 -154 63l37 88q119 29 222 94q93 58 164 139q136 156 136 305q0 222 -252 216q-201 -5 -424 -109q-216 -101 -371 -256q-180 -180 -200 -356
q-12 -100 49 -154q65 -58 166 -22l-5 -19l-97 -44q-43 -21 -70 -40q-34 -23 -39 -39q-86 9 -120 76q-28 57 -18 147q29 228 277 474zM225 96q250 230 359 477q56 130 113 281q46 120 90 249q79 234 79 247l320 123l-10 -23q-95 -27 -172 -178q-24 -47 -49 -111
q-20 -51 -46 -126l-93 -274q-28 -76 -54 -137q-31 -70 -64 -127q-74 -132 -165 -206q-44 -35 -81 -61q-26 -18 -57 -37l-48 -30q-27 -17 -52 -38q45 25 114 25l83 -7q147 -22 217 58l-2 -13q-59 -86 -131 -135q-85 -59 -181 -59q-22 0 -49 3q-10 2 -23 4l-47 8q-14 2 -25 4
q-28 3 -52 3q-21 0 -37 -4q-12 -4 -21 -10q-14 -9 -14 -14l-31 4q25 15 79 61z" />
    <glyph glyph-name="S" unicode="S" horiz-adv-x="1204" 
d="M1058 1200l6 19l25 101q6 32 8 52q15 162 -174 168q-117 5 -191 -35q-83 -47 -94 -145q-4 -47 78 -133l97 -93q3 -2 6 -6q5 -4 6 -5l75 -70q57 -55 97 -101q50 -56 83 -108q79 -125 68 -238q-19 -207 -293 -419q-128 -99 -269 -155q-153 -60 -290 -57q-484 13 -452 361
q11 118 132 230q103 96 247 155l-15 -19q-189 -82 -206 -262q-16 -174 96 -279q118 -110 332 -100q103 5 207 54q94 45 175 120q165 152 179 297q11 114 -73 239q-34 52 -87 110q-42 46 -103 103l-65 60l-38 34l-90 86q-87 91 -83 145q6 60 81 122q67 56 175 104
q223 101 369 95q77 -4 128 -30q70 -37 70 -109q0 -10 -3 -22q-2 -10 -7 -22l-10 -22q-121 -90 -184 -235z" />
    <glyph glyph-name="T" unicode="T" horiz-adv-x="1959" 
d="M1975 1028q-40 -156 -79 -280q-49 -154 -101 -280q-61 -145 -129 -258q-77 -127 -164 -216q-115 -117 -248 -174q-146 -63 -317 -58q-56 2 -122 19q-52 13 -108 36q-40 17 -78 36l-30 16q91 88 145 227l7 -14q-8 -127 96 -203q93 -68 233 -72q152 -4 294 160
q63 73 123 179q55 97 108 220q47 111 91 242q39 117 75 246q31 113 58 231q24 102 42 197q9 47 77 94l25 16q10 6 21 11l20 10q-69 13 -189 26q-96 11 -220 22l-256 20q-251 14 -482 -63q-239 -78 -393 -232q-194 -198 -203 -463q-2 -98 25 -141q36 -57 108 20l-8 -24
q-30 -24 -72 -69l-72 -83l-79 -98l-11 38l-6 28q-17 83 -16 165q6 184 91 357q80 163 223 305q196 193 467 300q277 111 563 103q106 -3 237 -19q52 -6 117 -16l235 -37q66 -10 118 -16q131 -17 237 -20q82 -4 158 0q91 6 168 23q190 41 284 149l-26 -64
q-129 -115 -235 -170q-99 -51 -205 -64q-82 -11 -221 -2l-131 10q-86 6 -153 9z" />
    <glyph glyph-name="U" unicode="U" horiz-adv-x="1859" 
d="M-64 506q-12 -9 -23 -19q-66 -58 -99 -108l-2 8q114 510 471 864q325 322 686 357q53 6 130 -8l67 -15q-11 -16 -55 -125l-102 -267l-119 -334q-64 -189 -105 -331l-14 -55q-17 -67 -28 -123q-15 -78 -17 -123q-3 -56 16 -57q26 -2 79 43q43 37 102 102q42 47 87 103
q37 46 37 47q161 192 311 491q21 43 66 149l83 206l103 262l227 90q-47 -102 -112 -261l-134 -344q-72 -196 -118 -348q-54 -174 -68 -272l-7 -43q-8 -51 -11 -93q-8 -137 45 -134q46 8 119 71q62 53 140 143q64 73 130 161l90 127v-47q-94 -161 -319 -399
q-109 -117 -194 -185q-97 -78 -144 -78q-29 0 -41 56q-8 40 -8 118q0 73 18 184q14 89 39 199q17 79 38 160q4 14 7 27l10 38l-196 -247l-179 -214q-101 -117 -172 -188q-141 -141 -206 -141q-21 0 -24 50q-1 16 0 35q0 5 1 11v4q0 93 25 225q21 113 61 261q25 89 80 252
l52 150l186 509q0 4 -50 13q-65 13 -139 7q-235 -17 -446 -229q-290 -290 -338 -706z" />
    <glyph glyph-name="V" unicode="V" horiz-adv-x="1409" 
d="M650 1617q35 -61 58 -179q12 -64 18 -134q5 -56 6 -113l-9 -518l-6 -163q-4 -86 -8 -154q-12 -160 -28 -217q71 94 193 272l132 197l139 214l131 215q64 110 110 198q104 201 104 276q0 50 -21 77q-7 9 -15 14l-7 4l22 13q12 7 24 15q15 10 28 20q80 58 108 105l19 -17
q7 -10 12 -23q5 -17 4 -36q-3 -70 -142 -327l-147 -255l-172 -282q-412 -660 -585 -874l-71 -51q-77 -59 -112 -99l-4 8l61 207q15 56 27 114q13 69 25 157q33 249 35 560q1 324 -33 529q-15 87 -54 142q-44 62 -104 59q-42 -3 -80 -41q-45 -45 -88 -134q-33 -67 -55 -136
q-15 -4 -31 -17q-12 -10 -12 -12q46 204 190 348q119 116 230 113q66 -2 108 -75z" />
    <glyph glyph-name="W" unicode="W" horiz-adv-x="1728" 
d="M1425 1708l-5 -7q-7 -10 -13 -21q-18 -36 -21 -74q-8 -93 -10 -291l-1 -185q1 -90 2 -190q1 -87 3 -177l8 -276l114 286q61 146 116 257q64 128 133 234q76 117 166 219q46 52 101 105q70 66 138 117q84 61 159 95q89 39 163 39q24 0 42 -1q14 -2 24 -4q12 -3 12 -5
q-18 -9 -44 -29q-22 -16 -47 -37l-53 -47q-102 17 -217 -48q-46 -25 -96 -64q-35 -28 -82 -70q-58 -57 -121 -145q-55 -77 -123 -191q-81 -136 -158 -300q-70 -148 -132 -310q-56 -148 -100 -293q-41 -135 -66 -246q-15 -8 -41 -27l-103 -88l-8 19l14 66q15 77 15 131
q12 142 17 366l3 204v199q0 88 -1 180l-2 145l-3 134l-68 -127l-74 -143l-92 -181l-102 -208l-107 -224l-104 -229l-94 -223q-13 -4 -43 -24q-24 -15 -57 -40l-70 -55l-4 19q45 182 75 333q34 173 52 331q21 172 24 340q4 179 -10 362q-8 114 -41 193q-38 91 -94 91
q-44 0 -102 -99q-48 -83 -66 -153l-47 -24q35 101 87 185q46 72 101 128q95 94 158 94q91 -2 141 -135q43 -115 52 -315q5 -113 -3 -258q-7 -127 -22 -265q-30 -268 -63 -376l565 1138l88 74q42 36 74 67q41 39 63 66v-12z" />
    <glyph glyph-name="X" unicode="X" horiz-adv-x="1323" 
d="M606 844q0 1 -3 29l-9 76l-17 108l-24 123q-33 147 -72 230q-49 104 -106 101q-50 -1 -138 -53l-77 -51l6 29l149 107q69 47 116 74q28 16 48 24q22 10 33 10q30 0 55 -29q40 -43 77 -146q30 -83 57 -200q19 -84 35 -176q12 -70 12 -76q0 1 26 37l32 44l46 60l132 158
q89 101 188 201q143 145 259 229q137 99 226 107q0 -3 38 -16q22 -7 47 -13q31 -7 65 -12q-172 -35 -350 -149q-154 -98 -310 -255q-108 -108 -216 -243l-91 -119l-80 -111l77 -555q11 -73 24 -119q32 -117 94 -114q20 0 66 26q39 23 93 62l90 71l60 52l-21 -78l-328 -258
q-63 -45 -87 -45q-58 -3 -99 106q-20 56 -39 160q-15 82 -30 200l-23 188q-11 94 -16 122l-114 -152l-162 -220l-118 -157l-128 -166l-134 -168l-137 -161l-89 -100l-87 -94q-94 -97 -176 -167q-192 -164 -406 -243q-40 -15 -91 -30q-42 -12 -89 -23l-92 -21q50 29 126 110
l67 74q0 -1 27 -10q33 -11 59 -12q53 -2 127 30q63 28 140 80q61 41 129 98q49 40 99 87q42 38 95 93l88 95l92 104q91 109 197 250l96 131l281 400l93 130z" />
    <glyph glyph-name="Y" unicode="Y" horiz-adv-x="1591" 
d="M127 -1023q-15 -59 -16 -117q-1 -41 6 -77l6 -28l82 43l55 32q69 42 129 86q76 56 133 113q83 82 150 179q59 85 111 190q41 82 87 196l78 197q-254 -77 -516 -336q-90 -89 -150 -172q-44 -61 -97 -160q-40 -72 -58 -146zM1051 1546l-19 -45l-117 -300l-79 -212l-79 -225
q-40 -119 -69 -217q-68 -228 -69 -324q0 -72 32 -78q56 0 170 111q96 91 226 269q116 160 237 358q114 188 195 349q82 164 98 238q21 7 60 25l73 36l62 32l26 14l6 -8q-47 -98 -113 -257l-117 -287l-128 -331q-40 -125 -97 -283l-101 -269l-44 -112l-67 -167q67 20 153 33
q70 10 165 16l166 8q103 4 159 8v-16q-114 -51 -205 -180l-14 -4l8 18q4 10 5 20q1 12 -1 23q-6 31 -80 48q-61 13 -137 13q-78 0 -162 -10q-67 -8 -67 -10l-93 -234q-27 -64 -57 -125q-42 -86 -85 -153q-54 -84 -105 -135q-144 -142 -356 -280q-222 -144 -470 -251l-6 7
l-6 106q0 239 180 469l42 52l59 66q78 86 168 160q113 94 243 169q153 88 326 147l362 1020q-64 -133 -206 -329q-154 -212 -304 -361q-102 -104 -184 -158q-91 -59 -149 -51q-54 10 -54 123q0 43 12 110q8 53 24 119q11 46 25 94l11 39q41 140 103 319l56 159l55 147
l124 321q-55 12 -179 6q-136 -7 -218 -32q-146 -43 -216 -131q-57 -73 -57 -168q0 -75 31 -105q10 -10 21 -14q10 -3 10 -2q-50 -23 -117 -97q-57 -63 -57 -69q-18 201 59 350q66 128 238 273q88 75 207 100q48 10 104 13q40 2 98 1h30q36 0 72 4q50 4 91 14q51 13 86 33z
" />
    <glyph glyph-name="Z" unicode="Z" horiz-adv-x="1433" 
d="M1464 934q-167 -193 -401 -199q-35 -1 -91 4l-50 4l-486 -723q0 5 71 21q86 19 167 12q120 -9 307 -69q74 -24 173 -60l357 -135q99 -36 175 -60q190 -59 317 -67q87 -6 196 55q110 62 76 103q47 10 112 39q51 22 111 55l119 72v-13q0 -1 -20 -28q-27 -34 -59 -68
q-45 -47 -95 -86q-63 -48 -129 -80q-97 -47 -194 -70q-114 -27 -238 -26q-105 1 -217 16q-100 13 -209 36q-93 21 -201 51q-79 22 -192 57l-185 58q-103 32 -176 51q-192 51 -329 55q-74 1 -143 -13q-54 -12 -103 -33q-34 -15 -63 -33q-21 -14 -21 -16v25q43 36 161 184
l113 144l119 158l299 407l-86 12q-99 12 -162 12q-197 0 -288 -75l6 22l147 115q125 48 230 54q48 3 108 -2q43 -3 125 -13l395 592q-71 -13 -158 -11q-71 1 -167 13l-171 24q-104 15 -171 21q-101 9 -217 -45q-110 -50 -158 -119l-37 2l289 281l61 18q-14 -11 -15 -22
q-1 -8 6 -16q5 -5 14 -10l8 -3q89 25 225 12q27 -3 66 -8l251 -31q122 -12 217 -4q77 6 136 25q42 13 77 35l23 14q11 8 16 10l27 -16l-533 -783q75 -6 126 -7q68 -1 123 7q132 19 227 97z" />
    <glyph glyph-name="bracketleft" unicode="[" horiz-adv-x="714" 
d="M0 6q18 71 41 183l47 235l140 787l35 209l32 196q35 -4 109 -3q59 0 139 2l66 2q27 1 55 3l51 2l-15 -63l-87 4q-100 3 -160 -4q-31 -126 -83 -388l-47 -245l-89 -482l-66 -374l95 -4q105 -3 153 4l-13 -60z" />
    <glyph glyph-name="backslash" unicode="\" horiz-adv-x="839" 
d="M764 -127l-58 194l-64 205l-78 244l-88 260l-90 250q-100 264 -165 375l76 237l125 -411l80 -247l88 -256l90 -238q99 -245 159 -314z" />
    <glyph glyph-name="bracketright" unicode="]" horiz-adv-x="684" 
d="M643 1477q-8 -37 -15 -75l-37 -194l-45 -237l-48 -259l-46 -263q-24 -136 -41 -245l-30 -208l-44 2q-55 3 -105 4q-70 2 -122 0q-65 -2 -98 -10l4 61l229 6l110 588l87 484q46 258 66 389l-27 1q-33 2 -65 2q-102 2 -158 -10l22 72l120 -7q63 -2 123 -1q75 0 140 4z" />
    <glyph glyph-name="asciicircum" unicode="^" horiz-adv-x="337" 
d="M199 1434l-18 -25q-21 -30 -40 -60q-63 -93 -86 -141l-55 -12l77 113l111 178l52 45q0 -7 30 -117l32 -105q19 -60 36 -100l-55 -30q-12 53 -49 159z" />
    <glyph glyph-name="underscore" unicode="_" horiz-adv-x="974" 
 />
    <glyph glyph-name="grave" unicode="`" horiz-adv-x="323" 
d="M0 1233q2 19 6 34l16 43l5 38q56 -56 138 -120l148 -116q3 -2 7 -20l4 -17l-243 120z" />
    <glyph glyph-name="a" unicode="a" horiz-adv-x="817" 
d="M722 264q-39 -88 -143 -182q-115 -106 -201 -105q-52 1 -61 82q-7 65 14 177q8 45 20 95l21 82l24 81l-113 -154q-55 -73 -101 -127q-58 -69 -97 -104q-77 -69 -115 -97q-52 -37 -80 -35q-29 4 -35 59q-1 10 -2 22v57q0 131 86 308q85 176 213 308q154 157 299 180
q63 11 159 11l83 -2l-94 -298q-42 -141 -69 -245q-33 -131 -40 -197l-2 -24q-2 -16 -1 -27q3 -31 28 -31q24 0 62 36q31 28 68 77q27 35 54 77q23 34 23 36v-60zM169 280q58 72 127 177q152 230 182 329q-128 15 -204 -23q-86 -43 -146 -167q-79 -147 -102 -293
q-23 -150 44 -119q34 16 99 96z" />
    <glyph glyph-name="b" unicode="b" horiz-adv-x="722" 
d="M67 146q0 -23 3 -36q10 -40 60 -40q96 2 190 194q119 245 119 418q0 76 -47 76q-54 0 -113 -56q-84 -80 -151 -261q-59 -162 -59 -261zM369 836q128 79 195 79q50 0 61 -71q2 -13 2 -27l-1 -45q0 -328 -293 -620q-178 -179 -357 -179q-100 0 -100 121q0 68 69 312
q64 230 160 510q99 291 182 493q94 226 136 260q41 33 113 73q57 32 132 67l61 27q24 11 49 21l46 19l-10 -29q0 4 -42 -20q-23 -13 -46 -30q-29 -21 -57 -48q-85 -83 -161 -226q-32 -62 -65 -138l-57 -146l-98 -291q-27 -81 -46 -132q-24 -66 -44 -114q54 62 171 134z" />
    <glyph glyph-name="c" unicode="c" horiz-adv-x="808" 
d="M30 37q-48 64 -46 174q1 125 60 263q62 147 169 257q93 95 206 147q126 58 265 58q30 0 51 -5q17 -4 27 -11q7 -6 10 -12l2 -5q-17 -29 -37 -77q-15 -39 -32 -88q-33 -96 -33 -103l-84 -39l20 41l11 27q31 76 28 122q-5 88 -55 82q-102 -8 -197 -106q-96 -100 -161 -265
q-60 -150 -60 -259q0 -60 18 -98q24 -49 78 -60q72 -18 194 82q114 93 183 209l-55 -170q-36 -41 -71 -72q-44 -41 -91 -70q-116 -74 -252 -84q-96 -7 -148 62z" />
    <glyph glyph-name="d" unicode="d" horiz-adv-x="872" 
d="M1308 1821q-16 -8 -44 -26l-10 -7q-6 -4 -11 -6q-11 -8 -21 -13l-25 -9l-8 -4q-9 -4 -20 -11q-13 -9 -31 -25q-18 -15 -53 -67q-31 -47 -31 -49q-85 -148 -179 -383q-42 -102 -83 -217l-76 -216q-148 -445 -164 -567l-15 -94q-5 -47 19 -47q43 0 118 89q27 33 56 73
l37 57l2 -55q1 -8 -13 -30q-12 -19 -33 -46q-40 -51 -66 -78q-48 -48 -111 -85q-73 -44 -123 -44q-37 0 -52 40q-9 25 -9 71q0 48 15 122q13 60 34 134l49 151l-32 -41q-18 -21 -35 -43l-43 -53l-97 -113q-54 -61 -88 -92q-205 -195 -266 -170q-34 13 -31 103q6 129 79 298
q40 90 93 172q59 91 129 162q90 92 194 147q116 62 245 77l59 164l79 206q46 116 84 198q45 96 77 142q13 19 80 56q54 29 140 70l132 60l59 25zM167 231q46 47 109 131q57 75 117 167q126 192 155 268q0 1 -45 4q-24 2 -50 2q-31 0 -62 -2q-45 3 -95 -47q-86 -84 -164 -267
q-74 -175 -71 -266q0 -37 35 -39q22 0 71 49z" />
    <glyph glyph-name="e" unicode="e" horiz-adv-x="745" 
d="M281 527q78 40 131 91q86 83 86 177q0 43 -38 43q-62 0 -140 -78q-137 -137 -176 -285q69 17 137 52zM-17 504q78 171 190 246q43 29 91 57q58 34 112 60q138 67 217 67q82 0 82 -68q0 -116 -140 -241q-45 -43 -121 -94q-61 -42 -139 -88l-113 -64l-47 -25l-2 -6
q-3 -9 -6 -21q-8 -38 -8 -96q0 -54 25 -97q31 -53 86 -54q106 0 229 123q41 39 91 107q42 56 42 59q-8 -36 -18 -70l-18 -54l-17 -46q-237 -221 -426 -226q-166 -6 -182 213q-5 150 72 318z" />
    <glyph glyph-name="f" unicode="f" horiz-adv-x="520" 
d="M740 1391q-171 -15 -238 -84q-24 -26 -48 -72q-20 -38 -38 -87q-14 -35 -26 -73l-9 -31l260 7l-102 -82l-186 -4q0 -9 -62 -239l-68 -247l-86 -284q-49 -159 -96 -288q-53 -148 -100 -256q-113 -253 -192 -276q-36 -10 -114 -48l-149 -78l-130 -71l-56 -32l16 35
q89 52 144 90q68 48 118 96q107 103 185 268q66 140 133 331l58 178q26 82 54 180l80 282q3 12 6 21l55 195q23 79 42 136l-77 3q-86 1 -136 -5l121 84l123 2q56 194 135 273q61 62 166 85q46 11 113 17l137 10z" />
    <glyph glyph-name="g" unicode="g" horiz-adv-x="757" 
d="M70 176q15 -3 40 17l40 36q47 46 108 129q54 73 111 164q117 185 144 262q0 2 -40 8q-49 7 -93 7q-73 0 -140 -74q-84 -88 -143 -248q-55 -147 -53 -246q9 -52 26 -55zM-204 -1016l8 43q97 53 195 242q43 82 88 192q39 96 80 217q34 101 72 227l123 413q30 97 50 153
q-63 -132 -247 -322q-83 -85 -146 -132q-70 -52 -96 -42q-62 25 -41 179q20 154 109 327q99 195 239 311q165 138 350 132l142 -6l-43 -128l-246 -781l-92 -286l-81 -248q-39 -114 -63 -176q-26 -68 -34 -73z" />
    <glyph glyph-name="h" unicode="h" horiz-adv-x="913" 
d="M768 277l-18 -64l-10 -37q-66 -87 -163 -151q-104 -69 -167 -56q-51 13 -40 113q4 32 13 68q3 12 6 22l3 8q0 4 39 116l42 114l50 125l49 112q23 53 28 72q11 48 -71 4q-110 -60 -226 -189q-132 -146 -198 -307l-32 -83q-15 -40 -23 -69q-11 -36 -13 -55l-83 -22
q-94 -28 -148 -55q51 51 100 182l43 125l101 326l61 195l75 226l80 230q43 119 80 207q85 208 130 237q219 149 405 217l-14 -33q-42 -19 -123 -80l-51 -40l-21 -17q-68 -68 -155 -264q-37 -83 -76 -188l-72 -200l-61 -190l-49 -160q-43 -148 -43 -153q101 105 274 215
q87 56 158 88q79 35 127 35h21q13 -1 19 -6q9 -6 10 -19q1 -15 -7 -38l-63 -167l-149 -377q-70 -192 -12 -192q52 20 120 111q59 78 59 88z" />
    <glyph glyph-name="i" unicode="i" horiz-adv-x="462" 
d="M496 1341q-44 -60 -96 -157l-92 -170l-54 -23q16 40 38 156q20 101 20 108zM-12 762l22 14l24 16l32 20l164 93q86 43 123 43q38 0 26 -49l-41 -112l-221 -564q-38 -102 -6 -102q15 -1 49 25q27 20 65 56q27 26 56 57l24 26l-6 -82l-21 -21l-56 -51q-39 -34 -74 -60
q-44 -34 -78 -53q-71 -40 -127 -43q-41 0 -41 52q1 42 24 125q21 70 60 177q29 80 79 205l83 209q17 43 -8 43q-17 0 -48 -15q-25 -12 -59 -34l-28 -18l-44 -31z" />
    <glyph glyph-name="j" unicode="j" horiz-adv-x="385" 
d="M-710 -881q91 53 152 92q48 31 80 57l23 20l13 12l4 4l16 14q9 8 19 14q47 33 145 268q41 100 91 236l94 262l87 257l140 438q6 19 -15 21q-20 3 -40 -13q0 3 -48 -19q-26 -11 -53 -26q-32 -19 -63 -41q18 32 31 62l10 24l93 46q11 5 20 10l87 43q52 23 93 38
q33 10 47 10q53 3 35 -49q-21 -50 -54 -147l-189 -592l-44 -133q-48 -145 -90 -257q-48 -131 -90 -227q-98 -222 -166 -264l-74 -32l-51 -21q-33 -13 -58 -24q-72 -30 -132 -58q-77 -35 -142 -70zM262 993l84 336l183 80q-21 -30 -61 -97l-169 -292z" />
    <glyph glyph-name="k" unicode="k" horiz-adv-x="780" 
d="M945 -141q-141 -131 -254 -131q-133 0 -232 204q-26 57 -58 151q-26 76 -54 173l-53 201l76 49q85 59 132 106q91 94 91 156q1 70 -82 25q-30 -17 -66 -45q-14 -11 -27 -23l-20 -18q-81 -75 -147 -174q-55 -83 -101 -185q-19 -42 -38 -89l-79 -220q-122 -15 -231 -68
q48 37 137 286q35 98 84 250l136 430l46 143q51 155 92 263q100 269 167 336q30 31 101 74q58 35 138 75q58 29 122 58l52 23l-16 -31q-125 -68 -200 -151q-80 -90 -148 -248q-38 -88 -82 -216l-128 -415l-17 -54q-37 -122 -58 -184q0 2 25 32q30 38 57 65q96 96 208 171
q123 82 191 87q92 7 50 -119q-40 -122 -154 -236q-91 -90 -158 -116q8 -22 22 -70l14 -46q10 -33 15 -51q19 -64 35 -112q21 -65 41 -116q50 -131 101 -198q62 -82 126 -73q53 8 112 45q48 30 48 35z" />
    <glyph glyph-name="l" unicode="l" horiz-adv-x="487" 
d="M596 1754q64 35 125 64l80 36l29 12l-12 -29q-91 -36 -160 -104q-63 -64 -104 -150q-43 -85 -110 -275l-62 -185l-65 -201l-183 -569l-49 -138l-18 -63q-3 -15 -3 -21q0 -31 21 -31q38 0 116 78q26 26 48 53q17 22 32 44q25 38 25 42l2 -61l-95 -121q-55 -65 -139 -110
q-78 -41 -112 -41q-72 0 -72 77q0 51 23 144q20 81 60 206l271 805q45 132 79 220q77 202 112 225q81 50 161 93z" />
    <glyph glyph-name="m" unicode="m" horiz-adv-x="1462" 
d="M1207 161q85 83 110 161l-6 -115q-45 -71 -145 -148q-112 -84 -184 -86q-52 0 -52 78q0 59 30 165q24 81 68 201l71 186q35 92 40 120q12 62 -62 23q-69 -36 -157 -125q-71 -74 -118 -149q-40 -61 -72 -139l-88 -232q-19 -48 -39 -93l-40 -3l-26 -3q-73 -9 -110 -29
l66 162q44 111 78 211q42 121 64 211q27 104 25 160q0 98 -168 -66q-126 -126 -201 -239q-27 -42 -62 -112l-61 -128l-63 -149l-65 -16q-31 -8 -57 -16q-32 -9 -52 -18l54 125l83 209q48 131 76 229q33 118 33 181q0 67 -39 67q-48 0 -148 -94l19 68l32 25q40 31 77 57
q51 36 90 58q47 27 71 30q80 10 80 -133q0 -62 -15 -153l-16 -79l72 71l49 45q62 56 120 100q71 55 130 87q92 52 160 52q24 0 24 -41q1 -33 -10 -85q-9 -42 -26 -94q-11 -38 -26 -77l-11 -31q0 1 32 35l37 37l48 46q61 57 118 100q73 53 135 83q73 35 135 35q50 0 50 -43
q0 -50 -38 -155l-40 -100l-89 -216q-24 -60 -39 -104q-38 -110 -38 -169q0 -62 86 22z" />
    <glyph glyph-name="n" unicode="n" horiz-adv-x="1015" 
d="M695 137q10 7 19 15l24 18q68 55 96 102l-4 -69q-31 -35 -66 -68q-44 -42 -85 -74q-110 -84 -183 -84q-82 2 -6 233l36 102l79 204l33 90q55 162 -13 131l-14 -7l-25 -14q-36 -22 -73 -52q-48 -39 -94 -89q-56 -61 -105 -135q-53 -81 -97 -175q-49 -106 -85 -228l-85 -27
q-51 -15 -116 -30l68 160q45 111 82 214q43 123 67 211q28 104 27 152q-5 108 -90 63q-28 -14 -65 -46l-44 -38l23 64l79 67q66 54 115 79q149 79 158 -85q1 -18 -5 -62q-4 -34 -12 -84l-18 -106q107 134 332 276q109 69 171 79q71 13 64 -60q-4 -49 -54 -189l-73 -196
l-25 -67q-28 -74 -44 -122q-21 -61 -29 -99q-21 -88 18 -66z" />
    <glyph glyph-name="o" unicode="o" horiz-adv-x="798" 
d="M-27 528q78 156 189 232q52 34 110 66q79 43 144 69q80 32 191 18q124 -15 135 -170q20 -288 -244 -569q-201 -215 -422 -215q-85 0 -138 73q-48 65 -48 152q0 177 83 344zM379 189q68 109 115 266q46 156 43 267q-3 122 -67 124q-64 1 -133 -57q-62 -52 -119 -144
q-118 -190 -129 -362q-1 -15 -1 -29q-1 -18 1 -35q2 -45 14 -78q32 -92 125 -82q74 8 151 130z" />
    <glyph glyph-name="p" unicode="p" horiz-adv-x="827" 
d="M514 549q41 168 23 232q-12 42 -53 42q-118 2 -194 -161q-31 -66 -82 -213l-49 -141l-58 -167q78 -65 156 -30q64 30 126 126q47 74 88 179zM-614 -989l12 41q76 28 145 112q56 69 107 177q21 44 42 95l33 90l161 454l101 288q89 262 142 432q34 110 -12 97
q-42 -13 -139 -76l39 65l190 103q51 26 83 39q40 16 61 14q33 -3 20 -47l-7 -20q-4 -10 -10 -22l-20 -46q78 63 156 104q92 49 154 49q72 0 92 -70q23 -80 -27 -249q-66 -226 -239 -417q-93 -103 -194 -160q-113 -64 -226 -64l-134 -388q-67 -188 -110 -294
q-29 -80 -109 -125z" />
    <glyph glyph-name="q" unicode="q" horiz-adv-x="747" 
d="M386 -553l-16 -59l-371 -248l-6 33q-1 21 2 49q2 35 10 78q27 149 95 365q29 93 65 195l68 187l117 300l50 122h-2q0 -3 -48 -70l-55 -72q-34 -43 -69 -81q-101 -114 -183 -184q-100 -85 -147 -82q-49 3 -43 94q9 164 84 330q70 155 183 281q245 271 483 239l131 -2
q-49 -113 -93 -231l-114 -320l-144 -389l-49 -133q-55 -148 -84 -242q-36 -116 -42 -176q-10 -103 71 -52zM144 250q62 65 144 180q77 107 140 211q64 107 81 158l-92 2q-51 0 -89 -14q-101 -38 -192 -212q-18 -34 -38 -80q-29 -67 -48 -123q-54 -162 0 -186q24 -10 94 64z
" />
    <glyph glyph-name="r" unicode="r" horiz-adv-x="790" 
d="M11 801q5 3 12 8l26 18q8 5 15 10q35 23 63 39q78 44 129 44q68 0 72 -80q5 -52 -15 -137l-22 -74q48 102 154 197q120 108 219 108q79 0 84 -55q4 -46 -58 -148l-89 -137l-38 -13l-20 -10l23 44l21 47q22 56 18 100q-4 45 -39 45q-75 0 -158 -88q-72 -77 -146 -213
q-63 -118 -116 -260q-49 -127 -72 -228l-65 -11q-74 -15 -115 -27q19 29 61 142q40 106 84 240q45 139 73 242q31 115 30 148q-1 9 -3 17q-2 10 -5 17q-9 19 -27 19q-29 0 -79 -47q-44 -42 -44 -47z" />
    <glyph glyph-name="s" unicode="s" horiz-adv-x="774" 
d="M504 637l34 66q21 46 28 81q21 97 -66 99q-57 0 -107 -28q-59 -32 -67 -87q-6 -35 41 -97l105 -122q70 -80 99 -132q41 -75 25 -132q-13 -47 -71 -103q-51 -50 -127 -99q-160 -103 -251 -110q-123 -8 -189 53q-58 54 -56 144q1 100 68 176q72 82 175 78l13 -12
q-40 -4 -75 -74q-36 -71 -30 -143q12 -140 164 -140q61 0 124 56q58 51 73 106q16 56 -24 126q-17 28 -45 62q-19 24 -54 62l-56 61q-30 35 -49 61q-46 67 -39 118q14 85 160 165q141 76 260 76q128 0 111 -98q-74 -115 -111 -197z" />
    <glyph glyph-name="t" unicode="t" horiz-adv-x="614" 
d="M437 926l-64 -182l-100 -281q-58 -168 -82 -258q-15 -55 -17 -83q-4 -30 7 -30q18 1 55 28q30 22 71 60l64 65l33 38l-24 -74q-44 -54 -107 -111q-70 -63 -129 -98q-156 -91 -149 61q1 46 35 162q27 95 78 243l130 366l31 88q-16 -1 -35 -3l-114 -8q53 25 85 51
q21 17 21 21l74 2l43 129l44 12q21 7 39 14q38 16 112 58l-80 -207l149 8l82 4l-44 -23q-49 -26 -75 -44z" />
    <glyph glyph-name="u" unicode="u" horiz-adv-x="940" 
d="M700 163q105 113 141 204q0 -6 -3 -27q-3 -16 -9 -41l-12 -55q-69 -105 -169 -189q-116 -98 -183 -84q-56 11 -35 135q8 51 27 121q16 54 40 123l58 164q-60 -97 -118 -178q-73 -102 -141 -177q-80 -88 -152 -135q-82 -53 -150 -51q-45 2 -31 105q12 84 61 231l46 127
l108 266q41 102 -66 38q-34 -20 -83 -57l-52 -40l33 76l81 54q54 35 99 60q122 70 189 76q39 4 12 -88q-11 -38 -35 -98l-105 -246l-52 -125q-53 -136 -54 -194q0 -77 82 8q51 51 127 157q67 92 142 209q159 248 182 320q63 12 105 27l87 34l-76 -175q-38 -93 -69 -179
q-67 -193 -109 -393q-26 -122 84 -3z" />
    <glyph glyph-name="v" unicode="v" horiz-adv-x="839" 
d="M208 136q8 160 -9 323q-23 221 -80 305q-69 100 -168 -39l8 57l37 39q29 28 57 49q82 60 162 60q36 0 71 -84q29 -73 53 -195q49 -261 28 -391l147 210q33 47 57 87q62 97 82 157q26 73 -8 93q-46 18 -112 -29l10 47q81 27 146 55q77 32 139 68q28 -23 -24 -134
q-45 -95 -148 -253q-299 -459 -486 -641q29 55 38 216z" />
    <glyph glyph-name="w" unicode="w" horiz-adv-x="1196" 
d="M934 834l29 10q36 12 73 26l93 40q55 24 94 46l3 -19q0 -11 -3 -23q-3 -14 -10 -29q-16 -33 -48 -86l-109 -166l-41 -62q-48 -72 -81 -127q-79 -125 -119 -208q-52 -107 -55 -170q-41 -17 -85 -46q-30 -20 -77 -57q6 78 5 180l-7 367q0 101 6 180l-88 -173l-169 -308
l-87 -164l-78 -42q-50 -26 -77 -44q24 63 52 207q15 77 26 152q12 85 16 157q16 214 -35 281q-63 82 -219 -80l16 57q156 187 263 187q65 0 103 -75q31 -63 40 -174q8 -91 1 -198q-7 -90 -20 -147q59 84 146 262q90 183 106 258l162 76q-2 -69 0 -157l16 -330q4 -94 5 -161
q46 71 146 258q46 86 77 149q34 71 41 95q15 44 -40 40q-50 -4 -83 -30z" />
    <glyph glyph-name="x" unicode="x" horiz-adv-x="770" 
d="M421 184q0 -1 1 -4l1 -5l13 -31q14 -22 38 -9q49 27 94 75q35 37 35 42l-27 -80l-81 -78q-73 -68 -121 -100q-90 -58 -109 8q-20 67 -42 176l-27 139l-93 -117l-95 -116q-109 -126 -208 -214q-118 -105 -239 -172q-137 -75 -285 -106q21 15 85 87l47 56q21 24 32 38
q51 -39 166 32q95 58 228 187q55 53 114 116l101 112q85 98 128 155q-8 42 -22 92l-55 187l-25 94q-11 45 -60 22q-56 -28 -77 -65l8 55q28 41 113 112q41 34 74 55q37 24 56 27q20 3 43 -55q24 -60 52 -181l32 -157l36 43l67 88l24 32l54 67q88 104 160 151q93 60 167 35
q6 -2 16 -9l42 -26q11 -6 16 -8q-68 7 -150 -33q-71 -34 -151 -104q-72 -64 -145 -149q-63 -75 -115 -152q23 -92 40 -153z" />
    <glyph glyph-name="y" unicode="y" horiz-adv-x="884" 
d="M611 854q14 4 52 19l228 100q14 5 10 -19q-11 -71 -55 -143q-175 -311 -475 -759q-156 -232 -276 -391q-136 -182 -207 -243q77 -24 117 -19q62 7 124 71l-14 -35q-57 -62 -125 -68q-22 -2 -55 2l-51 4h-75q-41 -1 -71 -4q-75 -9 -137 -43l6 25q106 27 233 142
q54 50 111 114q51 57 102 124q44 57 87 121l68 102q61 95 61 99q17 287 -13 505q-35 254 -120 255q-59 0 -91 -108l-4 81q55 83 107 117q62 42 141 31q55 -17 92 -100q32 -71 48 -186q29 -212 -1 -384l52 77l68 109l85 132q86 122 88 203q3 91 -121 26z" />
    <glyph glyph-name="z" unicode="z" horiz-adv-x="780" 
d="M882 -37q-33 -37 -66 -67q-46 -43 -88 -68q-52 -31 -93 -31q-60 0 -173 31q-90 25 -197 63l-86 31q-14 5 -23 9l-49 17q-57 20 -92 31q-45 14 -59 15h-21q-108 0 -149 -76l-23 35q100 86 200 201q44 51 90 110l179 243q3 5 10 15l146 202l88 112q-33 6 -114 10l-118 2
q-154 0 -252 -121v45l154 154q13 -10 66 -17q44 -6 114 -9l120 -4l83 -1q67 0 110 7q63 11 103 38l4 -25q-67 -98 -159 -217l-253 -317l-83 -106q-91 -118 -158 -218q30 0 120 -35l119 -53q172 -81 317 -68q123 10 259 93q0 -2 -26 -31z" />
    <glyph glyph-name="braceleft" unicode="{" horiz-adv-x="745" 
d="M696 1587q-131 -9 -170 -117q-16 -43 -21 -113q-3 -26 -4 -65l-2 -68q-2 -87 -10 -141q-10 -78 -34 -137q-60 -149 -224 -217q134 -66 134 -209q0 -56 -21 -125q-9 -28 -22 -62l-48 -123q-13 -35 -22 -62q-21 -68 -21 -121q0 -148 215 -138l-86 -45q-115 16 -182 57
q-88 55 -88 156q0 64 23 141l24 69l55 138q15 38 24 68q24 76 24 137q0 68 -92 88q-32 7 -79 8l-69 1l63 57q191 0 252 132q24 52 34 136l12 157q6 101 17 159q16 85 50 142q86 140 317 152z" />
    <glyph glyph-name="bar" unicode="|" horiz-adv-x="423" 
d="M78 458l79 483l69 457q32 224 50 382q76 -17 148 4q-41 -212 -84 -463q-41 -234 -80 -482q-76 -485 -121 -839q-56 17 -139 0z" />
    <glyph glyph-name="braceright" unicode="}" horiz-adv-x="706" 
d="M26 -129l30 17l36 20q84 0 127 63q38 55 46 174l4 109q1 75 4 116q10 138 52 224q55 112 175 170q-115 68 -115 211q0 56 18 125q7 27 18 62l21 61l21 61q12 34 19 61q18 68 18 121q0 66 -53 100q-43 28 -117 33l59 50q104 -14 163 -61q71 -55 71 -152q0 -63 -21 -140
l-68 -206q-12 -38 -20 -69q-20 -76 -20 -138q0 -73 76 -92q27 -7 70 -9l67 -2l-62 -51q-168 20 -213 -117q-18 -53 -22 -144q-2 -32 -2 -83l-1 -43q0 -25 -1 -43q-2 -105 -14 -170q-16 -89 -53 -147q-92 -141 -339 -127q9 6 26 16z" />
    <glyph glyph-name="asciitilde" unicode="~" horiz-adv-x="575" 
d="M0 1325q18 74 53 117q43 53 111 53q26 0 66 -19l36 -19l112 -62q39 -19 64 -19q59 0 90 76l43 33q-22 -74 -57 -117q-47 -57 -110 -57q-31 0 -73 18q-30 12 -77 40l-37 22l-34 18q-36 18 -56 18q-66 0 -90 -69z" />
    <glyph glyph-name="dieresis" unicode="&#xa8;" horiz-adv-x="1024" 
 />
    <glyph glyph-name="copyright" unicode="&#xa9;" horiz-adv-x="1644" 
d="M1416 399q-229 -299 -543 -391q-319 -90 -539 78q-224 169 -221 500q3 329 229 628q227 298 543 390q316 91 541 -78q222 -170 219 -498q-3 -332 -229 -629zM1468 1154q-9 284 -188 382q-180 99 -429 -45q-248 -143 -408 -436q-162 -297 -157 -583q6 -291 183 -388
q181 -98 434 52q252 148 412 442q161 295 153 576zM1039 987l-39 -20q53 97 53 180q0 62 -51 49q-145 -35 -223 -209q-64 -142 -64 -303q0 -178 127 -178q69 0 168 108q85 95 127 191q-9 -47 -21 -92l-10 -35q-161 -274 -385 -283q-99 -5 -145 65q-33 49 -37 130
q-19 435 436 641q93 43 219 37q-50 -70 -155 -281z" />
    <glyph glyph-name="registered" unicode="&#xae;" horiz-adv-x="1529" 
 />
    <glyph glyph-name="acute" unicode="&#xb4;" horiz-adv-x="1024" 
 />
    <glyph glyph-name="paragraph" unicode="&#xb6;" horiz-adv-x="1024" 
d="M929 1435v-70h-127v-1365h-82v1365h-166v-1365h-84v738q-174 8 -275.5 102.5t-101.5 245.5q0 157 107.5 253t285.5 96h443z" />
    <glyph glyph-name="onequarter" unicode="&#xbc;" horiz-adv-x="1298" 
 />
    <glyph glyph-name="onehalf" unicode="&#xbd;" horiz-adv-x="1320" 
 />
    <glyph glyph-name="threequarters" unicode="&#xbe;" horiz-adv-x="1288" 
 />
    <glyph glyph-name="Agrave" unicode="&#xc0;" 
d="M1579 1909q2 19 7 33l8 22q5 12 8 22q3 15 4 37q55 -54 138 -120l148 -115q3 -1 7 -18q1 -2 2 -6l4 -13zM2206 872q-75 -86 -130 -135q-70 -62 -143 -96q-47 -23 -114 -37l-58 -10l-10 -94q-4 -51 -7 -105q-3 -67 -3 -133v-22l2 -23l4 -25q13 -69 51 -63q23 4 67 35
q35 26 82 68l99 96l-6 -49l-51 -45l-119 -99q-78 -63 -133 -99q-69 -46 -96 -46q-35 -2 -56 88q-18 74 -16 147q1 59 6 130l11 119l16 120l-101 2q-83 0 -162 -21q-89 -24 -161 -73l6 14q0 5 67 61q35 30 68 53q43 30 80 48q79 38 154 46q59 7 59 1l78 561q0 -2 -84 -123
l-95 -136l-121 -169l-141 -189l-155 -198l-163 -192q-86 -98 -163 -177q-560 -569 -1016 -569q-268 0 -268 266q0 227 194 498q89 126 194 214q111 93 216 122l-24 -49q-166 -55 -294 -214q-134 -168 -134 -343q0 -322 327 -322q159 0 379 141q195 124 430 353
q167 162 331 362q156 189 290 388q276 410 338 655l33 18q41 23 80 48q54 36 96 70q52 43 81 83l-4 -23q-63 -108 -109 -247q-39 -120 -68 -273q-12 -65 -23 -140l-49 -415q107 -3 237 47q118 46 207 115z" />
    <glyph glyph-name="Aacute" unicode="&#xc1;" 
d="M2018 2057q9 -2 21 -8l24 -10q16 -5 38 -9q-60 -52 -131 -128l-131 -141l-16 -2q-16 -3 -19 -4l44 79l94 154l43 74zM2206 872q-75 -86 -130 -135q-70 -62 -143 -96q-47 -23 -114 -37l-58 -10l-10 -94q-4 -51 -7 -105q-3 -67 -3 -133v-22l2 -23l4 -25q13 -69 51 -63
q23 4 67 35q35 26 82 68l99 96l-6 -49l-51 -45l-119 -99q-78 -63 -133 -99q-69 -46 -96 -46q-35 -2 -56 88q-18 74 -16 147q1 59 6 130l11 119l16 120l-101 2q-83 0 -162 -21q-89 -24 -161 -73l6 14q0 5 67 61q35 30 68 53q43 30 80 48q79 38 154 46q59 7 59 1l78 561
q0 -2 -84 -123l-95 -136l-121 -169l-141 -189l-155 -198l-163 -192q-86 -98 -163 -177q-560 -569 -1016 -569q-268 0 -268 266q0 227 194 498q89 126 194 214q111 93 216 122l-24 -49q-166 -55 -294 -214q-134 -168 -134 -343q0 -322 327 -322q159 0 379 141
q195 124 430 353q167 162 331 362q156 189 290 388q276 410 338 655l33 18q41 23 80 48q54 36 96 70q52 43 81 83l-4 -23q-63 -108 -109 -247q-39 -120 -68 -273q-12 -65 -23 -140l-49 -415q107 -3 237 47q118 46 207 115z" />
    <glyph glyph-name="uni1EA2" unicode="&#x1ea2;" 
d="M2206 852q-75 -87 -130 -136q-70 -61 -143 -95q-47 -23 -114 -38l-58 -10l-10 -93q-4 -52 -7 -105q-3 -67 -3 -133v-23l2 -22l4 -26q13 -69 51 -62q23 3 67 35q35 25 82 68l99 95l-6 -49l-51 -45l-119 -99q-78 -63 -133 -99q-69 -45 -96 -46q-35 -1 -56 88
q-18 75 -16 148q1 59 6 130l11 119l16 119l-101 2q-83 0 -162 -21q-89 -24 -161 -73l6 15q0 4 67 61q35 29 68 53q43 29 80 47q79 39 154 47q59 6 59 1l78 561q0 -2 -84 -124l-95 -136l-121 -169l-141 -189l-155 -197l-163 -193q-86 -98 -163 -176q-560 -569 -1016 -569
q-268 0 -268 266q0 226 194 498q89 126 194 213q111 93 216 122l-24 -49q-166 -54 -294 -214q-134 -167 -134 -343q0 -321 327 -321q159 0 379 140q195 125 430 353q167 162 331 363q156 189 290 387q276 410 338 655l33 18q41 23 80 49q54 35 96 70q52 43 81 82l-4 -22
q-63 -108 -109 -247q-39 -121 -68 -273q-12 -66 -23 -141l-49 -414q107 -3 237 47q118 45 207 114zM1902 2120q-23 -2 -41 -17q-14 -12 -26 -32q-8 -14 -13 -30q-4 -12 -4 -14h-22l18 90l12 5q53 26 74 29q26 4 50 5q61 0 99 -41q34 -29 35 -75q0 -43 -33 -80q-7 -8 -16 -17
l-60 -57q-27 -29 -47 -60q-16 -24 -26 -49q-7 -18 -10 -34q-2 -4 -2 -9l-1 -3q-5 -3 -17 -5l-21 -3q-27 -4 -36 -14q1 39 38 83q14 16 42 44q4 4 12 13l41 41q26 29 43 67q15 35 15 61q1 49 -21 75q-26 32 -84 27h1z" />
    <glyph glyph-name="Atilde" unicode="&#xc3;" 
d="M1678 1866q18 73 53 115q43 55 111 55q26 0 65 -19l37 -19l112 -63q39 -18 64 -18q56 0 92 76l41 30q-22 -73 -58 -117q-46 -57 -110 -57q-30 0 -72 19q-30 13 -77 41l-72 41q-36 18 -55 18q-62 0 -90 -70zM2206 872q-75 -86 -130 -135q-70 -62 -143 -96
q-47 -23 -114 -37l-58 -10l-10 -94q-4 -51 -7 -105q-3 -67 -3 -133v-22l2 -23l4 -25q13 -69 51 -63q23 4 67 35q35 26 82 68l99 96l-6 -49l-51 -45l-119 -99q-78 -63 -133 -99q-69 -46 -96 -46q-35 -2 -56 88q-18 74 -16 147q1 59 6 130l11 119l16 120l-101 2
q-83 0 -162 -21q-89 -24 -161 -73l6 14q0 5 67 61q35 30 68 53q43 30 80 48q79 38 154 46q59 7 59 1l78 561q0 -2 -84 -123l-95 -136l-121 -169l-141 -189l-155 -198l-163 -192q-86 -98 -163 -177q-560 -569 -1016 -569q-268 0 -268 266q0 227 194 498q89 126 194 214
q111 93 216 122l-24 -49q-166 -55 -294 -214q-134 -168 -134 -343q0 -322 327 -322q159 0 379 141q195 124 430 353q167 162 331 362q156 189 290 388q276 410 338 655l33 18q41 23 80 48q54 36 96 70q52 43 81 83l-4 -23q-63 -108 -109 -247q-39 -120 -68 -273
q-12 -65 -23 -140l-49 -415q107 -3 237 47q118 46 207 115z" />
    <glyph glyph-name="uni1EA0" unicode="&#x1ea0;" 
d="M1215 -257q-73 -5 -176 -27q10 22 35 93l22 67l69 10q9 1 12 2q7 1 13 1l87 14zM2206 872q-75 -86 -130 -135q-70 -62 -143 -96q-47 -23 -114 -37l-58 -10l-10 -94q-4 -51 -7 -105q-3 -67 -3 -133v-22l2 -23l4 -25q13 -69 51 -63q23 4 67 35q35 26 82 68l99 96l-6 -49
l-51 -45l-119 -99q-78 -63 -133 -99q-69 -46 -96 -46q-35 -2 -56 88q-18 74 -16 147q1 59 6 130l11 119l16 120l-101 2q-83 0 -162 -21q-89 -24 -161 -73l6 14q0 5 67 61q35 30 68 53q43 30 80 48q79 38 154 46q59 7 59 1l78 561q0 -2 -84 -123l-95 -136l-121 -169
l-141 -189l-155 -198l-163 -192q-86 -98 -163 -177q-560 -569 -1016 -569q-268 0 -268 266q0 227 194 498q89 126 194 214q111 93 216 122l-24 -49q-166 -55 -294 -214q-134 -168 -134 -343q0 -322 327 -322q159 0 379 141q195 124 430 353q167 162 331 362q156 189 290 388
q276 410 338 655l33 18q41 23 80 48q54 36 96 70q52 43 81 83l-4 -23q-63 -108 -109 -247q-39 -120 -68 -273q-12 -65 -23 -140l-49 -415q107 -3 237 47q118 46 207 115z" />
    <glyph glyph-name="Acircumflex" unicode="&#xc2;" 
d="M1765 1837l-51 -16l86 153q51 94 74 150l25 24q15 15 24 27q39 -127 125 -311l-27 -16q-17 -12 -26 -21q-31 84 -59 147q-20 47 -46 99q-70 -118 -125 -236zM2206 872q-75 -86 -130 -135q-70 -62 -143 -96q-47 -23 -114 -37l-58 -10l-10 -94q-4 -51 -7 -105
q-3 -67 -3 -133v-22l2 -23l4 -25q13 -69 51 -63q23 4 67 35q35 26 82 68l99 96l-6 -49l-51 -45l-119 -99q-78 -63 -133 -99q-69 -46 -96 -46q-35 -2 -56 88q-18 74 -16 147q1 59 6 130l11 119l16 120l-101 2q-83 0 -162 -21q-89 -24 -161 -73l6 14q0 5 67 61q35 30 68 53
q43 30 80 48q79 38 154 46q59 7 59 1l78 561q0 -2 -84 -123l-95 -136l-121 -169l-141 -189l-155 -198l-163 -192q-86 -98 -163 -177q-560 -569 -1016 -569q-268 0 -268 266q0 227 194 498q89 126 194 214q111 93 216 122l-24 -49q-166 -55 -294 -214q-134 -168 -134 -343
q0 -322 327 -322q159 0 379 141q195 124 430 353q167 162 331 362q156 189 290 388q276 410 338 655l33 18q41 23 80 48q54 36 96 70q52 43 81 83l-4 -23q-63 -108 -109 -247q-39 -120 -68 -273q-12 -65 -23 -140l-49 -415q107 -3 237 47q118 46 207 115z" />
    <glyph glyph-name="uni1EA6" unicode="&#x1ea6;" 
d="M1765 1837l-51 -16l86 153q51 94 74 150l25 24q15 15 24 27q39 -127 125 -311l-27 -16q-17 -12 -26 -21q-31 84 -59 147q-20 47 -46 99q-70 -118 -125 -236zM2206 872q-75 -86 -130 -135q-70 -62 -143 -96q-47 -23 -114 -37l-58 -10l-10 -94q-4 -51 -7 -105
q-3 -67 -3 -133v-22l2 -23l4 -25q13 -69 51 -63q23 4 67 35q35 26 82 68l99 96l-6 -49l-51 -45l-119 -99q-78 -63 -133 -99q-69 -46 -96 -46q-35 -2 -56 88q-18 74 -16 147q1 59 6 130l11 119l16 120l-101 2q-83 0 -162 -21q-89 -24 -161 -73l6 14q0 5 67 61q35 30 68 53
q43 30 80 48q79 38 154 46q59 7 59 1l78 561q0 -2 -84 -123l-95 -136l-121 -169l-141 -189l-155 -198l-163 -192q-86 -98 -163 -177q-560 -569 -1016 -569q-268 0 -268 266q0 227 194 498q89 126 194 214q111 93 216 122l-24 -49q-166 -55 -294 -214q-134 -168 -134 -343
q0 -322 327 -322q159 0 379 141q195 124 430 353q167 162 331 362q156 189 290 388q276 410 338 655l33 18q41 23 80 48q54 36 96 70q52 43 81 83l-4 -23q-63 -108 -109 -247q-39 -120 -68 -273q-12 -65 -23 -140l-49 -415q107 -3 237 47q118 46 207 115zM1729 2300
q2 19 7 33l8 22q5 12 8 22q3 15 4 37q55 -54 138 -120l148 -115q3 -1 7 -18q1 -2 2 -6l4 -13z" />
    <glyph glyph-name="uni1EA4" unicode="&#x1ea4;" 
d="M1765 1837l-51 -16l86 153q51 94 74 150l25 24q15 15 24 27q39 -127 125 -311l-27 -16q-17 -12 -26 -21q-31 84 -59 147q-20 47 -46 99q-70 -118 -125 -236zM2206 872q-75 -86 -130 -135q-70 -62 -143 -96q-47 -23 -114 -37l-58 -10l-10 -94q-4 -51 -7 -105
q-3 -67 -3 -133v-22l2 -23l4 -25q13 -69 51 -63q23 4 67 35q35 26 82 68l99 96l-6 -49l-51 -45l-119 -99q-78 -63 -133 -99q-69 -46 -96 -46q-35 -2 -56 88q-18 74 -16 147q1 59 6 130l11 119l16 120l-101 2q-83 0 -162 -21q-89 -24 -161 -73l6 14q0 5 67 61q35 30 68 53
q43 30 80 48q79 38 154 46q59 7 59 1l78 561q0 -2 -84 -123l-95 -136l-121 -169l-141 -189l-155 -198l-163 -192q-86 -98 -163 -177q-560 -569 -1016 -569q-268 0 -268 266q0 227 194 498q89 126 194 214q111 93 216 122l-24 -49q-166 -55 -294 -214q-134 -168 -134 -343
q0 -322 327 -322q159 0 379 141q195 124 430 353q167 162 331 362q156 189 290 388q276 410 338 655l33 18q41 23 80 48q54 36 96 70q52 43 81 83l-4 -23q-63 -108 -109 -247q-39 -120 -68 -273q-12 -65 -23 -140l-49 -415q107 -3 237 47q118 46 207 115zM2218 2338
q9 -2 21 -8l24 -10q16 -5 38 -9q-60 -52 -131 -128l-131 -141l-16 -2q-16 -3 -19 -4l44 79l94 154l43 74z" />
    <glyph glyph-name="uni1EA8" unicode="&#x1ea8;" 
d="M1765 1837l-51 -16l86 153q51 94 74 150l25 24q15 15 24 27q39 -127 125 -311l-27 -16q-17 -12 -26 -21q-31 84 -59 147q-20 47 -46 99q-70 -118 -125 -236zM2206 872q-75 -86 -130 -135q-70 -62 -143 -96q-47 -23 -114 -37l-58 -10l-10 -94q-4 -51 -7 -105
q-3 -67 -3 -133v-22l2 -23l4 -25q13 -69 51 -63q23 4 67 35q35 26 82 68l99 96l-6 -49l-51 -45l-119 -99q-78 -63 -133 -99q-69 -46 -96 -46q-35 -2 -56 88q-18 74 -16 147q1 59 6 130l11 119l16 120l-101 2q-83 0 -162 -21q-89 -24 -161 -73l6 14q0 5 67 61q35 30 68 53
q43 30 80 48q79 38 154 46q59 7 59 1l78 561q0 -2 -84 -123l-95 -136l-121 -169l-141 -189l-155 -198l-163 -192q-86 -98 -163 -177q-560 -569 -1016 -569q-268 0 -268 266q0 227 194 498q89 126 194 214q111 93 216 122l-24 -49q-166 -55 -294 -214q-134 -168 -134 -343
q0 -322 327 -322q159 0 379 141q195 124 430 353q167 162 331 362q156 189 290 388q276 410 338 655l33 18q41 23 80 48q54 36 96 70q52 43 81 83l-4 -23q-63 -108 -109 -247q-39 -120 -68 -273q-12 -65 -23 -140l-49 -415q107 -3 237 47q118 46 207 115zM2082 2452
q-23 -2 -41 -17q-14 -12 -26 -32q-8 -14 -13 -30q-4 -12 -4 -14h-22l18 90l12 5q53 26 74 29q26 4 50 5q61 0 99 -41q34 -29 35 -75q0 -43 -33 -80q-7 -8 -16 -17l-60 -57q-27 -29 -47 -60q-16 -24 -26 -49q-7 -18 -10 -34q-2 -4 -2 -9l-1 -3q-5 -3 -17 -5l-21 -3
q-27 -4 -36 -14q1 39 38 83q14 16 42 44q4 4 12 13l41 41q26 29 43 67q15 35 15 61q1 49 -21 75q-26 32 -84 27h1z" />
    <glyph glyph-name="uni1EAA" unicode="&#x1eaa;" 
d="M1765 1837l-51 -16l86 153q51 94 74 150l25 24q15 15 24 27q39 -127 125 -311l-27 -16q-17 -12 -26 -21q-31 84 -59 147q-20 47 -46 99q-70 -118 -125 -236zM2206 872q-75 -86 -130 -135q-70 -62 -143 -96q-47 -23 -114 -37l-58 -10l-10 -94q-4 -51 -7 -105
q-3 -67 -3 -133v-22l2 -23l4 -25q13 -69 51 -63q23 4 67 35q35 26 82 68l99 96l-6 -49l-51 -45l-119 -99q-78 -63 -133 -99q-69 -46 -96 -46q-35 -2 -56 88q-18 74 -16 147q1 59 6 130l11 119l16 120l-101 2q-83 0 -162 -21q-89 -24 -161 -73l6 14q0 5 67 61q35 30 68 53
q43 30 80 48q79 38 154 46q59 7 59 1l78 561q0 -2 -84 -123l-95 -136l-121 -169l-141 -189l-155 -198l-163 -192q-86 -98 -163 -177q-560 -569 -1016 -569q-268 0 -268 266q0 227 194 498q89 126 194 214q111 93 216 122l-24 -49q-166 -55 -294 -214q-134 -168 -134 -343
q0 -322 327 -322q159 0 379 141q195 124 430 353q167 162 331 362q156 189 290 388q276 410 338 655l33 18q41 23 80 48q54 36 96 70q52 43 81 83l-4 -23q-63 -108 -109 -247q-39 -120 -68 -273q-12 -65 -23 -140l-49 -415q107 -3 237 47q118 46 207 115zM1708 2157
q18 73 53 115q43 55 111 55q26 0 65 -19l37 -19l112 -63q39 -18 64 -18q56 0 92 76l41 30q-22 -73 -58 -117q-46 -57 -110 -57q-30 0 -72 19q-30 13 -77 41l-72 41q-36 18 -55 18q-62 0 -90 -70z" />
    <glyph glyph-name="uni1EAC" unicode="&#x1eac;" 
d="M1765 1837l-51 -16l86 153q51 94 74 150l25 24q15 15 24 27q39 -127 125 -311l-27 -16q-17 -12 -26 -21q-31 84 -59 147q-20 47 -46 99q-70 -118 -125 -236zM2206 872q-75 -86 -130 -135q-70 -62 -143 -96q-47 -23 -114 -37l-58 -10l-10 -94q-4 -51 -7 -105
q-3 -67 -3 -133v-22l2 -23l4 -25q13 -69 51 -63q23 4 67 35q35 26 82 68l99 96l-6 -49l-51 -45l-119 -99q-78 -63 -133 -99q-69 -46 -96 -46q-35 -2 -56 88q-18 74 -16 147q1 59 6 130l11 119l16 120l-101 2q-83 0 -162 -21q-89 -24 -161 -73l6 14q0 5 67 61q35 30 68 53
q43 30 80 48q79 38 154 46q59 7 59 1l78 561q0 -2 -84 -123l-95 -136l-121 -169l-141 -189l-155 -198l-163 -192q-86 -98 -163 -177q-560 -569 -1016 -569q-268 0 -268 266q0 227 194 498q89 126 194 214q111 93 216 122l-24 -49q-166 -55 -294 -214q-134 -168 -134 -343
q0 -322 327 -322q159 0 379 141q195 124 430 353q167 162 331 362q156 189 290 388q276 410 338 655l33 18q41 23 80 48q54 36 96 70q52 43 81 83l-4 -23q-63 -108 -109 -247q-39 -120 -68 -273q-12 -65 -23 -140l-49 -415q107 -3 237 47q118 46 207 115zM1215 -257
q-73 -5 -176 -27q10 22 35 93l22 67l69 10q9 1 12 2q7 1 13 1l87 14z" />
    <glyph glyph-name="Abreve" unicode="&#x102;" 
d="M1836 1927q23 -39 72 -15q66 48 141 167l57 16q-149 -248 -210 -290.5t-91 20.5q-11 28 -53 168q41 16 59 30q9 -54 25 -96zM2206 872q-75 -86 -130 -135q-70 -62 -143 -96q-47 -23 -114 -37l-58 -10l-10 -94q-4 -51 -7 -105q-3 -67 -3 -133v-22l2 -23l4 -25
q13 -69 51 -63q23 4 67 35q35 26 82 68l99 96l-6 -49l-51 -45l-119 -99q-78 -63 -133 -99q-69 -46 -96 -46q-35 -2 -56 88q-18 74 -16 147q1 59 6 130l11 119l16 120l-101 2q-83 0 -162 -21q-89 -24 -161 -73l6 14q0 5 67 61q35 30 68 53q43 30 80 48q79 38 154 46
q59 7 59 1l78 561q0 -2 -84 -123l-95 -136l-121 -169l-141 -189l-155 -198l-163 -192q-86 -98 -163 -177q-560 -569 -1016 -569q-268 0 -268 266q0 227 194 498q89 126 194 214q111 93 216 122l-24 -49q-166 -55 -294 -214q-134 -168 -134 -343q0 -322 327 -322
q159 0 379 141q195 124 430 353q167 162 331 362q156 189 290 388q276 410 338 655l33 18q41 23 80 48q54 36 96 70q52 43 81 83l-4 -23q-63 -108 -109 -247q-39 -120 -68 -273q-12 -65 -23 -140l-49 -415q107 -3 237 47q118 46 207 115z" />
    <glyph glyph-name="uni1EB0" unicode="&#x1eb0;" 
d="M2206 872q-75 -86 -130 -135q-70 -62 -143 -96q-47 -23 -114 -37l-58 -10l-10 -94q-4 -51 -7 -105q-3 -67 -3 -133v-22l2 -23l4 -25q13 -69 51 -63q23 4 67 35q35 26 82 68l99 96l-6 -49l-51 -45l-119 -99q-78 -63 -133 -99q-69 -46 -96 -46q-35 -2 -56 88
q-18 74 -16 147q1 59 6 130l11 119l16 120l-101 2q-83 0 -162 -21q-89 -24 -161 -73l6 14q0 5 67 61q35 30 68 53q43 30 80 48q79 38 154 46q59 7 59 1l78 561q0 -2 -84 -123l-95 -136l-121 -169l-141 -189l-155 -198l-163 -192q-86 -98 -163 -177q-560 -569 -1016 -569
q-268 0 -268 266q0 227 194 498q89 126 194 214q111 93 216 122l-24 -49q-166 -55 -294 -214q-134 -168 -134 -343q0 -322 327 -322q159 0 379 141q195 124 430 353q167 162 331 362q156 189 290 388q276 410 338 655l33 18q41 23 80 48q54 36 96 70q52 43 81 83l-4 -23
q-63 -108 -109 -247q-39 -120 -68 -273q-12 -65 -23 -140l-49 -415q107 -3 237 47q118 46 207 115zM1639 2210q2 19 7 33l8 22q5 12 8 22q3 15 4 37q55 -54 138 -120l148 -115q3 -1 7 -18q1 -2 2 -6l4 -13zM1836 1927q23 -39 72 -15q66 48 141 167l57 16
q-149 -248 -210 -290.5t-91 20.5q-11 28 -53 168q41 16 59 30q9 -54 25 -96z" />
    <glyph glyph-name="uni1EAE" unicode="&#x1eae;" 
d="M2206 872q-75 -86 -130 -135q-70 -62 -143 -96q-47 -23 -114 -37l-58 -10l-10 -94q-4 -51 -7 -105q-3 -67 -3 -133v-22l2 -23l4 -25q13 -69 51 -63q23 4 67 35q35 26 82 68l99 96l-6 -49l-51 -45l-119 -99q-78 -63 -133 -99q-69 -46 -96 -46q-35 -2 -56 88
q-18 74 -16 147q1 59 6 130l11 119l16 120l-101 2q-83 0 -162 -21q-89 -24 -161 -73l6 14q0 5 67 61q35 30 68 53q43 30 80 48q79 38 154 46q59 7 59 1l78 561q0 -2 -84 -123l-95 -136l-121 -169l-141 -189l-155 -198l-163 -192q-86 -98 -163 -177q-560 -569 -1016 -569
q-268 0 -268 266q0 227 194 498q89 126 194 214q111 93 216 122l-24 -49q-166 -55 -294 -214q-134 -168 -134 -343q0 -322 327 -322q159 0 379 141q195 124 430 353q167 162 331 362q156 189 290 388q276 410 338 655l33 18q41 23 80 48q54 36 96 70q52 43 81 83l-4 -23
q-63 -108 -109 -247q-39 -120 -68 -273q-12 -65 -23 -140l-49 -415q107 -3 237 47q118 46 207 115zM2118 2338q9 -2 21 -8l24 -10q16 -5 38 -9q-60 -52 -131 -128l-131 -141l-16 -2q-16 -3 -19 -4l44 79l94 154l43 74zM1836 1927q23 -39 72 -15q66 48 141 167l57 16
q-149 -248 -210 -290.5t-91 20.5q-11 28 -53 168q41 16 59 30q9 -54 25 -96z" />
    <glyph glyph-name="uni1EB2" unicode="&#x1eb2;" 
d="M2206 872q-75 -86 -130 -135q-70 -62 -143 -96q-47 -23 -114 -37l-58 -10l-10 -94q-4 -51 -7 -105q-3 -67 -3 -133v-22l2 -23l4 -25q13 -69 51 -63q23 4 67 35q35 26 82 68l99 96l-6 -49l-51 -45l-119 -99q-78 -63 -133 -99q-69 -46 -96 -46q-35 -2 -56 88
q-18 74 -16 147q1 59 6 130l11 119l16 120l-101 2q-83 0 -162 -21q-89 -24 -161 -73l6 14q0 5 67 61q35 30 68 53q43 30 80 48q79 38 154 46q59 7 59 1l78 561q0 -2 -84 -123l-95 -136l-121 -169l-141 -189l-155 -198l-163 -192q-86 -98 -163 -177q-560 -569 -1016 -569
q-268 0 -268 266q0 227 194 498q89 126 194 214q111 93 216 122l-24 -49q-166 -55 -294 -214q-134 -168 -134 -343q0 -322 327 -322q159 0 379 141q195 124 430 353q167 162 331 362q156 189 290 388q276 410 338 655l33 18q41 23 80 48q54 36 96 70q52 43 81 83l-4 -23
q-63 -108 -109 -247q-39 -120 -68 -273q-12 -65 -23 -140l-49 -415q107 -3 237 47q118 46 207 115zM1972 2432q-23 -2 -41 -17q-14 -12 -26 -32q-8 -14 -13 -30q-4 -12 -4 -14h-22l18 90l12 5q53 26 74 29q26 4 50 5q61 0 99 -41q34 -29 35 -75q0 -43 -33 -80q-7 -8 -16 -17
l-60 -57q-27 -29 -47 -60q-16 -24 -26 -49q-7 -18 -10 -34q-2 -4 -2 -9l-1 -3q-5 -3 -17 -5l-21 -3q-27 -4 -36 -14q1 39 38 83q14 16 42 44q4 4 12 13l41 41q26 29 43 67q15 35 15 61q1 49 -21 75q-26 32 -84 27h1zM1836 1927q23 -39 72 -15q66 48 141 167l57 16
q-149 -248 -210 -290.5t-91 20.5q-11 28 -53 168q41 16 59 30q9 -54 25 -96z" />
    <glyph glyph-name="uni1EB4" unicode="&#x1eb4;" 
d="M2206 872q-75 -86 -130 -135q-70 -62 -143 -96q-47 -23 -114 -37l-58 -10l-10 -94q-4 -51 -7 -105q-3 -67 -3 -133v-22l2 -23l4 -25q13 -69 51 -63q23 4 67 35q35 26 82 68l99 96l-6 -49l-51 -45l-119 -99q-78 -63 -133 -99q-69 -46 -96 -46q-35 -2 -56 88
q-18 74 -16 147q1 59 6 130l11 119l16 120l-101 2q-83 0 -162 -21q-89 -24 -161 -73l6 14q0 5 67 61q35 30 68 53q43 30 80 48q79 38 154 46q59 7 59 1l78 561q0 -2 -84 -123l-95 -136l-121 -169l-141 -189l-155 -198l-163 -192q-86 -98 -163 -177q-560 -569 -1016 -569
q-268 0 -268 266q0 227 194 498q89 126 194 214q111 93 216 122l-24 -49q-166 -55 -294 -214q-134 -168 -134 -343q0 -322 327 -322q159 0 379 141q195 124 430 353q167 162 331 362q156 189 290 388q276 410 338 655l33 18q41 23 80 48q54 36 96 70q52 43 81 83l-4 -23
q-63 -108 -109 -247q-39 -120 -68 -273q-12 -65 -23 -140l-49 -415q107 -3 237 47q118 46 207 115zM1768 2117q18 73 53 115q43 55 111 55q26 0 65 -19l37 -19l112 -63q39 -18 64 -18q56 0 92 76l41 30q-22 -73 -58 -117q-46 -57 -110 -57q-30 0 -72 19q-30 13 -77 41
l-72 41q-36 18 -55 18q-62 0 -90 -70zM1836 1927q23 -39 72 -15q66 48 141 167l57 16q-149 -248 -210 -290.5t-91 20.5q-11 28 -53 168q41 16 59 30q9 -54 25 -96z" />
    <glyph glyph-name="uni1EB6" unicode="&#x1eb6;" 
d="M2206 872q-75 -86 -130 -135q-70 -62 -143 -96q-47 -23 -114 -37l-58 -10l-10 -94q-4 -51 -7 -105q-3 -67 -3 -133v-22l2 -23l4 -25q13 -69 51 -63q23 4 67 35q35 26 82 68l99 96l-6 -49l-51 -45l-119 -99q-78 -63 -133 -99q-69 -46 -96 -46q-35 -2 -56 88
q-18 74 -16 147q1 59 6 130l11 119l16 120l-101 2q-83 0 -162 -21q-89 -24 -161 -73l6 14q0 5 67 61q35 30 68 53q43 30 80 48q79 38 154 46q59 7 59 1l78 561q0 -2 -84 -123l-95 -136l-121 -169l-141 -189l-155 -198l-163 -192q-86 -98 -163 -177q-560 -569 -1016 -569
q-268 0 -268 266q0 227 194 498q89 126 194 214q111 93 216 122l-24 -49q-166 -55 -294 -214q-134 -168 -134 -343q0 -322 327 -322q159 0 379 141q195 124 430 353q167 162 331 362q156 189 290 388q276 410 338 655l33 18q41 23 80 48q54 36 96 70q52 43 81 83l-4 -23
q-63 -108 -109 -247q-39 -120 -68 -273q-12 -65 -23 -140l-49 -415q107 -3 237 47q118 46 207 115zM1215 -257q-73 -5 -176 -27q10 22 35 93l22 67l69 10q9 1 12 2q7 1 13 1l87 14zM1836 1927q23 -39 72 -15q66 48 141 167l57 16q-149 -248 -210 -290.5t-91 20.5
q-11 28 -53 168q41 16 59 30q9 -54 25 -96z" />
    <glyph glyph-name="Egrave" unicode="&#xc8;" horiz-adv-x="1536" 
d="M904 1806q3 20 7 34l15 44l5 37q56 -56 138 -120l149 -115q1 -2 6 -18q4 -16 4 -19l-243 120zM964 1266q-37 -67 -64 -156q-11 -37 -22 -82l-38 -166q-10 -47 -19 -82q104 86 166 118q55 29 105 29q21 0 50 -5q10 -1 27 -5l103 -15q46 -5 95 -5q33 0 93 36l67 44l-6 -14
q-85 -113 -165 -160q-66 -38 -142 -40q-29 0 -68 4l-68 10q-86 10 -147 -1q-68 -13 -104 -34l-18 -14l-5 -5q-43 -204 -119 -339q-59 -106 -133 -161q-42 -32 -137 -80q-29 -16 -61 -31l-25 -12q134 31 255 40q97 7 200 1q39 -2 88 -7l83 -8q100 -10 167 -9q99 0 234 100
q49 36 110 92q21 18 50 46l46 42l-14 -53q-80 -79 -175 -157q-123 -100 -221 -154q-110 -59 -176 -53l-177 11l-148 6l-404 9q-108 0 -213 -129l-4 35q62 74 132 132q82 68 165 103q152 67 240 328q25 75 51 166q24 80 47 169l40 156l30 128q25 120 41 148q26 43 116 89
l45 24l109 60q-30 5 -75 15l-75 18q-92 20 -153 20q-94 0 -181 -55q-75 -47 -142 -131q-55 -70 -99 -159q-37 -73 -55 -138l-13 -6q-7 -3 -14 -7l-19 -10q-24 -15 -46 -32q-28 -22 -52 -47l-2 10q18 81 106 204q83 117 201 231q121 118 235 190q124 79 206 79q58 0 127 -11
l247 -49q69 -11 127 -11q187 3 357 133l-6 -19q-266 -318 -650 -233q-62 -61 -106 -141z" />
    <glyph glyph-name="Eacute" unicode="&#xc9;" horiz-adv-x="1536" 
d="M1229 1906l15 -16q10 -10 18 -16q12 -10 32 -21q-74 -26 -168 -74q-9 -5 -19 -10l-31 -16l-10 -5q-12 -6 -20 -11l-88 -43q-2 -2 -18 1t-19 5l154 124q2 2 4 3q11 9 18 14l36 28l68 56q17 -9 28 -19zM964 1266q-37 -67 -64 -156q-11 -37 -22 -82l-38 -166
q-10 -47 -19 -82q104 86 166 118q55 29 105 29q21 0 50 -5q10 -1 27 -5l103 -15q46 -5 95 -5q33 0 93 36l67 44l-6 -14q-85 -113 -165 -160q-66 -38 -142 -40q-29 0 -68 4l-68 10q-86 10 -147 -1q-68 -13 -104 -34l-18 -14l-5 -5q-43 -204 -119 -339q-59 -106 -133 -161
q-42 -32 -137 -80q-29 -16 -61 -31l-25 -12q134 31 255 40q97 7 200 1q39 -2 88 -7l83 -8q100 -10 167 -9q99 0 234 100q49 36 110 92q21 18 50 46l46 42l-14 -53q-80 -79 -175 -157q-123 -100 -221 -154q-110 -59 -176 -53l-177 11l-148 6l-404 9q-108 0 -213 -129l-4 35
q62 74 132 132q82 68 165 103q152 67 240 328q25 75 51 166q24 80 47 169l40 156l30 128q25 120 41 148q26 43 116 89l45 24l109 60q-30 5 -75 15l-75 18q-92 20 -153 20q-94 0 -181 -55q-75 -47 -142 -131q-55 -70 -99 -159q-37 -73 -55 -138l-13 -6q-7 -3 -14 -7l-19 -10
q-24 -15 -46 -32q-28 -22 -52 -47l-2 10q18 81 106 204q83 117 201 231q121 118 235 190q124 79 206 79q58 0 127 -11l247 -49q69 -11 127 -11q187 3 357 133l-6 -19q-266 -318 -650 -233q-62 -61 -106 -141z" />
    <glyph glyph-name="uni1EBA" unicode="&#x1eba;" horiz-adv-x="1536" 
d="M964 1266q-37 -67 -64 -156q-11 -37 -22 -82l-38 -166q-10 -47 -19 -82q104 86 166 118q55 29 105 29q21 0 50 -5q10 -1 27 -5l103 -15q46 -5 95 -5q33 0 93 36l67 44l-6 -14q-85 -113 -165 -160q-66 -38 -142 -40q-29 0 -68 4l-68 10q-86 10 -147 -1q-68 -13 -104 -34
l-18 -14l-5 -5q-43 -204 -119 -339q-59 -106 -133 -161q-42 -32 -137 -80q-29 -16 -61 -31l-25 -12q134 31 255 40q97 7 200 1q39 -2 88 -7l83 -8q100 -10 167 -9q99 0 234 100q49 36 110 92q21 18 50 46l46 42l-14 -53q-56 -55 -119 -110q-81 -69 -154 -122
q-89 -64 -160 -98q-83 -39 -139 -34q-101 7 -204 13q-88 4 -186 7l-339 6q-108 0 -213 -129l-4 35q62 74 132 132q82 68 165 103q152 67 240 328q25 75 51 166q24 80 47 169l40 156l30 128q25 120 41 148q26 43 116 89l45 24l109 60q-30 5 -75 15l-75 18q-92 20 -153 20
q-94 0 -181 -55q-75 -47 -142 -131q-55 -70 -99 -159q-37 -73 -55 -138l-13 -6q-7 -3 -14 -7l-19 -10q-24 -15 -46 -32q-28 -22 -52 -47l-2 10q18 81 106 204q83 117 201 231q121 118 235 190q124 79 206 79q58 0 127 -11l247 -49q69 -11 127 -11q187 3 357 133l-6 -19
q-266 -318 -650 -233q-62 -61 -106 -141zM1308 2070q-22 -2 -40 -17q-15 -12 -26 -32q-8 -14 -14 -30q-4 -12 -4 -14h-22l19 90l12 5q53 26 73 29q26 4 50 5q61 0 99 -41q35 -29 35 -75q1 -43 -32 -80q-7 -8 -17 -17l-59 -57q-28 -29 -48 -60q-15 -24 -25 -49
q-8 -18 -11 -34q-1 -4 -2 -9v-3q-6 -3 -18 -5l-21 -3q-27 -4 -36 -14q1 39 38 83q14 16 42 44l13 13l40 41q27 29 43 67q15 35 15 61q1 49 -21 75q-26 32 -84 27h1z" />
    <glyph glyph-name="uni1EBC" unicode="&#x1ebc;" horiz-adv-x="1536" 
d="M964 1266q-37 -67 -64 -156q-11 -37 -22 -82l-38 -166q-10 -47 -19 -82q104 86 166 118q55 29 105 29q21 0 50 -5q10 -1 27 -5l103 -15q46 -5 95 -5q33 0 93 36l67 44l-6 -14q-85 -113 -165 -160q-66 -38 -142 -40q-29 0 -68 4l-68 10q-86 10 -147 -1q-68 -13 -104 -34
l-18 -14l-5 -5q-43 -204 -119 -339q-59 -106 -133 -161q-42 -32 -137 -80q-29 -16 -61 -31l-25 -12q134 31 255 40q97 7 200 1q39 -2 88 -7l83 -8q100 -10 167 -9q99 0 234 100q49 36 110 92q21 18 50 46l46 42l-14 -53q-56 -55 -119 -110q-81 -69 -154 -122
q-89 -64 -160 -98q-83 -39 -139 -34q-101 7 -204 13q-88 4 -186 7l-339 6q-108 0 -213 -129l-4 35q62 74 132 132q82 68 165 103q152 67 240 328q25 75 51 166q24 80 47 169l40 156l30 128q25 120 41 148q26 43 116 89l45 24l109 60q-30 5 -75 15l-75 18q-92 20 -153 20
q-94 0 -181 -55q-75 -47 -142 -131q-55 -70 -99 -159q-37 -73 -55 -138l-13 -6q-7 -3 -14 -7l-19 -10q-24 -15 -46 -32q-28 -22 -52 -47l-2 10q18 81 106 204q83 117 201 231q121 118 235 190q124 79 206 79q58 0 127 -11l247 -49q69 -11 127 -11q187 3 357 133l-6 -19
q-266 -318 -650 -233q-62 -61 -106 -141zM1045 1776q18 73 53 115q44 55 111 55q26 0 66 -19l36 -19l112 -63q39 -18 64 -18q57 0 93 76l41 30q-23 -73 -58 -117q-46 -57 -110 -57q-31 0 -73 19q-29 13 -77 41l-71 41q-36 18 -56 18q-62 0 -90 -70z" />
    <glyph glyph-name="uni1EB8" unicode="&#x1eb8;" horiz-adv-x="1536" 
d="M964 1266q-37 -67 -64 -156q-11 -37 -22 -82l-38 -166q-10 -47 -19 -82q104 86 166 118q55 29 105 29q21 0 50 -5q10 -1 27 -5l103 -15q46 -5 95 -5q33 0 93 36l67 44l-6 -14q-85 -113 -165 -160q-66 -38 -142 -40q-29 0 -68 4l-68 10q-86 10 -147 -1q-68 -13 -104 -34
l-18 -14l-5 -5q-43 -204 -119 -339q-59 -106 -133 -161q-42 -32 -137 -80q-29 -16 -61 -31l-25 -12q134 31 255 40q97 7 200 1q39 -2 88 -7l83 -8q100 -10 167 -9q99 0 234 100q49 36 110 92q21 18 50 46l46 42l-14 -53q-56 -55 -119 -110q-81 -69 -154 -122
q-89 -64 -160 -98q-83 -39 -139 -34q-101 7 -204 13q-88 4 -186 7l-339 6q-108 0 -213 -129l-4 35q62 74 132 132q82 68 165 103q152 67 240 328q25 75 51 166q24 80 47 169l40 156l30 128q25 120 41 148q26 43 116 89l45 24l109 60q-30 5 -75 15l-75 18q-92 20 -153 20
q-94 0 -181 -55q-75 -47 -142 -131q-55 -70 -99 -159q-37 -73 -55 -138l-13 -6q-7 -3 -14 -7l-19 -10q-24 -15 -46 -32q-28 -22 -52 -47l-2 10q18 81 106 204q83 117 201 231q121 118 235 190q124 79 206 79q58 0 127 -11l247 -49q69 -11 127 -11q187 3 357 133l-6 -19
q-266 -318 -650 -233q-62 -61 -106 -141zM763 -307q-72 -5 -176 -27q11 22 35 93l23 67l68 10q10 1 13 2q6 1 12 1l87 14z" />
    <glyph glyph-name="Ecircumflex" unicode="&#xca;" horiz-adv-x="1536" 
d="M1253 1913q-37 -51 -73 -106q-43 -66 -72 -119l-54 -13l99 145q59 90 88 144l53 47q27 -129 98 -321q-32 -13 -57 -31q-21 81 -45 151zM964 1266q-37 -67 -64 -156q-11 -37 -22 -82l-38 -166q-10 -47 -19 -82q104 86 166 118q55 29 105 29q21 0 50 -5q10 -1 27 -5
l103 -15q46 -5 95 -5q33 0 93 36l67 44l-6 -14q-85 -113 -165 -160q-66 -38 -142 -40q-29 0 -68 4l-68 10q-86 10 -147 -1q-68 -13 -104 -34l-18 -14l-5 -5q-43 -204 -119 -339q-59 -106 -133 -161q-42 -32 -137 -80q-29 -16 -61 -31l-25 -12q134 31 255 40q97 7 200 1
q39 -2 88 -7l83 -8q100 -10 167 -9q99 0 234 100q49 36 110 92q21 18 50 46l46 42l-14 -53q-80 -79 -175 -157q-123 -100 -221 -154q-110 -59 -176 -53l-177 11l-148 6l-404 9q-108 0 -213 -129l-4 35q62 74 132 132q82 68 165 103q152 67 240 328q25 75 51 166
q24 80 47 169l40 156l30 128q25 120 41 148q26 43 116 89l45 24l109 60q-30 5 -75 15l-75 18q-92 20 -153 20q-94 0 -181 -55q-75 -47 -142 -131q-55 -70 -99 -159q-37 -73 -55 -138l-13 -6q-7 -3 -14 -7l-19 -10q-24 -15 -46 -32q-28 -22 -52 -47l-2 10q18 81 106 204
q83 117 201 231q121 118 235 190q124 79 206 79q58 0 127 -11l247 -49q69 -11 127 -11q187 3 357 133l-6 -19q-266 -318 -650 -233q-62 -61 -106 -141z" />
    <glyph glyph-name="uni1EC0" unicode="&#x1ec0;" horiz-adv-x="1536" 
d="M1253 1913q-37 -51 -73 -106q-43 -66 -72 -119l-54 -13l99 145q59 90 88 144l53 47q27 -129 98 -321q-32 -13 -57 -31q-21 81 -45 151zM964 1266q-37 -67 -64 -156q-11 -37 -22 -82l-38 -166q-10 -47 -19 -82q104 86 166 118q55 29 105 29q21 0 50 -5q10 -1 27 -5
l103 -15q46 -5 95 -5q33 0 93 36l67 44l-6 -14q-85 -113 -165 -160q-66 -38 -142 -40q-29 0 -68 4l-68 10q-86 10 -147 -1q-68 -13 -104 -34l-18 -14l-5 -5q-43 -204 -119 -339q-59 -106 -133 -161q-42 -32 -137 -80q-29 -16 -61 -31l-25 -12q134 31 255 40q97 7 200 1
q39 -2 88 -7l83 -8q100 -10 167 -9q99 0 234 100q49 36 110 92q21 18 50 46l46 42l-14 -53q-80 -79 -175 -157q-123 -100 -221 -154q-110 -59 -176 -53l-177 11l-148 6l-404 9q-108 0 -213 -129l-4 35q62 74 132 132q82 68 165 103q152 67 240 328q25 75 51 166
q24 80 47 169l40 156l30 128q25 120 41 148q26 43 116 89l45 24l109 60q-30 5 -75 15l-75 18q-92 20 -153 20q-94 0 -181 -55q-75 -47 -142 -131q-55 -70 -99 -159q-37 -73 -55 -138l-13 -6q-7 -3 -14 -7l-19 -10q-24 -15 -46 -32q-28 -22 -52 -47l-2 10q18 81 106 204
q83 117 201 231q121 118 235 190q124 79 206 79q58 0 127 -11l247 -49q69 -11 127 -11q187 3 357 133l-6 -19q-266 -318 -650 -233q-62 -61 -106 -141zM1097 2159q2 19 7 33l8 22q5 12 8 22q3 15 4 37q55 -54 138 -120l148 -115q3 -1 7 -18q1 -2 2 -6l4 -13z" />
    <glyph glyph-name="uni1EBE" unicode="&#x1ebe;" horiz-adv-x="1536" 
d="M1253 1913q-37 -51 -73 -106q-43 -66 -72 -119l-54 -13l99 145q59 90 88 144l53 47q27 -129 98 -321q-32 -13 -57 -31q-21 81 -45 151zM964 1266q-37 -67 -64 -156q-11 -37 -22 -82l-38 -166q-10 -47 -19 -82q104 86 166 118q55 29 105 29q21 0 50 -5q10 -1 27 -5
l103 -15q46 -5 95 -5q33 0 93 36l67 44l-6 -14q-85 -113 -165 -160q-66 -38 -142 -40q-29 0 -68 4l-68 10q-86 10 -147 -1q-68 -13 -104 -34l-18 -14l-5 -5q-43 -204 -119 -339q-59 -106 -133 -161q-42 -32 -137 -80q-29 -16 -61 -31l-25 -12q134 31 255 40q97 7 200 1
q39 -2 88 -7l83 -8q100 -10 167 -9q99 0 234 100q49 36 110 92q21 18 50 46l46 42l-14 -53q-80 -79 -175 -157q-123 -100 -221 -154q-110 -59 -176 -53l-177 11l-148 6l-404 9q-108 0 -213 -129l-4 35q62 74 132 132q82 68 165 103q152 67 240 328q25 75 51 166
q24 80 47 169l40 156l30 128q25 120 41 148q26 43 116 89l45 24l109 60q-30 5 -75 15l-75 18q-92 20 -153 20q-94 0 -181 -55q-75 -47 -142 -131q-55 -70 -99 -159q-37 -73 -55 -138l-13 -6q-7 -3 -14 -7l-19 -10q-24 -15 -46 -32q-28 -22 -52 -47l-2 10q18 81 106 204
q83 117 201 231q121 118 235 190q124 79 206 79q58 0 127 -11l247 -49q69 -11 127 -11q187 3 357 133l-6 -19q-266 -318 -650 -233q-62 -61 -106 -141zM1586 2178q9 -2 21 -8l24 -10q16 -5 38 -9q-60 -52 -131 -128l-131 -141l-16 -2q-16 -3 -19 -4l44 79l94 154l43 74z" />
    <glyph glyph-name="uni1EC2" unicode="&#x1ec2;" horiz-adv-x="1536" 
d="M1253 1913q-37 -51 -73 -106q-43 -66 -72 -119l-54 -13l99 145q59 90 88 144l53 47q27 -129 98 -321q-32 -13 -57 -31q-21 81 -45 151zM964 1266q-37 -67 -64 -156q-11 -37 -22 -82l-38 -166q-10 -47 -19 -82q104 86 166 118q55 29 105 29q21 0 50 -5q10 -1 27 -5
l103 -15q46 -5 95 -5q33 0 93 36l67 44l-6 -14q-85 -113 -165 -160q-66 -38 -142 -40q-29 0 -68 4l-68 10q-86 10 -147 -1q-68 -13 -104 -34l-18 -14l-5 -5q-43 -204 -119 -339q-59 -106 -133 -161q-42 -32 -137 -80q-29 -16 -61 -31l-25 -12q134 31 255 40q97 7 200 1
q39 -2 88 -7l83 -8q100 -10 167 -9q99 0 234 100q49 36 110 92q21 18 50 46l46 42l-14 -53q-80 -79 -175 -157q-123 -100 -221 -154q-110 -59 -176 -53l-177 11l-148 6l-404 9q-108 0 -213 -129l-4 35q62 74 132 132q82 68 165 103q152 67 240 328q25 75 51 166
q24 80 47 169l40 156l30 128q25 120 41 148q26 43 116 89l45 24l109 60q-30 5 -75 15l-75 18q-92 20 -153 20q-94 0 -181 -55q-75 -47 -142 -131q-55 -70 -99 -159q-37 -73 -55 -138l-13 -6q-7 -3 -14 -7l-19 -10q-24 -15 -46 -32q-28 -22 -52 -47l-2 10q18 81 106 204
q83 117 201 231q121 118 235 190q124 79 206 79q58 0 127 -11l247 -49q69 -11 127 -11q187 3 357 133l-6 -19q-266 -318 -650 -233q-62 -61 -106 -141zM1480 2261q-23 -2 -41 -17q-14 -12 -26 -32q-8 -14 -13 -30q-4 -12 -4 -14h-22l18 90l12 5q53 26 74 29q26 4 50 5
q61 0 99 -41q34 -29 35 -75q0 -43 -33 -80q-7 -8 -16 -17l-60 -57q-27 -29 -47 -60q-16 -24 -26 -49q-7 -18 -10 -34q-2 -4 -2 -9l-1 -3q-5 -3 -17 -5l-21 -3q-27 -4 -36 -14q1 39 38 83q14 16 42 44q4 4 12 13l41 41q26 29 43 67q15 35 15 61q1 49 -21 75q-26 32 -84 27h1z
" />
    <glyph glyph-name="uni1EC4" unicode="&#x1ec4;" horiz-adv-x="1536" 
d="M1253 1913q-37 -51 -73 -106q-43 -66 -72 -119l-54 -13l99 145q59 90 88 144l53 47q27 -129 98 -321q-32 -13 -57 -31q-21 81 -45 151zM964 1266q-37 -67 -64 -156q-11 -37 -22 -82l-38 -166q-10 -47 -19 -82q104 86 166 118q55 29 105 29q21 0 50 -5q10 -1 27 -5
l103 -15q46 -5 95 -5q33 0 93 36l67 44l-6 -14q-85 -113 -165 -160q-66 -38 -142 -40q-29 0 -68 4l-68 10q-86 10 -147 -1q-68 -13 -104 -34l-18 -14l-5 -5q-43 -204 -119 -339q-59 -106 -133 -161q-42 -32 -137 -80q-29 -16 -61 -31l-25 -12q134 31 255 40q97 7 200 1
q39 -2 88 -7l83 -8q100 -10 167 -9q99 0 234 100q49 36 110 92q21 18 50 46l46 42l-14 -53q-80 -79 -175 -157q-123 -100 -221 -154q-110 -59 -176 -53l-177 11l-148 6l-404 9q-108 0 -213 -129l-4 35q62 74 132 132q82 68 165 103q152 67 240 328q25 75 51 166
q24 80 47 169l40 156l30 128q25 120 41 148q26 43 116 89l45 24l109 60q-30 5 -75 15l-75 18q-92 20 -153 20q-94 0 -181 -55q-75 -47 -142 -131q-55 -70 -99 -159q-37 -73 -55 -138l-13 -6q-7 -3 -14 -7l-19 -10q-24 -15 -46 -32q-28 -22 -52 -47l-2 10q18 81 106 204
q83 117 201 231q121 118 235 190q124 79 206 79q58 0 127 -11l247 -49q69 -11 127 -11q187 3 357 133l-6 -19q-266 -318 -650 -233q-62 -61 -106 -141zM1105 1997q18 73 53 115q43 55 111 55q26 0 65 -19l37 -19l112 -63q39 -18 64 -18q56 0 92 76l41 30q-22 -73 -58 -117
q-46 -57 -110 -57q-30 0 -72 19q-30 13 -77 41l-72 41q-36 18 -55 18q-62 0 -90 -70z" />
    <glyph glyph-name="uni1EC6" unicode="&#x1ec6;" horiz-adv-x="1536" 
d="M1253 1913q-37 -51 -73 -106q-43 -66 -72 -119l-54 -13l99 145q59 90 88 144l53 47q27 -129 98 -321q-32 -13 -57 -31q-21 81 -45 151zM964 1266q-37 -67 -64 -156q-11 -37 -22 -82l-38 -166q-10 -47 -19 -82q104 86 166 118q55 29 105 29q21 0 50 -5q10 -1 27 -5
l103 -15q46 -5 95 -5q33 0 93 36l67 44l-6 -14q-85 -113 -165 -160q-66 -38 -142 -40q-29 0 -68 4l-68 10q-86 10 -147 -1q-68 -13 -104 -34l-18 -14l-5 -5q-43 -204 -119 -339q-59 -106 -133 -161q-42 -32 -137 -80q-29 -16 -61 -31l-25 -12q134 31 255 40q97 7 200 1
q39 -2 88 -7l83 -8q100 -10 167 -9q99 0 234 100q49 36 110 92q21 18 50 46l46 42l-14 -53q-80 -79 -175 -157q-123 -100 -221 -154q-110 -59 -176 -53l-177 11l-148 6l-404 9q-108 0 -213 -129l-4 35q62 74 132 132q82 68 165 103q152 67 240 328q25 75 51 166
q24 80 47 169l40 156l30 128q25 120 41 148q26 43 116 89l45 24l109 60q-30 5 -75 15l-75 18q-92 20 -153 20q-94 0 -181 -55q-75 -47 -142 -131q-55 -70 -99 -159q-37 -73 -55 -138l-13 -6q-7 -3 -14 -7l-19 -10q-24 -15 -46 -32q-28 -22 -52 -47l-2 10q18 81 106 204
q83 117 201 231q121 118 235 190q124 79 206 79q58 0 127 -11l247 -49q69 -11 127 -11q187 3 357 133l-6 -19q-266 -318 -650 -233q-62 -61 -106 -141zM764 -307q-73 -5 -176 -27q10 22 35 93l22 67l69 10q9 1 12 2q7 1 13 1l87 14z" />
    <glyph glyph-name="Igrave" unicode="&#xcc;" horiz-adv-x="786" 
d="M557 1827q2 19 6 34l16 43l5 38q56 -56 138 -121l149 -115q1 -1 5 -18q5 -16 5 -19l-243 120zM627 1454q-315 -87 -449 -508l-97 -94q-24 -25 -38 -43l-2 29q17 61 57 132q31 56 88 140q84 122 225 250q149 136 269 190q36 17 116 36l85 19l102 21q90 21 170 52
q62 25 62 28l-19 -25l-60 -27q-69 -35 -114 -71q-33 -26 -71 -89q-30 -51 -56 -112q-30 -67 -87 -252l-109 -360l-59 -186l-61 -172q-66 -177 -118 -248q-91 -125 -248 -184q-129 -50 -285 -50q-39 0 -76 15q-28 11 -28 14q36 31 89 100q46 61 46 64l6 -8l-1 -7l-1 -39
q2 -14 6 -26q22 -70 115 -59q134 15 254 245q49 95 102 245q21 61 46 141l69 224l24 76l47 150q55 168 105 283q31 71 90 130l38 33l16 11z" />
    <glyph glyph-name="Iacute" unicode="&#xcd;" horiz-adv-x="786" 
d="M935 1875l9 -7l28 -21q13 -7 34 -14q-68 -37 -155 -99l-74 -53l-81 -55q-1 -1 -17 -1l-21 1l60 66l63 67l32 33l32 33l60 65q18 -7 30 -15zM627 1454q-315 -87 -449 -508l-97 -94q-24 -25 -38 -43l-2 29q17 61 57 132q31 56 88 140q84 122 225 250q149 136 269 190
q36 17 116 36l85 19l102 21q90 21 170 52q62 25 62 28l-19 -25l-60 -27q-69 -35 -114 -71q-33 -26 -71 -89q-30 -51 -56 -112q-30 -67 -87 -252l-109 -360l-59 -186l-61 -172q-66 -177 -118 -248q-91 -125 -248 -184q-129 -50 -285 -50q-39 0 -76 15q-28 11 -28 14
q36 31 89 100q46 61 46 64l6 -8l-1 -7l-1 -39q2 -14 6 -26q22 -70 115 -59q134 15 254 245q49 95 102 245q21 61 46 141l69 224l24 76l47 150q55 168 105 283q31 71 90 130l38 33l16 11z" />
    <glyph glyph-name="uni1EC8" unicode="&#x1ec8;" horiz-adv-x="786" 
d="M627 1454q-315 -87 -449 -508l-97 -94q-24 -25 -38 -43l-2 29q17 61 57 132q31 56 88 140q84 122 225 250q149 136 269 190q36 17 116 36l85 19l102 21q90 21 170 52q62 25 62 28l-19 -25l-60 -27q-69 -35 -114 -71q-33 -26 -71 -89q-30 -51 -56 -112q-30 -67 -87 -252
l-109 -360l-59 -186l-61 -172q-66 -177 -118 -248q-91 -125 -248 -184q-129 -50 -285 -50q-39 0 -76 15q-28 11 -28 14q36 31 89 100q46 61 46 64l6 -8l-1 -7l-1 -39q2 -14 6 -26q22 -70 115 -59q134 15 254 245q49 95 102 245q21 61 46 141l69 224l24 76l47 150
q55 168 105 283q31 71 90 130l38 33l16 11zM958 2100q-22 -2 -41 -17q-14 -12 -25 -32q-8 -14 -14 -30q-4 -12 -4 -14h-22l19 90l11 5q53 26 74 29q26 4 50 5q61 0 99 -41q35 -29 35 -75q1 -43 -33 -80q-6 -8 -16 -17l-59 -57q-28 -29 -48 -60q-16 -24 -26 -49
q-7 -18 -10 -34q-1 -4 -2 -9v-3q-6 -3 -18 -5l-21 -3q-27 -4 -36 -14q1 39 38 83q14 16 42 44l13 13l40 41q27 29 43 67q15 35 15 61q1 49 -21 75q-26 32 -84 27h1z" />
    <glyph glyph-name="Itilde" unicode="&#x128;" horiz-adv-x="786" 
d="M627 1454q-315 -87 -449 -508l-97 -94q-24 -25 -38 -43l-2 29q17 61 57 132q31 56 88 140q84 122 225 250q149 136 269 190q36 17 116 36l85 19l102 21q90 21 170 52q62 25 62 28l-19 -25l-60 -27q-69 -35 -114 -71q-33 -26 -71 -89q-30 -51 -56 -112q-30 -67 -87 -252
l-109 -360l-59 -186l-61 -172q-66 -177 -118 -248q-91 -125 -248 -184q-129 -50 -285 -50q-39 0 -76 15q-28 11 -28 14q36 31 89 100q46 61 46 64l6 -8l-1 -7l-1 -39q2 -14 6 -26q22 -70 115 -59q134 15 254 245q49 95 102 245q21 61 46 141l69 224l24 76l47 150
q55 168 105 283q31 71 90 130l38 33l16 11zM675 1776q18 73 53 115q44 55 111 55q26 0 65 -19l37 -19l112 -63q39 -18 64 -18q57 0 92 76l41 30q-22 -73 -57 -117q-47 -57 -111 -57q-30 0 -72 19q-30 13 -77 41l-71 41q-37 18 -56 18q-62 0 -90 -70z" />
    <glyph glyph-name="uni1ECA" unicode="&#x1eca;" horiz-adv-x="786" 
d="M627 1454q-315 -87 -449 -508l-97 -94q-24 -25 -38 -43l-2 29q17 61 57 132q31 56 88 140q84 122 225 250q149 136 269 190q36 17 116 36l85 19l102 21q90 21 170 52q62 25 62 28l-19 -25l-60 -27q-69 -35 -114 -71q-33 -26 -71 -89q-30 -51 -56 -112q-30 -67 -87 -252
l-109 -360l-59 -186l-61 -172q-66 -177 -118 -248q-91 -125 -248 -184q-129 -50 -285 -50q-39 0 -76 15q-28 11 -28 14q36 31 89 100q46 61 46 64l6 -8l-1 -7l-1 -39q2 -14 6 -26q22 -70 115 -59q134 15 254 245q49 95 102 245q21 61 46 141l69 224l24 76l47 150
q55 168 105 283q31 71 90 130l38 33l16 11zM292 -307q-72 -5 -176 -27q10 22 35 93l22 67l69 10q10 1 12 2q7 1 13 1l87 14z" />
    <glyph glyph-name="Ograve" unicode="&#xd2;" horiz-adv-x="1228" 
d="M467 1786q2 19 6 34l16 43l5 38q56 -56 138 -121l149 -115q1 -1 5 -18q5 -16 5 -19l-243 120zM342 940q0 29 4 91l4 56q0 4 24 47q32 57 71 114q56 79 121 145q80 83 169 141q154 98 289 98q100 0 158 -128q45 -100 51 -232q19 -384 -262 -843q-137 -224 -297 -351
q-180 -142 -358 -137q-174 5 -260 181q-34 70 -51 163q-15 79 -15 164q0 305 164 606q169 309 430 458l-6 -47q-451 -332 -451 -907q0 -184 87 -327q102 -169 274 -166q129 2 242 135q97 114 174 313q66 168 106 364q35 174 35 289q0 52 -7 103q-8 65 -25 114
q-44 130 -138 127q-58 -1 -138 -46q-30 -17 -64 -41l-52 -40q-91 -73 -172 -200q-83 -130 -103 -236z" />
    <glyph glyph-name="Oacute" unicode="&#xd3;" horiz-adv-x="1228" 
d="M336 922q0 30 7 100q1 12 3 25l2 21l2 19q44 102 145 224q116 142 240 223q154 98 289 98q100 0 158 -128q45 -100 51 -232q19 -384 -262 -843q-137 -224 -297 -351q-180 -142 -358 -137q-174 5 -260 181q-34 70 -51 163q-15 79 -15 164q0 305 164 606q169 309 430 458
l-6 -47q-451 -332 -451 -907q0 -184 87 -327q102 -168 274 -166q129 2 242 135q97 114 174 313q66 168 106 364q35 174 35 289q0 52 -7 103q-8 65 -25 114q-44 130 -138 127q-58 -1 -138 -46q-30 -17 -64 -41l-52 -40q-91 -73 -172 -200q-83 -130 -103 -236zM969 1863
l35 -30q14 -8 35 -16q-71 -35 -161 -91l-159 -100q-3 -1 -19 1t-20 3l197 187l63 63q17 -8 29 -17z" />
    <glyph glyph-name="uni1ECE" unicode="&#x1ece;" horiz-adv-x="1228" 
d="M342 940q0 29 4 91l4 56q0 4 24 47q32 57 71 114q56 79 121 145q80 83 169 141q154 98 289 98q100 0 158 -128q45 -100 51 -232q19 -384 -262 -843q-137 -224 -297 -351q-180 -142 -358 -137q-174 5 -260 181q-34 70 -51 163q-15 79 -15 164q0 305 164 606
q169 309 430 458l-6 -47q-451 -332 -451 -907q0 -184 87 -327q102 -169 274 -166q129 2 242 135q97 114 174 313q66 168 106 364q35 174 35 289q0 52 -7 103q-8 65 -25 114q-44 130 -138 127q-58 -1 -138 -46q-30 -17 -64 -41l-52 -40q-91 -73 -172 -200q-83 -130 -103 -236
zM918 2100q-22 -2 -40 -17q-15 -12 -26 -32q-8 -14 -14 -30q-4 -12 -4 -14h-22l19 90l11 5q54 26 74 29q26 4 50 5q61 0 99 -41q35 -29 35 -75q1 -43 -32 -80q-7 -8 -17 -17l-59 -57q-28 -29 -48 -60q-15 -24 -25 -49q-8 -18 -11 -34q-1 -4 -2 -9v-3q-6 -3 -18 -5l-21 -3
q-27 -4 -36 -14q1 39 38 83q14 16 42 44l13 13l40 41q27 29 43 67q15 35 15 61q1 49 -21 75q-26 32 -84 27h1z" />
    <glyph glyph-name="Otilde" unicode="&#xd5;" horiz-adv-x="1269" 
d="M701 1716q18 74 52 117q43 53 109 53q27 0 67 -18l149 -82q40 -19 65 -19q59 0 90 78l43 31q-22 -73 -58 -117q-46 -57 -110 -57q-31 0 -74 18q-30 13 -77 40l-37 22l-35 18q-36 19 -55 19q-63 0 -90 -70zM342 940q0 29 4 91l4 56q0 4 24 47q32 57 71 114q56 79 121 145
q80 83 169 141q154 98 289 98q100 0 158 -128q45 -100 51 -232q19 -384 -262 -843q-137 -224 -297 -351q-180 -142 -358 -137q-174 5 -260 181q-34 70 -51 163q-15 79 -15 164q0 305 164 606q169 309 430 458l-6 -47q-451 -332 -451 -907q0 -184 87 -327q102 -169 274 -166
q129 2 242 135q97 114 174 313q66 168 106 364q35 174 35 289q0 52 -7 103q-8 65 -25 114q-44 130 -138 127q-58 -1 -138 -46q-30 -17 -64 -41l-52 -40q-91 -73 -172 -200q-83 -130 -103 -236z" />
    <glyph glyph-name="uni1ECC" unicode="&#x1ecc;" horiz-adv-x="1228" 
d="M342 940q0 29 4 91l4 56q0 4 24 47q32 57 71 114q56 79 121 145q80 83 169 141q154 98 289 98q100 0 158 -128q45 -100 51 -232q19 -384 -262 -843q-137 -224 -297 -351q-180 -142 -358 -137q-174 5 -260 181q-34 70 -51 163q-15 79 -15 164q0 305 164 606
q169 309 430 458l-6 -47q-451 -332 -451 -907q0 -184 87 -327q102 -169 274 -166q129 2 242 135q97 114 174 313q66 168 106 364q35 174 35 289q0 52 -7 103q-8 65 -25 114q-44 130 -138 127q-58 -1 -138 -46q-30 -17 -64 -41l-52 -40q-91 -73 -172 -200q-83 -130 -103 -236
zM382 -307q-72 -5 -176 -27q11 22 35 93l23 67l68 10q10 1 12 2q7 1 13 1l87 14z" />
    <glyph glyph-name="Ocircumflex" unicode="&#xd4;" horiz-adv-x="1228" 
d="M731 1665l-51 -16l83 154q48 92 73 153l35 37l12 14q42 -125 131 -311l-27 -15q-16 -10 -26 -20q-31 78 -61 145l-48 99q-71 -122 -121 -240zM342 940q0 29 4 91l4 56q0 4 24 47q32 57 71 114q56 79 121 145q80 83 169 141q154 98 289 98q100 0 158 -128q45 -100 51 -232
q19 -384 -262 -843q-137 -224 -297 -351q-180 -142 -358 -137q-174 5 -260 181q-34 70 -51 163q-15 79 -15 164q0 305 164 606q169 309 430 458l-6 -47q-451 -332 -451 -907q0 -184 87 -327q102 -169 274 -166q129 2 242 135q97 114 174 313q66 168 106 364q35 174 35 289
q0 52 -7 103q-8 65 -25 114q-44 130 -138 127q-58 -1 -138 -46q-30 -17 -64 -41l-52 -40q-91 -73 -172 -200q-83 -130 -103 -236z" />
    <glyph glyph-name="uni1ED2" unicode="&#x1ed2;" horiz-adv-x="1228" 
d="M731 1665l-51 -16l83 154q48 92 73 153l35 37l12 14q42 -125 131 -311l-27 -15q-16 -10 -26 -20q-31 78 -61 145l-48 99q-71 -122 -121 -240zM342 940q0 29 4 91l4 56q0 4 24 47q32 57 71 114q56 79 121 145q80 83 169 141q154 98 289 98q100 0 158 -128q45 -100 51 -232
q19 -384 -262 -843q-137 -224 -297 -351q-180 -142 -358 -137q-174 5 -260 181q-34 70 -51 163q-15 79 -15 164q0 305 164 606q169 309 430 458l-6 -47q-451 -332 -451 -907q0 -184 87 -327q102 -169 274 -166q129 2 242 135q97 114 174 313q66 168 106 364q35 174 35 289
q0 52 -7 103q-8 65 -25 114q-44 130 -138 127q-58 -1 -138 -46q-30 -17 -64 -41l-52 -40q-91 -73 -172 -200q-83 -130 -103 -236zM686 2159q2 19 7 33l8 22q5 12 8 22q3 15 4 37q55 -54 138 -120l148 -115q3 -1 7 -18q1 -2 2 -6l4 -13z" />
    <glyph glyph-name="uni1ED0" unicode="&#x1ed0;" horiz-adv-x="1228" 
d="M731 1665l-51 -16l83 154q48 92 73 153l35 37l12 14q42 -125 131 -311l-27 -15q-16 -10 -26 -20q-31 78 -61 145l-48 99q-71 -122 -121 -240zM342 940q0 29 4 91l4 56q0 4 24 47q32 57 71 114q56 79 121 145q80 83 169 141q154 98 289 98q100 0 158 -128q45 -100 51 -232
q19 -384 -262 -843q-137 -224 -297 -351q-180 -142 -358 -137q-174 5 -260 181q-34 70 -51 163q-15 79 -15 164q0 305 164 606q169 309 430 458l-6 -47q-451 -332 -451 -907q0 -184 87 -327q102 -169 274 -166q129 2 242 135q97 114 174 313q66 168 106 364q35 174 35 289
q0 52 -7 103q-8 65 -25 114q-44 130 -138 127q-58 -1 -138 -46q-30 -17 -64 -41l-52 -40q-91 -73 -172 -200q-83 -130 -103 -236zM1205 2178q9 -2 21 -8l24 -10q16 -5 38 -9q-60 -52 -131 -128l-131 -141l-16 -2q-16 -3 -19 -4l44 79l94 154l43 74z" />
    <glyph glyph-name="uni1ED4" unicode="&#x1ed4;" horiz-adv-x="1228" 
d="M731 1665l-51 -16l83 154q48 92 73 153l35 37l12 14q42 -125 131 -311l-27 -15q-16 -10 -26 -20q-31 78 -61 145l-48 99q-71 -122 -121 -240zM342 940q0 29 4 91l4 56q0 4 24 47q32 57 71 114q56 79 121 145q80 83 169 141q154 98 289 98q100 0 158 -128q45 -100 51 -232
q19 -384 -262 -843q-137 -224 -297 -351q-180 -142 -358 -137q-174 5 -260 181q-34 70 -51 163q-15 79 -15 164q0 305 164 606q169 309 430 458l-6 -47q-451 -332 -451 -907q0 -184 87 -327q102 -169 274 -166q129 2 242 135q97 114 174 313q66 168 106 364q35 174 35 289
q0 52 -7 103q-8 65 -25 114q-44 130 -138 127q-58 -1 -138 -46q-30 -17 -64 -41l-52 -40q-91 -73 -172 -200q-83 -130 -103 -236zM1069 2261q-23 -2 -41 -17q-14 -12 -26 -32q-8 -14 -13 -30q-4 -12 -4 -14h-22l18 90l12 5q53 26 74 29q26 4 50 5q61 0 99 -41q34 -29 35 -75
q0 -43 -33 -80q-7 -8 -16 -17l-60 -57q-27 -29 -47 -60q-16 -24 -26 -49q-7 -18 -10 -34q-2 -4 -2 -9l-1 -3q-5 -3 -17 -5l-21 -3q-27 -4 -36 -14q1 39 38 83q14 16 42 44q4 4 12 13l41 41q26 29 43 67q15 35 15 61q1 49 -21 75q-26 32 -84 27h1z" />
    <glyph glyph-name="uni1ED6" unicode="&#x1ed6;" horiz-adv-x="1228" 
d="M731 1665l-51 -16l83 154q48 92 73 153l35 37l12 14q42 -125 131 -311l-27 -15q-16 -10 -26 -20q-31 78 -61 145l-48 99q-71 -122 -121 -240zM342 940q0 29 4 91l4 56q0 4 24 47q32 57 71 114q56 79 121 145q80 83 169 141q154 98 289 98q100 0 158 -128q45 -100 51 -232
q19 -384 -262 -843q-137 -224 -297 -351q-180 -142 -358 -137q-174 5 -260 181q-34 70 -51 163q-15 79 -15 164q0 305 164 606q169 309 430 458l-6 -47q-451 -332 -451 -907q0 -184 87 -327q102 -169 274 -166q129 2 242 135q97 114 174 313q66 168 106 364q35 174 35 289
q0 52 -7 103q-8 65 -25 114q-44 130 -138 127q-58 -1 -138 -46q-30 -17 -64 -41l-52 -40q-91 -73 -172 -200q-83 -130 -103 -236zM684 1997q18 73 53 115q43 55 111 55q26 0 65 -19l37 -19l112 -63q39 -18 64 -18q56 0 92 76l41 30q-22 -73 -58 -117q-46 -57 -110 -57
q-30 0 -72 19q-30 13 -77 41l-72 41q-36 18 -55 18q-62 0 -90 -70z" />
    <glyph glyph-name="uni1ED8" unicode="&#x1ed8;" horiz-adv-x="1228" 
d="M731 1665l-51 -16l83 154q48 92 73 153l35 37l12 14q42 -125 131 -311l-27 -15q-16 -10 -26 -20q-31 78 -61 145l-48 99q-71 -122 -121 -240zM342 940q0 29 4 91l4 56q0 4 24 47q32 57 71 114q56 79 121 145q80 83 169 141q154 98 289 98q100 0 158 -128q45 -100 51 -232
q19 -384 -262 -843q-137 -224 -297 -351q-180 -142 -358 -137q-174 5 -260 181q-34 70 -51 163q-15 79 -15 164q0 305 164 606q169 309 430 458l-6 -47q-451 -332 -451 -907q0 -184 87 -327q102 -169 274 -166q129 2 242 135q97 114 174 313q66 168 106 364q35 174 35 289
q0 52 -7 103q-8 65 -25 114q-44 130 -138 127q-58 -1 -138 -46q-30 -17 -64 -41l-52 -40q-91 -73 -172 -200q-83 -130 -103 -236zM382 -307q-73 -5 -176 -27q10 22 35 93l22 67l69 10q9 1 12 2q7 1 13 1l87 14z" />
    <glyph glyph-name="Ugrave" unicode="&#xd9;" horiz-adv-x="1519" 
d="M797 1776q2 19 6 33l16 44l5 37q56 -56 138 -120l148 -115q2 -2 6 -18q5 -16 5 -19l-243 120zM-404 506q-12 -9 -23 -19q-66 -58 -99 -108l-2 8q114 510 471 864q325 322 686 357q53 6 130 -8l67 -15q-11 -16 -55 -125l-102 -267l-119 -334q-64 -189 -105 -331l-14 -55
q-17 -67 -28 -123q-15 -78 -17 -123q-3 -56 16 -57q26 -2 79 43q43 37 102 102q42 47 87 103q37 46 37 47q161 192 311 491q21 43 66 149l83 206l103 262l227 90q-47 -102 -112 -261l-134 -344q-72 -196 -118 -348q-54 -174 -68 -272l-7 -43q-8 -51 -11 -93q-8 -137 45 -134
q46 8 119 71q62 53 140 143q64 73 130 161l90 127v-47q-94 -161 -319 -399q-109 -117 -194 -185q-97 -78 -144 -78q-29 0 -41 56q-8 40 -8 118q0 73 18 184q14 89 39 199q17 79 38 160q4 14 7 27l10 38l-196 -247l-179 -214q-101 -117 -172 -188q-141 -141 -206 -141
q-21 0 -24 50q-1 16 0 35q0 5 1 11v4q0 93 25 225q21 113 61 261q25 89 80 252l52 150l186 509q0 4 -50 13q-65 13 -139 7q-235 -17 -446 -229q-290 -290 -338 -706z" />
    <glyph glyph-name="Uacute" unicode="&#xda;" horiz-adv-x="1519" 
d="M1237 1894q18 -8 30 -16l36 -30q13 -9 33 -17q-71 -33 -162 -88l-78 -47l-84 -49q-1 -2 -18 0l-21 2l200 185zM-404 504q-12 -9 -23 -19q-66 -58 -99 -108l-2 8q114 510 471 864q325 322 686 357q53 6 130 -8l67 -15q-11 -16 -55 -125l-102 -267l-119 -334
q-64 -189 -105 -331l-14 -55q-17 -67 -28 -123q-15 -78 -17 -123q-3 -56 16 -57q26 -2 79 43q43 37 102 102q42 47 87 103q37 46 37 47q161 192 311 491q21 43 66 149l83 206l103 262l227 90q-47 -102 -112 -261l-134 -344q-72 -196 -118 -348q-54 -174 -68 -272l-7 -43
q-8 -51 -11 -93q-8 -137 45 -134q46 8 119 71q62 53 140 143q64 73 130 161l90 127v-47q-94 -161 -319 -399q-109 -117 -194 -185q-97 -78 -144 -78q-29 0 -41 56q-8 40 -8 118q0 73 18 184q14 89 39 199q17 79 38 160q4 14 7 27l10 38l-196 -247l-179 -214
q-101 -117 -172 -188q-141 -141 -206 -141q-21 0 -24 50q-1 16 0 35q0 5 1 11v4q0 93 25 224q21 114 61 262q25 89 80 252l52 150l186 509q0 4 -50 13q-65 13 -139 7q-235 -17 -446 -229q-290 -290 -338 -707z" />
    <glyph glyph-name="uni1EE6" unicode="&#x1ee6;" horiz-adv-x="1519" 
d="M-404 504q-12 -9 -23 -19q-66 -58 -99 -108l-2 8q114 510 471 864q325 322 686 357q53 6 130 -8l67 -15q-11 -16 -55 -125l-102 -267l-119 -334q-64 -189 -105 -331l-14 -55q-17 -67 -28 -123q-15 -78 -17 -123q-3 -56 16 -57q26 -2 79 43q43 37 102 102q42 47 87 103
q37 46 37 47q161 192 311 491q21 43 66 149l83 206l103 262l227 90q-47 -102 -112 -261l-134 -344q-72 -196 -118 -348q-54 -174 -68 -272l-7 -43q-8 -51 -11 -93q-8 -137 45 -134q46 8 119 71q62 53 140 143q64 73 130 161l90 127v-47q-94 -161 -319 -399
q-109 -117 -194 -185q-97 -78 -144 -78q-29 0 -41 56q-8 40 -8 118q0 73 18 184q14 89 39 199q17 79 38 160q4 14 7 27l10 38l-196 -247l-179 -214q-101 -117 -172 -188q-141 -141 -206 -141q-21 0 -24 50q-1 16 0 35q0 5 1 11v4q0 93 25 224q21 114 61 262q25 89 80 252
l52 150l186 509q0 4 -50 13q-65 13 -139 7q-235 -17 -446 -229q-290 -290 -338 -707zM1109 2100q-22 -2 -40 -17q-15 -12 -26 -32q-8 -14 -14 -30q-4 -12 -4 -14h-21l18 90l12 5q53 26 74 29q25 4 49 5q62 0 99 -41q35 -29 36 -75q0 -43 -33 -80q-7 -8 -16 -17l-60 -57
q-28 -29 -47 -60q-16 -24 -26 -49q-7 -18 -11 -34q-1 -4 -2 -9v-3q-6 -3 -17 -5l-21 -3q-28 -4 -36 -14q1 39 38 83q13 16 42 44q3 4 12 13l41 41q26 29 42 67q15 35 15 61q1 49 -20 75q-26 32 -84 27v0z" />
    <glyph glyph-name="Utilde" unicode="&#x168;" horiz-adv-x="1519" 
d="M-404 504q-12 -9 -23 -19q-66 -58 -99 -108l-2 8q114 510 471 864q325 322 686 357q53 6 130 -8l67 -15q-11 -16 -55 -125l-102 -267l-119 -334q-64 -189 -105 -331l-14 -55q-17 -67 -28 -123q-15 -78 -17 -123q-3 -56 16 -57q26 -2 79 43q43 37 102 102q42 47 87 103
q37 46 37 47q161 192 311 491q21 43 66 149l83 206l103 262l227 90q-47 -102 -112 -261l-134 -344q-72 -196 -118 -348q-54 -174 -68 -272l-7 -43q-8 -51 -11 -93q-8 -137 45 -134q46 8 119 71q62 53 140 143q64 73 130 161l90 127v-47q-94 -161 -319 -399
q-109 -117 -194 -185q-97 -78 -144 -78q-29 0 -41 56q-8 40 -8 118q0 73 18 184q14 89 39 199q17 79 38 160q4 14 7 27l10 38l-196 -247l-179 -214q-101 -117 -172 -188q-141 -141 -206 -141q-21 0 -24 50q-1 16 0 35q0 5 1 11v4q0 93 25 224q21 114 61 262q25 89 80 252
l52 150l186 509q0 4 -50 13q-65 13 -139 7q-235 -17 -446 -229q-290 -290 -338 -707zM852 1716q18 74 53 117q43 53 109 53q26 0 67 -18l149 -82q39 -19 64 -19q59 0 91 78l43 31q-23 -73 -58 -117q-47 -57 -110 -57q-31 0 -74 18q-30 13 -78 40l-37 22l-34 18
q-36 19 -56 19q-62 0 -90 -70z" />
    <glyph glyph-name="uni1EE4" unicode="&#x1ee4;" horiz-adv-x="1519" 
d="M-404 504q-12 -9 -23 -19q-66 -58 -99 -108l-2 8q114 510 471 864q325 322 686 357q53 6 130 -8l67 -15q-11 -16 -55 -125l-102 -267l-119 -334q-64 -189 -105 -331l-14 -55q-17 -67 -28 -123q-15 -78 -17 -123q-3 -56 16 -57q26 -2 79 43q43 37 102 102q42 47 87 103
q37 46 37 47q161 192 311 491q21 43 66 149l83 206l103 262l227 90q-47 -102 -112 -261l-134 -344q-72 -196 -118 -348q-54 -174 -68 -272l-7 -43q-8 -51 -11 -93q-8 -137 45 -134q46 8 119 71q62 53 140 143q64 73 130 161l90 127v-47q-94 -161 -319 -399
q-109 -117 -194 -185q-97 -78 -144 -78q-29 0 -41 56q-8 40 -8 118q0 73 18 184q14 89 39 199q17 79 38 160q4 14 7 27l10 38l-196 -247l-179 -214q-101 -117 -172 -188q-141 -141 -206 -141q-21 0 -24 50q-1 16 0 35q0 5 1 11v4q0 93 25 224q21 114 61 262q25 89 80 252
l52 150l186 509q0 4 -50 13q-65 13 -139 7q-235 -17 -446 -229q-290 -290 -338 -707zM614 -307q-73 -5 -177 -27q11 22 35 93l23 67l68 10q10 1 13 2q7 1 12 1l87 14z" />
    <glyph glyph-name="Uhorn" unicode="&#x1af;" horiz-adv-x="1519" 
d="M-404 504q-12 -9 -23 -19q-66 -58 -99 -108l-2 8q114 510 471 864q325 322 686 357q53 6 130 -8l67 -15q-11 -16 -55 -125l-102 -267l-119 -334q-64 -189 -105 -331l-14 -55q-17 -67 -28 -123q-15 -78 -17 -123q-3 -56 16 -57q26 -2 79 43q43 37 102 102q42 47 87 103
q37 46 37 47q161 192 311 491q21 43 66 149l83 206l103 262l227 90q-47 -102 -112 -261l-134 -344q-72 -196 -118 -348q-54 -174 -68 -272l-7 -43q-8 -51 -11 -93q-8 -137 45 -134q46 8 119 71q62 53 140 143q64 73 130 161l90 127v-47q-94 -161 -319 -399
q-109 -117 -194 -185q-97 -78 -144 -78q-29 0 -41 56q-8 40 -8 118q0 73 18 184q14 89 39 199q17 79 38 160q4 14 7 27l10 38l-196 -247l-179 -214q-101 -117 -172 -188q-141 -141 -206 -141q-21 0 -24 50q-1 16 0 35q0 5 1 11v4q0 93 25 224q21 114 61 262q25 89 80 252
l52 150l186 509q0 4 -50 13q-65 13 -139 7q-235 -17 -446 -229q-290 -290 -338 -707zM1417 1458q53 50 99 127q44 87 53 166q46 -4 92 6l66 11l-30 -51q-43 -65 -106 -135q-89 -97 -180 -135z" />
    <glyph glyph-name="uni1EEA" unicode="&#x1eea;" horiz-adv-x="1519" 
d="M797 1776q2 19 6 33l15 44l5 37q56 -56 138 -120l149 -115q1 -2 6 -18q4 -16 4 -19l-243 120zM-404 506q-12 -9 -24 -19q-65 -58 -98 -108l-2 8q113 510 471 864q325 322 686 357q52 6 130 -8l66 -15q-10 -16 -54 -125l-102 -267q-65 -173 -120 -334q-64 -189 -105 -331
l-14 -55q-16 -67 -27 -123q-15 -78 -17 -123q-3 -56 15 -57q26 -2 80 43q43 37 101 102l88 103q37 46 37 47q161 192 311 491q21 43 65 149l84 206l103 262l227 90q-47 -102 -112 -261q-71 -172 -134 -344q-72 -196 -119 -348q-53 -174 -67 -272l-8 -43q-8 -51 -10 -93
q-8 -137 45 -134q45 8 119 71q61 53 139 143q64 73 131 161l90 127v-47q-95 -161 -319 -399q-110 -117 -195 -185q-97 -78 -144 -78q-29 0 -40 56q-9 40 -9 118q1 73 19 184q14 89 38 199q18 79 39 160q3 14 7 27l10 38l-197 -247l-178 -214q-102 -117 -172 -188
q-141 -141 -207 -141q-20 0 -23 50q-1 16 0 35v11l1 4q0 93 24 225q21 113 62 261q24 89 80 252l52 150l185 509q0 4 -50 13q-64 13 -138 7q-235 -17 -447 -229q-290 -290 -338 -706zM1416 1458q54 50 99 127q45 87 53 166q47 -4 92 6l67 11l-31 -51q-43 -65 -105 -135
q-89 -97 -181 -135z" />
    <glyph glyph-name="uni1EE8" unicode="&#x1ee8;" horiz-adv-x="1519" 
d="M1237 1894q18 -8 29 -16l36 -30q13 -9 33 -17q-71 -33 -161 -88l-78 -47l-84 -49q-2 -2 -18 0l-21 2l200 185zM-404 504q-12 -9 -24 -19q-65 -58 -98 -108l-2 8q113 510 471 864q325 322 686 357q52 6 130 -8l66 -15q-10 -16 -54 -125l-102 -267q-65 -173 -120 -334
q-64 -189 -105 -331l-14 -55q-16 -67 -27 -123q-15 -78 -17 -123q-3 -56 15 -57q26 -2 80 43q43 37 101 102l88 103q37 46 37 47q161 192 311 491q21 43 65 149l84 206l103 262l227 90q-47 -102 -112 -261q-71 -172 -134 -344q-72 -196 -119 -348q-53 -174 -67 -272l-8 -43
q-8 -51 -10 -93q-8 -137 45 -134q45 8 119 71q61 53 139 143q64 73 131 161l90 127v-47q-95 -161 -319 -399q-110 -117 -195 -185q-97 -78 -144 -78q-29 0 -40 56q-9 40 -9 118q1 73 19 184q14 89 38 199q18 79 39 160q3 14 7 27l10 38l-197 -247l-178 -214
q-102 -117 -172 -188q-141 -141 -207 -141q-20 0 -23 50q-1 16 0 35v11l1 4q0 93 24 224q21 114 62 262q24 89 80 252l52 150l185 509q0 4 -50 13q-64 13 -138 7q-235 -17 -447 -229q-290 -290 -338 -707zM1416 1458q54 50 99 127q45 87 53 166q47 -4 92 6l67 11l-31 -51
q-43 -65 -105 -135q-89 -97 -181 -135z" />
    <glyph glyph-name="uni1EEC" unicode="&#x1eec;" horiz-adv-x="1519" 
d="M1109 2100q-22 -2 -40 -17q-15 -12 -26 -32q-8 -14 -14 -30q-4 -12 -4 -14h-22l19 90l11 5q54 26 74 29q26 4 50 5q61 0 99 -41q35 -29 35 -75q1 -43 -32 -80q-7 -8 -17 -17l-59 -57q-28 -29 -48 -60q-15 -24 -25 -49q-8 -18 -11 -34q-1 -4 -2 -9v-3q-6 -3 -18 -5l-21 -3
q-27 -4 -36 -14q1 39 38 83q14 16 42 44l13 13l40 41q27 29 43 67q15 35 15 61q1 49 -21 75q-26 32 -84 27h1zM-404 504q-12 -9 -24 -19q-65 -58 -98 -108l-2 8q113 510 471 864q325 322 686 357q52 6 130 -8l66 -15q-10 -16 -54 -125l-102 -267q-65 -173 -120 -334
q-64 -189 -105 -331l-14 -55q-16 -67 -27 -123q-15 -78 -17 -123q-3 -56 15 -57q26 -2 80 43q43 37 101 102l88 103q37 46 37 47q161 192 311 491q21 43 65 149l84 206l103 262l227 90q-47 -102 -112 -261q-71 -172 -134 -344q-72 -196 -119 -348q-53 -174 -67 -272l-8 -43
q-8 -51 -10 -93q-8 -137 45 -134q45 8 119 71q61 53 139 143q64 73 131 161l90 127v-47q-95 -161 -319 -399q-110 -117 -195 -185q-97 -78 -144 -78q-29 0 -40 56q-9 40 -9 118q1 73 19 184q14 89 38 199q18 79 39 160q3 14 7 27l10 38l-197 -247l-178 -214
q-102 -117 -172 -188q-141 -141 -207 -141q-20 0 -23 50q-1 16 0 35v11l1 4q0 93 24 224q21 114 62 262q24 89 80 252l52 150l185 509q0 4 -50 13q-64 13 -138 7q-235 -17 -447 -229q-290 -290 -338 -707zM1416 1458q54 50 99 127q45 87 53 166q47 -4 92 6l67 11l-31 -51
q-43 -65 -105 -135q-89 -97 -181 -135z" />
    <glyph glyph-name="uni1EEE" unicode="&#x1eee;" horiz-adv-x="1519" 
d="M852 1716q18 74 52 117q43 53 109 53q27 0 67 -18l149 -82q40 -19 65 -19q59 0 90 78l43 31q-22 -73 -58 -117q-46 -57 -110 -57q-31 0 -74 18q-30 13 -77 40l-37 22l-35 18q-36 19 -55 19q-63 0 -90 -70zM-404 504q-12 -9 -24 -19q-65 -58 -98 -108l-2 8
q113 510 471 864q325 322 686 357q52 6 130 -8l66 -15q-10 -16 -54 -125l-102 -267q-65 -173 -120 -334q-64 -189 -105 -331l-14 -55q-16 -67 -27 -123q-15 -78 -17 -123q-3 -56 15 -57q26 -2 80 43q43 37 101 102l88 103q37 46 37 47q161 192 311 491q21 43 65 149l84 206
l103 262l227 90q-47 -102 -112 -261q-71 -172 -134 -344q-72 -196 -119 -348q-53 -174 -67 -272l-8 -43q-8 -51 -10 -93q-8 -137 45 -134q45 8 119 71q61 53 139 143q64 73 131 161l90 127v-47q-95 -161 -319 -399q-110 -117 -195 -185q-97 -78 -144 -78q-29 0 -40 56
q-9 40 -9 118q1 73 19 184q14 89 38 199q18 79 39 160q3 14 7 27l10 38l-197 -247l-178 -214q-102 -117 -172 -188q-141 -141 -207 -141q-20 0 -23 50q-1 16 0 35v11l1 4q0 93 24 224q21 114 62 262q24 89 80 252l52 150l185 509q0 4 -50 13q-64 13 -138 7
q-235 -17 -447 -229q-290 -290 -338 -707zM1416 1458q54 50 99 127q45 87 53 166q47 -4 92 6l67 11l-31 -51q-43 -65 -105 -135q-89 -97 -181 -135z" />
    <glyph glyph-name="uni1EF0" unicode="&#x1ef0;" horiz-adv-x="1519" 
d="M613 -307q-73 -5 -176 -27q10 22 35 93l22 67l69 10q9 1 12 2q7 1 13 1l87 14zM-404 504q-12 -9 -24 -19q-65 -58 -98 -108l-2 8q113 510 471 864q325 322 686 357q52 6 130 -8l66 -15q-10 -16 -54 -125l-102 -267q-65 -173 -120 -334q-64 -189 -105 -331l-14 -55
q-16 -67 -27 -123q-15 -78 -17 -123q-3 -56 15 -57q26 -2 80 43q43 37 101 102l88 103q37 46 37 47q161 192 311 491q21 43 65 149l84 206l103 262l227 90q-47 -102 -112 -261q-71 -172 -134 -344q-72 -196 -119 -348q-53 -174 -67 -272l-8 -43q-8 -51 -10 -93
q-8 -137 45 -134q45 8 119 71q61 53 139 143q64 73 131 161l90 127v-47q-95 -161 -319 -399q-110 -117 -195 -185q-97 -78 -144 -78q-29 0 -40 56q-9 40 -9 118q1 73 19 184q14 89 38 199q18 79 39 160q3 14 7 27l10 38l-197 -247l-178 -214q-102 -117 -172 -188
q-141 -141 -207 -141q-20 0 -23 50q-1 16 0 35v11l1 4q0 93 24 224q21 114 62 262q24 89 80 252l52 150l185 509q0 4 -50 13q-64 13 -138 7q-235 -17 -447 -229q-290 -290 -338 -707zM1416 1458q54 50 99 127q45 87 53 166q47 -4 92 6l67 11l-31 -51q-43 -65 -105 -135
q-89 -97 -181 -135z" />
    <glyph glyph-name="Ohorn" unicode="&#x1a0;" horiz-adv-x="1228" 
d="M342 940q0 29 4 91l4 56q0 4 24 47q32 57 71 114q56 79 121 145q80 83 169 141q154 98 289 98q100 0 158 -128q45 -100 51 -232q19 -384 -262 -843q-137 -224 -297 -351q-180 -142 -358 -137q-174 5 -260 181q-34 70 -51 163q-15 79 -15 164q0 305 164 606
q169 309 430 458l-6 -47q-451 -332 -451 -907q0 -184 87 -327q102 -169 274 -166q129 2 242 135q97 114 174 313q66 168 106 364q35 174 35 289q0 52 -7 103q-8 65 -25 114q-44 130 -138 127q-58 -1 -138 -46q-30 -17 -64 -41l-52 -40q-91 -73 -172 -200q-83 -130 -103 -236
zM1175 1458q53 50 99 127q45 87 53 166q46 -4 92 6l67 11l-31 -51q-43 -65 -105 -135q-90 -97 -181 -135z" />
    <glyph glyph-name="uni1EDC" unicode="&#x1edc;" horiz-adv-x="1228" 
d="M467 1786q2 19 6 34l16 43l5 38q56 -56 138 -121l149 -115q1 -1 5 -18q5 -16 5 -19l-243 120zM1199 1461q29 -84 34 -189q19 -384 -262 -843q-137 -224 -297 -351q-180 -142 -358 -137q-174 5 -260 181q-34 70 -51 163q-15 79 -15 164q0 305 164 606q169 309 430 458
l-6 -47q-451 -332 -451 -907q0 -184 87 -327q102 -169 274 -166q129 2 242 135q97 114 174 313q66 168 106 364q35 174 35 289q0 52 -7 103q-8 65 -25 114q-44 130 -138 127q-58 -1 -138 -46q-30 -17 -64 -41l-52 -40q-91 -73 -172 -200q-83 -130 -103 -236l-4 -8q0 29 4 91
l4 56q0 4 24 47q32 57 71 114q56 79 121 145q80 83 169 141q154 98 289 98q100 0 158 -128q6 -13 11 -28q43 46 81 109q45 87 53 166q46 -4 92 6l67 11l-31 -51q-43 -65 -105 -135q-75 -81 -151 -121z" />
    <glyph glyph-name="uni1EDA" unicode="&#x1eda;" horiz-adv-x="1228" 
d="M969 1863l35 -30q14 -8 35 -16q-71 -35 -161 -91l-159 -100q-3 -1 -19 1t-20 3l197 187l63 63q17 -8 29 -17zM1199 1461q29 -84 34 -189q19 -384 -262 -843q-137 -224 -297 -351q-180 -142 -358 -137q-174 5 -260 181q-34 70 -51 163q-15 79 -15 164q0 305 164 606
q169 309 430 458l-6 -47q-451 -332 -451 -907q0 -184 87 -327q102 -168 274 -166q129 2 242 135q97 114 174 313q66 168 106 364q35 174 35 289q0 52 -7 103q-8 65 -25 114q-44 130 -138 127q-58 -1 -138 -46q-30 -17 -64 -41l-52 -40q-91 -73 -172 -200q-83 -130 -103 -236
l-10 -26q0 30 7 100q1 12 3 25l2 21l2 19q44 102 145 224q116 142 240 223q154 98 289 98q100 0 158 -128q6 -13 11 -28q43 46 81 109q45 87 53 166q46 -4 92 6l67 11l-31 -51q-43 -65 -105 -135q-75 -81 -151 -121z" />
    <glyph glyph-name="uni1EDE" unicode="&#x1ede;" horiz-adv-x="1228" 
d="M918 2100q-22 -2 -40 -17q-15 -12 -26 -32q-8 -14 -14 -30q-4 -12 -4 -14h-22l19 90l11 5q54 26 74 29q26 4 50 5q61 0 99 -41q35 -29 35 -75q1 -43 -32 -80q-7 -8 -17 -17l-59 -57q-28 -29 -48 -60q-15 -24 -25 -49q-8 -18 -11 -34q-1 -4 -2 -9v-3q-6 -3 -18 -5l-21 -3
q-27 -4 -36 -14q1 39 38 83q14 16 42 44l13 13l40 41q27 29 43 67q15 35 15 61q1 49 -21 75q-26 32 -84 27h1zM1199 1461q29 -84 34 -189q19 -384 -262 -843q-137 -224 -297 -351q-180 -142 -358 -137q-174 5 -260 181q-34 70 -51 163q-15 79 -15 164q0 305 164 606
q169 309 430 458l-6 -47q-451 -332 -451 -907q0 -184 87 -327q102 -169 274 -166q129 2 242 135q97 114 174 313q66 168 106 364q35 174 35 289q0 52 -7 103q-8 65 -25 114q-44 130 -138 127q-58 -1 -138 -46q-30 -17 -64 -41l-52 -40q-91 -73 -172 -200q-83 -130 -103 -236
l-4 -8q0 29 4 91l4 56q0 4 24 47q32 57 71 114q56 79 121 145q80 83 169 141q154 98 289 98q100 0 158 -128q6 -13 11 -28q43 46 81 109q45 87 53 166q46 -4 92 6l67 11l-31 -51q-43 -65 -105 -135q-75 -81 -151 -121z" />
    <glyph glyph-name="uni1EE0" unicode="&#x1ee0;" horiz-adv-x="1269" 
d="M701 1716q18 74 52 117q43 53 109 53q27 0 67 -18l149 -82q40 -19 65 -19q59 0 90 78l43 31q-22 -73 -58 -117q-46 -57 -110 -57q-31 0 -74 18q-30 13 -77 40l-37 22l-35 18q-36 19 -55 19q-63 0 -90 -70zM1199 1461q29 -84 34 -189q19 -384 -262 -843
q-137 -224 -297 -351q-180 -142 -358 -137q-174 5 -260 181q-34 70 -51 163q-15 79 -15 164q0 305 164 606q169 309 430 458l-6 -47q-451 -332 -451 -907q0 -184 87 -327q102 -169 274 -166q129 2 242 135q97 114 174 313q66 168 106 364q35 174 35 289q0 52 -7 103
q-8 65 -25 114q-44 130 -138 127q-58 -1 -138 -46q-30 -17 -64 -41l-52 -40q-91 -73 -172 -200q-83 -130 -103 -236l-4 -8q0 29 4 91l4 56q0 4 24 47q32 57 71 114q56 79 121 145q80 83 169 141q154 98 289 98q100 0 158 -128q6 -13 11 -28q43 46 81 109q45 87 53 166
q46 -4 92 6l67 11l-31 -51q-43 -65 -105 -135q-75 -81 -151 -121z" />
    <glyph glyph-name="uni1EE2" unicode="&#x1ee2;" horiz-adv-x="1228" 
d="M382 -307q-72 -5 -176 -27q11 22 35 93l23 67l68 10q10 1 12 2q7 1 13 1l87 14zM1199 1461q29 -84 34 -189q19 -384 -262 -843q-137 -224 -297 -351q-180 -142 -358 -137q-174 5 -260 181q-34 70 -51 163q-15 79 -15 164q0 305 164 606q169 309 430 458l-6 -47
q-451 -332 -451 -907q0 -184 87 -327q102 -169 274 -166q129 2 242 135q97 114 174 313q66 168 106 364q35 174 35 289q0 52 -7 103q-8 65 -25 114q-44 130 -138 127q-58 -1 -138 -46q-30 -17 -64 -41l-52 -40q-91 -73 -172 -200q-83 -130 -103 -236l-4 -8q0 29 4 91l4 56
q0 4 24 47q32 57 71 114q56 79 121 145q80 83 169 141q154 98 289 98q100 0 158 -128q6 -13 11 -28q43 46 81 109q45 87 53 166q46 -4 92 6l67 11l-31 -51q-43 -65 -105 -135q-75 -81 -151 -121z" />
    <glyph glyph-name="Ygrave" unicode="&#x1ef2;" horiz-adv-x="1591" 
d="M127 -1023q-15 -59 -16 -117q-1 -41 6 -77l6 -28l82 43l55 32q69 42 129 86q76 56 133 113q83 82 150 179q59 85 111 190q41 82 87 196l78 197q-254 -77 -516 -336q-90 -89 -150 -172q-44 -61 -97 -160q-40 -72 -58 -146zM1051 1546l-19 -45l-117 -300l-79 -212l-79 -225
q-40 -119 -69 -217q-68 -228 -69 -324q0 -72 32 -78q56 0 170 111q96 91 226 269q116 160 237 358q114 188 195 349q82 164 98 238q21 7 60 25l73 36l62 32l26 14l6 -8q-47 -98 -113 -257l-117 -287l-128 -331q-40 -125 -97 -283l-101 -269l-44 -112l-67 -167q67 20 153 33
q70 10 165 16l166 8q103 4 159 8v-16q-114 -51 -205 -180l-14 -4l8 18q4 10 5 20q1 12 -1 23q-6 31 -80 48q-61 13 -137 13q-78 0 -162 -10q-67 -8 -67 -10l-93 -234q-27 -64 -57 -125q-42 -86 -85 -153q-54 -84 -105 -135q-144 -142 -356 -280q-222 -144 -470 -251l-6 7
l-6 106q0 239 180 469l42 52l59 66q78 86 168 160q113 94 243 169q153 88 326 147l362 1020q-64 -133 -206 -329q-154 -212 -304 -361q-102 -104 -184 -158q-91 -59 -149 -51q-54 10 -54 123q0 43 12 110q8 53 24 119q11 46 25 94l11 39q41 140 103 319l56 159l55 147
l124 321q-55 12 -179 6q-136 -7 -218 -32q-146 -43 -216 -131q-57 -73 -57 -168q0 -75 31 -105q10 -10 21 -14q10 -3 10 -2q-50 -23 -117 -97q-57 -63 -57 -69q-18 201 59 350q66 128 238 273q88 75 207 100q48 10 104 13q40 2 98 1h30q36 0 72 4q50 4 91 14q51 13 86 33z
M1089 1786q2 19 7 34l15 43l5 38q56 -56 138 -121l149 -115q1 -1 6 -18q4 -16 4 -19l-243 120z" />
    <glyph glyph-name="Yacute" unicode="&#xdd;" horiz-adv-x="1591" 
d="M1527 1796l18 -13q11 -8 20 -13q14 -8 35 -15q-70 -40 -154 -101l-36 -27l-115 -85l-39 2l152 167l30 33l59 66q18 -6 30 -14zM127 -1007q-15 -59 -16 -117q-1 -41 6 -77l6 -28l82 43l55 32q69 42 129 87q76 56 133 113q83 81 150 179q59 85 111 189q41 82 87 196l78 197
q-254 -77 -516 -335q-90 -89 -150 -172q-44 -62 -97 -160q-40 -73 -58 -147zM1051 1563l-19 -46l-117 -300l-79 -211l-79 -225q-40 -120 -69 -217q-68 -229 -69 -324q0 -73 32 -78q56 0 170 110q96 91 226 269q116 161 237 359q114 188 195 348q82 165 98 239q21 6 60 24
l73 36l62 32l26 14l6 -8q-47 -98 -113 -257l-117 -287l-128 -330q-40 -126 -97 -284l-101 -269l-44 -112l-67 -167q67 21 153 33q70 10 165 16l166 8q103 4 159 9v-17q-114 -50 -205 -180l-14 -4l8 18q4 10 5 20q1 12 -1 23q-6 31 -80 48q-61 14 -137 14q-78 0 -162 -10
q-67 -9 -67 -11l-93 -234q-27 -64 -57 -125q-42 -86 -85 -153q-54 -84 -105 -135q-144 -142 -356 -280q-222 -144 -470 -250l-6 6l-6 106q0 239 180 469l42 53l59 66q78 85 168 159q113 95 243 169q153 89 326 147l362 1020q-64 -132 -206 -329q-154 -212 -304 -361
q-102 -104 -184 -157q-91 -59 -149 -52q-54 11 -54 123q0 44 12 110q8 54 24 119q11 47 25 95l11 39q41 139 103 318l56 159l55 148l124 321q-55 12 -179 6q-136 -7 -218 -33q-146 -42 -216 -131q-57 -73 -57 -168q0 -74 31 -105q10 -9 21 -14q10 -3 10 -2q-50 -23 -117 -96
q-57 -63 -57 -70q-18 202 59 350q66 128 238 273q88 75 207 100q48 10 104 13q40 3 98 2l30 -1q36 1 72 4q50 5 91 15q51 12 86 33z" />
    <glyph glyph-name="uni1EF6" unicode="&#x1ef6;" horiz-adv-x="1591" 
d="M127 -1023q-15 -59 -16 -117q-1 -41 6 -77l6 -28l82 43l55 32q69 42 129 86q76 56 133 113q83 82 150 179q59 85 111 190q41 82 87 196l78 197q-254 -77 -516 -336q-90 -89 -150 -172q-44 -61 -97 -160q-40 -72 -58 -146zM1051 1546l-19 -45l-117 -300l-79 -212l-79 -225
q-40 -119 -69 -217q-68 -228 -69 -324q0 -72 32 -78q56 0 170 111q96 91 226 269q116 160 237 358q114 188 195 349q82 164 98 238q21 7 60 25l73 36l62 32l26 14l6 -8q-47 -98 -113 -257l-117 -287l-128 -331q-40 -125 -97 -283l-101 -269l-44 -112l-67 -167q67 20 153 33
q70 10 165 16l166 8q103 4 159 8v-16q-114 -51 -205 -180l-14 -4l8 18q4 10 5 20q1 12 -1 23q-6 31 -80 48q-61 13 -137 13q-78 0 -162 -10q-67 -8 -67 -10l-93 -234q-27 -64 -57 -125q-42 -86 -85 -153q-54 -84 -105 -135q-144 -142 -356 -280q-222 -144 -470 -251l-6 7
l-6 106q0 239 180 469l42 52l59 66q78 86 168 160q113 94 243 169q153 88 326 147l362 1020q-64 -133 -206 -329q-154 -212 -304 -361q-102 -104 -184 -158q-91 -59 -149 -51q-54 10 -54 123q0 43 12 110q8 53 24 119q11 46 25 94l11 39q41 140 103 319l56 159l55 147
l124 321q-55 12 -179 6q-136 -7 -218 -32q-146 -43 -216 -131q-57 -73 -57 -168q0 -75 31 -105q10 -10 21 -14q10 -3 10 -2q-50 -23 -117 -97q-57 -63 -57 -69q-18 201 59 350q66 128 238 273q88 75 207 100q48 10 104 13q40 2 98 1h30q36 0 72 4q50 4 91 14q51 13 86 33z
M1400 2100q-22 -2 -40 -17q-15 -12 -26 -32q-8 -14 -14 -30q-4 -12 -4 -14h-22l19 90l12 5q53 26 73 29q26 4 50 5q62 0 99 -41q35 -29 35 -75q1 -43 -32 -80q-7 -8 -17 -17l-59 -57q-28 -29 -47 -60q-16 -24 -26 -49q-7 -18 -11 -34q-1 -4 -2 -9v-3q-6 -3 -17 -5l-22 -3
q-27 -4 -35 -14q0 39 38 83q13 16 41 44l13 13l41 41q26 29 42 67q15 35 15 61q1 49 -21 75q-26 32 -83 27v0z" />
    <glyph glyph-name="uni1EF8" unicode="&#x1ef8;" horiz-adv-x="1591" 
d="M127 -1023q-15 -59 -16 -117q-1 -41 6 -77l6 -28l82 43l55 32q69 42 129 86q76 56 133 113q83 82 150 179q59 85 111 190q41 82 87 196l78 197q-254 -77 -516 -336q-90 -89 -150 -172q-44 -61 -97 -160q-40 -72 -58 -146zM1051 1546l-19 -45l-117 -300l-79 -212l-79 -225
q-40 -119 -69 -217q-68 -228 -69 -324q0 -72 32 -78q56 0 170 111q96 91 226 269q116 160 237 358q114 188 195 349q82 164 98 238q21 7 60 25l73 36l62 32l26 14l6 -8q-47 -98 -113 -257l-117 -287l-128 -331q-40 -125 -97 -283l-101 -269l-44 -112l-67 -167q67 20 153 33
q70 10 165 16l166 8q103 4 159 8v-16q-114 -51 -205 -180l-14 -4l8 18q4 10 5 20q1 12 -1 23q-6 31 -80 48q-61 13 -137 13q-78 0 -162 -10q-67 -8 -67 -10l-93 -234q-27 -64 -57 -125q-42 -86 -85 -153q-54 -84 -105 -135q-144 -142 -356 -280q-222 -144 -470 -251l-6 7
l-6 106q0 239 180 469l42 52l59 66q78 86 168 160q113 94 243 169q153 88 326 147l362 1020q-64 -133 -206 -329q-154 -212 -304 -361q-102 -104 -184 -158q-91 -59 -149 -51q-54 10 -54 123q0 43 12 110q8 53 24 119q11 46 25 94l11 39q41 140 103 319l56 159l55 147
l124 321q-55 12 -179 6q-136 -7 -218 -32q-146 -43 -216 -131q-57 -73 -57 -168q0 -75 31 -105q10 -10 21 -14q10 -3 10 -2q-50 -23 -117 -97q-57 -63 -57 -69q-18 201 59 350q66 128 238 273q88 75 207 100q48 10 104 13q40 2 98 1h30q36 0 72 4q50 4 91 14q51 13 86 33z
M1107 1716q18 74 52 117q44 53 110 53q26 0 67 -18l149 -82q39 -19 64 -19q59 0 90 78l43 31q-22 -73 -58 -117q-46 -57 -110 -57q-31 0 -74 18q-29 13 -77 40l-37 22l-35 18q-36 19 -55 19q-62 0 -90 -70z" />
    <glyph glyph-name="uni1EF4" unicode="&#x1ef4;" horiz-adv-x="1591" 
d="M127 -1023q-15 -59 -16 -117q-1 -41 6 -77l6 -28l82 43l55 32q69 42 129 86q76 56 133 113q83 82 150 179q59 85 111 190q41 82 87 196l78 197q-254 -77 -516 -336q-90 -89 -150 -172q-44 -61 -97 -160q-40 -72 -58 -146zM1051 1546l-19 -45l-117 -300l-79 -212l-79 -225
q-40 -119 -69 -217q-68 -228 -69 -324q0 -72 32 -78q56 0 170 111q96 91 226 269q116 160 237 358q114 188 195 349q82 164 98 238q21 7 60 25l73 36l62 32l26 14l6 -8q-47 -98 -113 -257l-117 -287l-128 -331q-40 -125 -97 -283l-101 -269l-44 -112l-67 -167q67 20 153 33
q70 10 165 16l166 8q103 4 159 8v-16q-114 -51 -205 -180l-14 -4l8 18q4 10 5 20q1 12 -1 23q-6 31 -80 48q-61 13 -137 13q-78 0 -162 -10q-67 -8 -67 -10l-93 -234q-27 -64 -57 -125q-42 -86 -85 -153q-54 -84 -105 -135q-144 -142 -356 -280q-222 -144 -470 -251l-6 7
l-6 106q0 239 180 469l42 52l59 66q78 86 168 160q113 94 243 169q153 88 326 147l362 1020q-64 -133 -206 -329q-154 -212 -304 -361q-102 -104 -184 -158q-91 -59 -149 -51q-54 10 -54 123q0 43 12 110q8 53 24 119q11 46 25 94l11 39q41 140 103 319l56 159l55 147
l124 321q-55 12 -179 6q-136 -7 -218 -32q-146 -43 -216 -131q-57 -73 -57 -168q0 -75 31 -105q10 -10 21 -14q10 -3 10 -2q-50 -23 -117 -97q-57 -63 -57 -69q-18 201 59 350q66 128 238 273q88 75 207 100q48 10 104 13q40 2 98 1h30q36 0 72 4q50 4 91 14q51 13 86 33z
M1258 -573q-73 -5 -177 -27q11 22 35 93l23 67l68 10q10 1 13 2q7 1 12 1l87 14z" />
    <glyph glyph-name="agrave" unicode="&#xe0;" horiz-adv-x="817" 
d="M330 1233q2 19 7 34l15 43l5 38q56 -56 138 -120l149 -116q1 -1 6 -18q4 -16 4 -19l-243 120zM722 287q-39 -89 -143 -183q-115 -105 -201 -104q-52 1 -61 82q-7 64 14 177q8 44 20 94l21 83l24 80l-113 -153q-55 -73 -101 -128q-58 -68 -97 -104q-77 -69 -115 -96
q-52 -38 -80 -35q-29 4 -35 59q-1 10 -2 22v56q0 132 86 308q85 176 213 309q154 157 299 180q63 10 159 10l83 -2l-94 -297q-42 -141 -69 -246q-33 -130 -40 -196l-2 -24q-2 -17 -1 -27q3 -31 28 -31q24 0 62 35q31 28 68 77q27 36 54 78q23 34 23 35v-59zM169 303
q58 71 127 176q152 231 182 330q-128 14 -204 -24q-86 -43 -146 -167q-79 -146 -102 -293q-23 -150 44 -118q34 16 99 96z" />
    <glyph glyph-name="aacute" unicode="&#xe1;" horiz-adv-x="817" 
d="M722 287q-39 -89 -143 -183q-115 -105 -201 -104q-52 1 -61 82q-7 64 14 177q8 44 20 94l21 83l24 80l-113 -153q-55 -73 -101 -128q-58 -68 -97 -104q-77 -69 -115 -96q-52 -38 -80 -35q-29 4 -35 59q-1 10 -2 22v56q0 132 86 308q85 176 213 309q154 157 299 180
q63 10 159 10l83 -2l-94 -297q-42 -141 -69 -246q-33 -130 -40 -196l-2 -24q-2 -17 -1 -27q3 -31 28 -31q24 0 62 35q31 28 68 77q27 36 54 78q23 34 23 35v-59zM169 303q58 71 127 176q152 231 182 330q-128 14 -204 -24q-86 -43 -146 -167q-79 -146 -102 -293
q-23 -150 44 -118q34 16 99 96zM605 1262q17 -8 29 -16q5 -3 10 -7l26 -22q13 -9 33 -17q-69 -34 -158 -92l-157 -102q-3 -2 -20 0l-19 2l62 64l66 63l8 8q6 5 8 8q10 9 17 16z" />
    <glyph glyph-name="uni1EA3" unicode="&#x1ea3;" horiz-adv-x="817" 
d="M722 264q-39 -88 -143 -182q-115 -106 -201 -105q-52 1 -61 82q-7 65 14 177q8 45 20 95l21 82l24 81l-113 -154q-55 -73 -101 -127q-58 -69 -97 -104q-77 -69 -115 -97q-52 -37 -80 -35q-29 4 -35 59q-1 10 -2 22v57q0 131 86 308q85 176 213 308q154 157 299 180
q63 11 159 11l83 -2l-94 -298q-42 -141 -69 -245q-33 -131 -40 -197l-2 -24q-2 -16 -1 -27q3 -31 28 -31q24 0 62 36q31 28 68 77q27 35 54 77q23 34 23 36v-60zM169 280q58 72 127 177q152 230 182 329q-128 15 -204 -23q-86 -43 -146 -167q-79 -147 -102 -293
q-23 -150 44 -119q34 16 99 96zM586 1383q-23 -2 -41 -15q-14 -11 -26 -28q-8 -13 -13 -28q-4 -10 -4 -12h-22l18 80l12 5q53 23 74 26q26 4 49 4q62 0 100 -36q34 -27 35 -68q0 -37 -33 -70l-16 -16l-60 -50q-27 -26 -47 -53q-16 -22 -26 -44q-7 -16 -11 -30q-1 -5 -1 -8
l-1 -3q-6 -3 -17 -5l-21 -2q-28 -4 -36 -13q1 34 38 74q14 14 42 39q4 4 12 11l41 37q26 26 43 60q14 31 14 54q2 44 -20 67q-26 28 -84 24h1z" />
    <glyph glyph-name="atilde" unicode="&#xe3;" horiz-adv-x="825" 
d="M722 287q-39 -89 -143 -183q-115 -105 -201 -104q-52 1 -61 82q-7 64 14 177q8 44 20 94l21 83l24 80l-113 -153q-55 -73 -101 -128q-58 -68 -97 -104q-77 -69 -115 -96q-52 -38 -80 -35q-29 4 -35 59q-1 10 -2 22v56q0 132 86 308q85 176 213 309q154 157 299 180
q63 10 159 10l83 -2l-94 -297q-42 -141 -69 -246q-33 -130 -40 -196l-2 -24q-2 -17 -1 -27q3 -31 28 -31q24 0 62 35q31 28 68 77q27 36 54 78q23 34 23 35v-59zM169 303q58 71 127 176q152 231 182 330q-128 14 -204 -24q-86 -43 -146 -167q-79 -146 -102 -293
q-23 -150 44 -118q34 16 99 96zM265 1038q18 74 53 117q43 53 111 53q26 0 65 -18l37 -19l112 -63q39 -18 64 -18q58 0 90 75l43 33q-22 -73 -58 -117q-46 -57 -110 -57q-30 0 -72 18q-30 13 -77 40l-37 22q-21 12 -34 18q-37 19 -56 19q-66 0 -90 -70z" />
    <glyph glyph-name="uni1EA1" unicode="&#x1ea1;" horiz-adv-x="817" 
d="M722 264q-39 -88 -143 -182q-115 -106 -201 -105q-52 1 -61 82q-7 65 14 177q8 45 20 95l21 82l24 81l-113 -154q-55 -73 -101 -127q-58 -69 -97 -104q-77 -69 -115 -97q-52 -37 -80 -35q-29 4 -35 59q-1 10 -2 22v57q0 131 86 308q85 176 213 308q154 157 299 180
q63 11 159 11l83 -2l-94 -298q-42 -141 -69 -245q-33 -131 -40 -197l-2 -24q-2 -16 -1 -27q3 -31 28 -31q24 0 62 36q31 28 68 77q27 35 54 77q23 34 23 36v-60zM169 280q58 72 127 177q152 230 182 329q-128 15 -204 -23q-86 -43 -146 -167q-79 -147 -102 -293
q-23 -150 44 -119q34 16 99 96zM212 -242q-73 -5 -176 -27q10 22 35 93l22 67l69 10q9 1 12 2q7 1 12 1l87 14z" />
    <glyph glyph-name="acircumflex" unicode="&#xe2;" horiz-adv-x="817" 
d="M552 1253q-72 -95 -144 -225l-55 -12l100 146q59 88 88 145l26 21q17 14 26 26q32 -138 100 -324q-33 -12 -57 -31q-23 81 -47 151zM722 287q-39 -89 -143 -183q-115 -105 -201 -104q-52 1 -61 82q-7 64 14 177q8 44 20 94l21 83l24 80l-113 -153q-55 -73 -101 -128
q-58 -68 -97 -104q-77 -69 -115 -96q-52 -38 -80 -35q-29 4 -35 59q-1 10 -2 22v56q0 132 86 308q85 176 213 309q154 157 299 180q63 10 159 10l83 -2l-94 -297q-42 -141 -69 -246q-33 -130 -40 -196l-2 -24q-2 -17 -1 -27q3 -31 28 -31q24 0 62 35q31 28 68 77
q27 36 54 78q23 34 23 35v-59zM169 303q58 71 127 176q152 231 182 330q-128 14 -204 -24q-86 -43 -146 -167q-79 -146 -102 -293q-23 -150 44 -118q34 16 99 96z" />
    <glyph glyph-name="uni1EA7" unicode="&#x1ea7;" horiz-adv-x="817" 
d="M552 1253q-72 -95 -144 -225l-55 -12l100 146q59 88 88 145l26 21q17 14 26 26q32 -138 100 -324q-33 -12 -57 -31q-23 81 -47 151zM722 287q-39 -89 -143 -183q-115 -105 -201 -104q-52 1 -61 82q-7 64 14 177q8 44 20 94l21 83l24 80l-113 -153q-55 -73 -101 -128
q-58 -68 -97 -104q-77 -69 -115 -96q-52 -38 -80 -35q-29 4 -35 59q-1 10 -2 22v56q0 132 86 308q85 176 213 309q154 157 299 180q63 10 159 10l83 -2l-94 -297q-42 -141 -69 -246q-33 -130 -40 -196l-2 -24q-2 -17 -1 -27q3 -31 28 -31q24 0 62 35q31 28 68 77
q27 36 54 78q23 34 23 35v-59zM169 303q58 71 127 176q152 231 182 330q-128 14 -204 -24q-86 -43 -146 -167q-79 -146 -102 -293q-23 -150 44 -118q34 16 99 96zM420 1484q2 19 7 34l15 43l5 38q56 -56 138 -120l149 -116q1 -1 6 -18q4 -16 4 -19l-243 120z" />
    <glyph glyph-name="uni1EA5" unicode="&#x1ea5;" horiz-adv-x="817" 
d="M552 1253q-72 -95 -144 -225l-55 -12l100 146q59 88 88 145l26 21q17 14 26 26q32 -138 100 -324q-33 -12 -57 -31q-23 81 -47 151zM722 287q-39 -89 -143 -183q-115 -105 -201 -104q-52 1 -61 82q-7 64 14 177q8 44 20 94l21 83l24 80l-113 -153q-55 -73 -101 -128
q-58 -68 -97 -104q-77 -69 -115 -96q-52 -38 -80 -35q-29 4 -35 59q-1 10 -2 22v56q0 132 86 308q85 176 213 309q154 157 299 180q63 10 159 10l83 -2l-94 -297q-42 -141 -69 -246q-33 -130 -40 -196l-2 -24q-2 -17 -1 -27q3 -31 28 -31q24 0 62 35q31 28 68 77
q27 36 54 78q23 34 23 35v-59zM169 303q58 71 127 176q152 231 182 330q-128 14 -204 -24q-86 -43 -146 -167q-79 -146 -102 -293q-23 -150 44 -118q34 16 99 96zM926 1471q17 -8 29 -16q5 -3 10 -7l26 -22q13 -9 33 -17q-69 -34 -158 -92l-157 -102q-3 -2 -20 0l-19 2
l62 64l66 63l8 8q6 5 8 8q10 9 17 16z" />
    <glyph glyph-name="uni1EA9" unicode="&#x1ea9;" horiz-adv-x="817" 
d="M552 1253q-72 -95 -144 -225l-55 -12l100 146q59 88 88 145l26 21q17 14 26 26q32 -138 100 -324q-33 -12 -57 -31q-23 81 -47 151zM722 287q-39 -89 -143 -183q-115 -105 -201 -104q-52 1 -61 82q-7 64 14 177q8 44 20 94l21 83l24 80l-113 -153q-55 -73 -101 -128
q-58 -68 -97 -104q-77 -69 -115 -96q-52 -38 -80 -35q-29 4 -35 59q-1 10 -2 22v56q0 132 86 308q85 176 213 309q154 157 299 180q63 10 159 10l83 -2l-94 -297q-42 -141 -69 -246q-33 -130 -40 -196l-2 -24q-2 -17 -1 -27q3 -31 28 -31q24 0 62 35q31 28 68 77
q27 36 54 78q23 34 23 35v-59zM169 303q58 71 127 176q152 231 182 330q-128 14 -204 -24q-86 -43 -146 -167q-79 -146 -102 -293q-23 -150 44 -118q34 16 99 96zM757 1564q-22 -2 -40 -15q-15 -11 -26 -28q-8 -13 -14 -28q-4 -10 -4 -12h-22l19 80l11 5q54 23 74 26
q26 4 50 4q61 0 99 -36q35 -27 35 -68q1 -37 -32 -70q-7 -7 -17 -16l-59 -50q-28 -26 -48 -53q-15 -22 -25 -44q-8 -16 -11 -30q-1 -5 -2 -8v-3q-6 -3 -18 -5l-21 -2q-27 -4 -36 -13q1 34 38 74q14 14 42 39q4 4 13 11l40 37q27 26 43 60q15 31 15 54q1 44 -21 67
q-26 28 -84 24h1z" />
    <glyph glyph-name="uni1EAB" unicode="&#x1eab;" horiz-adv-x="817" 
d="M552 1253q-72 -95 -144 -225l-55 -12l100 146q59 88 88 145l26 21q17 14 26 26q32 -138 100 -324q-33 -12 -57 -31q-23 81 -47 151zM722 287q-39 -89 -143 -183q-115 -105 -201 -104q-52 1 -61 82q-7 64 14 177q8 44 20 94l21 83l24 80l-113 -153q-55 -73 -101 -128
q-58 -68 -97 -104q-77 -69 -115 -96q-52 -38 -80 -35q-29 4 -35 59q-1 10 -2 22v56q0 132 86 308q85 176 213 309q154 157 299 180q63 10 159 10l83 -2l-94 -297q-42 -141 -69 -246q-33 -130 -40 -196l-2 -24q-2 -17 -1 -27q3 -31 28 -31q24 0 62 35q31 28 68 77
q27 36 54 78q23 34 23 35v-59zM169 303q58 71 127 176q152 231 182 330q-128 14 -204 -24q-86 -43 -146 -167q-79 -146 -102 -293q-23 -150 44 -118q34 16 99 96zM356 1330q18 74 53 117q43 53 111 53q26 0 65 -18l37 -19l112 -63q39 -18 64 -18q58 0 90 75l43 33
q-22 -73 -58 -117q-46 -57 -110 -57q-30 0 -72 18q-30 13 -77 40l-37 22q-21 12 -34 18q-37 19 -56 19q-66 0 -90 -70z" />
    <glyph glyph-name="uni1EAD" unicode="&#x1ead;" horiz-adv-x="817" 
d="M552 1253q-72 -95 -144 -225l-55 -12l100 146q59 88 88 145l26 21q17 14 26 26q32 -138 100 -324q-33 -12 -57 -31q-23 81 -47 151zM722 287q-39 -89 -143 -183q-115 -105 -201 -104q-52 1 -61 82q-7 64 14 177q8 44 20 94l21 83l24 80l-113 -153q-55 -73 -101 -128
q-58 -68 -97 -104q-77 -69 -115 -96q-52 -38 -80 -35q-29 4 -35 59q-1 10 -2 22v56q0 132 86 308q85 176 213 309q154 157 299 180q63 10 159 10l83 -2l-94 -297q-42 -141 -69 -246q-33 -130 -40 -196l-2 -24q-2 -17 -1 -27q3 -31 28 -31q24 0 62 35q31 28 68 77
q27 36 54 78q23 34 23 35v-59zM169 303q58 71 127 176q152 231 182 330q-128 14 -204 -24q-86 -43 -146 -167q-79 -146 -102 -293q-23 -150 44 -118q34 16 99 96zM213 -242q-72 -5 -176 -27q11 22 35 93l23 67l68 10q10 1 12 2q7 1 13 1l87 14z" />
    <glyph glyph-name="abreve" unicode="&#x103;" horiz-adv-x="817" 
d="M722 287q-39 -89 -143 -183q-115 -105 -201 -104q-52 1 -61 82q-7 64 14 177q8 44 20 94l21 83l24 80l-113 -153q-55 -73 -101 -128q-58 -68 -97 -104q-77 -69 -115 -96q-52 -38 -80 -35q-29 4 -35 59q-1 10 -2 22v56q0 132 86 308q85 176 213 309q154 157 299 180
q63 10 159 10l83 -2l-94 -297q-42 -141 -69 -246q-33 -130 -40 -196l-2 -24q-2 -17 -1 -27q3 -31 28 -31q24 0 62 35q31 28 68 77q27 36 54 78q23 34 23 35v-59zM169 303q58 71 127 176q152 231 182 330q-128 14 -204 -24q-86 -43 -146 -167q-79 -146 -102 -293
q-23 -150 44 -118q34 16 99 96zM590 1040q-76 -38 -123 22q-44 53 -73 168q37 15 59 28q10 -46 36 -95q37 -79 128 -27q71 45 158 138l62 10q-179 -211 -247 -244z" />
    <glyph glyph-name="uni1EB1" unicode="&#x1eb1;" horiz-adv-x="817" 
d="M722 287q-39 -89 -143 -183q-115 -105 -201 -104q-52 1 -61 82q-7 64 14 177q8 44 20 94l21 83l24 80l-113 -153q-55 -73 -101 -128q-58 -68 -97 -104q-77 -69 -115 -96q-52 -38 -80 -35q-29 4 -35 59q-1 10 -2 22v56q0 132 86 308q85 176 213 309q154 157 299 180
q63 10 159 10l83 -2l-94 -297q-42 -141 -69 -246q-33 -130 -40 -196l-2 -24q-2 -17 -1 -27q3 -31 28 -31q24 0 62 35q31 28 68 77q27 36 54 78q23 34 23 35v-59zM169 303q58 71 127 176q152 231 182 330q-128 14 -204 -24q-86 -43 -146 -167q-79 -146 -102 -293
q-23 -150 44 -118q34 16 99 96zM379 1439q2 19 7 34l15 43l5 38q56 -56 138 -120l149 -116q1 -1 6 -18q4 -16 4 -19l-243 120zM590 1040q-76 -38 -123 22q-44 53 -73 168q37 15 59 28q10 -46 36 -95q37 -79 128 -27q71 45 158 138l62 10q-179 -211 -247 -244z" />
    <glyph glyph-name="uni1EAF" unicode="&#x1eaf;" horiz-adv-x="817" 
d="M722 287q-39 -89 -143 -183q-115 -105 -201 -104q-52 1 -61 82q-7 64 14 177q8 44 20 94l21 83l24 80l-113 -153q-55 -73 -101 -128q-58 -68 -97 -104q-77 -69 -115 -96q-52 -38 -80 -35q-29 4 -35 59q-1 10 -2 22v56q0 132 86 308q85 176 213 309q154 157 299 180
q63 10 159 10l83 -2l-94 -297q-42 -141 -69 -246q-33 -130 -40 -196l-2 -24q-2 -17 -1 -27q3 -31 28 -31q24 0 62 35q31 28 68 77q27 36 54 78q23 34 23 35v-59zM169 303q58 71 127 176q152 231 182 330q-128 14 -204 -24q-86 -43 -146 -167q-79 -146 -102 -293
q-23 -150 44 -118q34 16 99 96zM813 1471q17 -8 29 -16q5 -3 10 -7l26 -22q13 -9 33 -17q-69 -34 -158 -92l-157 -102q-3 -2 -20 0l-19 2l62 64l66 63l8 8q6 5 8 8q10 9 17 16zM590 1040q-76 -38 -123 22q-44 53 -73 168q37 15 59 28q10 -46 36 -95q37 -79 128 -27
q71 45 158 138l62 10q-179 -211 -247 -244z" />
    <glyph glyph-name="uni1EB3" unicode="&#x1eb3;" horiz-adv-x="817" 
d="M722 287q-39 -89 -143 -183q-115 -105 -201 -104q-52 1 -61 82q-7 64 14 177q8 44 20 94l21 83l24 80l-113 -153q-55 -73 -101 -128q-58 -68 -97 -104q-77 -69 -115 -96q-52 -38 -80 -35q-29 4 -35 59q-1 10 -2 22v56q0 132 86 308q85 176 213 309q154 157 299 180
q63 10 159 10l83 -2l-94 -297q-42 -141 -69 -246q-33 -130 -40 -196l-2 -24q-2 -17 -1 -27q3 -31 28 -31q24 0 62 35q31 28 68 77q27 36 54 78q23 34 23 35v-59zM169 303q58 71 127 176q152 231 182 330q-128 14 -204 -24q-86 -43 -146 -167q-79 -146 -102 -293
q-23 -150 44 -118q34 16 99 96zM651 1564q-22 -2 -40 -15q-15 -11 -26 -28q-8 -13 -14 -28q-4 -10 -4 -12h-22l19 80l11 5q54 23 74 26q26 4 50 4q61 0 99 -36q35 -27 35 -68q1 -37 -32 -70q-7 -7 -17 -16l-59 -50q-28 -26 -48 -53q-15 -22 -25 -44q-8 -16 -11 -30
q-1 -5 -2 -8v-3q-6 -3 -18 -5l-21 -2q-27 -4 -36 -13q1 34 38 74q14 14 42 39q4 4 13 11l40 37q27 26 43 60q15 31 15 54q1 44 -21 67q-26 28 -84 24h1zM590 1040q-76 -38 -123 22q-44 53 -73 168q37 15 59 28q10 -46 36 -95q37 -79 128 -27q71 45 158 138l62 10
q-179 -211 -247 -244z" />
    <glyph glyph-name="uni1EB5" unicode="&#x1eb5;" horiz-adv-x="817" 
d="M722 287q-39 -89 -143 -183q-115 -105 -201 -104q-52 1 -61 82q-7 64 14 177q8 44 20 94l21 83l24 80l-113 -153q-55 -73 -101 -128q-58 -68 -97 -104q-77 -69 -115 -96q-52 -38 -80 -35q-29 4 -35 59q-1 10 -2 22v56q0 132 86 308q85 176 213 309q154 157 299 180
q63 10 159 10l83 -2l-94 -297q-42 -141 -69 -246q-33 -130 -40 -196l-2 -24q-2 -17 -1 -27q3 -31 28 -31q24 0 62 35q31 28 68 77q27 36 54 78q23 34 23 35v-59zM169 303q58 71 127 176q152 231 182 330q-128 14 -204 -24q-86 -43 -146 -167q-79 -146 -102 -293
q-23 -150 44 -118q34 16 99 96zM389 1330q18 74 53 117q43 53 111 53q26 0 65 -18l37 -19l112 -63q39 -18 64 -18q58 0 90 75l43 33q-22 -73 -58 -117q-46 -57 -110 -57q-30 0 -72 18q-30 13 -77 40l-37 22q-21 12 -34 18q-37 19 -56 19q-66 0 -90 -70zM590 1040
q-76 -38 -123 22q-44 53 -73 168q37 15 59 28q10 -46 36 -95q37 -79 128 -27q71 45 158 138l62 10q-179 -211 -247 -244z" />
    <glyph glyph-name="uni1EB7" unicode="&#x1eb7;" horiz-adv-x="817" 
d="M722 287q-39 -89 -143 -183q-115 -105 -201 -104q-52 1 -61 82q-7 64 14 177q8 44 20 94l21 83l24 80l-113 -153q-55 -73 -101 -128q-58 -68 -97 -104q-77 -69 -115 -96q-52 -38 -80 -35q-29 4 -35 59q-1 10 -2 22v56q0 132 86 308q85 176 213 309q154 157 299 180
q63 10 159 10l83 -2l-94 -297q-42 -141 -69 -246q-33 -130 -40 -196l-2 -24q-2 -17 -1 -27q3 -31 28 -31q24 0 62 35q31 28 68 77q27 36 54 78q23 34 23 35v-59zM169 303q58 71 127 176q152 231 182 330q-128 14 -204 -24q-86 -43 -146 -167q-79 -146 -102 -293
q-23 -150 44 -118q34 16 99 96zM213 -242q-72 -5 -176 -27q11 22 35 93l23 67l68 10q10 1 12 2q7 1 13 1l87 14zM590 1040q-76 -38 -123 22q-44 53 -73 168q37 15 59 28q10 -46 36 -95q37 -79 128 -27q71 45 158 138l62 10q-179 -211 -247 -244z" />
    <glyph glyph-name="egrave" unicode="&#xe8;" horiz-adv-x="745" 
d="M316 1311q27 -35 63 -74l106 -105l37 -35l73 -75q1 -1 -5 -30l-6 -34l-74 50l-150 105l-75 48q19 75 31 150zM281 525q78 39 131 91q86 83 86 177q0 43 -38 43q-62 0 -140 -78q-137 -137 -176 -285q69 17 137 52zM-17 502q78 171 190 246l91 57q58 34 112 60
q138 67 217 67q82 0 82 -68q0 -116 -140 -241q-45 -43 -121 -94q-61 -42 -139 -88l-113 -64l-47 -25l-2 -6q-3 -9 -6 -21q-8 -38 -8 -96q0 -54 25 -97q31 -53 86 -54q106 0 229 123q41 39 91 106q42 57 42 60q-8 -36 -18 -70l-18 -54l-17 -46q-237 -221 -426 -226
q-166 -6 -182 213q-5 150 72 318z" />
    <glyph glyph-name="eacute" unicode="&#xe9;" horiz-adv-x="745" 
d="M578 1190q17 -9 29 -18q4 -3 9 -8l7 -7q10 -10 18 -16l32 -19q-73 -29 -164 -80l-79 -45l-85 -47q-3 -1 -20 2l-19 2l67 60l69 59zM281 525q78 39 131 91q86 83 86 177q0 43 -38 43q-62 0 -140 -78q-137 -137 -176 -285q69 17 137 52zM-17 502q78 171 190 246l91 57
q58 34 112 60q138 67 217 67q82 0 82 -68q0 -116 -140 -241q-45 -43 -121 -94q-61 -42 -139 -88l-113 -64l-47 -25l-2 -6q-3 -9 -6 -21q-8 -38 -8 -96q0 -54 25 -97q31 -53 86 -54q106 0 229 123q41 39 91 106q42 57 42 60q-8 -36 -18 -70l-18 -54l-17 -46
q-237 -221 -426 -226q-166 -6 -182 213q-5 150 72 318z" />
    <glyph glyph-name="uni1EBB" unicode="&#x1ebb;" horiz-adv-x="745" 
d="M281 527q78 40 131 91q86 83 86 177q0 43 -38 43q-62 0 -140 -78q-137 -137 -176 -285q69 17 137 52zM-17 504q78 171 190 246q43 29 91 57q58 34 112 60q138 67 217 67q82 0 82 -68q0 -116 -140 -241q-45 -43 -121 -94q-61 -42 -139 -88l-113 -64l-47 -25l-2 -6
q-3 -9 -6 -21q-8 -38 -8 -96q0 -54 25 -97q31 -53 86 -54q106 0 229 123q41 39 91 107q42 56 42 59q-8 -36 -18 -70l-18 -54l-17 -46q-237 -221 -426 -226q-166 -6 -182 213q-5 150 72 318zM561 1383q-23 -2 -41 -15q-15 -11 -26 -28q-8 -13 -13 -28q-4 -10 -4 -12h-22
l18 80l12 5q53 23 74 26q25 4 49 4q62 0 100 -36q34 -27 35 -68q0 -37 -33 -70l-16 -16l-60 -50q-27 -26 -47 -53q-16 -22 -26 -44q-7 -16 -11 -30q-1 -5 -1 -8l-1 -3q-6 -3 -17 -5l-21 -2q-28 -4 -36 -13q1 34 38 74q14 14 42 39q3 4 12 11l41 37q26 26 42 60q15 31 15 54
q1 44 -20 67q-26 28 -84 24h1z" />
    <glyph glyph-name="uni1EBD" unicode="&#x1ebd;" horiz-adv-x="745" 
d="M281 527q78 40 131 91q86 83 86 177q0 43 -38 43q-62 0 -140 -78q-137 -137 -176 -285q69 17 137 52zM-17 504q78 171 190 246q43 29 91 57q58 34 112 60q138 67 217 67q82 0 82 -68q0 -116 -140 -241q-45 -43 -121 -94q-61 -42 -139 -88l-113 -64l-47 -25l-2 -6
q-3 -9 -6 -21q-8 -38 -8 -96q0 -54 25 -97q31 -53 86 -54q106 0 229 123q41 39 91 107q42 56 42 59q-8 -36 -18 -70l-18 -54l-17 -46q-237 -221 -426 -226q-166 -6 -182 213q-5 150 72 318zM270 1038q18 74 52 117q44 53 112 53q26 0 65 -18l37 -19l112 -63q39 -18 64 -18
q58 0 90 75l43 33q-22 -73 -58 -117q-46 -57 -110 -57q-30 0 -73 18q-29 13 -76 40l-37 22q-21 12 -35 18q-36 19 -55 19q-66 0 -90 -70z" />
    <glyph glyph-name="uni1EB9" unicode="&#x1eb9;" horiz-adv-x="745" 
d="M281 527q78 40 131 91q86 83 86 177q0 43 -38 43q-62 0 -140 -78q-137 -137 -176 -285q69 17 137 52zM-17 504q78 171 190 246q43 29 91 57q58 34 112 60q138 67 217 67q82 0 82 -68q0 -116 -140 -241q-45 -43 -121 -94q-61 -42 -139 -88l-113 -64l-47 -25l-2 -6
q-3 -9 -6 -21q-8 -38 -8 -96q0 -54 25 -97q31 -53 86 -54q106 0 229 123q41 39 91 107q42 56 42 59q-8 -36 -18 -70l-18 -54l-17 -46q-237 -221 -426 -226q-166 -6 -182 213q-5 150 72 318zM218 -242q-72 -5 -176 -27q10 22 35 93l23 67l68 10q10 1 12 2q7 1 13 1l87 14z
" />
    <glyph glyph-name="ecircumflex" unicode="&#xea;" horiz-adv-x="745" 
d="M512 1260q-77 -103 -146 -224l-53 -12l100 144q56 86 89 145l39 33l12 14q26 -125 98 -324q-26 -7 -57 -30q-21 81 -45 150zM281 525q78 39 131 91q86 83 86 177q0 43 -38 43q-62 0 -140 -78q-137 -137 -176 -285q69 17 137 52zM-17 502q78 171 190 246l91 57
q58 34 112 60q138 67 217 67q82 0 82 -68q0 -116 -140 -241q-45 -43 -121 -94q-61 -42 -139 -88l-113 -64l-47 -25l-2 -6q-3 -9 -6 -21q-8 -38 -8 -96q0 -54 25 -97q31 -53 86 -54q106 0 229 123q41 39 91 106q42 57 42 60q-8 -36 -18 -70l-18 -54l-17 -46
q-237 -221 -426 -226q-166 -6 -182 213q-5 150 72 318z" />
    <glyph glyph-name="uni1EC1" unicode="&#x1ec1;" horiz-adv-x="745" 
d="M417 1673q27 -35 63 -74l106 -105l37 -35l73 -75q1 -1 -5 -30l-6 -34l-74 50l-150 105l-75 48q19 75 31 150zM281 525q78 39 131 91q86 83 86 177q0 43 -38 43q-62 0 -140 -78q-137 -137 -176 -285q69 17 137 52zM-17 502q78 171 190 246l91 57q58 34 112 60
q138 67 217 67q82 0 82 -68q0 -116 -140 -241q-45 -43 -121 -94q-61 -42 -139 -88l-113 -64l-47 -25l-2 -6q-3 -9 -6 -21q-8 -38 -8 -96q0 -54 25 -97q31 -53 86 -54q106 0 229 123q41 39 91 106q42 57 42 60q-8 -36 -18 -70l-18 -54l-17 -46q-237 -221 -426 -226
q-166 -6 -182 213q-5 150 72 318zM512 1260q-77 -103 -146 -224l-53 -12l100 144q56 86 89 145l39 33l12 14q26 -125 98 -324q-26 -7 -57 -30q-21 81 -45 150z" />
    <glyph glyph-name="uni1EBF" unicode="&#x1ebf;" horiz-adv-x="745" 
d="M909 1461q17 -9 29 -18q4 -3 9 -8l7 -7q10 -10 18 -16l32 -19q-73 -29 -164 -80l-79 -45l-85 -47q-3 -1 -20 2l-19 2l67 60l69 59zM281 525q78 39 131 91q86 83 86 177q0 43 -38 43q-62 0 -140 -78q-137 -137 -176 -285q69 17 137 52zM-17 502q78 171 190 246l91 57
q58 34 112 60q138 67 217 67q82 0 82 -68q0 -116 -140 -241q-45 -43 -121 -94q-61 -42 -139 -88l-113 -64l-47 -25l-2 -6q-3 -9 -6 -21q-8 -38 -8 -96q0 -54 25 -97q31 -53 86 -54q106 0 229 123q41 39 91 106q42 57 42 60q-8 -36 -18 -70l-18 -54l-17 -46
q-237 -221 -426 -226q-166 -6 -182 213q-5 150 72 318zM512 1260q-77 -103 -146 -224l-53 -12l100 144q56 86 89 145l39 33l12 14q26 -125 98 -324q-26 -7 -57 -30q-21 81 -45 150z" />
    <glyph glyph-name="uni1EC3" unicode="&#x1ec3;" horiz-adv-x="745" 
d="M281 527q78 40 131 91q86 83 86 177q0 43 -38 43q-62 0 -140 -78q-137 -137 -176 -285q69 17 137 52zM-17 504q78 171 190 246q43 29 91 57q58 34 112 60q138 67 217 67q82 0 82 -68q0 -116 -140 -241q-45 -43 -121 -94q-61 -42 -139 -88l-113 -64l-47 -25l-2 -6
q-3 -9 -6 -21q-8 -38 -8 -96q0 -54 25 -97q31 -53 86 -54q106 0 229 123q41 39 91 107q42 56 42 59q-8 -36 -18 -70l-18 -54l-17 -46q-237 -221 -426 -226q-166 -6 -182 213q-5 150 72 318zM721 1584q-23 -2 -41 -15q-15 -11 -26 -28q-8 -13 -13 -28q-4 -10 -4 -12h-22
l18 80l12 5q53 23 74 26q25 4 49 4q62 0 100 -36q34 -27 35 -68q0 -37 -33 -70l-16 -16l-60 -50q-27 -26 -47 -53q-16 -22 -26 -44q-7 -16 -11 -30q-1 -5 -1 -8l-1 -3q-6 -3 -17 -5l-21 -2q-28 -4 -36 -13q1 34 38 74q14 14 42 39q3 4 12 11l41 37q26 26 42 60q15 31 15 54
q1 44 -20 67q-26 28 -84 24h1zM517 1260q-77 -103 -146 -224l-53 -12l100 144q56 86 89 145l38 33q8 8 13 14q25 -125 98 -324q-26 -7 -57 -30q-22 81 -45 150z" />
    <glyph glyph-name="uni1EC5" unicode="&#x1ec5;" horiz-adv-x="745" 
d="M281 527q78 40 131 91q86 83 86 177q0 43 -38 43q-62 0 -140 -78q-137 -137 -176 -285q69 17 137 52zM-17 504q78 171 190 246q43 29 91 57q58 34 112 60q138 67 217 67q82 0 82 -68q0 -116 -140 -241q-45 -43 -121 -94q-61 -42 -139 -88l-113 -64l-47 -25l-2 -6
q-3 -9 -6 -21q-8 -38 -8 -96q0 -54 25 -97q31 -53 86 -54q106 0 229 123q41 39 91 107q42 56 42 59q-8 -36 -18 -70l-18 -54l-17 -46q-237 -221 -426 -226q-166 -6 -182 213q-5 150 72 318zM350 1329q18 74 52 117q44 53 112 53q26 0 65 -18l37 -19l112 -63q39 -18 64 -18
q58 0 90 75l43 33q-22 -73 -58 -117q-46 -57 -110 -57q-30 0 -73 18q-29 13 -76 40l-37 22q-21 12 -35 18q-36 19 -55 19q-66 0 -90 -70zM517 1260q-77 -103 -146 -224l-53 -12l100 144q56 86 89 145l38 33q8 8 13 14q25 -125 98 -324q-26 -7 -57 -30q-22 81 -45 150z" />
    <glyph glyph-name="uni1EC7" unicode="&#x1ec7;" horiz-adv-x="745" 
d="M281 527q78 40 131 91q86 83 86 177q0 43 -38 43q-62 0 -140 -78q-137 -137 -176 -285q69 17 137 52zM-17 504q78 171 190 246q43 29 91 57q58 34 112 60q138 67 217 67q82 0 82 -68q0 -116 -140 -241q-45 -43 -121 -94q-61 -42 -139 -88l-113 -64l-47 -25l-2 -6
q-3 -9 -6 -21q-8 -38 -8 -96q0 -54 25 -97q31 -53 86 -54q106 0 229 123q41 39 91 107q42 56 42 59q-8 -36 -18 -70l-18 -54l-17 -46q-237 -221 -426 -226q-166 -6 -182 213q-5 150 72 318zM218 -242q-72 -5 -176 -27q10 22 35 93l23 67l68 10q10 1 12 2q7 1 13 1l87 14z
M517 1260q-77 -103 -146 -224l-53 -12l100 144q56 86 89 145l38 33q8 8 13 14q25 -125 98 -324q-26 -7 -57 -30q-22 81 -45 150z" />
    <glyph glyph-name="igrave" unicode="&#xec;" horiz-adv-x="448" 
d="M101 1206q5 19 12 32l23 41q6 15 12 36q25 -37 68 -91l78 -93l91 -103l2 -39zM17 813q0 2 66 34q79 39 141 62q200 77 159 -22l-220 -555l-50 -127q-50 -134 38 -75q29 20 83 69l43 39l20 18q11 10 19 16l-11 -63l-30 -29l-44 -38l-67 -58q-149 -126 -231 -92
q-31 14 -31 65q1 54 28 141q23 71 67 179l86 202l45 105q24 57 42 104q28 69 -92 11q-33 -16 -73 -39l-33 -21z" />
    <glyph glyph-name="iacute" unicode="&#xed;" horiz-adv-x="438" 
d="M375 1241q18 -9 29 -18l9 -7l8 -8q10 -10 18 -16q12 -9 32 -18q-72 -30 -165 -81l-79 -45l-85 -47q-2 -1 -18 2l-21 3q28 26 67 59l35 30l104 88zM17 813q0 2 66 34q79 39 141 62q200 77 159 -22l-220 -555l-50 -127q-50 -134 38 -75q29 20 83 69l43 39l20 18
q11 10 19 16l-11 -63l-30 -29l-44 -38l-67 -58q-149 -126 -231 -92q-31 14 -31 65q1 54 28 141q23 71 67 179l86 202l45 105q24 57 42 104q28 69 -92 11q-33 -16 -73 -39l-33 -21z" />
    <glyph glyph-name="uni1EC9" unicode="&#x1ec9;" horiz-adv-x="462" 
d="M-12 762l22 14l24 16l32 20l164 93q86 43 123 43q38 0 26 -49l-41 -112l-221 -564q-38 -102 -6 -102q15 -1 49 25q27 20 65 56q27 26 56 57l24 26l-6 -82l-21 -21l-56 -51q-39 -34 -74 -60q-44 -34 -78 -53q-71 -40 -127 -43q-41 0 -41 52q1 42 24 125q21 70 60 177
q29 80 79 205l83 209q17 43 -8 43q-17 0 -48 -15q-25 -12 -59 -34l-28 -18l-44 -31zM336 1383q-22 -2 -41 -15q-14 -11 -25 -28q-8 -13 -14 -28q-4 -10 -4 -12h-22l19 80l11 5q53 23 74 26q26 4 50 4q61 0 99 -36q35 -27 35 -68q1 -37 -33 -70q-6 -7 -16 -16l-59 -50
q-28 -26 -48 -53q-16 -22 -26 -44q-7 -16 -10 -30q-1 -5 -2 -8v-3q-6 -3 -18 -5l-21 -2q-27 -4 -36 -13q1 34 38 74q14 14 42 39q4 4 13 11l40 37q27 26 43 60q15 31 15 54q1 44 -21 67q-26 28 -84 24h1z" />
    <glyph glyph-name="itilde" unicode="&#x129;" horiz-adv-x="462" 
d="M-12 762l22 14l24 16l32 20l164 93q86 43 123 43q38 0 26 -49l-41 -112l-221 -564q-38 -102 -6 -102q15 -1 49 25q27 20 65 56q27 26 56 57l24 26l-6 -82l-21 -21l-56 -51q-39 -34 -74 -60q-44 -34 -78 -53q-71 -40 -127 -43q-41 0 -41 52q1 42 24 125q21 70 60 177
q29 80 79 205l83 209q17 43 -8 43q-17 0 -48 -15q-25 -12 -59 -34l-28 -18l-44 -31zM64 1038q18 74 53 117q44 53 111 53q26 0 66 -18l36 -19l112 -63q39 -18 65 -18q58 0 90 75l43 33q-23 -73 -58 -117q-46 -57 -110 -57q-31 0 -73 18q-29 13 -77 40l-37 22q-20 12 -34 18
q-36 19 -56 19q-66 0 -90 -70z" />
    <glyph glyph-name="uni1ECB" unicode="&#x1ecb;" horiz-adv-x="462" 
d="M495 1341q-44 -60 -95 -157l-93 -170l-53 -23q15 40 38 156q19 101 19 108zM-13 762l22 14l25 16l31 20l164 93q86 43 123 43q39 0 27 -49l-42 -112l-221 -564q-37 -102 -6 -102q16 -1 50 25q27 20 65 56l56 57l24 26l-6 -82l-22 -21l-55 -51q-40 -34 -74 -60
q-44 -34 -79 -53q-71 -40 -127 -43q-41 0 -41 52q1 42 25 125q20 70 59 177l79 205l83 209q17 43 -8 43q-16 0 -48 -15q-25 -12 -59 -34q-13 -8 -27 -18l-44 -31zM-8 -242q-73 -5 -176 -27q10 22 35 93l22 67l69 10q9 1 12 2q7 1 13 1l87 14z" />
    <glyph glyph-name="ograve" unicode="&#xf2;" horiz-adv-x="663" 
d="M609 999l-79 41l-239 129q2 19 7 33l4 11l5 10q5 12 8 22q4 15 5 37q55 -57 135 -124l146 -122q1 -1 4 -17zM491 341q-106 -171 -279 -275l-91 -56q-63 -35 -94 -35q-76 0 -111 86q-26 62 -26 150q0 220 141 412q130 178 338 280q115 57 177 -8q55 -57 55 -180
q0 -195 -110 -374zM373 797q-55 38 -134 -23q-80 -63 -134 -190q-61 -143 -61 -308q0 -96 60 -134q58 -36 133 3q82 41 134 150q61 126 62 309q0 150 -60 193z" />
    <glyph glyph-name="oacute" unicode="&#xf3;" horiz-adv-x="655" 
d="M-84 61q-26 62 -26 150q0 220 141 412q130 178 338 280q115 57 177 -8q55 -57 55 -180q0 -195 -110 -374q-106 -171 -279 -275l-91 -56q-63 -35 -94 -35q-76 0 -111 86zM104 142q58 -36 133 3q82 41 134 150q61 126 62 309q0 150 -60 193q-55 38 -134 -23
q-80 -63 -134 -190q-61 -143 -61 -308q0 -96 60 -134zM486 1251q18 -8 29 -17l9 -8l8 -8q9 -9 18 -15q12 -10 32 -19q-41 -17 -102 -48q-49 -24 -108 -57l-120 -67l-38 4l104 88l90 78z" />
    <glyph glyph-name="uni1ECF" unicode="&#x1ecf;" horiz-adv-x="655" 
d="M-84 61q-26 62 -26 150q0 220 141 412q130 178 338 280q115 57 177 -8q55 -57 55 -180q0 -195 -110 -374q-106 -171 -279 -275l-91 -56q-63 -35 -94 -35q-76 0 -111 86zM104 142q58 -36 133 3q82 41 134 150q61 126 62 309q0 150 -60 193q-55 38 -134 -23
q-80 -63 -134 -190q-61 -143 -61 -308q0 -96 60 -134zM466 1383q-23 -2 -41 -15q-14 -11 -26 -28q-8 -13 -13 -28q-4 -10 -4 -12h-22l18 80l12 5q53 23 74 26q26 4 49 4q62 0 100 -36q34 -27 35 -68q0 -37 -33 -70l-16 -16l-60 -50q-27 -26 -47 -53q-16 -22 -26 -44
q-7 -16 -11 -30q-1 -5 -1 -8l-1 -3q-6 -3 -17 -5l-21 -2q-28 -4 -36 -13q1 34 38 74q14 14 42 39q4 4 12 11l41 37q26 26 43 60q14 31 14 54q2 44 -20 67q-26 28 -84 24h1z" />
    <glyph glyph-name="otilde" unicode="&#xf5;" horiz-adv-x="655" 
d="M277 1038q18 74 53 117q43 53 109 53q27 0 67 -18l149 -82q39 -18 64 -18q59 0 91 75l43 33q-23 -73 -58 -117q-46 -57 -110 -57q-31 0 -74 18q-30 13 -78 40l-37 22q-21 12 -34 18q-36 19 -56 19q-62 0 -90 -70zM-84 61q-26 62 -26 150q0 220 141 412q130 178 338 280
q115 57 177 -8q55 -57 55 -180q0 -195 -110 -374q-106 -171 -279 -275l-91 -56q-63 -35 -94 -35q-76 0 -111 86zM104 142q58 -36 133 3q82 41 134 150q61 126 62 309q0 150 -60 193q-55 38 -134 -23q-80 -63 -134 -190q-61 -143 -61 -308q0 -96 60 -134z" />
    <glyph glyph-name="uni1ECD" unicode="&#x1ecd;" horiz-adv-x="655" 
d="M-84 61q-26 62 -26 150q0 220 141 412q130 178 338 280q115 57 177 -8q55 -57 55 -180q0 -195 -110 -374q-106 -171 -279 -275l-91 -56q-63 -35 -94 -35q-76 0 -111 86zM104 142q58 -36 133 3q82 41 134 150q61 126 62 309q0 150 -60 193q-55 38 -134 -23
q-80 -63 -134 -190q-61 -143 -61 -308q0 -96 60 -134zM102 -242q-72 -5 -176 -27q11 22 35 93l23 67l68 10q10 1 12 2q7 1 13 1l87 14z" />
    <glyph glyph-name="ocircumflex" unicode="&#xf4;" horiz-adv-x="655" 
d="M447 1214q-61 -81 -145 -223l-54 -12l100 144q57 86 89 145l25 21q17 14 26 26q10 -49 41 -148q26 -85 57 -176q-29 -8 -55 -30q-22 80 -47 150zM-84 61q-26 62 -26 150q0 220 141 412q130 178 338 280q115 57 177 -8q55 -57 55 -180q0 -195 -110 -374
q-106 -171 -279 -275l-91 -56q-63 -35 -94 -35q-76 0 -111 86zM104 142q58 -36 133 3q82 41 134 150q61 126 62 309q0 150 -60 193q-55 38 -134 -23q-80 -63 -134 -190q-61 -143 -61 -308q0 -96 60 -134z" />
    <glyph glyph-name="uni1ED3" unicode="&#x1ed3;" horiz-adv-x="663" 
d="M629 1270l-79 41l-239 129q2 19 7 33l4 11l5 10q5 12 8 22q4 15 5 37q55 -57 135 -124l146 -122q1 -1 4 -17zM491 341q-106 -171 -279 -275l-91 -56q-63 -35 -94 -35q-76 0 -111 86q-26 62 -26 150q0 220 141 412q130 178 338 280q115 57 177 -8q55 -57 55 -180
q0 -195 -110 -374zM373 797q-55 38 -134 -23q-80 -63 -134 -190q-61 -143 -61 -308q0 -96 60 -134q58 -36 133 3q82 41 134 150q61 126 62 309q0 150 -60 193zM447 1214q-61 -81 -145 -223l-54 -12l100 144q57 86 89 145l25 21q17 14 26 26q10 -49 41 -148q26 -85 57 -176
q-29 -8 -55 -30q-22 80 -47 150z" />
    <glyph glyph-name="uni1ED1" unicode="&#x1ed1;" horiz-adv-x="655" 
d="M-84 61q-26 62 -26 150q0 220 141 412q130 178 338 280q115 57 177 -8q55 -57 55 -180q0 -195 -110 -374q-106 -171 -279 -275l-91 -56q-63 -35 -94 -35q-76 0 -111 86zM104 142q58 -36 133 3q82 41 134 150q61 126 62 309q0 150 -60 193q-55 38 -134 -23
q-80 -63 -134 -190q-61 -143 -61 -308q0 -96 60 -134zM837 1422q18 -8 29 -17l9 -8l8 -8q9 -9 18 -15q12 -10 32 -19q-41 -17 -102 -48q-49 -24 -108 -57l-120 -67l-38 4l104 88l90 78zM447 1214q-61 -81 -145 -223l-54 -12l100 144q57 86 89 145l25 21q17 14 26 26
q10 -49 41 -148q26 -85 57 -176q-29 -8 -55 -30q-22 80 -47 150z" />
    <glyph glyph-name="uni1ED5" unicode="&#x1ed5;" horiz-adv-x="655" 
d="M-84 61q-26 62 -26 150q0 220 141 412q130 178 338 280q115 57 177 -8q55 -57 55 -180q0 -195 -110 -374q-106 -171 -279 -275l-91 -56q-63 -35 -94 -35q-76 0 -111 86zM104 142q58 -36 133 3q82 41 134 150q61 126 62 309q0 150 -60 193q-55 38 -134 -23
q-80 -63 -134 -190q-61 -143 -61 -308q0 -96 60 -134zM657 1544q-23 -2 -41 -15q-14 -11 -26 -28q-8 -13 -13 -28q-4 -10 -4 -12h-22l18 80l12 5q53 23 74 26q26 4 49 4q62 0 100 -36q34 -27 35 -68q0 -37 -33 -70l-16 -16l-60 -50q-27 -26 -47 -53q-16 -22 -26 -44
q-7 -16 -11 -30q-1 -5 -1 -8l-1 -3q-6 -3 -17 -5l-21 -2q-28 -4 -36 -13q1 34 38 74q14 14 42 39q4 4 12 11l41 37q26 26 43 60q14 31 14 54q2 44 -20 67q-26 28 -84 24h1zM447 1214q-61 -81 -145 -223l-54 -12l100 144q57 86 89 145l25 21q17 14 26 26q10 -49 41 -148
q26 -85 57 -176q-29 -8 -55 -30q-22 80 -47 150z" />
    <glyph glyph-name="uni1ED7" unicode="&#x1ed7;" horiz-adv-x="655" 
d="M267 1289q18 74 53 117q43 53 109 53q27 0 67 -18l149 -82q39 -18 64 -18q59 0 91 75l43 33q-23 -73 -58 -117q-46 -57 -110 -57q-31 0 -74 18q-30 13 -78 40l-37 22q-21 12 -34 18q-36 19 -56 19q-62 0 -90 -70zM-84 61q-26 62 -26 150q0 220 141 412q130 178 338 280
q115 57 177 -8q55 -57 55 -180q0 -195 -110 -374q-106 -171 -279 -275l-91 -56q-63 -35 -94 -35q-76 0 -111 86zM104 142q58 -36 133 3q82 41 134 150q61 126 62 309q0 150 -60 193q-55 38 -134 -23q-80 -63 -134 -190q-61 -143 -61 -308q0 -96 60 -134zM447 1214
q-61 -81 -145 -223l-54 -12l100 144q57 86 89 145l25 21q17 14 26 26q10 -49 41 -148q26 -85 57 -176q-29 -8 -55 -30q-22 80 -47 150z" />
    <glyph glyph-name="uni1ED9" unicode="&#x1ed9;" horiz-adv-x="655" 
d="M-84 61q-26 62 -26 150q0 220 141 412q130 178 338 280q115 57 177 -8q55 -57 55 -180q0 -195 -110 -374q-106 -171 -279 -275l-91 -56q-63 -35 -94 -35q-76 0 -111 86zM104 142q58 -36 133 3q82 41 134 150q61 126 62 309q0 150 -60 193q-55 38 -134 -23
q-80 -63 -134 -190q-61 -143 -61 -308q0 -96 60 -134zM102 -242q-72 -5 -176 -27q11 22 35 93l23 67l68 10q10 1 12 2q7 1 13 1l87 14zM447 1214q-61 -81 -145 -223l-54 -12l100 144q57 86 89 145l25 21q17 14 26 26q10 -49 41 -148q26 -85 57 -176q-29 -8 -55 -30
q-22 80 -47 150z" />
    <glyph glyph-name="glyph216" unicode="&#xf9;" horiz-adv-x="1011" 
d="M712 163q103 111 143 204l-27 -113q-41 -87 -165 -187q-124 -99 -187 -96q-42 1 -43 64q0 50 27 142l75 214q10 27 13 37l-103 -131q-73 -90 -137 -153q-82 -82 -152 -124q-84 -51 -151 -47q-56 5 -43 108q10 84 65 231q22 59 52 128l118 265q41 101 -69 36l-86 -58
l-54 -40l33 76q0 1 39 30q21 16 43 31l53 36q66 42 121 65q68 30 115 28q42 -2 16 -95q-10 -39 -34 -98l-51 -118l-110 -249q-54 -133 -55 -191q-1 -78 82 -2q72 67 183 224q105 148 182 285q81 147 76 187l99 16q110 22 161 47q-71 -80 -168 -305q-101 -238 -146 -444
q-24 -121 85 -3zM437 1212q2 20 6 34l16 44l5 37q56 -56 138 -120l148 -115q2 -2 6 -18q5 -16 5 -19l-243 120z" />
    <glyph glyph-name="glyph217" unicode="&#xfa;" horiz-adv-x="1011" 
d="M730 1284l10 -6l9 -6q12 -8 21 -12q14 -7 36 -13q-64 -42 -147 -111l-144 -120q-2 -2 -18 -3l-21 -1l54 71l115 142l54 71q18 -5 31 -12zM712 163q103 111 143 204l-27 -113q-41 -87 -165 -187q-124 -99 -187 -96q-42 1 -43 64q0 50 27 142l75 214q10 27 13 37l-103 -131
q-73 -90 -137 -153q-82 -82 -152 -124q-84 -51 -151 -47q-56 5 -43 108q10 84 65 231q22 59 52 128l118 265q41 101 -69 36l-86 -58l-54 -40l33 76q0 1 39 30q21 16 43 31l53 36q66 42 121 65q68 30 115 28q42 -2 16 -95q-10 -39 -34 -98l-51 -118l-110 -249
q-54 -133 -55 -191q-1 -78 82 -2q72 67 183 224q105 148 182 285q81 147 76 187l99 16q110 22 161 47q-71 -80 -168 -305q-101 -238 -146 -444q-24 -121 85 -3z" />
    <glyph glyph-name="uni1EE7" unicode="&#x1ee7;" horiz-adv-x="940" 
d="M700 163q105 113 141 204q0 -6 -3 -27q-3 -16 -9 -41l-12 -55q-69 -105 -169 -189q-116 -98 -183 -84q-56 11 -35 135q8 51 27 121q16 54 40 123l58 164q-60 -97 -118 -178q-73 -102 -141 -177q-80 -88 -152 -135q-82 -53 -150 -51q-45 2 -31 105q12 84 61 231l46 127
l108 266q41 102 -66 38q-34 -20 -83 -57l-52 -40l33 76l81 54q54 35 99 60q122 70 189 76q39 4 12 -88q-11 -38 -35 -98l-105 -246l-52 -125q-53 -136 -54 -194q0 -77 82 8q51 51 127 157q67 92 142 209q159 248 182 320q63 12 105 27l87 34l-76 -175q-38 -93 -69 -179
q-67 -193 -109 -393q-26 -122 84 -3zM627 1383q-23 -2 -41 -15q-14 -11 -26 -28q-8 -13 -13 -28q-4 -10 -4 -12h-22l18 80l12 5q53 23 74 26q26 4 49 4q62 0 100 -36q34 -27 35 -68q0 -37 -33 -70l-16 -16l-60 -50q-27 -26 -47 -53q-16 -22 -26 -44q-7 -16 -11 -30
q-1 -5 -1 -8l-1 -3q-6 -3 -17 -5l-21 -2q-28 -4 -36 -13q1 34 38 74q14 14 42 39q4 4 12 11l41 37q26 26 43 60q14 31 14 54q2 44 -20 67q-26 28 -84 24h1z" />
    <glyph glyph-name="utilde" unicode="&#x169;" horiz-adv-x="940" 
d="M700 163q105 113 141 204q0 -6 -3 -27q-3 -16 -9 -41l-12 -55q-69 -105 -169 -189q-116 -98 -183 -84q-56 11 -35 135q8 51 27 121q16 54 40 123l58 164q-60 -97 -118 -178q-73 -102 -141 -177q-80 -88 -152 -135q-82 -53 -150 -51q-45 2 -31 105q12 84 61 231l46 127
l108 266q41 102 -66 38q-34 -20 -83 -57l-52 -40l33 76l81 54q54 35 99 60q122 70 189 76q39 4 12 -88q-11 -38 -35 -98l-105 -246l-52 -125q-53 -136 -54 -194q0 -77 82 8q51 51 127 157q67 92 142 209q159 248 182 320q63 12 105 27l87 34l-76 -175q-38 -93 -69 -179
q-67 -193 -109 -393q-26 -122 84 -3zM378 1038q18 74 53 117q43 53 109 53q27 0 67 -18l149 -82q39 -18 64 -18q59 0 91 75l43 33q-23 -73 -58 -117q-47 -57 -110 -57q-31 0 -74 18q-30 13 -78 40l-37 22q-21 12 -34 18q-36 19 -56 19q-62 0 -90 -70z" />
    <glyph glyph-name="uni1EE5" unicode="&#x1ee5;" horiz-adv-x="940" 
d="M700 163q105 113 141 204q0 -6 -3 -27q-3 -16 -9 -41l-12 -55q-69 -105 -169 -189q-116 -98 -183 -84q-56 11 -35 135q8 51 27 121q16 54 40 123l58 164q-60 -97 -118 -178q-73 -102 -141 -177q-80 -88 -152 -135q-82 -53 -150 -51q-45 2 -31 105q12 84 61 231l46 127
l108 266q41 102 -66 38q-34 -20 -83 -57l-52 -40l33 76l81 54q54 35 99 60q122 70 189 76q39 4 12 -88q-11 -38 -35 -98l-105 -246l-52 -125q-53 -136 -54 -194q0 -77 82 8q51 51 127 157q67 92 142 209q159 248 182 320q63 12 105 27l87 34l-76 -175q-38 -93 -69 -179
q-67 -193 -109 -393q-26 -122 84 -3zM283 -242q-72 -5 -176 -27q10 22 35 93l23 67l68 10q10 1 12 2q7 1 13 1l87 14z" />
    <glyph glyph-name="uhorn" unicode="&#x1b0;" horiz-adv-x="940" 
d="M786 718q-33 -82 -60 -159q-68 -193 -110 -393q-26 -122 84 -3q105 113 141 204q0 -6 -3 -27q-3 -16 -9 -41l-12 -55q-69 -105 -169 -189q-116 -98 -183 -84q-56 11 -35 135q8 51 27 121q16 54 40 123l58 164q-60 -97 -118 -178q-73 -102 -141 -177q-80 -88 -152 -135
q-81 -53 -150 -51q-45 2 -31 105q12 84 61 231l46 127l108 266q41 102 -66 38q-34 -20 -83 -57l-52 -40l33 76l81 54q54 35 99 60q122 70 189 76q39 4 12 -88q-11 -38 -35 -98l-105 -246q-32 -75 -51 -125q-53 -136 -55 -194q0 -77 82 8q51 51 127 157q67 92 142 209
q159 248 182 320q63 12 105 27l87 34l-76 -175l-2 -6q49 49 92 121q44 87 53 166q46 -4 92 6l66 11l-30 -51q-43 -65 -106 -135q-86 -93 -173 -132z" />
    <glyph glyph-name="uni1EEB" unicode="&#x1eeb;" horiz-adv-x="1011" 
d="M712 163q103 111 143 204l-27 -113q-41 -87 -165 -187q-124 -99 -187 -96q-42 1 -43 64q0 50 27 142l75 214q10 27 13 37l-103 -131q-73 -90 -137 -153q-82 -82 -152 -124q-84 -51 -151 -47q-56 5 -43 108q10 84 65 231q22 59 52 128l118 265q41 101 -69 36l-86 -58
l-54 -40l33 76q0 1 39 30q21 16 43 31l53 36q66 42 121 65q68 30 115 28q42 -2 16 -95q-10 -39 -34 -98l-51 -118l-110 -249q-54 -133 -55 -191q-1 -78 82 -2q72 67 183 224q105 148 182 285q81 147 76 187l99 16q110 22 161 47q-71 -80 -168 -305q-101 -238 -146 -444
q-24 -121 85 -3zM437 1212q2 20 6 34l16 44l5 37q56 -56 138 -120l148 -115q2 -2 6 -18q5 -16 5 -19l-243 120zM825 726q53 50 99 127q44 87 53 166q46 -4 92 6l66 11l-30 -51q-43 -65 -106 -135q-89 -97 -180 -135z" />
    <glyph glyph-name="uni1EE9" unicode="&#x1ee9;" horiz-adv-x="1011" 
d="M730 1284l10 -6l9 -6q12 -8 21 -12q14 -7 36 -13q-64 -42 -147 -111l-144 -120q-2 -2 -18 -3l-21 -1l54 71l115 142l54 71q18 -5 31 -12zM824 722q-25 -51 -51 -112q-101 -238 -146 -444q-24 -121 85 -3q103 111 143 204l-27 -113q-41 -87 -165 -187q-124 -99 -187 -96
q-42 1 -43 64q0 50 27 142l75 214q10 27 13 37l-103 -131q-73 -90 -137 -153q-82 -82 -152 -124q-84 -51 -151 -47q-56 5 -43 108q10 84 65 231q22 59 52 128l118 265q41 101 -69 36l-86 -58l-54 -40l33 76q0 1 39 30q21 16 43 31l53 36q66 42 121 65q68 30 115 28
q42 -2 16 -95q-10 -39 -34 -98l-51 -118l-110 -249q-54 -133 -55 -191q-1 -78 82 -2q72 67 183 224q105 148 182 285q81 147 76 187l99 16q110 22 161 47q-46 -52 -104 -167q41 44 77 105q44 87 53 166q46 -4 92 6l66 11l-30 -51q-43 -65 -106 -135q-82 -89 -165 -128z" />
    <glyph glyph-name="uni1EED" unicode="&#x1eed;" horiz-adv-x="940" 
d="M627 1383q-23 -2 -41 -15q-14 -11 -26 -28q-8 -13 -13 -28q-4 -10 -4 -12h-22l18 80l12 5q53 23 74 26q26 4 49 4q62 0 100 -36q34 -27 35 -68q0 -37 -33 -70l-16 -16l-60 -50q-27 -26 -47 -53q-16 -22 -26 -44q-7 -16 -11 -30q-1 -5 -1 -8l-1 -3q-6 -3 -17 -5l-21 -2
q-28 -4 -36 -13q1 34 38 74q14 14 42 39q4 4 12 11l41 37q26 26 43 60q14 31 14 54q2 44 -20 67q-26 28 -84 24h1zM786 718q-33 -82 -60 -159q-68 -193 -110 -393q-26 -122 84 -3q105 113 141 204q0 -6 -3 -27q-3 -16 -9 -41l-12 -55q-69 -105 -169 -189q-116 -98 -183 -84
q-56 11 -35 135q8 51 27 121q16 54 40 123l58 164q-60 -97 -118 -178q-73 -102 -141 -177q-80 -88 -152 -135q-81 -53 -150 -51q-45 2 -31 105q12 84 61 231l46 127l108 266q41 102 -66 38q-34 -20 -83 -57l-52 -40l33 76l81 54q54 35 99 60q122 70 189 76q39 4 12 -88
q-11 -38 -35 -98l-105 -246q-32 -75 -51 -125q-53 -136 -55 -194q0 -77 82 8q51 51 127 157q67 92 142 209q159 248 182 320q63 12 105 27l87 34l-76 -175l-2 -6q49 49 92 121q44 87 53 166q46 -4 92 6l66 11l-30 -51q-43 -65 -106 -135q-86 -93 -173 -132z" />
    <glyph glyph-name="uni1EEF" unicode="&#x1eef;" horiz-adv-x="940" 
d="M378 1038q18 74 53 117q43 53 109 53q27 0 67 -18l149 -82q39 -18 64 -18q59 0 91 75l43 33q-23 -73 -58 -117q-46 -57 -110 -57q-31 0 -74 18q-30 13 -78 40l-37 22q-21 12 -34 18q-36 19 -56 19q-62 0 -90 -70zM786 718q-33 -82 -60 -159q-68 -193 -110 -393
q-26 -122 84 -3q105 113 141 204q0 -6 -3 -27q-3 -16 -9 -41l-12 -55q-69 -105 -169 -189q-116 -98 -183 -84q-56 11 -35 135q8 51 27 121q16 54 40 123l58 164q-60 -97 -118 -178q-73 -102 -141 -177q-80 -88 -152 -135q-81 -53 -150 -51q-45 2 -31 105q12 84 61 231
l46 127l108 266q41 102 -66 38q-34 -20 -83 -57l-52 -40l33 76l81 54q54 35 99 60q122 70 189 76q39 4 12 -88q-11 -38 -35 -98l-105 -246q-32 -75 -51 -125q-53 -136 -55 -194q0 -77 82 8q51 51 127 157q67 92 142 209q159 248 182 320q63 12 105 27l87 34l-76 -175l-2 -6
q49 49 92 121q44 87 53 166q46 -4 92 6l66 11l-30 -51q-43 -65 -106 -135q-86 -93 -173 -132z" />
    <glyph glyph-name="uni1EF1" unicode="&#x1ef1;" horiz-adv-x="940" 
d="M283 -242q-72 -5 -176 -27q11 22 35 93l23 67l68 10q10 1 12 2q7 1 13 1l87 14zM786 718q-33 -82 -60 -159q-68 -193 -110 -393q-26 -122 84 -3q105 113 141 204q0 -6 -3 -27q-3 -16 -9 -41l-12 -55q-69 -105 -169 -189q-116 -98 -183 -84q-56 11 -35 135q8 51 27 121
q16 54 40 123l58 164q-60 -97 -118 -178q-73 -102 -141 -177q-80 -88 -152 -135q-81 -53 -150 -51q-45 2 -31 105q12 84 61 231l46 127l108 266q41 102 -66 38q-34 -20 -83 -57l-52 -40l33 76l81 54q54 35 99 60q122 70 189 76q39 4 12 -88q-11 -38 -35 -98l-105 -246
q-32 -75 -51 -125q-53 -136 -55 -194q0 -77 82 8q51 51 127 157q67 92 142 209q159 248 182 320q63 12 105 27l87 34l-76 -175l-2 -6q49 49 92 121q44 87 53 166q46 -4 92 6l66 11l-30 -51q-43 -65 -106 -135q-86 -93 -173 -132z" />
    <glyph glyph-name="ohorn" unicode="&#x1a1;" horiz-adv-x="655" 
d="M104 142q58 -36 133 3q82 41 134 150q61 126 62 309q0 150 -60 193q-55 38 -134 -23q-80 -63 -134 -190q-61 -143 -61 -308q0 -96 60 -134zM601 718v-3q0 -195 -110 -374q-106 -171 -279 -275l-91 -56q-63 -35 -94 -35q-76 0 -111 86q-26 62 -26 150q0 220 141 412
q130 178 338 280q115 57 177 -8q45 -47 53 -138q23 30 44 65q44 87 53 166q46 -4 92 6l66 11l-30 -51q-43 -65 -106 -135q-58 -63 -117 -101z" />
    <glyph glyph-name="uni1EDD" unicode="&#x1edd;" horiz-adv-x="663" 
d="M609 999l-79 41l-239 129q2 19 7 33l4 11l5 10q5 12 8 22q4 15 5 37q55 -57 135 -124l146 -122q1 -1 4 -17zM373 797q-55 38 -134 -23q-80 -63 -134 -190q-61 -143 -61 -308q0 -96 60 -134q58 -36 133 3q82 41 134 150q61 126 62 309q0 150 -60 193zM598 767q3 -24 3 -52
q0 -195 -110 -374q-106 -171 -279 -275l-91 -56q-63 -35 -94 -35q-76 0 -111 86q-26 62 -26 150q0 220 141 412q130 178 338 280q115 57 177 -8q29 -30 43 -80q12 18 24 38q44 87 53 166q46 -4 92 6l66 11l-30 -51q-43 -65 -106 -135q-45 -49 -90 -83z" />
    <glyph glyph-name="uni1EDB" unicode="&#x1edb;" horiz-adv-x="655" 
d="M104 142q58 -36 133 3q82 41 134 150q61 126 62 309q0 150 -60 193q-55 38 -134 -23q-80 -63 -134 -190q-61 -143 -61 -308q0 -96 60 -134zM486 1251q18 -8 29 -17l9 -8l8 -8q9 -9 18 -15q12 -10 32 -19q-41 -17 -102 -48q-49 -24 -108 -57l-120 -67l-38 4l104 88l90 78z
M601 718v-3q0 -195 -110 -374q-106 -171 -279 -275l-91 -56q-63 -35 -94 -35q-76 0 -111 86q-26 62 -26 150q0 220 141 412q130 178 338 280q115 57 177 -8q45 -47 53 -138q23 30 44 65q44 87 53 166q46 -4 92 6l66 11l-30 -51q-43 -65 -106 -135q-58 -63 -117 -101z" />
    <glyph glyph-name="uni1EDF" unicode="&#x1edf;" horiz-adv-x="655" 
d="M104 142q58 -36 133 3q82 41 134 150q61 126 62 309q0 150 -60 193q-55 38 -134 -23q-80 -63 -134 -190q-61 -143 -61 -308q0 -96 60 -134zM466 1383q-23 -2 -41 -15q-14 -11 -26 -28q-8 -13 -13 -28q-4 -10 -4 -12h-22l18 80l12 5q53 23 74 26q26 4 49 4q62 0 100 -36
q34 -27 35 -68q0 -37 -33 -70l-16 -16l-60 -50q-27 -26 -47 -53q-16 -22 -26 -44q-7 -16 -11 -30q-1 -5 -1 -8l-1 -3q-6 -3 -17 -5l-21 -2q-28 -4 -36 -13q1 34 38 74q14 14 42 39q4 4 12 11l41 37q26 26 43 60q14 31 14 54q2 44 -20 67q-26 28 -84 24h1zM601 718v-3
q0 -195 -110 -374q-106 -171 -279 -275l-91 -56q-63 -35 -94 -35q-76 0 -111 86q-26 62 -26 150q0 220 141 412q130 178 338 280q115 57 177 -8q45 -47 53 -138q23 30 44 65q44 87 53 166q46 -4 92 6l66 11l-30 -51q-43 -65 -106 -135q-58 -63 -117 -101z" />
    <glyph glyph-name="uni1EE1" unicode="&#x1ee1;" horiz-adv-x="655" 
d="M277 1038q18 74 53 117q43 53 109 53q27 0 67 -18l149 -82q39 -18 64 -18q59 0 91 75l43 33q-23 -73 -58 -117q-46 -57 -110 -57q-31 0 -74 18q-30 13 -78 40l-37 22q-21 12 -34 18q-36 19 -56 19q-62 0 -90 -70zM104 142q58 -36 133 3q82 41 134 150q61 126 62 309
q0 150 -60 193q-55 38 -134 -23q-80 -63 -134 -190q-61 -143 -61 -308q0 -96 60 -134zM601 718v-3q0 -195 -110 -374q-106 -171 -279 -275l-91 -56q-63 -35 -94 -35q-76 0 -111 86q-26 62 -26 150q0 220 141 412q130 178 338 280q115 57 177 -8q45 -47 53 -138q23 30 44 65
q44 87 53 166q46 -4 92 6l66 11l-30 -51q-43 -65 -106 -135q-58 -63 -117 -101z" />
    <glyph glyph-name="uni1EE3" unicode="&#x1ee3;" horiz-adv-x="655" 
d="M104 142q58 -36 133 3q82 41 134 150q61 126 62 309q0 150 -60 193q-55 38 -134 -23q-80 -63 -134 -190q-61 -143 -61 -308q0 -96 60 -134zM102 -242q-72 -5 -176 -27q11 22 35 93l23 67l68 10q10 1 12 2q7 1 13 1l87 14zM601 718v-3q0 -195 -110 -374
q-106 -171 -279 -275l-91 -56q-63 -35 -94 -35q-76 0 -111 86q-26 62 -26 150q0 220 141 412q130 178 338 280q115 57 177 -8q45 -47 53 -138q23 30 44 65q44 87 53 166q46 -4 92 6l66 11l-30 -51q-43 -65 -106 -135q-58 -63 -117 -101z" />
    <glyph glyph-name="ygrave" unicode="&#x1ef3;" horiz-adv-x="884" 
d="M611 854q14 4 52 19l228 100q14 5 10 -19q-11 -71 -55 -143q-175 -311 -475 -759q-156 -232 -276 -391q-136 -182 -207 -243q77 -24 117 -19q62 7 124 71l-14 -35q-57 -62 -125 -68q-22 -2 -55 2l-51 4h-75q-41 -1 -71 -4q-75 -9 -137 -43l6 25q106 27 233 142
q54 50 111 114q51 57 102 124q44 57 87 121l68 102q61 95 61 99q17 287 -13 505q-35 254 -120 255q-59 0 -91 -108l-4 81q55 83 107 117q62 42 141 31q55 -17 92 -100q32 -71 48 -186q29 -212 -1 -384l52 77l68 109l85 132q86 122 88 203q3 91 -121 26zM312 1212q2 20 7 34
l15 44l5 37q56 -56 138 -120l149 -115q1 -2 6 -18q4 -16 4 -19l-243 120z" />
    <glyph glyph-name="glyph234" unicode="&#xfd;" horiz-adv-x="884" 
d="M750 1243l10 -6l9 -6q12 -8 21 -12q14 -7 36 -13q-64 -42 -146 -111l-145 -120q-1 -2 -18 -3l-21 -1l54 71l115 142l54 71q18 -5 31 -12zM611 854q14 4 52 19l228 100q23 9 0 -60q-20 -59 -45 -102q-175 -311 -475 -759q-156 -232 -276 -391q-136 -182 -207 -243
q77 -24 117 -19q62 7 124 71l-14 -35q-80 -86 -157 -112q-59 -19 -130 -6l-115 25q-64 10 -112 -16l6 25q89 15 212 124q100 89 215 232q90 113 167 230q68 102 68 116q17 287 -13 505q-35 254 -120 255q-59 0 -91 -108l-4 81q55 83 107 117q62 42 141 31q55 -17 92 -100
q32 -71 48 -186q29 -212 -1 -384l52 77l68 109l85 132q86 122 88 203q3 91 -121 26z" />
    <glyph glyph-name="uni1EF7" unicode="&#x1ef7;" horiz-adv-x="884" 
d="M611 854q14 4 52 19l228 100q14 5 10 -19q-11 -71 -55 -143q-175 -311 -475 -759q-156 -232 -276 -391q-136 -182 -207 -243q77 -24 117 -19q62 7 124 71l-14 -35q-57 -62 -125 -68q-22 -2 -55 2l-51 4h-75q-41 -1 -71 -4q-75 -9 -137 -43l6 25q106 27 233 142
q54 50 111 114q51 57 102 124q44 57 87 121l68 102q61 95 61 99q17 287 -13 505q-35 254 -120 255q-59 0 -91 -108l-4 81q55 83 107 117q62 42 141 31q55 -17 92 -100q32 -71 48 -186q29 -212 -1 -384l52 77l68 109l85 132q86 122 88 203q3 91 -121 26zM602 1383
q-22 -2 -40 -15q-15 -11 -26 -28q-8 -13 -14 -28q-4 -10 -4 -12h-22l19 80l11 5q54 23 74 26q26 4 50 4q61 0 99 -36q35 -27 35 -68q1 -37 -33 -70q-6 -7 -16 -16l-59 -50q-28 -26 -48 -53q-15 -22 -25 -44q-8 -16 -11 -30q-1 -5 -2 -8v-3q-6 -3 -18 -5l-21 -2
q-27 -4 -36 -13q1 34 38 74q14 14 42 39q4 4 13 11l40 37q27 26 43 60q15 31 15 54q1 44 -21 67q-26 28 -84 24h1z" />
    <glyph glyph-name="uni1EF9" unicode="&#x1ef9;" horiz-adv-x="884" 
d="M611 854q14 4 52 19l228 100q14 5 10 -19q-11 -71 -55 -143q-175 -311 -475 -759q-156 -232 -276 -391q-136 -182 -207 -243q77 -24 117 -19q62 7 124 71l-14 -35q-57 -62 -125 -68q-22 -2 -55 2l-51 4h-75q-41 -1 -71 -4q-75 -9 -137 -43l6 25q106 27 233 142
q54 50 111 114q51 57 102 124q44 57 87 121l68 102q61 95 61 99q17 287 -13 505q-35 254 -120 255q-59 0 -91 -108l-4 81q55 83 107 117q62 42 141 31q55 -17 92 -100q32 -71 48 -186q29 -212 -1 -384l52 77l68 109l85 132q86 122 88 203q3 91 -121 26zM277 1038
q18 74 53 117q43 53 109 53q27 0 67 -18l149 -82q40 -18 65 -18q58 0 90 75l43 33q-23 -73 -58 -117q-46 -57 -110 -57q-31 0 -74 18q-30 13 -78 40l-37 22q-20 12 -34 18q-36 19 -56 19q-62 0 -90 -70z" />
    <glyph glyph-name="uni1EF5" unicode="&#x1ef5;" horiz-adv-x="884" 
d="M611 854q14 4 52 19l228 100q14 5 10 -19q-11 -71 -55 -143q-175 -311 -475 -759q-156 -232 -276 -391q-136 -182 -207 -243q77 -24 117 -19q62 7 124 71l-14 -35q-57 -62 -125 -68q-22 -2 -55 2l-51 4h-75q-41 -1 -71 -4q-75 -9 -137 -43l6 25q106 27 233 142
q54 50 111 114q51 57 102 124q44 57 87 121l68 102q61 95 61 99q17 287 -13 505q-35 254 -120 255q-59 0 -91 -108l-4 81q55 83 107 117q62 42 141 31q55 -17 92 -100q32 -71 48 -186q29 -212 -1 -384l52 77l68 109l85 132q86 122 88 203q3 91 -121 26zM490 -242
q-73 -5 -176 -27q10 22 34 93l23 67l69 10q9 1 12 2q7 1 12 1l87 14z" />
    <glyph glyph-name="divide" unicode="&#xf7;" horiz-adv-x="1706" 
 />
    <glyph glyph-name="ugrave" horiz-adv-x="582" 
 />
    <glyph glyph-name="uacute" horiz-adv-x="580" 
 />
    <glyph glyph-name="yacute" horiz-adv-x="629" 
 />
    <glyph glyph-name="Ccaron" unicode="&#x10c;" horiz-adv-x="1274" 
 />
    <glyph glyph-name="ccaron" unicode="&#x10d;" horiz-adv-x="922" 
 />
    <glyph glyph-name="Dslash" unicode="&#x110;" horiz-adv-x="1902" 
d="M315 549l154 121l30 3l59 3q43 1 103 2l33 137q24 111 38 283q13 162 5 200l289 152l-7 -16q-11 -12 -22 -28q-14 -22 -27 -55q-36 -83 -67 -231q-12 -57 -28 -165q-2 -10 -4 -22l-22 -147l-14 -68l-8 -40l293 -4l-96 -107q-19 3 -59 3l-75 -2l-92 -5q-38 -124 -92 -209
q-45 -71 -107 -121q-44 -34 -116 -72l-115 -63q53 23 176 29q97 4 245 -1l180 -8q37 -2 53 -3q114 -5 141 -2q136 16 249 128q102 101 171 265q80 191 91 398q10 212 -59 345q-72 140 -210 219q-124 72 -269 78q-564 31 -799 -336q-74 -115 -112 -224q-44 -124 16 -103
l-12 -13q-18 -7 -54 -28q-30 -16 -70 -40l-85 -52q51 432 441 682q190 122 423 161q246 41 508 -16q244 -53 365 -229q112 -164 96 -396q-25 -372 -292 -660q-135 -145 -303 -224q-183 -85 -384 -80q-30 0 -82 5q-11 1 -24 3q-10 1 -25 2l-169 16q-66 5 -120 5
q-135 1 -221 -26q-105 -34 -143 -110l-2 39q36 53 85 96q39 33 94 68l96 57q56 35 93 66q97 83 174 354z" />
    <glyph glyph-name="dcroat" unicode="&#x111;" horiz-adv-x="872" 
d="M168 231q46 47 109 131q56 75 117 167q125 192 155 268q0 1 -45 4q-25 2 -50 2q-32 0 -63 -2q-44 3 -94 -47q-87 -84 -165 -267q-74 -175 -71 -266q0 -37 35 -39q23 0 72 49zM720 1229l26 67q47 116 85 198q45 96 76 142q14 19 81 56q54 29 140 70l132 60l59 25l-10 -26
q-17 -8 -44 -26l-11 -7q-6 -4 -10 -6q-12 -8 -21 -13l-25 -9q-5 -2 -8 -4q-10 -4 -20 -11q-14 -9 -31 -25q-18 -15 -53 -67q-31 -47 -31 -49q-83 -144 -175 -370h18q86 0 120 -6l-51 -89q-37 8 -121 8l-54 -143q-38 -104 -75 -216q-148 -445 -164 -567l-16 -94
q-5 -47 20 -47q42 0 118 89q27 33 55 73l38 57l2 -55q1 -8 -13 -30q-12 -19 -33 -46q-40 -51 -67 -78q-47 -48 -110 -85q-74 -44 -123 -44q-38 0 -52 40q-10 25 -10 71q0 48 16 122q12 60 34 134l49 151l-33 -41l-35 -43l-43 -53l-97 -113q-53 -61 -87 -92
q-205 -195 -266 -170q-35 13 -31 103q5 129 79 298q40 90 93 172q58 91 129 162q90 92 194 147q115 62 244 77l59 164q10 26 19 52q-11 0 -22 -1q-72 -3 -152 -9l-66 -5l74 93z" />
    <glyph glyph-name="quoteleft" unicode="&#x2018;" horiz-adv-x="321" 
d="M276 1583q-108 -114 -139 -301q-30 -1 -69 -10l-68 -19q45 105 114 193q81 105 167 147z" />
    <glyph glyph-name="quoteright" unicode="&#x2019;" horiz-adv-x="313" 
d="M237 1245q98 133 105 314q31 4 69 16q25 9 66 27q-35 -108 -94 -204q-70 -112 -150 -165z" />
    <glyph glyph-name="quotedblleft" unicode="&#x201c;" horiz-adv-x="555" 
d="M254 1604q-98 -142 -101 -301q-30 -2 -69 -11l-68 -18q33 104 92 193q69 104 150 147zM479 1583q-93 -111 -101 -301q-30 -1 -67 -10l-66 -19q32 105 89 193q68 105 149 147z" />
    <glyph glyph-name="quotedblright" unicode="&#x201d;" horiz-adv-x="614" 
d="M364 1249q100 145 109 314q32 4 69 17q25 8 66 26q-35 -108 -95 -205q-71 -113 -151 -164zM143 1245q98 133 105 314q31 4 69 16q25 9 66 27q-35 -108 -94 -204q-70 -112 -150 -165z" />
    <glyph glyph-name="ellipsis" unicode="&#x2026;" horiz-adv-x="1044" 
d="M176 -10q-20 -2 -100 -14l-76 -13l55 160l183 27zM498 -10q-21 -1 -101 -14l-75 -13l55 160l182 27zM849 -10q-21 -1 -101 -14l-75 -12l55 160l182 26z" />
  </font>
</defs>
</svg>
